<?xml version="1.0" encoding="UTF-8" standalone="no"?>
<svg width="32px" height="32px" viewBox="0 0 32 32" version="1.1" xmlns="http://www.w3.org/2000/svg" xmlns:xlink="http://www.w3.org/1999/xlink">
    <!-- Generator: Sketch 48.2 (47327) - http://www.bohemiancoding.com/sketch -->
    <title>back-to-home</title>
    <desc>Created with Sketch.</desc>
    <defs></defs>
    <g id="Page-1" stroke="none" stroke-width="1" fill="none" fill-rule="evenodd">
        <g id="back-to-home" fill="#000000">
            <path d="M22.7070009,13.3310285 C23.62893,16.4840261 24.9703168,19.761435 26.7312014,23.1633535 C28.492086,26.565272 30.2483347,29.1143678 32,30.8107174 L30.8107174,32 C28.9852977,30.1745803 26.413154,28.4091125 23.0942092,26.7035436 C19.7752643,24.9979748 16.5116841,23.6750263 13.3033708,22.7346586 C14.9628432,21.5914665 16.6222908,20.1901552 18.2817632,18.5306828 C19.9412356,16.8712104 21.4163001,15.1380096 22.7070009,13.3310285 Z M9.40363008,0 C10.288682,3.07924328 11.6070209,6.32438513 13.3586863,9.7355229 C15.1103516,13.1466607 16.8896481,15.755681 18.6966292,17.5626621 L17.5626621,18.6966292 C15.6634881,16.8343324 13.0682965,15.0596454 9.77700951,13.3725151 C6.48572252,11.6853848 3.22675194,10.3624364 0,9.40363008 C1.82541967,8.16824505 3.59549704,6.65630396 5.31028522,4.86776145 C7.0250734,3.07921895 8.38950804,1.45664802 9.40363008,0 Z" id="𒑲"></path>
        </g>
    </g>
</svg>