<?xml version="1.0" encoding="UTF-8"?>
<svg width="120px" height="120px" viewBox="0 0 120 120" version="1.1" xmlns="http://www.w3.org/2000/svg" xmlns:xlink="http://www.w3.org/1999/xlink">
    <!-- Generator: Sketch 57.1 (83088) - https://sketch.com -->
    <title>info-symbol</title>
    <desc>Created with Sketch.</desc>
    <g id="info-symbol" stroke="none" stroke-width="1" fill="none" fill-rule="evenodd">
        <path d="M87.6757812,40.5429688 L85.390625,40.5429688 C83.5156156,32.4179281 79.6679979,28.3554688 73.8476562,28.3554688 L69.0429688,28.3554688 C68.1054641,35.3476912 67.2851598,45.3085291 66.5820312,58.2382812 C65.9179654,70.3086541 64.9414127,80.0741814 63.6523438,87.5351562 L72.96875,87.4765625 C76.8359568,87.4765625 79.7363185,86.6269616 81.6699219,84.9277344 C83.6035253,83.2285071 85.44921,79.8789312 87.2070312,74.8789062 L89.7265625,74.8789062 L85.9179688,94.8007812 L62.1289062,94.8007812 C61.9335928,95.4257844 61.7578133,96.0312471 61.6015625,96.6171875 C59.9609293,102.046902 57.3730646,106.304672 53.8378906,109.390625 C50.3027167,112.476578 46.2695539,114.019531 41.7382812,114.019531 C39.0429553,114.019531 36.816415,113.443365 35.0585938,112.291016 C33.3007725,111.138666 32.421875,109.683603 32.421875,107.925781 C32.421875,106.988277 32.7246063,106.177738 33.3300781,105.494141 C33.9355499,104.810543 34.6484334,104.46875 35.46875,104.46875 C36.7187562,104.46875 37.9101506,105.074213 39.0429688,106.285156 L41.5625,109.039062 C42.5781301,110.093755 43.632807,110.621094 44.7265625,110.621094 C49.4140859,110.621094 52.5585857,105.347709 54.1601562,94.8007812 L27.5,94.8007812 L53.984375,62.6328125 L28.7890625,23.84375 L61.8945312,23.84375 C62.2070328,22.945308 62.5390607,22.1054727 62.890625,21.3242188 C64.8046971,16.9491969 67.3144376,13.5703244 70.4199219,11.1875 C73.5254062,8.80467559 77.0116994,7.61328125 80.8789062,7.61328125 C83.730483,7.61328125 86.0937406,8.21874395 87.96875,9.4296875 C89.8437594,10.6406311 90.78125,12.1640533 90.78125,14 C90.78125,16.0703229 89.7656352,17.1054688 87.734375,17.1054688 C86.2890553,17.1054688 84.9414125,16.4609439 83.6914062,15.171875 C81.6992088,13.1015521 80.5273455,11.9296889 80.1757812,11.65625 C79.824217,11.3828111 79.2968785,11.2460938 78.59375,11.2460938 C74.7265432,11.2460938 72.0117266,14.2929383 70.4492188,20.3867188 C70.2148426,21.3632861 69.9804699,22.5156184 69.7460938,23.84375 L86.5625,23.7851562 L87.6757812,40.5429688 Z M57.7929688,48.5117188 C58.4570346,40.26949 59.4140563,33.5312762 60.6640625,28.296875 L41.4453125,28.2382812 L57.4414062,52.8476562 L57.7929688,48.5117188 Z M55.625,80.328125 C55.7421881,78.5703037 55.8984365,75.9922045 56.09375,72.59375 C56.2109381,69.7421732 56.3085934,67.5546951 56.3867188,66.03125 L38.984375,87.5351562 L54.9804688,87.5351562 L55.625,80.328125 Z" id="⨋" fill="#000000" fill-rule="nonzero"></path>
    </g>
</svg>