<?xml version="1.0" encoding="UTF-8" standalone="no"?>
<svg width="471px" height="242px" viewBox="0 0 471 242" version="1.1" xmlns="http://www.w3.org/2000/svg" xmlns:xlink="http://www.w3.org/1999/xlink">
    <!-- Generator: Sketch 48.2 (47327) - http://www.bohemiancoding.com/sketch -->
    <title>sysadmin-scheme-ru</title>
    <desc>Created with Sketch.</desc>
    <defs></defs>
    <g id="Page-1" stroke="none" stroke-width="1" fill="none" fill-rule="evenodd">
        <g id="sysadmin-scheme-ru">
            <g transform="translate(0.000000, -2.000000)">
                <g id="XMLID_169_" transform="translate(71.000000, 199.000000)">
                    <g id="XMLID_170_">
                        <path d="M43.2,8.8 C43.2,13.4 33.7,17.1 21.8,17.1 C9.9,17.1 0.4,13.4 0.4,8.8 C0.4,20.9 0.4,20.9 0.4,20.9 C0.4,25.5 9.9,29.2 21.8,29.2 C33.7,29.2 43.2,25.5 43.2,20.9 L43.2,8.8 Z" id="XMLID_178_" fill="#0F6F9C" fill-rule="nonzero"></path>
                        <path d="M43.2,8.8 C43.2,13.4 33.7,17.1 21.8,17.1 C9.9,17.1 0.4,13.4 0.4,8.8 C0.4,20.9 0.4,20.9 0.4,20.9 C0.4,25.5 9.9,29.2 21.8,29.2 C33.7,29.2 43.2,25.5 43.2,20.9 L43.2,8.8 Z" id="XMLID_177_" stroke="#FFFFFF" stroke-width="0.5764"></path>
                        <path d="M21.8,17.1 C33.7,17.1 43.2,13.4 43.2,8.8 C43.2,4.2 33.7,0.5 21.8,0.5 C9.9,0.5 0.4,4.2 0.4,8.8 C0.3,13.4 9.9,17.1 21.8,17.1 Z" id="XMLID_176_" fill="#0F6F9C" fill-rule="nonzero"></path>
                        <path d="M21.8,17.1 C33.7,17.1 43.2,13.4 43.2,8.8 C43.2,4.2 33.7,0.5 21.8,0.5 C9.9,0.5 0.4,4.2 0.4,8.8 C0.3,13.4 9.9,17.1 21.8,17.1 Z" id="XMLID_175_" stroke="#FFFFFF" stroke-width="0.5764"></path>
                        <polygon id="XMLID_174_" fill="#FFFFFF" fill-rule="nonzero" points="16.8 5.7 18.6 8.2 11.9 9.7 13.4 8.5 3.2 6.8 5.8 4.8 15.7 6.5"></polygon>
                        <polygon id="XMLID_173_" fill="#FFFFFF" fill-rule="nonzero" points="26.4 12 24.9 9.4 31 8 30.1 9.1 40 10.8 37.7 12.6 27.5 10.8"></polygon>
                        <polygon id="XMLID_172_" fill="#FFFFFF" fill-rule="nonzero" points="22.9 4.2 29.6 2.5 29.9 5.1 28.1 4.8 24.9 7.7 21.8 7.1 24.9 4.5"></polygon>
                        <polygon id="XMLID_171_" fill="#FFFFFF" fill-rule="nonzero" points="20 14.6 13.7 15.7 13.4 12.6 15.4 13.1 18.9 10 22 10.5 18.3 14"></polygon>
                    </g>
                </g>
                <g id="XMLID_167_" transform="translate(77.000000, 232.000000)" fill="#000000" font-family="Helvetica" font-size="9.75" font-weight="normal">
                    <g id="XMLID_168_">
                        <g id="Group" transform="translate(0.980000, 0.580100)">
                            <text id="s">
                                <tspan x="0" y="10">s</tspan>
                            </text>
                            <text id="e">
                                <tspan x="3.8" y="10">e</tspan>
                            </text>
                            <text id="r">
                                <tspan x="9" y="10">r</tspan>
                            </text>
                            <text id="v">
                                <tspan x="12" y="10">v</tspan>
                            </text>
                            <text id="e">
                                <tspan x="17.3" y="10">e</tspan>
                            </text>
                            <text id="r">
                                <tspan x="21.8" y="10">r</tspan>
                            </text>
                        </g>
                    </g>
                </g>
                <g id="XMLID_165_" transform="translate(103.000000, 232.000000)" fill="#000000" font-family="Helvetica" font-size="9.75" font-weight="normal">
                    <g id="XMLID_166_">
                        <text id="3">
                            <tspan x="0.3799" y="10.5801">3</tspan>
                        </text>
                    </g>
                </g>
                <g id="XMLID_155_" transform="translate(360.000000, 199.000000)">
                    <g id="XMLID_156_">
                        <path d="M43.3,8.8 C43.3,13.4 33.8,17.1 21.9,17.1 C10,17.1 0.5,13.4 0.5,8.8 C0.5,20.9 0.5,20.9 0.5,20.9 C0.5,25.5 10,29.2 21.9,29.2 C33.8,29.2 43.3,25.5 43.3,20.9 L43.3,8.8 Z" id="XMLID_164_" fill="#0F6F9C" fill-rule="nonzero"></path>
                        <path d="M43.3,8.8 C43.3,13.4 33.8,17.1 21.9,17.1 C10,17.1 0.5,13.4 0.5,8.8 C0.5,20.9 0.5,20.9 0.5,20.9 C0.5,25.5 10,29.2 21.9,29.2 C33.8,29.2 43.3,25.5 43.3,20.9 L43.3,8.8 Z" id="XMLID_163_" stroke="#FFFFFF" stroke-width="0.5764"></path>
                        <path d="M21.9,17.1 C33.8,17.1 43.3,13.4 43.3,8.8 C43.3,4.2 33.8,0.5 21.9,0.5 C10,0.5 0.5,4.2 0.5,8.8 C0.5,13.4 10,17.1 21.9,17.1 Z" id="XMLID_162_" fill="#0F6F9C" fill-rule="nonzero"></path>
                        <path d="M21.9,17.1 C33.8,17.1 43.3,13.4 43.3,8.8 C43.3,4.2 33.8,0.5 21.9,0.5 C10,0.5 0.5,4.2 0.5,8.8 C0.5,13.4 10,17.1 21.9,17.1 Z" id="XMLID_161_" stroke="#FFFFFF" stroke-width="0.5764"></path>
                        <polygon id="XMLID_160_" fill="#FFFFFF" fill-rule="nonzero" points="17 5.7 18.7 8.2 12.1 9.7 13.5 8.5 3.4 6.8 6 4.8 15.8 6.5"></polygon>
                        <polygon id="XMLID_159_" fill="#FFFFFF" fill-rule="nonzero" points="26.5 12 25.1 9.4 31.2 8 30.3 9.1 40.1 10.8 37.8 12.6 27.7 10.8"></polygon>
                        <polygon id="XMLID_158_" fill="#FFFFFF" fill-rule="nonzero" points="23.1 4.2 29.7 2.5 30 5.1 28.3 4.8 25.1 7.7 21.9 7.1 25.1 4.5"></polygon>
                        <polygon id="XMLID_157_" fill="#FFFFFF" fill-rule="nonzero" points="20.2 14.6 13.8 15.7 13.5 12.6 15.5 13.1 19 10 22.2 10.5 18.4 14"></polygon>
                    </g>
                </g>
                <g id="XMLID_153_" transform="translate(367.000000, 232.000000)" fill="#000000" font-family="Helvetica" font-size="9.75" font-weight="normal">
                    <g id="XMLID_154_">
                        <g id="Group" transform="translate(0.480500, 0.580100)">
                            <text id="s">
                                <tspan x="0" y="10">s</tspan>
                            </text>
                            <text id="e">
                                <tspan x="3.8" y="10">e</tspan>
                            </text>
                            <text id="r">
                                <tspan x="9" y="10">r</tspan>
                            </text>
                            <text id="v">
                                <tspan x="12" y="10">v</tspan>
                            </text>
                            <text id="e">
                                <tspan x="17.2" y="10">e</tspan>
                            </text>
                            <text id="r">
                                <tspan x="21.7" y="10">r</tspan>
                            </text>
                        </g>
                    </g>
                </g>
                <g id="XMLID_151_" transform="translate(392.000000, 232.000000)" fill="#000000" font-family="Helvetica" font-size="9.75" font-weight="normal">
                    <g id="XMLID_152_">
                        <text id="2">
                            <tspan x="0.8799" y="10.5801">2</tspan>
                        </text>
                    </g>
                </g>
                <g id="XMLID_141_" transform="translate(211.000000, 37.000000)">
                    <g id="XMLID_142_">
                        <path d="M42.9,8.4 C42.9,13 33.4,16.7 21.5,16.7 C9.6,16.7 0.1,13 0.1,8.4 C0.1,20.5 0.1,20.5 0.1,20.5 C0.1,25.1 9.6,28.8 21.5,28.8 C33.4,28.8 42.9,25.1 42.9,20.5 L42.9,8.4 Z" id="XMLID_150_" fill="#0F6F9C" fill-rule="nonzero"></path>
                        <path d="M42.9,8.4 C42.9,13 33.4,16.7 21.5,16.7 C9.6,16.7 0.1,13 0.1,8.4 C0.1,20.5 0.1,20.5 0.1,20.5 C0.1,25.1 9.6,28.8 21.5,28.8 C33.4,28.8 42.9,25.1 42.9,20.5 L42.9,8.4 Z" id="XMLID_149_" stroke="#FFFFFF" stroke-width="0.5764"></path>
                        <path d="M21.5,16.7 C33.4,16.7 42.9,13 42.9,8.4 C42.9,3.8 33.4,0.1 21.5,0.1 C9.6,0.1 0.1,3.8 0.1,8.4 C0.1,13 9.7,16.7 21.5,16.7 Z" id="XMLID_148_" fill="#0F6F9C" fill-rule="nonzero"></path>
                        <path d="M21.5,16.7 C33.4,16.7 42.9,13 42.9,8.4 C42.9,3.8 33.4,0.1 21.5,0.1 C9.6,0.1 0.1,3.8 0.1,8.4 C0.1,13 9.7,16.7 21.5,16.7 Z" id="XMLID_147_" stroke="#FFFFFF" stroke-width="0.5764"></path>
                        <polygon id="XMLID_146_" fill="#FFFFFF" fill-rule="nonzero" points="16.6 5.2 18.4 7.8 11.7 9.2 13.1 8.1 3 6.3 5.6 4.3 15.5 6.1"></polygon>
                        <polygon id="XMLID_145_" fill="#FFFFFF" fill-rule="nonzero" points="26.2 11.5 24.7 8.9 30.8 7.5 29.9 8.6 39.8 10.4 37.4 12.1 27.3 10.4"></polygon>
                        <polygon id="XMLID_144_" fill="#FFFFFF" fill-rule="nonzero" points="22.7 3.8 29.3 2 29.6 4.6 27.9 4.3 24.7 7.2 21.5 6.6 24.7 4.1"></polygon>
                        <polygon id="XMLID_143_" fill="#FFFFFF" fill-rule="nonzero" points="19.8 14.1 13.4 15.2 13.1 12.1 15.2 12.7 18.6 9.5 21.8 10.1 18.1 13.5"></polygon>
                    </g>
                </g>
                <g id="XMLID_139_" transform="translate(217.000000, 69.000000)" fill="#000000" font-family="Helvetica" font-size="9.75" font-weight="normal">
                    <g id="XMLID_140_">
                        <g id="Group" transform="translate(0.919900, 0.969700)">
                            <text id="s">
                                <tspan x="0" y="10">s</tspan>
                            </text>
                            <text id="e">
                                <tspan x="3.8" y="10">e</tspan>
                            </text>
                            <text id="r">
                                <tspan x="9" y="10">r</tspan>
                            </text>
                            <text id="v">
                                <tspan x="12.1" y="10">v</tspan>
                            </text>
                            <text id="e">
                                <tspan x="17.3" y="10">e</tspan>
                            </text>
                            <text id="r">
                                <tspan x="21.9" y="10">r</tspan>
                            </text>
                        </g>
                    </g>
                </g>
                <g id="XMLID_137_" transform="translate(243.000000, 69.000000)" fill="#000000" font-family="Helvetica" font-size="9.75" font-weight="normal">
                    <g id="XMLID_138_">
                        <text id="1">
                            <tspan x="0.3198" y="10.9697">1</tspan>
                        </text>
                    </g>
                </g>
                <polyline id="XMLID_136_" stroke="#000000" stroke-width="0.75" stroke-linecap="round" stroke-linejoin="round" points="93 199.2 93 51.8 211.1 51.8"></polyline>
                <polyline id="XMLID_135_" stroke="#000000" stroke-width="0.75" stroke-linecap="round" stroke-linejoin="round" points="382.2 199.2 382.2 51.8 254.5 51.8"></polyline>
                <path d="M114.7,214.3 L360.5,214.3" id="XMLID_134_" stroke="#000000" stroke-width="0.75" stroke-linecap="round" stroke-linejoin="round"></path>
                <g id="XMLID_132_" transform="translate(267.000000, 31.000000)" fill="#000000" font-family="Helvetica" font-size="9.775" font-weight="normal">
                    <g id="XMLID_133_">
                        <g id="Group" transform="translate(0.000000, 0.580100)">
                            <text id="E">
                                <tspan x="0" y="10">E</tspan>
                            </text>
                            <text id="t">
                                <tspan x="5.3" y="10">t</tspan>
                            </text>
                            <text id="h">
                                <tspan x="8.3" y="10">h</tspan>
                            </text>
                        </g>
                    </g>
                </g>
                <g id="XMLID_130_" transform="translate(280.000000, 31.000000)" fill="#000000" font-family="Helvetica" font-size="9.775" font-weight="normal">
                    <g id="XMLID_131_">
                        <text id="2">
                            <tspan x="0.5303" y="10.5801">2</tspan>
                        </text>
                    </g>
                </g>
                <g id="XMLID_128_" transform="translate(285.000000, 31.000000)" fill="#000000" font-family="Helvetica" font-size="9.775" font-weight="normal">
                    <g id="XMLID_129_">
                        <g id="Group" transform="translate(0.599600, 0.580100)">
                            <text id=":">
                                <tspan x="0" y="10">:</tspan>
                            </text>
                        </g>
                    </g>
                </g>
                <g id="XMLID_126_" transform="translate(290.000000, 31.000000)" fill="#000000" font-family="Helvetica" font-size="9.775" font-weight="normal">
                    <g id="XMLID_127_">
                        <g id="Group" transform="translate(0.519500, 0.580100)">
                            <text id="19">
                                <tspan x="0" y="10">19</tspan>
                            </text>
                            <text id="2">
                                <tspan x="10.5" y="10">2</tspan>
                            </text>
                        </g>
                    </g>
                </g>
                <g id="XMLID_124_" transform="translate(305.000000, 31.000000)" fill="#000000" font-family="Helvetica" font-size="9.775" font-weight="normal">
                    <g id="XMLID_125_">
                        <text id=".">
                            <tspan x="0.75" y="10.5801">.</tspan>
                        </text>
                    </g>
                </g>
                <g id="XMLID_122_" transform="translate(308.000000, 31.000000)" fill="#000000" font-family="Helvetica" font-size="9.775" font-weight="normal">
                    <g id="XMLID_123_">
                        <g id="Group" transform="translate(0.269500, 0.580100)">
                            <text id="16">
                                <tspan x="0" y="10">16</tspan>
                            </text>
                            <text id="8">
                                <tspan x="10.5" y="10">8</tspan>
                            </text>
                        </g>
                    </g>
                </g>
                <g id="XMLID_120_" transform="translate(323.000000, 31.000000)" fill="#000000" font-family="Helvetica" font-size="9.775" font-weight="normal">
                    <g id="XMLID_121_">
                        <text id=".">
                            <tspan x="0.5" y="10.5801">.</tspan>
                        </text>
                    </g>
                </g>
                <g id="XMLID_118_" transform="translate(326.000000, 31.000000)" fill="#000000" font-family="Helvetica" font-size="9.775" font-weight="normal">
                    <g id="XMLID_119_">
                        <g id="Group" transform="translate(0.019500, 0.580100)">
                            <text id="20">
                                <tspan x="0" y="10">20</tspan>
                            </text>
                            <text id="0">
                                <tspan x="10.5" y="10">0</tspan>
                            </text>
                        </g>
                    </g>
                </g>
                <g id="XMLID_116_" transform="translate(341.000000, 31.000000)" fill="#000000" font-family="Helvetica" font-size="9.775" font-weight="normal">
                    <g id="XMLID_117_">
                        <text id=".">
                            <tspan x="0.25" y="10.5801">.</tspan>
                        </text>
                    </g>
                </g>
                <g id="XMLID_114_" transform="translate(343.000000, 31.000000)" fill="#000000" font-family="Helvetica" font-size="9.775" font-weight="normal">
                    <g id="XMLID_115_">
                        <text id="1">
                            <tspan x="0.7803" y="10.5801">1</tspan>
                        </text>
                    </g>
                </g>
                <g id="XMLID_112_" transform="translate(115.000000, 30.000000)" fill="#000000" font-family="Helvetica" font-size="9.75" font-weight="normal">
                    <g id="XMLID_113_">
                        <g id="Group" transform="translate(0.700200, 0.250000)">
                            <text id="E">
                                <tspan x="0" y="10">E</tspan>
                            </text>
                            <text id="t">
                                <tspan x="5.3" y="10">t</tspan>
                            </text>
                            <text id="h">
                                <tspan x="8.3" y="10">h</tspan>
                            </text>
                        </g>
                    </g>
                </g>
                <g id="XMLID_110_" transform="translate(129.000000, 30.000000)" fill="#000000" font-family="Helvetica" font-size="9.75" font-weight="normal">
                    <g id="XMLID_111_">
                        <text id="1">
                            <tspan x="0.2002" y="10.25">1</tspan>
                        </text>
                    </g>
                </g>
                <g id="XMLID_108_" transform="translate(134.000000, 30.000000)" fill="#000000" font-family="Helvetica" font-size="9.75" font-weight="normal">
                    <g id="XMLID_109_">
                        <g id="Group" transform="translate(0.270000, 0.250000)">
                            <text id=":">
                                <tspan x="0" y="10">:</tspan>
                            </text>
                        </g>
                    </g>
                </g>
                <g id="XMLID_106_" transform="translate(139.000000, 30.000000)" fill="#000000" font-family="Helvetica" font-size="9.75" font-weight="normal">
                    <g id="XMLID_107_">
                        <g id="Group" transform="translate(0.230000, 0.250000)">
                            <text id="19">
                                <tspan x="0" y="10">19</tspan>
                            </text>
                            <text id="2">
                                <tspan x="10.5" y="10">2</tspan>
                            </text>
                        </g>
                    </g>
                </g>
                <g id="XMLID_104_" transform="translate(154.000000, 30.000000)" fill="#000000" font-family="Helvetica" font-size="9.75" font-weight="normal">
                    <g id="XMLID_105_">
                        <text id=".">
                            <tspan x="0.4502" y="10.25">.</tspan>
                        </text>
                    </g>
                </g>
                <g id="XMLID_102_" transform="translate(156.000000, 30.000000)" fill="#000000" font-family="Helvetica" font-size="9.75" font-weight="normal">
                    <g id="XMLID_103_">
                        <g id="Group" transform="translate(0.970200, 0.250000)">
                            <text id="16">
                                <tspan x="0" y="10">16</tspan>
                            </text>
                            <text id="8">
                                <tspan x="10.5" y="10">8</tspan>
                            </text>
                        </g>
                    </g>
                </g>
                <g id="XMLID_100_" transform="translate(172.000000, 30.000000)" fill="#000000" font-family="Helvetica" font-size="9.75" font-weight="normal">
                    <g id="XMLID_101_">
                        <text id=".">
                            <tspan x="0.2002" y="10.25">.</tspan>
                        </text>
                    </g>
                </g>
                <g id="XMLID_98_" transform="translate(174.000000, 30.000000)" fill="#000000" font-family="Helvetica" font-size="9.75" font-weight="normal">
                    <g id="XMLID_99_">
                        <g id="Group" transform="translate(0.730000, 0.250000)">
                            <text id="20">
                                <tspan x="0" y="10">20</tspan>
                            </text>
                            <text id="2">
                                <tspan x="10.5" y="10">2</tspan>
                            </text>
                        </g>
                    </g>
                </g>
                <g id="XMLID_96_" transform="translate(189.000000, 30.000000)" fill="#000000" font-family="Helvetica" font-size="9.75" font-weight="normal">
                    <g id="XMLID_97_">
                        <text id=".">
                            <tspan x="0.9502" y="10.25">.</tspan>
                        </text>
                    </g>
                </g>
                <g id="XMLID_94_" transform="translate(192.000000, 30.000000)" fill="#000000" font-family="Helvetica" font-size="9.75" font-weight="normal">
                    <g id="XMLID_95_">
                        <text id="2">
                            <tspan x="0.4702" y="10.25">2</tspan>
                        </text>
                    </g>
                </g>
                <g id="XMLID_92_" transform="translate(389.000000, 177.000000)" fill="#000000" font-family="Helvetica" font-size="9.75" font-weight="normal">
                    <g id="XMLID_93_">
                        <g id="Group" transform="translate(0.049800, 0.780300)">
                            <text id="E">
                                <tspan x="0" y="10">E</tspan>
                            </text>
                            <text id="t">
                                <tspan x="5.2" y="10">t</tspan>
                            </text>
                            <text id="h">
                                <tspan x="8.2" y="10">h</tspan>
                            </text>
                        </g>
                    </g>
                </g>
                <g id="XMLID_90_" transform="translate(402.000000, 177.000000)" fill="#000000" font-family="Helvetica" font-size="9.75" font-weight="normal">
                    <g id="XMLID_91_">
                        <text id="1">
                            <tspan x="0.5498" y="10.7803">1</tspan>
                        </text>
                    </g>
                </g>
                <g id="XMLID_88_" transform="translate(407.000000, 177.000000)" fill="#000000" font-family="Helvetica" font-size="9.75" font-weight="normal">
                    <g id="XMLID_89_">
                        <g id="Group" transform="translate(0.629900, 0.780300)">
                            <text id=":">
                                <tspan x="0" y="10">:</tspan>
                            </text>
                        </g>
                    </g>
                </g>
                <g id="XMLID_86_" transform="translate(412.000000, 177.000000)" fill="#000000" font-family="Helvetica" font-size="9.75" font-weight="normal">
                    <g id="XMLID_87_">
                        <g id="Group" transform="translate(0.580100, 0.780300)">
                            <text id="19">
                                <tspan x="0" y="10">19</tspan>
                            </text>
                            <text id="2">
                                <tspan x="10.5" y="10">2</tspan>
                            </text>
                        </g>
                    </g>
                </g>
                <g id="XMLID_84_" transform="translate(427.000000, 177.000000)" fill="#000000" font-family="Helvetica" font-size="9.75" font-weight="normal">
                    <g id="XMLID_85_">
                        <text id=".">
                            <tspan x="0.7998" y="10.7803">.</tspan>
                        </text>
                    </g>
                </g>
                <g id="XMLID_82_" transform="translate(430.000000, 177.000000)" fill="#000000" font-family="Helvetica" font-size="9.75" font-weight="normal">
                    <g id="XMLID_83_">
                        <g id="Group" transform="translate(0.330100, 0.780300)">
                            <text id="16">
                                <tspan x="0" y="10">16</tspan>
                            </text>
                            <text id="8">
                                <tspan x="10.5" y="10">8</tspan>
                            </text>
                        </g>
                    </g>
                </g>
                <g id="XMLID_80_" transform="translate(445.000000, 177.000000)" fill="#000000" font-family="Helvetica" font-size="9.75" font-weight="normal">
                    <g id="XMLID_81_">
                        <text id=".">
                            <tspan x="0.5498" y="10.7803">.</tspan>
                        </text>
                    </g>
                </g>
                <g id="XMLID_78_" transform="translate(448.000000, 177.000000)" fill="#000000" font-family="Helvetica" font-size="9.75" font-weight="normal">
                    <g id="XMLID_79_">
                        <g id="Group" transform="translate(0.070300, 0.780300)">
                            <text id="20">
                                <tspan x="0" y="10">20</tspan>
                            </text>
                            <text id="0">
                                <tspan x="10.5" y="10">0</tspan>
                            </text>
                        </g>
                    </g>
                </g>
                <g id="XMLID_76_" transform="translate(463.000000, 177.000000)" fill="#000000" font-family="Helvetica" font-size="9.75" font-weight="normal">
                    <g id="XMLID_77_">
                        <text id=".">
                            <tspan x="0.2998" y="10.7803">.</tspan>
                        </text>
                    </g>
                </g>
                <g id="XMLID_74_" transform="translate(465.000000, 177.000000)" fill="#000000" font-family="Helvetica" font-size="9.75" font-weight="normal">
                    <g id="XMLID_75_">
                        <text id="2">
                            <tspan x="0.8203" y="10.7803">2</tspan>
                        </text>
                    </g>
                </g>
                <g id="XMLID_72_" transform="translate(272.000000, 191.000000)" fill="#000000" font-family="Helvetica" font-size="9.775" font-weight="normal">
                    <g id="XMLID_73_">
                        <g id="Group" transform="translate(0.700200, 0.799800)">
                            <text id="E">
                                <tspan x="0" y="10">E</tspan>
                            </text>
                            <text id="t">
                                <tspan x="5.2" y="10">t</tspan>
                            </text>
                            <text id="h">
                                <tspan x="8.2" y="10">h</tspan>
                            </text>
                        </g>
                    </g>
                </g>
                <g id="XMLID_70_" transform="translate(286.000000, 191.000000)" fill="#000000" font-family="Helvetica" font-size="9.775" font-weight="normal">
                    <g id="XMLID_71_">
                        <text id="2">
                            <tspan x="0.2002" y="10.7998">2</tspan>
                        </text>
                    </g>
                </g>
                <g id="XMLID_68_" transform="translate(291.000000, 191.000000)" fill="#000000" font-family="Helvetica" font-size="9.775" font-weight="normal">
                    <g id="XMLID_69_">
                        <g id="Group" transform="translate(0.269500, 0.799800)">
                            <text id=":">
                                <tspan x="0" y="10">:</tspan>
                            </text>
                        </g>
                    </g>
                </g>
                <g id="XMLID_66_" transform="translate(296.000000, 191.000000)" fill="#000000" font-family="Helvetica" font-size="9.775" font-weight="normal">
                    <g id="XMLID_67_">
                        <g id="Group" transform="translate(0.200200, 0.799800)">
                            <text id="19">
                                <tspan x="0" y="10">19</tspan>
                            </text>
                            <text id="2">
                                <tspan x="10.5" y="10">2</tspan>
                            </text>
                        </g>
                    </g>
                </g>
                <g id="XMLID_64_" transform="translate(311.000000, 191.000000)" fill="#000000" font-family="Helvetica" font-size="9.775" font-weight="normal">
                    <g id="XMLID_65_">
                        <text id=".">
                            <tspan x="0.4199" y="10.7998">.</tspan>
                        </text>
                    </g>
                </g>
                <g id="XMLID_62_" transform="translate(313.000000, 191.000000)" fill="#000000" font-family="Helvetica" font-size="9.775" font-weight="normal">
                    <g id="XMLID_63_">
                        <g id="Group" transform="translate(0.950200, 0.799800)">
                            <text id="16">
                                <tspan x="0" y="10">16</tspan>
                            </text>
                            <text id="8">
                                <tspan x="10.5" y="10">8</tspan>
                            </text>
                        </g>
                    </g>
                </g>
                <g id="XMLID_60_" transform="translate(329.000000, 191.000000)" fill="#000000" font-family="Helvetica" font-size="9.775" font-weight="normal">
                    <g id="XMLID_61_">
                        <text id=".">
                            <tspan x="0.1797" y="10.7998">.</tspan>
                        </text>
                    </g>
                </g>
                <g id="XMLID_58_" transform="translate(331.000000, 191.000000)" fill="#000000" font-family="Helvetica" font-size="9.775" font-weight="normal">
                    <g id="XMLID_59_">
                        <g id="Group" transform="translate(0.700200, 0.799800)">
                            <text id="20">
                                <tspan x="0" y="10">20</tspan>
                            </text>
                            <text id="1">
                                <tspan x="10.5" y="10">1</tspan>
                            </text>
                        </g>
                    </g>
                </g>
                <g id="XMLID_56_" transform="translate(346.000000, 191.000000)" fill="#000000" font-family="Helvetica" font-size="9.775" font-weight="normal">
                    <g id="XMLID_57_">
                        <text id=".">
                            <tspan x="0.9199" y="10.7998">.</tspan>
                        </text>
                    </g>
                </g>
                <g id="XMLID_54_" transform="translate(349.000000, 191.000000)" fill="#000000" font-family="Helvetica" font-size="9.775" font-weight="normal">
                    <g id="XMLID_55_">
                        <text id="1">
                            <tspan x="0.4805" y="10.7998">1</tspan>
                        </text>
                    </g>
                </g>
                <g id="XMLID_52_" transform="translate(114.000000, 190.000000)" fill="#000000" font-family="Helvetica" font-size="9.75" font-weight="normal">
                    <g id="XMLID_53_">
                        <g id="Group" transform="translate(0.980000, 0.469700)">
                            <text id="E">
                                <tspan x="0" y="10">E</tspan>
                            </text>
                            <text id="t">
                                <tspan x="5.2" y="10">t</tspan>
                            </text>
                            <text id="h">
                                <tspan x="8.2" y="10">h</tspan>
                            </text>
                        </g>
                    </g>
                </g>
                <g id="XMLID_50_" transform="translate(128.000000, 190.000000)" fill="#000000" font-family="Helvetica" font-size="9.75" font-weight="normal">
                    <g id="XMLID_51_">
                        <text id="1">
                            <tspan x="0.48" y="10.4697">1</tspan>
                        </text>
                    </g>
                </g>
                <g id="XMLID_48_" transform="translate(133.000000, 190.000000)" fill="#000000" font-family="Helvetica" font-size="9.75" font-weight="normal">
                    <g id="XMLID_49_">
                        <g id="Group" transform="translate(0.549800, 0.469700)">
                            <text id=":">
                                <tspan x="0" y="10">:</tspan>
                            </text>
                        </g>
                    </g>
                </g>
                <g id="XMLID_46_" transform="translate(138.000000, 190.000000)" fill="#000000" font-family="Helvetica" font-size="9.75" font-weight="normal">
                    <g id="XMLID_47_">
                        <g id="Group" transform="translate(0.500000, 0.469700)">
                            <text id="19">
                                <tspan x="0" y="10">19</tspan>
                            </text>
                            <text id="2">
                                <tspan x="10.5" y="10">2</tspan>
                            </text>
                        </g>
                    </g>
                </g>
                <g id="XMLID_44_" transform="translate(153.000000, 190.000000)" fill="#000000" font-family="Helvetica" font-size="9.75" font-weight="normal">
                    <g id="XMLID_45_">
                        <text id=".">
                            <tspan x="0.73" y="10.4697">.</tspan>
                        </text>
                    </g>
                </g>
                <g id="XMLID_42_" transform="translate(156.000000, 190.000000)" fill="#000000" font-family="Helvetica" font-size="9.75" font-weight="normal">
                    <g id="XMLID_43_">
                        <g id="Group" transform="translate(0.250000, 0.469700)">
                            <text id="16">
                                <tspan x="0" y="10">16</tspan>
                            </text>
                            <text id="8">
                                <tspan x="10.5" y="10">8</tspan>
                            </text>
                        </g>
                    </g>
                </g>
                <g id="XMLID_40_" transform="translate(171.000000, 190.000000)" fill="#000000" font-family="Helvetica" font-size="9.75" font-weight="normal">
                    <g id="XMLID_41_">
                        <text id=".">
                            <tspan x="0.48" y="10.4697">.</tspan>
                        </text>
                    </g>
                </g>
                <g id="XMLID_38_" transform="translate(174.000000, 190.000000)" fill="#000000" font-family="Helvetica" font-size="9.75" font-weight="normal">
                    <g id="XMLID_39_">
                        <g id="Group" transform="translate(0.000000, 0.469700)">
                            <text id="20">
                                <tspan x="0" y="10">20</tspan>
                            </text>
                            <text id="1">
                                <tspan x="10.5" y="10">1</tspan>
                            </text>
                        </g>
                    </g>
                </g>
                <g id="XMLID_36_" transform="translate(189.000000, 190.000000)" fill="#000000" font-family="Helvetica" font-size="9.75" font-weight="normal">
                    <g id="XMLID_37_">
                        <text id=".">
                            <tspan x="0.23" y="10.4697">.</tspan>
                        </text>
                    </g>
                </g>
                <g id="XMLID_34_" transform="translate(191.000000, 190.000000)" fill="#000000" font-family="Helvetica" font-size="9.75" font-weight="normal">
                    <g id="XMLID_35_">
                        <text id="2">
                            <tspan x="0.75" y="10.4697">2</tspan>
                        </text>
                    </g>
                </g>
                <g id="XMLID_32_" transform="translate(0.000000, 183.000000)" fill="#000000" font-family="Helvetica" font-size="9.75" font-weight="normal">
                    <g id="XMLID_33_">
                        <g id="Group" transform="translate(0.225100, 0.450200)">
                            <text id="E">
                                <tspan x="0" y="10">E</tspan>
                            </text>
                            <text id="t">
                                <tspan x="5.2" y="10">t</tspan>
                            </text>
                            <text id="h">
                                <tspan x="8.2" y="10">h</tspan>
                            </text>
                        </g>
                    </g>
                </g>
                <g id="XMLID_30_" transform="translate(13.000000, 183.000000)" fill="#000000" font-family="Helvetica" font-size="9.75" font-weight="normal">
                    <g id="XMLID_31_">
                        <text id="2">
                            <tspan x="0.7251" y="10.4502">2</tspan>
                        </text>
                    </g>
                </g>
                <g id="XMLID_28_" transform="translate(18.000000, 183.000000)" fill="#000000" font-family="Helvetica" font-size="9.75" font-weight="normal">
                    <g id="XMLID_29_">
                        <g id="Group" transform="translate(0.799800, 0.450200)">
                            <text id=":">
                                <tspan x="0" y="10">:</tspan>
                            </text>
                        </g>
                    </g>
                </g>
                <g id="XMLID_26_" transform="translate(23.000000, 183.000000)" fill="#000000" font-family="Helvetica" font-size="9.75" font-weight="normal">
                    <g id="XMLID_27_">
                        <g id="Group" transform="translate(0.750000, 0.450200)">
                            <text id="19">
                                <tspan x="0" y="10">19</tspan>
                            </text>
                            <text id="2">
                                <tspan x="10.5" y="10">2</tspan>
                            </text>
                        </g>
                    </g>
                </g>
                <g id="XMLID_24_" transform="translate(38.000000, 183.000000)" fill="#000000" font-family="Helvetica" font-size="9.75" font-weight="normal">
                    <g id="XMLID_25_">
                        <text id=".">
                            <tspan x="0.9751" y="10.4502">.</tspan>
                        </text>
                    </g>
                </g>
                <g id="XMLID_22_" transform="translate(41.000000, 183.000000)" fill="#000000" font-family="Helvetica" font-size="9.75" font-weight="normal">
                    <g id="XMLID_23_">
                        <g id="Group" transform="translate(0.500000, 0.450200)">
                            <text id="16">
                                <tspan x="0" y="10">16</tspan>
                            </text>
                            <text id="8">
                                <tspan x="10.5" y="10">8</tspan>
                            </text>
                        </g>
                    </g>
                </g>
                <g id="XMLID_20_" transform="translate(56.000000, 183.000000)" fill="#000000" font-family="Helvetica" font-size="9.75" font-weight="normal">
                    <g id="XMLID_21_">
                        <text id=".">
                            <tspan x="0.7202" y="10.4502">.</tspan>
                        </text>
                    </g>
                </g>
                <g id="XMLID_18_" transform="translate(59.000000, 183.000000)" fill="#000000" font-family="Helvetica" font-size="9.75" font-weight="normal">
                    <g id="XMLID_19_">
                        <g id="Group" transform="translate(0.250000, 0.450200)">
                            <text id="20">
                                <tspan x="0" y="10">20</tspan>
                            </text>
                            <text id="2">
                                <tspan x="10.5" y="10">2</tspan>
                            </text>
                        </g>
                    </g>
                </g>
                <g id="XMLID_16_" transform="translate(74.000000, 183.000000)" fill="#000000" font-family="Helvetica" font-size="9.75" font-weight="normal">
                    <g id="XMLID_17_">
                        <text id=".">
                            <tspan x="0.4702" y="10.4502">.</tspan>
                        </text>
                    </g>
                </g>
                <g id="XMLID_14_" transform="translate(77.000000, 183.000000)" fill="#000000" font-family="Helvetica" font-size="9.75" font-weight="normal">
                    <g id="XMLID_15_">
                        <text id="1">
                            <tspan x="0" y="10.4502">1</tspan>
                        </text>
                    </g>
                </g>
                <path d="M284.8,153.2 L299,139 L299,146.1 C338.1,146.1 369.9,131.8 369.9,114.2 C369.9,114.2 369.9,114.2 369.9,114.2 L369.9,128.4 C369.9,146 338.2,160.3 299.1,160.3 C299.1,160.3 299.1,160.3 299.1,160.3 L299.1,167.4 L284.8,153.2 Z" id="XMLID_13_" fill="#E4E4E4"></path>
                <path d="M284.8,153.2 L299,139 L299,146.1 C338.1,146.1 369.9,131.8 369.9,114.2 C369.9,114.2 369.9,114.2 369.9,114.2 L369.9,128.4 C369.9,146 338.2,160.3 299.1,160.3 C299.1,160.3 299.1,160.3 299.1,160.3 L299.1,167.4 L284.8,153.2 Z" id="XMLID_12_" stroke="#000000" stroke-width="0.24" stroke-linecap="round" stroke-linejoin="round"></path>
                <path d="M284.8,82.3 L284.8,96.5 C331.8,96.5 369.8,110.8 369.800196,128.4 L369.8,114.2 C369.9,96.6 331.8,82.3 284.8,82.3 C284.8,82.3 284.8,82.3 284.8,82.3 Z" id="XMLID_11_" fill="#FFFFFF"></path>
                <path d="M284.8,82.3 L284.8,96.5 C331.8,96.5 369.8,110.8 369.800196,128.4 L369.8,114.2 C369.9,96.6 331.8,82.3 284.8,82.3 C284.8,82.3 284.8,82.3 284.8,82.3 Z" id="XMLID_10_" stroke="#000000" stroke-width="0.24" stroke-linecap="round" stroke-linejoin="round"></path>
                <path d="M194.1,95.1 L179.9,109.3 L179.9,102.2 C140.8,102.2 109,116.5 109,134.1 C109,134.1 109,134.1 109,134.1 L109,119.9 C109,102.3 140.7,88 179.8,88 C179.8,88 179.8,88 179.8,88 L179.8,81 L194.1,95.1 Z" id="XMLID_9_" fill="#E4E4E4"></path>
                <path d="M194.1,95.1 L179.9,109.3 L179.9,102.2 C140.8,102.2 109,116.5 109,134.1 C109,134.1 109,134.1 109,134.1 L109,119.9 C109,102.3 140.7,88 179.8,88 C179.8,88 179.8,88 179.8,88 L179.8,81 L194.1,95.1 Z" id="XMLID_8_" stroke="#000000" stroke-width="0.24" stroke-linecap="round" stroke-linejoin="round"></path>
                <path d="M194.1,166 L194.1,151.8 C147.1,151.8 109.1,137.5 109.1,119.9 C109.1,119.9 109.1,119.9 109.1,119.9 L109.1,134.1 C109.1,151.7 147.1,166 194.1,166 C194.1,166 194.1,166 194.1,166 Z" id="XMLID_7_" fill="#FFFFFF"></path>
                <path d="M194.1,166 L194.1,151.8 C147.1,151.8 109.1,137.5 109.1,119.9 C109.1,119.9 109.1,119.9 109.1,119.9 L109.1,134.1 C109.1,151.7 147.1,166 194.1,166 C194.1,166 194.1,166 194.1,166 Z" id="XMLID_6_" stroke="#000000" stroke-width="0.24" stroke-linecap="round" stroke-linejoin="round"></path>
                <g id="XMLID_4_" transform="translate(198.000000, 0.000000)" fill="#000000" font-family="Helvetica" font-size="9.75" font-weight="normal">
                    <g id="XMLID_5_">
                        <g id="Group" transform="translate(0.080100, 0.030300)">
                            <text id="Т">
                                <tspan x="0" y="10">Т</tspan>
                            </text>
                            <text id="Е">
                                <tspan x="4.5" y="10">Е</tspan>
                            </text>
                            <text id="С">
                                <tspan x="9.7" y="10">С</tspan>
                            </text>
                            <text id="Т">
                                <tspan x="15" y="10">Т</tspan>
                            </text>
                            <text id="О">
                                <tspan x="20.2" y="10">О</tspan>
                            </text>
                            <text id="В">
                                <tspan x="26.2" y="10">В</tspan>
                            </text>
                            <text id="Ы">
                                <tspan x="32.2" y="10">Ы</tspan>
                            </text>
                            <text id="Й">
                                <tspan x="39.7" y="10">Й</tspan>
                            </text>
                            <text id="С">
                                <tspan x="47.9" y="10">С</tspan>
                            </text>
                            <text id="Т">
                                <tspan x="53.9" y="10">Т</tspan>
                            </text>
                            <text id="Е">
                                <tspan x="58.4" y="10">Е</tspan>
                            </text>
                            <text id="Н">
                                <tspan x="63.6" y="10">Н</tspan>
                            </text>
                            <text id="Д">
                                <tspan x="69.6" y="10">Д</tspan>
                            </text>
                        </g>
                    </g>
                </g>
                <g id="XMLID_2_" transform="translate(276.000000, 0.000000)" fill="#000000" font-family="Helvetica" font-size="9.75" font-weight="normal">
                    <g id="XMLID_3_">
                        <text id="1">
                            <tspan x="0.5" y="10.0303">1</tspan>
                        </text>
                    </g>
                </g>
            </g>
        </g>
    </g>
</svg>