<?xml version="1.0" encoding="utf-8"?>
<!-- Generator: Adobe Illustrator 19.0.0, SVG Export Plug-In . SVG Version: 6.00 Build 0)  -->
<svg version="1.1" id="mask-bw-02_xA0_Изображение_1_"
	 xmlns="http://www.w3.org/2000/svg" xmlns:xlink="http://www.w3.org/1999/xlink" x="0px" y="0px" viewBox="0 0 1600 1200"
	 style="enable-background:new 0 0 1600 1200;" xml:space="preserve">
<g>
	<path d="M743.9,729.3c-3.9-4.2-8.2-0.9-11.7,0.2c-3.6,1.1-6.3,4.2-8.8,7.8c-3.7,5.4-4.6,14.1-14,14.7c-3,0.2-4.3,6.3-1.9,9.9
		c7.1,10.6,5.4,19.9-3.2,28.8c-4,4.1-4.5,9.2-2.3,14.6c3.3,7.9,0.8,15.6-1.3,23.2c-1.5,5.4-6,6.9-10.8,7c-4.4,0.1-9-0.2-13.3-1.2
		c-13.8-3.3-22.7-20.3-13.2-33.6c2.7-3.9,3.1-7.8,2.3-12.6c-0.9-5.5,0.1-11.3,0.2-17c0-1.1,0.5-2.4,0.2-3.4
		c-1.6-4.8-3.2-9.5-5.1-14.2c-0.3-0.8-1.9-1.9-2.6-1.7c-2.8,0.7-5.5,2-8.3,2.9c-3.8,1.2-3.3,4.3-3.7,7.3c-0.3,2.5-1.8,4.8-2.5,7.3
		c-0.9,2.9-2,5.9-2.2,8.9c-0.3,5.1-2.5,8.6-7.2,10.1c-4.2,1.4-7.8,0.2-10.6-3.3c-3.1-3.8-2.9-7.6-0.9-11.9c1.2-2.6,1.4-5.6,2.4-8.3
		c1.2-3.3,2-7.1,4.1-9.8c3.8-5.1,3.9-7.2-1.4-11.3c-1.8,1-3.7,2-5.5,3.1c-3.2,2-6.2,0.8-7.9-1.6c-1.4-1.8-2.3-5.1-1.6-7.1
		c0.7-2,3.7-3.1,5.7-4.6c0.2-0.2,0.7,0,1,0c2.2-0.6,4.4-1.3,6.6-1.9c-1-2.8-1.4-6.1-3.1-8.4c-3.4-4.6-7.5-8.7-4.8-15
		c3-7.1,8.2-9.5,16.4-7.6c5,1.2,6.7,0.3,6.7-4.5c0.1-11.3,5.2-20.2,12.4-28.3c0.2-0.2,0.5-0.4,0.7-0.7c1.5-3.1,6.4-6.1,1.9-9.6
		c-3.8-2.9-4.7,2.6-7.2,4c-1,0.5-1.6,2-2.5,2.3c-7.8,2.7-11.2,8.4-13.6,16c-2.4,7.8-11,12.4-19.5,11.6c-9.3-0.9-18.6-2.1-27.8-4
		c-11-2.2-18-14.2-15.4-25c0.4-1.4,0.8-2.9,1-4.3c1.1-6.6-0.3-7.9-6.9-6.7c-11.1,1.9-17.9-6.9-16.2-15.4c1.6-8.3,0.2-9.6-8.2-11.8
		c-2.6-0.7-5.4-2.7-7.1-4.8c-2.1-2.7-3.7-3.1-6.5-1.3c-4.6,3.1-10.1,3.4-13.3,0.7c-4.1-3.4-4.7-7.9-3.6-12.8c1-4.3,2.1-8.6,3-12.9
		c1.2-6.3,6.6-11.9,13-13.4c5.7-1.3,12.8,1.8,16.7,6.5c2.2,2.6,1.9,7.8,7.4,7.3c6.4-0.5,11.7-3.1,15.9-7.8c1.3-1.5,2.4-3.1,3.3-4.9
		c1.5-2.9,1.1-5.5-1.9-7.3c-8.3-5-13.1-12.3-11.2-21.8c1.4-7.2,0.9-14.5,2.9-21.5c1.4-5,0.7-8-3.6-11.5c-5.1-4.2-8.6-10.2-8.4-17.2
		c0.1-5.8-0.9-10.5-5.5-14.7c-5-4.6-6.2-10.9-3-17.1c3-5.8,7.9-9.3,14.6-9.2c5.3,0.2,7.7-2.3,8.8-7.1c1.8-7.6,4.1-15.1,5.9-22.8
		c2.8-12,11.6-16.9,22.5-19.1c5.8-1.2,15.6,4.9,18.7,12.2c3,7.2,5.3,14.8,7.3,22.3c1,3.9,2.4,5.6,6.6,5.4c4.4-0.2,9.1,3.5,9.5,7
		c0.4,3.8-0.7,7-4.3,8.7c-3.6,1.7-7,1.2-10.1-1.5c-1.9-1.7-3.2-5.5-6.7-2.6c-3,2.5-1.8,5.4-0.4,8.5c1.4,2.9,2.4,6.1,3.2,9.3
		c1,3.9,3.1,6,7.4,5.6c4.1-0.4,7.7,0.7,10.1,4.5c0.3,0.5,1,1.3,1.4,1.3c4.8,0,9.6-0.2,14.4-0.3c0.1-0.6,0.3-1.2,0.4-1.9
		c-1.3-1-2.6-2.1-3.9-3c-4.8-3.3-5.2-7.3-2-12.2c1.6-2.5,2.4-5.6,2.8-8.5c0.7-5,0.2-10.3,1.2-15.2c2-10.2,8.4-14.9,20.5-15.8
		c0.8-1.5,1.2-3.5,2.5-4.5c1.7-1.4,4-2,6-3c0.9,2.2,3.1,4.8,2.5,6.5c-1.6,4.8-1,7.3,4.1,9.5c4.8,2,7.3,6.3,7.1,11.9
		c-0.1,2.1-1.5,5.7,2.6,5.7c4.4,0,3.7-5.1,3.3-6.4c-2.5-8.6,0.9-15.4,5.5-22c0.9-1.3,3.1-1.8,4.8-2.6c5.1-2.6,10.1-5.6,15.4-7.6
		c7.4-2.8,13.9,0.3,19.5,4.8c3.2,2.6,6.2,2.9,9.3,0.6c10.3-7.6,18.2-5.4,27.1,0.9c8.9,6.2,11.7,6.2,19.8-0.8
		c2.2-1.9,4.8-5.5,6.7-5.2c3.8,0.5,7.3,3.1,10.7,5.2c0.9,0.5,1.7,3,1.3,3.5c-1,1.2-2.7,2.1-4.2,2.4c-1.3,0.3-2.9-0.8-4.3-0.7
		c-0.9,0.1-2.2,1-2.5,1.8c-0.3,0.9,0.2,2.5,1,3c3,2,6.2,3.9,9.5,5.2c1.4,0.6,3.7,0.1,5.1-0.7c7.9-4.3,10.4-3.3,13.6,5.6
		c5.2,1.3,8.9-0.4,11-5.5c2.1-5.1,6.1-8.1,11.5-9.1c4-0.8,6.4-2.8,7.7-7.1c2.3-7.5,9.3-11.6,16.8-10.9c6,0.6,11.9,7.2,13.6,14
		c1,3.9,2.9,8,5.6,11.1c3.9,4.5,5.3,9.6,4.9,15c-0.6,7.6-7.5,8.8-13.2,10.5c-2.8,0.8-6.4,0.1-7.1,3.9c-0.8,3.9,0.1,7.3,4.1,9.7
		c2.9,1.7,5.2,4.5,7.7,6.9c2.6,2.5,8.2,1.9,10.8-0.6c1.7-1.7,4.2-2.6,6.3-3.9c1.1,2.7,2.1,5.4,3.4,8c0.9,1.6,2.2,4,3.5,4.2
		c4.6,0.5,9.2,0.2,15,0.2c-1.3-2.4-2-4.2-3-5.7c-2.2-3.1-4.8-5.9-6.7-9.2c-1.8-3.2-3.6-4-6.7-1.8c-2.9,2.1-6,2.7-8-0.9
		c-1-1.8-2-4.8-1.2-6.4c1.2-2.5,3.4-4.8,7.2-3.7c6.2,1.9,8.3,0.9,9.6-5.3c1-4.8,3.6-5.8,8-6.2c4.5-0.4,9.1-1.6,13.2-3.4
		c7.7-3.4,14.1-0.8,19.6,3.9c2.2,1.9,2.4,6.2,3,9.5c1.2,6.3,1.8,6.8,8.1,5.3c6-1.4,11.6,0.2,17.1,2.5c1.7,0.7,3.6,1.1,5.9,1.7
		c0.1-1.7,0.5-2.8,0.2-3.5c-3.6-7.4-1.7-13.9,2.8-20.3c1.8-2.6,2.5-6,3.6-9.1c4.1-11.8,14.7-15.8,25-8.9c4.1,2.7,7.1,2.9,11.1,0
		c8.8-6.3,16-1.7,18.8,3.6c3.5,6.6-0.3,15.4-7.6,17.5c-6.9,1.9-13.9,3.6-20.8,5.5c-5,1.3-7.4,5.8-6.6,12.6c4.8,0.9,8.9,0.7,11.3-5
		c1.2-2.8,3.9-5.7,8-4.6c4.1,1.1,7.7,3.7,7.5,7.9c-0.1,2.9-2.4,7.1-4.8,8.2c-7.7,3.6-9.5,10.9-13.2,17.3c-1.7,2.9-5.7,5-9,6.2
		c-4.5,1.6-6.1,3.7-4.5,8.4c1.5,4.5-0.8,7.7-4.6,9.8c-3.9,2.2-7.1,0.7-9.6-2.4c-2.7-3.3-2.9-7-0.2-10.5c1.1-1.4,3-2.1,4-3.6
		c0.7-1,1.3-3.3,0.8-3.9c-0.8-0.9-2.7-1-4.2-1.1c-0.5-0.1-1.3,0.4-1.7,0.9c-5,6.2-12.3,6.4-19.3,7.4c-1.5,0.2-3,0.9-4.5,1.4
		c0.7,1.6,1.2,3.3,2.2,4.7c3.4,5.3,7.4,10.6,6.5,17.1c-0.5,3.6-2.4,8.1-5.1,10.1c-4.4,3.2-4.1,6.7-3.2,10.9c1.4,6.4,2.6,12.8,4.7,19
		c1.1,3.2,3.3,6.6,5.9,8.7c3.4,2.6,9.2-1.5,9.1-6.2c-0.1-6.7-0.9-13.7,5.6-18c3.1-2.1,6.9-3.7,10.6-4.1c3.6-0.5,6.7-0.6,9-3.9
		c2-2.7,4.6-4.4,7.9-1.5c3.2,2.8,2.5,5.5,0.7,8.8c-1,1.9-0.9,4.4-1.4,6.6c2.3-0.1,4.9,0.4,7-0.4c7.3-2.9,10.2-7.6,8.1-16
		c-1-3.8,1.4-8.8,6.3-10.7c4.4-1.7,8.5-2.4,12.2,1.7c2.6,2.8,4.7,5.9,9.8,2.3c2.5-1.8,7.6-0.7,10,3.1c2.3,3.6,0.9,6.7-1,10.2
		c-1.8,3.2-2.5,6.9-3.9,10.2c-1.5,3.6-2.9,7.3-5.1,10.4c-3,4.2-3.1,7.2,1.5,9.8c4.6,2.6,7.6,6.1,9.2,11c2.6,7.9-2.6,19-10.4,22.3
		c-1.6,0.7-2.6,2.6-4.2,3.3c-3.6,1.7-7.2,3.4-11,4.2c-2.7,0.6-5.8,0.1-8.7-0.4c-1.7-0.3-3.9-1.2-4.8-2.5c-0.6-1,0.2-3.5,1.1-4.7
		c3.8-4.8,5.4-16.3,1.1-20.2c-3.5-3.2-8.9-4.6-13.7-5.7c-1.4-0.3-3.8,3.1-5.5,5c-2.9,3.1-6,6.1-8.2,9.7c-3.8,6.1-9.1,9.3-16.1,10.1
		c-2.2,0.2-4.3,1-6.6,1.6c2.3,7.8,4.5,14.8,6.4,21.9c2.8,10.6-2.9,23.6-12.5,28.7c-3.4,1.8-3.8,4.4-0.7,6.8c2.2,1.6,4.7,3.2,7.4,3.8
		c8.9,2.1,12.4,10.6,11.6,16.2c-0.8,5.5-4.7,12.5-14.4,13.2c-1.7,0.1-3.5,1.7-4.9,2.9c-7,6.4-9,6-17,0.9c-4.8-3.1-10.8-4.2-16.4-5.8
		c-1.2-0.3-2.8,1-4.2,1.5c0.6,1.3,0.9,2.7,1.7,3.9c1.6,2.6,3.9,5,5.1,7.8c1.9,4.4,4.8,4.3,8.5,3.1c0.2-0.1,0.3-0.2,0.4-0.2
		c11.2-4.7,12.3-4.4,19.4,6.4c0.8,1.2,2,2.3,3.2,3.1c4.4,2.9,4.9,6,1.9,10.1c-1.5,2-3.1,4.3-3.6,6.7c-1.1,4.8-4.1,7.6-8.5,7.4
		c-4.7-0.2-7.6-3.8-8.1-8.6c-0.4-3.3-0.9-6-5.8-4.8c0,3.3-0.2,6.6,0,9.9c0.4,6-2.7,9.8-7.7,12c-4.9,2.2-9.3,0.3-13.2-3.1
		c-2.6-2.3-5.2-4.6-8.2-6.3c-7.3-4.3-8-4.1-14,1.7c-4.8,4.7-10.4,7.4-17.3,7.4c-5.8,0-10.6-2-14.7-6c-5.6-5.6-10.4-6.5-17.2-2.7
		c-1.2,0.7-1.8,3.4-1.7,5.1c0.1,1.1,1.6,2.6,2.9,3.2c3.6,1.5,8,1.7,11,3.9c7.8,5.9,9.2,13.4,4.5,22.4c-2.7,5.1-3.7,9.6,0.3,14.6
		c2.6,3.2,5.3,4.8,10,3.7c-0.4-1.5-0.6-2.9-1.1-4.1c-1.8-3.8-1-7,1.9-9.9c2.6-2.6,5.5-2.8,8.6-1.3c3.5,1.7,5,4.9,3.8,8.3
		c-2.2,6.2,1.4,7.4,6,9.6c3.6,1.7,6.3,5.3,9.1,8.4c1.6,1.8,2.4,4.3,3.5,6.4c6.2-3.8,12.3-7.3,18-11.3c5-3.5,9.8-6.5,16.4-4.9
		c3.4,0.8,6.5-4,5.1-7.4c-0.4-0.9-1-1.7-1.6-2.5c-6.8-9.3-2.8-18.9,5-24.3c3.2-2.2,6-5,8.8-7.7c3.8-3.8,7.3-3.6,10.4,0.5
		c2.4,3.3,4.9,6.6,7.8,9.6c8.3,8.7,5,23.8-6.5,27.4c-6.3,2-11.6,4.7-15.3,10.2c-0.7,1-1.6,2.3-1.5,3.4c1.1,14.8,1.1,14.8-7.8,24.1
		c0.6,1.7,1.7,3.4,1.6,5c-0.1,1.5-1.6,2.9-2.5,4.4c-1.6-1.1-4.5-2.2-4.5-3.3c0.1-4.3-2.2-4.5-5.6-5.1c-5-0.8-9.7-2.7-14.6-3.7
		c-3.3-0.7-4.2,1.2-4.9,4.4c-1,4.5-3.1,8.9-5.6,12.8c-2.6,4.2-6.2,7.7-9.1,11.7c-4,5.6-9.3,8.2-14.7,6.5c-6.9-2.1-9.7-6.1-9.7-13.6
		c0-7.2-2.6-10.4-10.3-10.8c-9.8-0.5-16.5-5-20.6-13.6c-2.3-4.9-6.6-7.1-11.1-9.8c-7.8-4.8-12.3-4.8-18.5,3.1
		c-7.2,9.2-20.3,7.8-29-0.4c-3.4-3.2-7.4-5.9-11.5-8c-1.6-0.8-5-0.1-6.2,1.2c-1.2,1.2-0.9,4.1-0.7,6.2c0.1,2.3,1.2,4.5,1.2,6.8
		c0.2,7-6.3,11-12.2,7.4c-5.2-3.1-10.2-6.6-14.9-10.4c-4.6-3.7-5.6-11.1-2.5-16.8c2.5-4.5,3.2-8-1.4-12.1c-4.4-3.9-4.2-10-0.9-14.9
		c3.3-5,8.2-6.5,14.1-5.1c2.7,0.6,5.8,0.6,8.6-0.1c9-2.1,17.9-4.8,26.9-6.7c3.2-0.7,7.6,1.5,10,0.1c1.9-1.2,1.5-6,2.5-9.1
		c2.2-6.7,9.2-11,15.9-10c6.7,1,12.2,7.4,12.9,14.5c0.2,2.4,1.2,4.8,1.9,7.2c1.8-1.9,3.8-3.7,5.3-5.9c2.3-3.3,2.3-6-1.8-8.6
		c-3.6-2.2-3.7-7.7-0.9-11.6c3.2-4.6,2.9-7.4-1.5-12.6c-2.5-2.9-6.5-3.4-11.2-0.9c0.9,1.5,2,3,2.5,4.6c0.5,1.7,1.2,4.2,0.4,5.1
		c-1.1,1.2-3.8,2-5.4,1.5c-2.9-0.7-5.1-0.9-7.8,0.6c-3.7,2.2-10.8,0-14.3-3.8c-3.5-3.8-4.5-10.8-2.1-14.8c5-8.4,3.8-11.8-5.2-15.2
		c-1.8-0.7-3.6-1.5-5.2-2.6c-3.4-2.4-5.7-1.3-6.8,2.2c-1,3.1-1.9,6.4-2,9.6c-0.3,7.8-3.7,13.5-10.9,15.7c-4.7,1.4-5.5,4-4.6,8.2
		c2.8,12.9-6,24.2-19.1,23.9c-7.2-0.2-11.4,3-14.1,9.2c-2,4.6-4.3,8.9-10.1,10c-7.4,1.4-12.6-3.2-14.1-8.3c-0.4-1.2-0.8-3.1-1.5-3.3
		c-5.3-1.6-4.7-3.2-0.4-5.6c0.9-0.5,1.5-2.6,1.3-3.9c-0.6-4.7-1.4-9.4-2.5-14c-0.5-1.8-1.7-3.8-3.2-5c-2.9-2.3-4.9-4.9-3-8.4
		c1.9-3.5,5.1-3.6,8.7-2.1c1.2,0.5,3.8,0.1,4.4-0.8C739,737.7,741.3,733.5,743.9,729.3z M949.1,517.1c3.6,2.2,6.4,2.3,9-0.4
		c2.1-2.1,4.1-4.4,6.6-6c8.9-5.6,9-5.5,2.5-13.4c-0.3-0.4-0.6-1-1-1.1c-1.8-0.6-3.8-1.6-5.6-1.4c-5.3,0.7-10.6,1.7-15.8,2.9
		c-1.1,0.3-3,2.2-2.8,2.6c1.7,3.7,1.2,9.2,7.5,9.6c1.1,0.1,2.2,1.7,3.5,2.8C951.7,514.2,950.6,515.4,949.1,517.1z M695.1,713
		c0.1,0,0.2,0,0.4,0c0-3.2,0.4-6.4-0.1-9.4c-0.3-2-1.9-3.8-3-5.7c-1.9,1.2-4.4,2-5.5,3.7c-2.8,4.4-5,9.2-7.5,13.8
		c-2.2,4-1.3,7.5,1.2,10.9c0.9,1.2,1.5,2.6,2.6,3.5c1.6,1.3,4.4,3.6,5,3.2c3-2.2,6.8-4.7,7.8-7.9C697,721.5,695.4,717.1,695.1,713z
		 M849.5,679.4c0.2-3.8-1.3-5-5.1-3.9c-2.4,0.7-6.1,1.8-7.5,0.6c-5-4.1-7.4-1.2-10.3,2.4c-1.3,1.6-3.5,2.5-4.9,4
		c-3.9,4.2-7.9,8.4-11.4,12.9c-0.7,0.9,0.5,3.2,0.9,4.8c1.3-0.5,3-0.7,3.8-1.7c1.2-1.4,2.1-3.3,2.7-5.2c1.6-5.3,4.6-8.5,10.2-10.2
		c5.2-1.5,9.3,0.6,13.9,1.8C846.5,686.5,849.6,684.3,849.5,679.4z M743.5,470.2c0-5-5.3-10.4-8.4-9.2c-2.9,1.1-5.7,2.6-8.3,4.2
		c-3.2,2-3,5.2,0.4,6.9c3.5,1.8,7.1,3.4,10.8,4.8c1,0.4,3-0.2,3.5-1C742.5,473.9,743,471.6,743.5,470.2z M661.4,618.8
		c1.2,3.4-2.5,8,3.4,8.7c2.8,0.3,6.1-0.4,5.6-4.3C669.8,618.1,665.8,618.6,661.4,618.8z M682.4,493.4c4.3-0.1,5.8-2.5,5.8-5.2
		c0-1.5-2-3.1-3.1-4.6c-2.2,2.1-4.4,4.1-6.6,6.2C679.8,491,681.1,492.2,682.4,493.4z"/>
	<path d="M1033.1,737.7c1.1-0.1,2.3-0.3,4.2-0.5c-3.8-6.4-0.4-11,3.7-15.1c4.2-4.2,9.4-6,15.7-3.9c0-1.5,0.1-2.6,0-3.7
		c-0.2-3.1-0.3-6.3-0.8-9.4c-0.3-1.7-0.9-4.3-2.1-4.8c-2.2-1-4.9-0.7-5.8,2.6c-0.2,0.6-0.6,1.2-0.9,1.8c-3.7,7.9-4.9,8-12.4,6.1
		c-5.9-1.5-9.5-6.9-8.7-12c0.9-5.7,6.2-10.4,12.3-10c5.7,0.4,7.9-1.5,8.7-7.3c0.5-3.8,3.6-7.2,5.2-10.9c0.6-1.3,0.7-3.7-0.1-4.5
		c-2.8-2.9-5.7-5.7-10.8-3.7c-3.3,1.3-7,0-8.8-3.7c-1.7-3.5-1.4-6.8,1.4-9.6c2.9-2.9,6.2-2.9,10-1.3c2.6,1.1,5.8,2,8.4,1.3
		c4.4-1.2,7.1,0.7,9.6,3.5c2.5,2.9,2.1,6,0.4,9.2c-1,1.8-1.3,4-2,6c2.3,0.5,5.4,2.2,6.8,1.3c2.1-1.4,3.7-4.4,4.4-7
		c0.6-2-0.7-4.5-0.8-6.8c-0.4-7.7,4.3-13.8,11.1-14.7c6.4-0.9,13.1,3.8,14.6,10.7c0.5,2.4-0.5,5.2-0.9,7.8c-0.3,1.9-0.8,3.9-0.8,5.8
		c0.1,5.3,4.2,7.4,9.2,5.8c8.1-2.6,9.6-10.3,13.6-16.1c0.8-1.1-0.9-3.6-0.5-5.2c0.6-2.2,2.2-4.2,3.3-6.3c1.8,1,4.7,1.7,5.1,3.1
		c1.2,4,3.7,5.8,7.2,7.7c8.9,4.8,9.8,16,2.1,22.9c-3.1,2.8-4.8,5.7-5.4,10c-1,6.8-5,11.6-11.8,13.9c-6.9,2.3-12.7,0.1-17-4.9
		c-3.9-4.5-7.3-6.5-13-3.5c-4.6,2.4-9.3,1-13.6-1.6c-2.5-1.5-4.8-2.2-6.5,1.3c-1.6,3.4-0.4,5.1,2.6,6.8c7.6,4.2,8.9,10.4,4,17.9
		c-2.1,3.2-4.1,6-2.9,10.4c1,3.8,2.8,4.7,6.3,5.7c2.6,0.7,6,3.1,6.7,5.4c0.7,2.3-1,6.1-2.9,8c-2.5,2.6-6.1,1.8-9.1-0.4
		c-0.8-0.6-1.6-1.4-2.5-1.6c-1.7-0.3-4-1.1-5.1-0.3c-8.9,5.9-19.1,4.3-25.3-4.2c-1.1-1.5-3.7-2.1-5.5-3.1
		C1033.4,737.1,1033.2,737.4,1033.1,737.7z"/>
	<path d="M822,953.8c-12.5,1.7-26.8-13.8-21.2-28.7c1.7-4.5,2-9.6,2.5-14.4c0.5-5.5,6.6-9.5,12.5-7.5c4.4,1.5,7.6,1.6,10.3-3.1
		c3.5-6,9.3-9.2,16.2-8.3c8.2,1,14.1,6,15.8,14.2c1.6,7.4-1.6,13.9-7.7,18.2c-4.2,2.9-6.1,6.5-7,11.3
		C841.6,946.5,832.2,954.7,822,953.8z"/>
	<path d="M854.5,384.4c-0.9,5.4-0.9,10.4-2.7,14.7c-3.5,8.3-12.5,10.3-20.8,5.4c-6.8-4.1-8.8-13.2-4.3-20c1.2-1.8,2.5-3.5,4-5
		c3.2-3,2.4-4.6-1.4-6.4c-10.7-5.1-13.5-12.2-8.7-20.8c3.2-5.8,10.5-8.2,16.5-5.5c1.6,0.7,3.2,1.7,4.9,2.4c3.2,1.2,5.8,1.1,7.8-2.6
		c4.4-8.1,10.6-11.1,18.9-9.8c6.3,1,12.4,7.3,14.3,14.7c1.4,5.6-2.9,14.1-9.4,17.6c-3.7,2-6.3,3.6-6.8,8.5c-0.4,4-3.8,6.8-8.5,6.9
		C856.9,384.4,855.4,384.4,854.5,384.4z M851.4,380.5c0.9-4.7,2.1-8.1,1.9-11.4c-0.1-1.8-2.1-4.1-3.8-5c-0.9-0.5-3.5,1.1-4.8,2.2
		c-1.9,1.7-3.7,3.8-5,6c-0.6,1-0.2,3.8,0.5,4.2C843.5,378,847.1,379,851.4,380.5z"/>
	<path d="M740.8,856.6c-0.7,8.2-1.1,16-2.3,23.7c-1.1,7-5.3,11.9-12.1,14.4c-8.1,3-15.4-0.1-20-5.8c-3.9-4.8-5.2-11.8-7-18
		c-4.1-14.1,5.2-25.7,17.9-27.7c2.6-0.4,5.6,0,8,0.9c4,1.5,8,3.3,11.4,5.8C738.7,851.1,739.4,854.1,740.8,856.6z"/>
	<path d="M844.3,878.7c-10.5,0-17.9-7.2-17.9-17.6c0-10.8,7.6-18.4,18.1-18.7c8.1-0.2,18.7,7.9,18.2,18.9
		C862.4,869.1,854.5,880,844.3,878.7z"/>
	<path d="M721.8,403c-0.4,3.2-1.1,5.7-4.8,5.4c-5.3-0.3-9.4-4.5-8.8-8.6c0.1-0.8,0.3-1.7,0.7-2.4c2.1-3.9,0.3-5.6-3.3-7
		c-7.5-2.9-11.6-11.5-8.9-18.3c2-5.1,9.3-10.8,13.9-10.3c6.7,0.8,11.6,4.4,14,10.8c2.3,6.1-0.2,11.2-4.4,15.1
		c-3.5,3.2-3.8,5.5-0.7,9C720.8,398.4,721.1,400.9,721.8,403z"/>
	<path d="M932.1,404.8c-1.5,2.1-3,5.7-5.8,7.6c-4.2,2.9-3.3,4.6-0.5,7.6c6.5,7.1,1.7,23.4-7.2,25.4c-4.9,1.1-8.3-1.2-11-4.6
		c-3.1-3.8-2.6-8.1,0.3-11.8c2.6-3.4,5.5-6.6,8.6-9.6c3-2.9,2.6-4.8-0.6-7.1c-7.7-5.5-6.7-14,1.3-18.6
		C923.6,390.2,931.6,397.4,932.1,404.8z"/>
	<path d="M741.7,394c-1.9,0.6-3.1,1.3-4.3,1.3c-1-0.1-2-0.9-2.7-1.7c-0.2-0.3,0.3-1.7,0.8-2c0.7-0.4,2.2-0.8,2.5-0.4
		c3.7,3.7,5,0.1,6.6-2.2c4.5-6.5,12.1-8.6,19.4-5.2c6,2.7,10.4,10.6,9,16c-2.3,8.9-8.8,14.2-16.8,13.6c-7.1-0.5-13.9-7.4-14.5-14.6
		C741.6,397.5,741.7,396.2,741.7,394z"/>
	<path d="M994.3,389c0,8.2-7.2,15.4-15.3,15.4c-8.6,0-15.3-6.6-15.3-15.3c0-7.7,7.5-15.5,15-15.4C986.8,373.8,994.3,381.1,994.3,389
		z"/>
	<path d="M1053.5,382.8c8,0,14.7,6.6,14.8,14.6c0.1,8.5-6.6,15.1-15.4,15.1c-7.5,0-15-7.5-15-14.9
		C1038,390,1045.6,382.8,1053.5,382.8z"/>
	<path d="M1103.6,621.9c-0.9-8.2,7.1-15,14.6-14.2c7,0.7,13.6,7.6,13.1,14.8c-0.5,6.4-6.5,13.5-14.2,13.2
		C1111.3,635.4,1103.2,630.5,1103.6,621.9z"/>
	<path d="M1106.4,483.6c0.2,7.2-5.6,13.3-13.5,13.8c-6.9,0.4-14.7-7.3-14-14c1-8.6,6.6-13.8,14.1-13.7
		C1100.9,469.8,1106.5,475.6,1106.4,483.6z"/>
	<path d="M1068.1,528.7c-4.1,0.3-6.2-2.3-6.4-5.6c-0.3-6.2,1.6-12,6.3-16.4c3.8-3.5,7.9-3.9,12.6-1.3c4.4,2.5,6.9,6.3,6.4,10.7
		c-0.5,4.6-2.7,9.3-8.4,10.4C1075.1,527.3,1071.6,528,1068.1,528.7z"/>
	<path d="M962.5,428.4c-1.8,3.9-3,8.2-5.6,11.5c-2.8,3.6-8,3.4-11.6,0.5c-1.5-1.2-3.3-2.2-4.7-3.5c-0.8-0.7-1.7-1.9-1.6-2.7
		c0.5-3.4,1.2-6.7,2-10c1.4-5.3,6.5-9.8,10.5-9.4C957.5,415.3,961.3,420.5,962.5,428.4z"/>
	<path d="M970.6,872.9c0,6.6-4.4,10.8-11.3,10.8c-6.4,0-12.3-5.3-11.7-11.2c0.7-6.2,4-10.9,11.6-11
		C966.1,861.5,970.6,866,970.6,872.9z"/>
	<path d="M529.4,515.4c-5.5-0.1-11.3-5.9-11.4-11.6c-0.1-5.7,6.1-12,11.8-11.8c5.4,0.2,11.5,6,11.6,11
		C541.4,508.9,535,515.5,529.4,515.4z"/>
	<path d="M1145.4,562c0,5.4-5.6,10.7-11.1,10.6c-5.8-0.1-10.7-5.2-10.7-10.9c0-5.3,5.5-10.9,10.8-11
		C1139.4,550.6,1145.4,556.8,1145.4,562z"/>
	<path d="M746.7,822c-6.3-0.4-9.4-3-10.1-7.2c-0.6-3.1-2.3-3.9-4.6-5c-1.5-0.7-3.1-2.4-3.5-3.9c-0.3-1.1,1-3.6,2-3.9
		c1.6-0.4,4.1,0,5.3,1c2.4,2.1,4.4,2.2,7.5,1.9c2.8-0.2,6.6,1.4,8.5,3.5c1.5,1.7,1.8,5.8,0.8,8C751.3,819,748.2,820.7,746.7,822z"/>
	<path d="M1107.1,541.6c-5.6,0.1-10.5-4.7-10.5-10.2c-0.1-5.3,5-10.6,10.2-10.6c5.3-0.1,10.5,5,10.5,10.3
		C1117.5,536.6,1112.7,541.5,1107.1,541.6z"/>
	<path d="M1079.6,772.7c-5.1,0-10.2-4.8-10.1-9.6c0-5.2,5-10.4,10-10.5c4.6,0,10,5.2,10.1,9.8
		C1089.7,767.8,1084.9,772.7,1079.6,772.7z"/>
	<path d="M1024.3,409.5c0,5.4-4.5,9.8-10.1,9.9c-5.3,0.1-10.5-5-10.5-10.3c0-5.3,5.3-10.5,10.5-10.4
		C1019.5,398.9,1024.3,404,1024.3,409.5z"/>
	<path d="M1045.5,528.3c0,5.3-4.7,10.2-10,10.1c-4.4,0-9.7-5.5-9.8-10.2c-0.1-4.6,5.4-10.3,10.1-10.5
		C1040.2,517.6,1045.4,523.3,1045.5,528.3z"/>
	<path d="M1098.6,582.6c-5.6,0-10.1-4.5-10-10c0.1-4.3,5.4-9.6,9.7-9.8c4.6-0.2,10,5.4,10,10.4
		C1108.4,578.7,1104.4,582.6,1098.6,582.6z"/>
	<path d="M675.6,867.8c-4.8-0.1-7.8-2.9-7.9-7.5c-0.1-4.6,3.4-7.8,8.3-7.8c4.9,0,7.8,3.1,7.7,8.2
		C683.6,865.1,680.4,867.9,675.6,867.8z"/>
	<path d="M771.8,882.4c-0.2,4-3.5,7.3-7.2,7.3c-3.9,0-7.4-3.9-7.2-8c0.2-4.2,3.8-7.5,7.9-7.2C768.9,874.7,771.9,878.5,771.8,882.4z"
		/>
	<path d="M605.6,726.8c0.1,4.5-2.5,7.2-6.8,7.2c-4.3,0.1-7.3-2.7-7.4-6.8c0-4.1,3.5-7.7,7.4-7.7
		C602.1,719.6,605.5,723.3,605.6,726.8z"/>
	<path d="M890.7,398.3c0-4,3.4-7.6,7.4-7.6c3.9,0,8.1,4,8.2,7.7c0.1,3.4-4.8,8-8.3,7.9C894.1,406.2,890.7,402.5,890.7,398.3z"/>
	<path d="M886.4,403.4c-3.2,2.9-5,5.6-7.4,6.3c-1.6,0.5-4.3-1.5-6.1-2.9c-2-1.5-3.6-3.5-5.1-5.6c-0.7-1-1.2-2.7-0.9-3.9
		c0.2-0.8,2.1-1.5,3.2-1.5c2.8,0.1,5.8,0.1,8.2,1.2C881,398.2,883,400.6,886.4,403.4z"/>
	<path d="M1026.8,614.8c0-3.4,3.4-6.9,6.6-6.8c3,0.1,6.9,3.8,7,6.7c0.1,3.5-3.5,7-7,7C1029.9,621.5,1026.9,618.4,1026.8,614.8z"/>
	<path d="M1034.2,762.5c4-0.2,6.1,2.2,6.3,5.6c0.2,3.4-2.4,6.1-5.6,5.4c-2.3-0.5-5.4-3.1-5.9-5.3
		C1028.4,765.5,1030.1,762.3,1034.2,762.5z"/>
	<path d="M542.3,637.9c-1.9,1.3-3.7,3.2-5.8,3.6c-3,0.6-5.4-1.8-4.8-4.7c0.5-2,3-4.6,4.9-4.9c1.7-0.2,3.8,2.4,5.7,3.7
		C542.3,636.5,542.3,637.2,542.3,637.9z"/>
	<path d="M723.4,832.6c-2.6,2.3-4.2,3.7-5.7,5c-1.5-1.7-3.5-3.2-4.1-5.2c-0.3-0.9,2.4-3.7,3.8-3.7
		C719,828.8,720.7,830.8,723.4,832.6z"/>
	<path d="M897.8,859.7c2,2.8,4.3,4.6,4,5.9c-0.4,1.7-2.7,3.9-4.3,4c-1.3,0.1-3.9-2.5-4-4C893.5,864,895.8,862.4,897.8,859.7z"/>
	<path d="M1039.4,667.9c1.9,2.5,3.9,3.9,3.8,5.3c-0.1,1.3-2.3,2.4-3.6,3.6c-1.1-1.3-2.9-2.4-3.2-3.9
		C1036.2,671.7,1037.9,670.3,1039.4,667.9z"/>
	<path d="M1118.7,495.8c-2.1-2.9-4.1-4.6-3.9-5.9c0.3-1.6,2.4-2.8,3.8-4.2c1.3,1.3,3.5,2.5,3.6,3.8
		C1122.3,491,1120.5,492.7,1118.7,495.8z"/>
	<path d="M984.5,880.8c-2-2.6-4.1-4.2-3.9-5.3c0.3-1.5,2.4-2.6,3.7-3.9c1.1,1.4,2.8,2.6,3.2,4.2
		C987.8,876.7,986.1,878.2,984.5,880.8z"/>
	<path d="M1056.1,492.8c-2.3,1.4-3.7,2.8-4.9,2.7c-1.3-0.1-3.7-2.1-3.5-2.5c0.7-1.8,2.1-3.4,3.3-5
		C1052.4,489.3,1053.7,490.6,1056.1,492.8z"/>
	<path d="M1129.2,581.3c-2.6,1.7-4.1,3.4-5.4,3.2c-1.2-0.1-2.2-2.2-3.3-3.5c1.3-1.1,2.4-2.9,3.9-3.2
		C1125.4,577.7,1126.8,579.5,1129.2,581.3z"/>
	<path d="M1057.4,762.2c-1-1.6-2.4-3-2.8-4.7c-0.2-0.7,1.7-2.5,2.8-2.7c1-0.2,3.2,1.3,3.2,2c0,1.7-1,3.5-1.6,5.2
		C1058.5,762.1,1057.9,762.1,1057.4,762.2z"/>
	<path d="M1076,802.6c-1.9-2.3-3.7-3.6-3.5-4.3c0.4-1.4,2-2.5,3.1-3.8c1,1,2.8,1.9,2.9,3C1078.7,798.7,1077.3,800.1,1076,802.6z"/>
	<path d="M951.1,774.3c1.4,1.9,3,3,2.9,3.9c-0.1,1.1-1.7,2-2.6,3c-0.9-0.9-2.5-1.7-2.6-2.7C948.6,777.6,949.9,776.4,951.1,774.3z"/>
	<path d="M614.7,796c1.9,2.1,3.8,3.4,3.8,4.5c-0.1,1.1-2.2,2.2-3.4,3.3c-0.9-1-2.5-2-2.6-3.2C612.3,799.5,613.5,798.2,614.7,796z"/>
	<path d="M833.7,424.5c1-1.4,2.1-2.8,3.1-4.2c1.2,0.9,2.4,1.8,3.6,2.7c-1.6,1.2-3.1,2.3-4.7,3.5
		C835.1,425.9,834.4,425.2,833.7,424.5z"/>
	<path d="M1027.1,890.1c1.5,1.4,2.5,2.3,3.6,3.1c-1.1,1.2-2.2,2.4-3.3,3.6c-0.9-1-2.4-1.9-2.5-3
		C1024.8,892.8,1026.1,891.7,1027.1,890.1z"/>
	<path d="M948.5,841.8c1.7-0.2,3.3-0.5,5-0.7c0,1.2,0.2,3.3-0.1,3.4c-1.5,0.3-3.2,0.2-4.8,0.2C948.5,843.7,948.5,842.7,948.5,841.8z
		"/>
	<path d="M1029.7,637.9c-1.1-1.7-2.3-2.8-2.1-3.5c0.4-1.1,1.7-1.9,2.6-2.8c0.8,1,2,2,2.3,3.1
		C1032.6,635.4,1031.1,636.4,1029.7,637.9z"/>
</g>
</svg>
