<?xml version="1.0" encoding="utf-8"?>
<!-- Generator: Adobe Illustrator 19.0.0, SVG Export Plug-In . SVG Version: 6.00 Build 0)  -->
<svg version="1.1" id="mask-01_xA0_Изображение_1_"
	 xmlns="http://www.w3.org/2000/svg" xmlns:xlink="http://www.w3.org/1999/xlink" x="0px" y="0px" viewBox="0 0 567.2 425.5"
	 style="enable-background:new 0 0 567.2 425.5;" xml:space="preserve">
<style type="text/css">
	.st0{fill:#FFFFFF;}
</style>
<g>
	<path d="M0.3,182.8c0.3-0.2,0.7-0.3,0.8-0.6c2.4-3.9,8.1-4.1,11.3-1.2c0.9,0.8,1.9,1.7,2.9,2.5c0.8,0.6,1.7,1.3,2.9,0.8
		c1.8-0.8,3.5-0.5,5.1,0.8c1.8,1.4,2.8,1.3,4.4-0.3c2.5-2.4,5.4-4.3,8.8-4.9c3.8-0.7,7.6-0.2,10.8,2.3c1.7,1.4,3.5,1.5,5.1,0.5
		c3.1-1.8,6.4-2.1,9.9-1.9c2.1,0.1,4-0.5,5.9-1.3c3.3-1.5,6.4-1,9.1,1.2c2.2,1.7,3,6.8,1.4,9.1c-1.4,2-3.7,2.9-6,3.5
		c-0.9,0.2-1.8,0.6-2.7,0.9c-2.9,1-3.6,3.8-3,6.4c0.4,1.6,0.4,3.5,0,5.1c-0.7,3.1-0.2,5.5,2.6,7.3c1.2,0.8,2.3,2,3.4,3
		c2.2,2,3.5,1.7,5-0.8c0.9-1.6,2.2-3,3.3-4.4c1-1.3,1.5-2.7,1.2-4.5c-0.6-3.5-2-6.9-1.6-10.6c0.4-3.4,2-6.1,5-7.6
		c1.6-0.8,3.3-1.3,4.9-2c0.4-0.2,0.7-0.6,1.1-1c0.4,0.7,0.8,1.8,1.8,0.2c3.1,2.1,6.2,4.3,9.5,6.5c0.1-0.9,0.2-1.6,0.3-2.3
		c0.2-3.5,1.1-6.7,3.7-9.2c1.2-1.1,2.3-2.3,3.7-3.2c3.7-2.4,9.4-0.9,12.1,1.4c3.5,3,4.3,6.6,3.2,10.9c-0.4,1.4-0.5,2.9-0.9,4.4
		c-1.3,4.8-3.9,5.2-7.3,4c-4.6-1.5-9.6-2-13.8-5c-0.7,1.6,0.1,2.9,0.6,4c1.6,3.5,4.1,6.4,7.2,8.7c1.5,1.1,1.9,2.7,2.2,4.4
		c0.3,1.5,0.7,3.1,1.4,4.5c1,2.1,2.2,2.3,4,0.9c2.8-2.1,5.8-2.4,8.9-0.8c2.6,1.3,4.7,5.2,3.5,8.1c-0.2,0.5-0.2,1.1-0.5,1.6
		c-1.5,3.1,0,5.5,2.1,7.5c3,2.8,5.6,6,6.9,10c0.5,1.7,0.7,3.6,1,5.4c0.1,0.7,0.1,1.4,0.3,2c0.5,1.9,1.6,2.5,3.1,2
		c1.6-0.6,2.3-2.3,1.6-3.9c-0.8-1.9-1.7-3.8-1.2-5.9c0.3-1.1,0.6-2.2,1.2-3.1c1.1-1.9,0.8-3.6-0.4-5.2c-1.9-2.6-3.2-5.5-2.8-8.8
		c0.3-3.2,1.9-6.3,6-6.7c4.7-0.4,8.3,1.3,11,5.1c1.6,2.2,1.7,7-0.5,9.1c-0.6,0.6-1.1,1.5-1.6,2.2c-1,1.3-1.1,2.7-0.5,4.2
		c0.8,1.9,1.2,4,1.9,5.9c0.5,1.3,1.2,2.5,2,3.6c1.1,1.6,2.5,3,3.6,4.5c1.4,1.9,1.4,4.2,1,6.3c-0.2,1.6-1,3.1-1.3,4.7
		c-0.1,0.7,0,1.8,0.5,2.3c0.5,0.4,1.5,0.4,2.3,0.4c2.6-0.2,4.5-2.2,6.7-3.2c2.1-0.9,4.1-1.5,6.2,0.1c2.4,1.8,3.2,4.3,2.1,7.1
		c-0.7,1.7-1.7,3-3.3,4c-1.9,1.2-2.3,3-1.2,5.1c0.3,0.6,0.5,1.3,0.9,1.9c0.9,1.6,2.1,1.7,3.2,0.3c1.9-2.5,4.1-4.5,7.1-5.7
		c1.8-0.7,2.6-2,2.5-4c-0.2-3.3,1.3-5.7,4.4-7.1c2.1-0.9,2.2-1.9,0.6-3.5c-2-2-2.1-4.3-1.6-6.9c0.3-1.5,0.1-3.2,0.1-5
		c-2.5,0.5-4.4,1.6-6.2,3c-1.3,1-2.3,2.3-3.3,3.6c-1.2,1.5-4.8,3-6.5,2.5c-3-0.9-4-3-4.4-5.6c-0.5-4-0.6-7.9-2-11.8
		c-1.1-3.1,0.4-6,2.3-8.7c2.3-3.2,5.5-4.9,9.3-5.4c3.2-0.4,6.2,0.7,8.6,2.8c2.2,1.8,3.9,4.1,4.6,7c0.1,0.4,0.2,0.8,0.2,1.3
		c0.1,1.8,0.2,3.6,0.3,5.5c1.3,0,2.3,0.1,3.4,0c2.4-0.3,4.4,1,6.5,1.9c0.9,0.4,1.8,1.1,2.8,1.2c0.9,0.1,2-0.1,2.7-0.5
		c1.8-1,3.5-2,5.2-3.2c0.9-0.6,1.8-1.5,2.2-2.4c0.7-1.5,2.3-2.9,1.7-4.9c-0.3-1.1-0.9-2.2-1.7-3c-1.9-2.1-3.7-4.2-4.5-7
		c-0.1-0.4-0.5-0.7-0.9-1.2c-0.6,0.6-1.2,1-1.7,1.5c-2.1,2.5-4.7,3.5-7.9,2.6c-3.7-1.1-7.5-1.7-11.1-3c-3.8-1.3-7-3.8-8.6-7.7
		c-1.1-2.6-3-3.5-5.6-3.9c-1.6-0.3-3.3-0.8-4.6-1.7c-2-1.3-3.7-1.6-6-0.6c-4.3,2-8.5,1-11.8-2.1c-1.7-1.7-2.4-4.4-3.4-6.8
		c-0.3-0.7-0.3-1.5-0.5-2.2c-0.5-1.9,0.1-3.7,1.9-4.6c2.7-1.4,5.7-1.9,8.8-1.9c4.3-0.1,6.5,2.8,8.7,5.8c0.9,1.3,2.5,1.8,4,1.6
		c1.6-0.2,3.3-0.4,4.8,0c3,1,5.4,0.4,7.6-1.6c3.8-3.3,8.2-4.7,13.2-4.3c2.8,0.3,5.2,1.5,7.5,2.9c0.9,0.5,1.7,1.1,2.7,1.5
		c0.6,0.2,1.5,0.2,2.1-0.1c2-0.9,3.8-2.2,5.8-2.9c6.9-2.5,13.9,1.6,15.4,9c0.4,2.1,0.2,4.4-0.8,6.4c-0.6,1.3-1.1,2.8-1.6,4.2
		c-0.4,1.4,1.5,3.8,3.3,4.5c0.9,0.4,2,0.7,2.7,1.4c1.4,1.3,0.6,3.4-1.6,4.5c-1.9,0.9-3.6,2.1-4.7,4c-0.2,0.3-0.4,0.6-0.5,0.9
		c-0.1,0.8-0.3,1.8,0,2.2c0.4,0.4,1.5,0.3,2.2,0.2c1.4-0.3,2.7-1,4-1c2.9-0.2,5.7,1.3,5.9,5c0.1,1.7,0.3,3.3,1.3,4.8
		c0.9,1.3,2.1,1.8,3.5,2.2c1.5,0.5,3,0.2,4.5-0.4c0.8-0.4,2-0.7,2.8,0.5c0.8,1.2,0.3,2.2-0.6,3c-1.7,1.3-2,3.2-2.5,5.1
		c-0.2,0.7-0.3,1.7,0.9,2.1c1,0.3,2.1,0.6,2.8-0.5c0.9-1.3,1.6-2.7,2.4-4.1c0.9-1.7,1.9-3.3,3.5-4.4c1.9-1.3,1.9-1.7,0.7-3.6
		c-0.5-0.8-1-1.7-1.4-2.5c-0.6-1.2-0.5-2.5,0.3-3.6c0.9-1.1,2.2-1.2,3.4-0.8c2.6,0.8,4.5,2.6,5.5,5.2c0.9,2.4,2,4.3,5,4.7
		c2.2,0.3,4.1,1.8,5.6,3.7c0.8,1,1.8,1.3,2.9,0.8c1-0.5,1.7,0,2.1,0.7c0.3,0.5,0.2,1.5-0.1,2c-0.8,1.4-0.8,2,0.7,2.9
		c1.6,0.9,3.2,1.9,4.8,2.8c2,1.1,2.9,3.1,2.4,5.1c-0.4,1.5-2.6,3.1-4.5,3.1c-1.3,0-2.7,0.1-4,0c-1.3-0.1-2,0.6-2.4,1.7
		c-0.5,1.2-0.9,2.4-1.4,3.6c-0.6,1.4,0.1,2.6,0.5,3.8c0.1,0.5,0.4,0.9,0.6,1.3c2.1,3.6,0.2,4.4-2.2,6.1c-2,1.4-4.2,1.8-6.7,1.6
		c-1-0.1-2.1-0.1-3.1,0c-1.8,0.2-3.1-0.5-3.8-2.1c-0.6-1.2-1.3-1.7-2.8-1.3c-1.2,0.3-2.6-0.2-3.9-0.2c-0.5,0-1,0-1.5,0
		c-1.6,0.1-3.2,0.2-4.8,0.4c-1.6,0.2-3.3,0.1-4.3,1.5c0.3,1.6,0.9,3,0.9,4.5c0.1,3.5-3,5.4-5.8,3.6c-2.4-1.5-4.6-0.9-6.8-0.3
		c-1.5,0.4-1.2,1.7-1.1,2.9c0.1,1.8,0.9,3.4,0.3,5.4c-0.5,1.6-1.6,2.3-2.9,2.9c-0.5,0.2-1,0.3-1.5,0.4c-0.9,0.1-2,0.2-1.9,1.5
		c0.1,1.3,1,1.9,2.3,2c1,0.1,2.1,0.2,3.1,0.6c1.5,0.6,2.2,2.3,1.8,3.8c-0.4,1.4-1,2.8-1.6,4.5c2,0.2,3.9,0.5,5.8,0.5
		c0.6,0,1.2-1.1,1.6-1.8c0.6-1.3,1-2.6,1.5-3.9c0.6-1.6-0.6-3.8-2.5-4.8c-1.6-0.9-1.7-1.6-0.9-3.2c0.5-1,0.8-2.1,1.2-3.1
		c0.6-1.6,2-2.2,3.4-2.9c2.2-1,4.5-1.8,6.2-3.7c1-1.2,2.1-2.3,3.3-3.2c1.6-1.3,3.4-1.1,5.1-0.1c0.5,0.3,1,0.7,1.6,0.8
		c0.5,0.1,1-0.2,1.4-0.4c0.8-0.5,1.5-1.2,2.4-1.5c1-0.4,1.8,0.5,1.7,1.3c-0.1,0.7-0.9,1.3-1.5,1.9c0,0-0.2,0-0.3,0
		c-1,0.2-2.6-0.7-2.7,1.1c-0.3,3-0.4,4.9,1.8,5.9c0.5,0.2,1.1,0.4,1.6,0.8c1.2,0.8,2.1,0.4,3-0.4c0.8-0.7,2.5-0.8,2.7-0.1
		c0.3,1,0.4,2-0.8,2.6c-1,0.5-2.1,1.1-1.2,2.5c0.2,0.4,1,0.8,1.3,0.7c3.6-1.3,5.6,0.7,7.4,3.3c0.4,0.6,0.8,1.2,1.4,1.7
		c2.3,2,2.1,4,0.2,6.2c-1.8,2.1-1.8,2.1,0.2,4.1c1.7,1.8,2,3.4,0.9,5.6c-0.4,0.9-0.9,1.7-1.5,2.5c-1.2,1.5-3.6,1.6-5.5,0.1
		c-1-0.9-2-1.9-2.9-2.9c-0.7-0.7-1.1-0.8-1.6,0.2c-0.9,1.4-2.1,2.4-3.9,2.4c-1.4,0-2.4-0.9-2.3-2.4c0.3-3.1,2.3-4.1,4.8-3.7
		c0.8,0.2,2,0.8,2.4,0.5c1.1-0.8,1.9-2.1,2.7-3.2c0.2-0.2,0.1-0.8-0.1-1c-1.8-1.6-3.3-3.4-3.3-6.3c-0.5,0.4-0.8,0.6-1,0.8
		c-1.7,2.3-3.9,2.4-6.4,1.8c-1-0.2-1.2,0.3-0.9,1.5c0.3,1.3,0.7,2.7,0.7,4c0,1-0.7,2-1.2,3c-0.1,0.3-0.5,0.4-0.6,0.6
		c-0.8,1.9-2.2,2.1-4.1,1.8c-2.3-0.4-4.6-0.4-7.3-0.5c0.6,2.1,0.9,3.8,1.5,5.5c0.1,0.4,1,0.4,1.5,0.7c0.7,0.4,1.5,0.8,2.1,1.3
		c0.2,0.2-0.1,1.1-0.4,1.5c-0.6,0.7-1.1,1.5-2.3,0.8c-1.5-0.9-2.4,0.1-3.2,1.2c-1,1.5-1.9,3-2.9,4.5c-0.6,0.9-0.4,1.6,0.3,2.4
		c0.7,0.7,1.3,0.7,2.2,0.3c1-0.4,2-0.5,3.1-0.7c0.4,0,1,0.2,1.1,0.5c0.1,0.4,0,1-0.2,1.3c-1,1.4-3.1,1.4-4.6,0.9
		c-2.1-0.7-4.4-1.8-6.6-0.2c-1.1,0.8-2.2,1.5-3.4,2.3c-0.3,0.2-0.7,0.4-1.1,0.5c-2.9,0.1-5.9,0.3-8.5-1.6c-1.3-0.9-2.7-0.8-4.2-0.1
		c-0.9,0.4-2.1,0.9-2.9,0.7c-2.8-0.6-3.6-3.4-2.1-5.9c0.4-0.6,0.9-1.3,1.1-2c0.3-1.5-0.5-2.7-1.7-3.4c-1.2-0.7-2.4-0.7-3.6,0.4
		c-1.7,1.5-3.6,2.8-5.4,4.2c-1.4,1-2.8,2-4.5,0.8c-1.4-0.9-1.7-2.5-1.1-4.8c0.4-1.5,0.9-3,1-4.5c0-2.1,1.2-3.6,2.7-4.6
		c2.1-1.4,3.5-3.1,4.7-5.2c0.8-1.4,1.9-2.3,3.4-2.8c0.7-0.2,1.4-0.6,1.9-1.1c0.6-0.6,1.3-1.3,0.3-2.4c-1.3-1.6-1.1-3.4-0.1-5.2
		c1.3-2.2,1-2.9-1.6-3.2c-2.9-0.3-5.1-1.8-7-3.8c-0.8-0.9-1-2-0.5-3.1c0.5-1.1,1.3-1.7,2.5-1.7c0.8,0,1.7,0.1,2.4,0.3
		c3.5,1,4-0.5,4.4-3.2c0.3-2.4-0.6-3.4-3-3.6c-2.6-0.1-5.2-0.3-7.8,0c-2.6,0.4-4.5,1.6-4.4,5.1c0.1,2.1-0.4,4-2.2,5.4
		c-1.5,1.2-2.8,2.5-4.5,4c0.5,0.3,1.1,0.7,1.7,1c2.2,0.8,4.3,1.7,6,3.4c3.4,3.3,3,5.5,1.6,9.7c-0.9,2.8-2.8,4.8-5.9,5.6
		c-4.3,1.1-8.3,0.6-11.6-2.7c-0.9-0.9-2-1.4-3.3-0.7c-0.6,0.3-1.4,0.5-2.1,0.6c-1.1,0.2-2.1,0.1-2.7-0.9c-0.8-1.2-0.8-3.4,0-4.4
		c0.7-0.9,1.7-1.5,2.9-1.4c2.4,0.4,3.9-0.7,4.8-2.9c1.3-2.9,3.3-5.1,6.2-6.5c1-0.5,0.8-0.9,0-1.4c-4.1-2.5-8.2-5-12.2-7.6
		c-1.8-1.2-2.2-3.3-2.7-5.3c-0.4-1.2-0.5-2.4-1-3.6c-0.5-1.5-1.1-1.6-2.4-0.9c-2.7,1.3-5.4,2.2-8.2,0.6c-1.2-0.7-2.2-1.6-3.2-2.6
		c-1.2-1.1-2.4-1.9-4.2-1.8c-0.9,0-1.8-0.2-2.7-0.3c-3-0.5-4.3,0-5.3,2.9c-1.3,3.9-3.8,6.6-7.4,8.3c-2.4,1.2-3.3,3.5-3.6,6
		c-0.4,3.9-1.1,7.4-3.5,10.7c-2.2,3-0.2,5.6,3.1,6.5c1.6,0.4,3-0.1,4.4-0.7c0.9-0.3,1.9-0.7,2.8-0.7c3.4,0.1,4.8,1.1,5.8,4.3
		c0.6,1.9-0.9,5.1-3,6c-1.8,0.8-3.8,1.2-5.8,1.7c-1.3,0.3-2.6,0.5-3.8,0.7c-1.6,0.3-1.8,0.9-1.1,2.3c0.5,0.9,1,2,1.3,3
		c0.8,2.8-0.9,6.2-3.6,7.3c-3.3,1.4-6.2,0-7.7-2.7c-1.3-2.3-0.9-4.8,1-6.9c2.2-2.4,2.2-2.4-0.5-4c-1.6-0.9-2.3-2.8-1.9-4.7
		c0.1-0.5,0.1-1.1-0.1-1.6c-0.4-1.1-1.2-1.1-1.8-0.2c-1.5,2.4-3.4,4.3-6.1,5.4c-1.7,0.6-1.5,2.2-1.6,3.5c-0.4,3-1.8,5-4.9,5.8
		c-1.6,0.4-2.8,1.4-3.7,2.9c-0.5,0.8-1.3,1.6-2.1,2.1c-1.7,1.3-1.8,1.9-0.5,3.6c0.7,0.9,1.2,2,0.4,3.2c-0.6,1-1.6,1.2-2.4,0.8
		c-0.9-0.4-1.6-1.3-2.5-2.1c-0.5,0.4-1,0.8-1.6,1.2c-1.1,0.8-2.1,1.6-3.2,2.3c-1,0.6-1.6,1.3-1.7,2.6c0,1.8-0.3,3.6-0.7,5.3
		c-0.6,2.4-4.4,4.1-7,3.4c-2.4-0.7-4.4-2-6.3-3.5c-0.8-0.6-1.7-1.1-2.6-1.6c-1.9-1.1-3-2.7-3.1-4.8c-0.1-2,0.7-2.9,2.7-3
		c2.1,0,4.2-0.3,6.2-0.6c1.2-0.2,2.4-0.8,3.5-1.3c0.9-0.4,1.1-2.8,0.3-3.4c-0.2-0.1-0.5,0-0.8,0c-3.1,0.6-3.8-1-3.3-3.3
		c0.3-1.4-0.1-2.4-0.7-3.6c-1.5-2.8-1.2-4.9,1-6.8c0.8-0.6,1.8-1,2.6-1.5c1.1-0.6,1.5-2,0.9-3.1c-0.6-1-1.4-1.4-2.5-0.8
		c-1.4,0.7-2.7,0.6-4.1-0.4c-1.4-1-3-0.1-4.4,0.3c-0.4,0.1-0.8,0.4-1.2,0.6c-0.8,0.4-1.1,0.9-0.5,1.8c1,1.5,2.1,3,2,5.1
		c-0.1,1.4-0.5,2.6-1.5,3.5c-0.4,0.3-0.7,0.7-1,1c-2,2.1-2.1,1.7-1.1,4.7c0.7,2.1,1.1,4.4,1.4,6.6c0.2,1.7-2,2.9-4.1,2.4
		c-2.4-0.5-4.9-1-7.3-1.8c-1.4-0.5-2.5-1.6-4-2.6c0.9-0.7,1.4-1.2,1.9-1.4c2.5-0.8,3.1-3.2,4.2-5.2c0.6-1-0.9-2.3-2.3-1.9
		c-3.4,0.8-4-0.3-5.6-3.3c-0.8-1.5-1.1-3.3-1.6-4.9c-0.9-2.9-2.5-4.7-6.2-3.7c-1.5,0.4-3.4,0.1-5-0.2c-1.6-0.4-2.2-2-1.7-3.6
		c0.6-1.7-0.1-3.2-0.6-4.8c-0.1-0.4-0.6-0.8-1-0.9c-1.3-0.5-2.5-0.9-3.8-1.2c-0.8-0.2-1.7-0.3-2.5-0.1c-1.6,0.3-2.5,2.1-1.6,3.5
		c1.3,1.9,0.7,4.1,1.2,6.1c0.3,1.2,0.1,2.6,0.4,3.7c0.2,0.8,1.1,1.4,1.8,1.9c1.3,0.8,1.3,1,0.3,2.2c-1,1.3-2.1,2.6-2.8,4
		c-1.7,3.4-2.8,4-6.4,3.2c-3.6-0.8-6.2-4.1-6-7.9c0.1-0.9,0.5-1.8,1-2.7c0.5-0.8,0.7-1.6,0.3-2.5c-0.2-0.5,0.1-1.1,0.1-1.7
		c0-0.6,0.1-1.3-0.2-1.8c-0.9-1.5-0.9-2.1,0.5-3.2c0.5-0.3,1-0.6,1.4-1.1c0.9-0.9,1-2.1,0.3-3.1c-0.6-0.8-1.3-1.4-2.7-1
		c-2.2,0.6-4.4,0.9-6.7,1.1c-1.6,0.1-3.2-0.4-4.8-0.2c-4.6,0.6-8.1-1.5-11.2-4.4c-2-1.9-3.1-4.3-3.3-7.1c-0.3-3.8,0.2-7.3,2.5-10.5
		c1.5-2.1,3.7-3.2,6.1-3.6c2.3-0.4,4.8-0.2,7.2-0.1c1.9,0.1,3.5-1.5,3.8-3.8c0.3-2.1,0.6-4.4,1.5-6.3c0.7-1.5,2.3-2.6,3.6-3.7
		c1.9-1.4,2-1.7,0-2.8c-4-2.2-6.8-5.4-8.7-9.7c-1.6,1-1.6,2.5-1.7,3.9c-0.1,1,0.2,2,0.3,3c0.3,2.6-0.5,4.9-1.9,6.8
		c-1.4,1.9-3,3.8-4.7,5.4c-2,1.9-4.5,2-7.1,1.1c-0.6-0.2-1.3-0.4-1.9-0.6c0-4.5,0-9.1,0-13.6c0.2-0.1,0.4,0,0.5-0.2
		c1.6-2.5,3-5.1,3.6-8c0.3-1.4,0.5-2.9,0.8-4.4c0.5-2.5-1-3.9-3.5-3.5c-0.5,0.1-1,0-1.5,0c0-12.2,0-24.4,0-36.6
		c0.2,0.1,0.5,0.1,0.7,0.2c1.3,1.2,2.8,1.4,4.5,0.9c2.1-0.6,4.3-1.1,6.4-1.8c0.8-0.3,1.8-0.8,2.2-1.6c1.6-2.9,4.3-4.8,6.7-6.9
		c0.5-0.4,1.4-0.6,2.1-0.5c0.8,0,1.7,0.3,2.5,0.5c1.3,0.3,2.7,0.5,3.9,1.1c1.4,0.6,2.6,1.6,3.6-0.5c0.2-0.4,1.3-0.4,1.9-0.7
		c0.1,0.8,0.3,1.6,0.2,2.4c0,0.3-0.4,0.6-0.7,0.9c-0.8,0.8-0.6,1.7,0.1,2.3c0.9,0.7,2.1,1.1,3.1,1.6c0.5,0.2,1.2,0.2,1.6,0.5
		c1.4,1,2.8,2,4.1,3c2.4,1.9,4.9,2.9,7.6,0.6c1.1-0.9,2.1-1.8,3-2.9c0.6-0.7,0.1-1.3-0.7-1.6c-0.8-0.2-1.6-0.4-2.4-0.4
		c-3-0.2-5.6-1.2-7.3-3.8c-1.7-2.5-4.1-3.6-7-3.7c-2.5-0.1-4.5-1.1-6.4-2.5c-0.9-0.7-2-1.3-3.1-1.4c-2.1-0.3-3.2-1.2-3.5-3.4
		c-0.2-2-1.4-2.8-3.2-2.1c-1.5,0.6-2.8,0.4-4.1-0.5c-0.5-0.3-1.2-0.3-1.8-0.4c-1-0.1-2-0.1-2.9-0.2c-0.9-0.1-1.7-0.5-2.5-0.6
		c-3.6-0.4-6.3-2.2-8.2-5.2c-0.1-0.2-0.4-0.3-0.7-0.4C0.3,187.1,0.3,184.9,0.3,182.8z M211.6,261c-2.4,0.2-7.9,4.2-8.7,6.5
		c-0.7,2-1.5,4-2.2,6c-0.5,1.3-0.1,2.2,1.2,2.3c1.9,0.2,3.8,0,5.7,0.4c2.5,0.5,5.1,1,7.2,2.2c2.1,1.2,3.8,3.1,5.4,4.9
		c1,1.1,1.6,2.7,1.9,4.1c0.2,1,0.3,2,1.2,2.4c1.2,0.5,2.5,0.7,3.8-0.1c1.6-1,3.2-1.9,4.9-2.7c0.8-0.4,1.2-0.8,1.1-1.7
		c-0.1-1.6-0.2-3.1,0.7-4.7c1.2-2,0.8-2.5-1.4-2.4c-1.9,0.1-3.1-0.9-4-2.3c-1.2-1.7-2.1-3.6-3.6-5c-1.2-1.2-2-2.1-2-3.9
		c0-1.8-1.4-2.5-3.1-2.2c-0.9,0.1-2,0-2.8-0.3c-1.1-0.5-2-1.4-3-2.1C213.2,262,212.4,261.5,211.6,261z M50.4,239.1
		c0.1,0,0.2,0,0.3,0c-0.1-0.4-0.2-0.9-0.3-1.2c-0.5-1.2-1.4-2-2.6-2.1c-1.7-0.1-3.3,0.6-4.1,2.1c-0.7,1.2-0.9,2.8-1,4.3
		c-0.2,2.4-0.3,4.8-0.2,7.2c0.1,1.5,0.7,3,1,4.5c0.5,2.6-1,4.8-1.9,7.1c-0.9,2.3-2,4.6-2.9,6.9c-0.3,0.7-0.5,1.8,0.7,2
		c2.2,0.4,4.5,0.8,6.7,1c1,0.1,1.8-0.4,2.3-1.5c0.8-2.2,0.1-4.2-0.6-6.2c-0.5-1.4-1.2-2.8-0.4-4.3c0.9-1.8,1.7-3.6,2.4-5.4
		c0.4-1,0.6-2.1,0.6-3.2c0-1.4-0.6-2.9-0.6-4.3C50,243.6,50.3,241.3,50.4,239.1z M113.7,299.6c-0.6,0.1-1.1,0-1.6,0.2
		c-1.1,0.4-2.1,0.9-3.2,1.4c-3,1.3-6,2.8-9.5,1.6c-1.3-0.5-2.1,0-2,1.4c0.1,1.9,0.4,3.7,0.8,5.6c0.5,2.1,0.8,4.2-0.4,6.3
		c-0.8,1.4-0.5,2.5,0.5,2.6c1.8,0.2,3.7,0.4,5.5,0.4c0.7,0,1.3-0.3,1-1.5c-0.4-1.5-0.5-3.3-0.2-4.8c0.5-2.9,3.1-3.9,5.5-4.5
		c1.6-0.4,2.5-0.4,2.4,1.9c0,0.5,0,1.1,0,1.6c-0.2,3.1-0.2,3.1,2.6,4.2c1.4,0.6,2.4,0.2,3.4-0.8c0.9-0.9,1.8-1.7,2.9-2.5
		c1.6-1.1,2-2,1.3-3.3c-0.8-1.5-2-1.8-3.6-1.4c-1.6,0.4-3.3,0.5-5,0.6c-0.3,0-0.8-0.6-1-1.1c-0.2-0.3-0.1-0.7,0-1
		C113.2,304.2,113.4,302,113.7,299.6z M69.9,307.7c-0.8,0-1.4,0-1.9,0c-2.5,0.2-3.1,0.7-2.8,2.4c0.3,1.9-0.8,3.4-2.6,3.7
		c-0.7,0.1-1.4,0.3-2.1,0.6c-1.4,0.6-2.4,2.1-2.4,3.6c0,2,0.7,2.9,2.6,3.6c0.3,0.1,0.7,0.2,0.9,0.5c1.4,1.3,3.2,1.4,5,1.6
		c1.5,0.1,3,0.3,4.5,0.3c2,0.1,2.7-0.1,2.5-2.2c-0.1-0.7-0.4-1.4-0.3-2.1c0.4-2.2,1.2-4.1,2.6-5.9c0.8-1.1,0.8-2.9-0.1-3.6
		C74,308.8,72.2,307.3,69.9,307.7z M118.1,254.8c-0.7,0.8-1.2,1.3-1.6,1.8c-2.3,3.3-8.1,3.5-10.2,0.5c-0.9-1.2-1.5-2.6-2.1-4
		c-0.6-1.4-1.1-1.7-2.5-1c-1.5,0.7-2.9,1.5-4.5,2c-2.6,0.9-2.7,1.4-0.8,3.4c1.5,1.6,2.6,3.3,2.8,5.6c0.1,1.4,0.5,3.1,1.9,3.6
		c2.4,0.9,5,2.1,7.5,0.1c1.6-1.3,3.4-2.3,5.6-2.6c1-0.2,2.2-0.9,2.9-1.7c1.3-1.7,1.8-3.8,1.6-6C118.6,256,118.4,255.6,118.1,254.8z
		 M8.8,238.1c0.6,0.4,0.8,0.6,1,0.8c1.5,1,3.1,1.9,4.3,3.2c2.4,2.4,2.7,5.7,3.2,8.9c0.2,1.2,0.4,2.4,0.7,3.5
		c0.2,0.6,0.6,0.9,1.1,0.2c0.6-1,1.3-1.9,1.8-3c2.1-3.9,3.4-8,2.4-12.6c-0.4-1.7-0.6-3.4-0.7-5.2c-0.1-0.9,0.2-1.9,0.3-2.9
		c0.2-1.2-0.8-1.6-1.6-2c-0.9-0.3-1.9-0.3-2.5,0.6c-0.4,0.6-0.7,1.1-1,1.7c-1.3,2.5-2.9,4.6-5.7,5.6
		C11.2,237.4,10.2,237.7,8.8,238.1z M243.8,263.6c-0.6,0.1-1.3-0.1-1.6,0.2c-1.3,1.4-3.1,1.1-4.6,1.7c-0.9,0.4-1.9,1-2.4,1.8
		c-0.6,1-0.3,2.2,0.6,3.1c0.9,0.9,1.9,1.1,3,0.6c0.7-0.4,1.5-0.7,2.3-0.8c0.9-0.1,2-0.1,2.8,0.3c1.9,1,2.9,0.9,4.4-0.6
		c2.4-2.4,5.1-4.4,8.8-4.2c0.5,0,1-0.3,1.5-0.5c-0.8-2.7-2.2-3.4-4.7-2.8c-0.8,0.2-1.6,0.1-2.4,0c-1.9-0.3-3.8-0.7-5.7-0.9
		C244.7,261.5,243.7,262,243.8,263.6z M114.5,280.4c1.6,0.1,2.8-0.7,3.9-1.7c1.1-0.9,2.2-2.1,3.5-2.6c2-0.7,4.1-0.9,6.2-1.1
		c1.1-0.1,1.8-0.5,2-1.5c0.5-2-1.2-4.1-3.2-4.2c-1.4-0.1-2.9-0.1-4.3-0.4c-2-0.4-3.8-0.4-5.4,1.1c-1,0.9-2.2,1.6-3.3,2.3
		c-1.5,0.9-2.6,1.8-2.7,3.7C111,278.8,112.1,280.4,114.5,280.4z M112,245.8c2,0.2,2.7-0.4,3.3-2.4c0.6-2.3,1.1-4.6,1.7-6.8
		c0.7-2.4,1.7-4.8,2.4-7.2c0.2-0.6-0.3-1.3-0.4-1.9c-0.5,0.2-1.2,0.4-1.6,0.8c-1.4,1.5-2.7,3.1-3.9,4.7c-0.7,0.9-1.6,1.9-2,3
		c-1.1,2.7-2,5.5-2.8,8.3c-0.1,0.4,0.6,1.3,1.1,1.5C110.3,245.9,111.2,245.7,112,245.8z M36.3,298c0,0.1,0,0.1,0,0.2
		c1.1,0,2.3,0,3.4,0c0,0,0.1,0,0.1,0c1.7-0.1,2.7-1.1,2.3-2.3c-0.5-1.5-1.1-3-1.6-4.5c-0.6-1.5-1.6-2.2-3.1-1.7
		c-1.5,0.5-3,0.9-4.2,1.8c-1.8,1.2-3.4,2.8-3.4,5.3c0,1.6,0.4,1.9,1.9,1.7C33.2,298.3,34.8,298.2,36.3,298z M57.9,311.1
		c1.8,0.1,2.6-1.1,3.6-2.1c1-1,0.9-1.7-0.2-2.6c-0.8-0.7-1.9-1.3-2.3-2.2c-1.2-2.3-3.3-2.8-5.4-3.1c-0.6-0.1-1.5,0.4-1.9,0.9
		c-0.6,0.8,1.2,7.3,2.1,7.7C55.2,310.2,56.6,310.6,57.9,311.1z M89.2,286.7c-0.5,1.6-1,3-1.3,4.4c-0.2,1.2,0,2.3,1.3,2.9
		c0.9,0.4,1.6,1.2,2.4,1.6c0.8,0.3,1.7,0.6,2.5,0.5c0.7-0.1,1.1-2.9,0.6-3.5C93,290.7,91.2,288.9,89.2,286.7z M65.2,248
		c0,2.1,0.6,3,2.1,2.6c0.7-0.2,1.6-1.1,1.7-1.8c0.4-1.9,0.6-3.8,0.7-5.7c0.1-1.5-0.7-2.3-2-2.3c-1.7,0-2.5,0.8-2.6,2.5
		C65.2,244.8,65.2,246.4,65.2,248z M111.5,317.1c0.1-0.2,0.3-0.4,0.4-0.6c-1.2,0.9-2.4,1.9-3.9,3.1c1.8,1.2,3.2,2.3,4.8,3.2
		c0.8,0.5,1.6,0.2,2.2-0.5c0.5-0.7,1-1.6,0.1-2.3C113.9,318.9,112.7,318,111.5,317.1z M83.9,225c-0.2-0.2-0.5-0.8-1-1
		c-0.8-0.4-1.7-0.7-2.5-1c-1.1-0.3-2,0.8-1.7,1.9c0.1,0.4,0.3,0.9,0.2,1.2c-0.5,1.1,0.2,1.9,0.8,2.5c0.5,0.5,1.3,0.9,1.5-0.4
		c0-0.3,0.5-0.6,0.9-0.6C83.2,227.3,83.9,226.7,83.9,225z M268.8,277.3c0.3,0,0.5-0.1,0.8-0.1c0.2-1.1,0.5-2.3,0.5-3.4
		c-0.1-1-0.7-1.9-2-1.6c-0.9,0.2-1.5,1.3-1,2.3C267.5,275.6,268.2,276.4,268.8,277.3z M234.3,315c0-2.2-2.9-3.4-5.6-2.4
		C230.4,313.9,232.1,314.9,234.3,315z"/>
	<path d="M553.3,0.3c-1.6,4,0.4,7.2,1.9,10.7c0.8,1.8,1.5,3.7,1.9,5.7c0.5,2.4,0.6,4.8,0.9,7.2c0.1,0.5,0.3,1.5,0.5,1.5
		c0.6,0.1,1.4-0.1,1.9-0.5c0.4-0.3,0.7-1.1,0.7-1.7c-0.2-2-0.8-4-1-6c-0.1-1.7,0.2-3.5,0.3-5.2c0.1-0.9,1-1.4,2.1-1.2
		c1.6,0.4,3.2,0.7,4.9,1.1c0,7.3,0,14.8,0,22.3c-0.8,0.3-1.7,0.6-2.6,1c-1.1,0.4-1.6,1.2-1.1,2.4c0.4,1,0.6,2,1.2,2.9
		c1.2,2.1,1,4.3,0.9,6.6c0,0.4,0,0.9,0,1.2c0.7,0,1.2-0.1,1.8-0.1c0,8.7,0,17.3,0,26.2c-1-0.6-1.8-1.1-2.6-1.7
		c-1.6-1.4-3.4-0.4-3.7,1.9c-0.6,4.1-2.5,7.5-5.9,10.1c-0.9,0.7-1.6,1.5-2.6,2.1c-2.3,1.5-4.6,0.9-6.6-0.6c-3.4-2.6-5-6.2-5.8-10.3
		c-0.4-2,1.5-4.4,3.7-5.2c2.1-0.7,4.2-1.3,5.9-3c1.3-1.3,3.1-0.8,4.5,0.2c2.6,1.8,5.4,1.3,8.2,1.3c0.4,0,1.1-0.6,1.3-1
		c0.9-2.2,1.9-4.4,2.6-6.7c0.2-0.6-0.3-1.5-0.8-2.1c-0.9-1.1-1.2-2-0.4-3.3c0.8-1.4,0.5-3.1-0.8-3.9c-0.6-0.4-1.5-0.3-2.3-0.2
		c-0.7,0.1-1.4,0.6-2.1,0.9c-2.5,1.1-4.5-0.2-4.8-3c-0.1-1-0.6-2.2-1.2-2.9c-0.4-0.4-1.7-0.5-2.3-0.2c-2.8,1.3-4.3,3.9-5.8,6.5
		c-0.3,0.6-0.9,1.1-1.5,1.5c-0.7,0.4-1.6,0.4-1.6,1.6c0,0.1-0.5,0.4-0.7,0.4c-0.3-0.1-0.6-0.5-0.6-0.7c0-1-0.6-1.4-1.4-1.8
		c-0.4-0.1-0.8-1.1-0.6-1.4c0.7-1.5,0-2.8-0.2-4.2c-0.1-0.5-0.2-1.2,0-1.5c1-1.3,1-2.8,1.2-4.4c0.2-1.2,1.1-2.3,1.8-3.3
		c0.5-0.7,1.2-1.2,0.7-2.2c-0.6-1.3-0.4-3.2-2.4-3.6c-2.7-0.5-4,0.3-4.9,3c-0.3,0.8-0.6,1.7-1.2,2.2c-0.5,0.4-1.5,0.7-2.2,0.5
		c-0.5-0.2-0.9-1.1-1.2-1.7c-0.4-1.1-0.6-2.3-1.1-3.3c-1.8-3.1-3.8-6.2-5.7-9.3c-0.2-0.3-0.4-0.7-0.7-0.9c-0.2-0.2-0.6-0.3-0.8-0.2
		c-0.2,0.1-0.4,0.5-0.4,0.8c-0.1,1.8-0.3,3.5,1.7,4.6c0.5,0.3,0.5,1.5,0.6,2.3c0.1,1.2-0.3,2.4,0,3.5c0.2,0.8,1.1,1.6,1.8,2.2
		c1.7,1.3,2.9,4.1,0.7,5.5c-0.8,0.5-1.9,0.8-2.8,0.8c-2.2,0.2-3.6,1.4-4.2,3.4c-0.3,0.9-0.9,2.1-1.6,2.5c-1,0.6-2.1,0-3.1-0.8
		c-0.8-0.6-1.8-0.8-2.7-1.2c-0.5-0.2-1.1-0.5-1.4-0.9c-0.7-1.1-1.5-1.9-2.8-2.4c-1.4-0.5-2.6-1.5-3.9-2.2c-0.4-0.2-1-0.6-1.2-0.4
		c-0.4,0.3-0.8,0.8-0.9,1.3c-0.1,0.6,0.2,1.2,0.3,1.8c0.5,3.3,1,6.5,2.1,9.7c0.5,1.4,0,3.3-0.3,4.9c-0.7,3.9-3.9,5.8-6.8,7.9
		c-0.5,0.3-1.4,0.1-2,0c-5.6-0.7-7.5-5.3-7.8-9.4c-0.3-3.9,1.6-6.9,3.8-9.8c1-1.4,1.8-2.9,2-4.7c0.4-3.6,2.5-6.2,6.4-6.2
		c1.5,0,2.3-0.4,2.5-2c0.2-2.2,0.5-4.4,0.6-6.7c0-0.4-0.6-1.3-0.9-1.3c-1.4,0-2.9,0.2-4.3,0.4c-0.4,0.1-0.8,0.4-1.2,0.6
		c-1.4,0.5-2.3,0.1-2.8-1.4c-0.1-0.4-0.2-0.8-0.3-1.3c-0.3-1.2-1.3-2.1-2.1-1.9c-0.7,0.2-1.6,2-1.3,2.8c0.2,0.6,0.5,1.2,0.8,1.7
		c1.8,3.7,1.8,7.2-0.7,10.6c-0.7,1-1.6,1.6-3,1c-2-0.9-4.1-1.7-6.3-2.2c-1.3-0.3-2.8-0.3-4.1,0c-1.1,0.2-1.4,1.2-0.8,2.3
		c0.7,1.3,1.3,2.7,1.9,4.1c0.6,1.4,0.8,2.8,0.1,4.1c-1.5,3-2.8,6-5.2,8.5c-1.9,2-4.3,3-6.8,3.2c-6,0.5-11.5-0.8-16-5
		c-1.7-1.6-2.9-3.5-2.9-6c0-3-0.1-6,0.1-8.9c0-0.6,1.1-1.5,1.9-1.7c3.1-1.1,6.3-2.1,9.5-3c1.7-0.5,3.5-0.6,5.3-0.9
		c1.6-0.3,2.2-1.2,1.5-2.7c-1.5-3.1-3.1-6.1-4.8-9.1c-0.6-1-1.5-1.7-2.5-2.4c-1.6-1.2-3.2-2.4-4.9-3.5c-1-0.7-1.9-0.2-2.8,0.5
		c-0.8,0.7-1.7,1.6-2.6,2.1c-2.3,1.2-5.3-0.7-5.3-3.3c0-1,0.2-1.9,0.3-2.9c0.2-2.8-0.7-5.2-2.4-7.5c-0.9-1.3-2.3-1.1-3.6-0.9
		c-1.5,0.2-3.1,0.4-4.6,0.4c-4.7-0.2-5.2,3.4-4.7,6.4c0.7,4,2.4,7.6,3.9,11.3c0.9,2.3,1.5,3.6,5.1,3.6c3.5,0,6.5,1.3,8.6,4.2
		c0.4,0.6,0.8,1.4,0.9,2.1c0.1,1.9,0.2,3.8,0,5.7c-0.1,0.6-0.8,1.2-1.4,1.7c-2.2,1.7-4.7,2.9-7.5,3.2c-2.3,0.2-4.5-0.5-6.5-1.6
		c-2.2-1.3-3.9-1.1-5.7,0.8c-2.1,2.2-4.2,4.2-6.6,6c-2.1,1.5-3.1,4.1-3.8,6.7c-1,3.4-1.7,6.9-5.1,8.9c-1,0.6-1.6,1.8-2.3,2.8
		c-1.1,1.8-2.8,2.4-4.7,1.8c-0.9-0.3-1.8-0.4-2.7-0.5c-1.5-0.2-3.1,0-4.5-0.4c-1.4-0.4-2,0.2-2.6,1.1c-0.4,0.5-0.8,1.3-1.4,1.4
		c-1,0.2-2.3,0.3-3.1-0.1c-1-0.5-1-1.8-0.7-2.9c0.1-0.6,0.6-1,0.7-1.6c0.1-0.5,0.1-1.3-0.3-1.6c-1.7-1.6-2.9-3.4-3.7-5.5
		c0-0.1-0.2-0.2-0.4-0.3c-0.7,0.5-1.4,0.9-2.1,1.4c-1.3,0.8-2.6,0.5-3.5-0.5c-0.9-1-1.2-2.2-0.5-3.5c1.2-2.1,1.1-1.9-1.3-2.7
		c-1.9-0.6-3.1-0.3-4.6,1c-1.7,1.4-4,0.4-4.8-2.5c-0.1-0.2,0.1-0.5,0-0.7c-0.2-0.3-0.4-0.8-0.6-0.8c-0.3-0.1-0.7,0.2-0.9,0.5
		c-0.3,0.4-0.5,1-0.9,1.7c-0.4-0.5-0.7-0.8-0.9-1.2c-0.5-1.3-1.5-1.9-2.6-2.5c-2.9-1.7-5.8-3.5-8.7-5.2c-1.6-1-3.4-1.7-4.9-2.8
		c-2.1-1.6-4.1-3.5-6-5.3c-1.6-1.5-2.8-1.4-4.1,0.4c-1.8,2.3-3.5,4.7-6.4,5.7c-3,1-6,1.1-8.8-0.6c-1.4-0.9-2.3-2.2-2.4-3.8
		c-0.3-3.1-0.4-6.2-0.4-9.3c-0.1-3.4,3-8.4,6.7-9.2c2.5-0.5,5-0.8,7.4,0.2c0.9,0.4,1.6,1.2,2.3,1.9c0.3,0.3,0.5,0.6,0.8,0.9
		c1.9,2,3.7,2,5.1-0.4c1.6-2.8,4.1-4.5,6.8-6c0.7-0.4,1.4-0.9,2.1-1.3c1.2-0.8,1.5-2,0.9-3.3c-0.9-2-1.9-3.9-2.7-5.9
		c-0.4-1.1-0.3-2.4-0.5-3.5c20.5,0,40.9,0,61.4,0c1,1.4,0.2,3.6,2.1,4.5c1.9-0.9,2.9-2.3,2.6-4.5c36.6,0,73.2,0,109.8,0
		c0.2,1,0.3,2,0.6,2.9c0.1,0.4,0.9,0.9,1.3,0.8c0.4-0.1,0.8-0.8,0.8-1.2c0-0.8-0.2-1.6-0.4-2.4C535.2,0.3,544.3,0.3,553.3,0.3z
		 M387.3,27.1c-0.1,0.1-0.1,0.3-0.2,0.4c-0.9-0.1-2.1,0.2-2.7-0.3c-0.9-0.8,0.2-1.7,0.6-2.5c0.4-1,0.5-2.1,0.7-3.1
		c0.2-1,0.3-2.1,0.5-3.1c0.3-1.3,0.9-2.5,0.8-3.7c-0.1-2-2.3-3.1-4.9-2.9c-2.1,0.1-4.2-0.1-6.2-0.2c-3-0.2-6.1-0.2-8.8,1.4
		c-1.1,0.6-1.7,1.5-1.1,2.9c0.9,1.9,1.7,3.9,2.5,5.9c1.3,3.5,2.1,7.3,4.6,10.3c0.6,0.8,1,1.7,2.3,0.6c0.4-0.3,1.6-0.1,2,0.2
		c0.8,0.6,0.3,1.4-0.4,1.9c-0.2,0.1-0.4,0.4-0.6,0.5c-0.9,0.4-0.7,0.9-0.4,1.7c0.9,2.3,2.7,3.5,4.7,4.7c1.5,1,2.8,0.8,4.2,0.1
		c0.4-0.2,0.8-0.5,1.2-0.7c1.2-0.6,1.8-1.4,1.1-2.8c-0.2-0.4-0.1-1.2,0.1-1.6c0.2-0.2,1-0.2,1.4,0c1.1,0.3,3.4-0.2,3.9-1.3
		c0.3-0.5,0.3-1.3,0.1-1.8c-0.7-1.2-1.6-2.3-2.5-3.3C389.4,29.2,388.4,28.2,387.3,27.1z M555.1,35.3c0.9,0.2,1.7,0.4,2.4,0.5
		c0.8,0.1,1.7,0.1,2.5,0c0.5-0.1,0.8-0.7,1.2-1.1c-1-1-2-2.1-3.1-3.1c-0.2-0.2-0.9,0-1.2,0.2C555.8,32.6,555.1,33.7,555.1,35.3z
		 M508.1,25.5c-0.5,0.6-0.9,1-1.3,1.4c0.5,0.3,1,0.9,1.5,0.8c0.5-0.1,0.9-0.7,1.4-1.1C509.3,26.3,508.9,26,508.1,25.5z M483.8,7.4
		c-0.1,1.3-0.1,1.3,1.5,2.2c1.2-0.9,1.2-1.8,0-2.7C484.7,7.1,484.2,7.2,483.8,7.4z"/>
	<path d="M0.3,378.5c0.2,0,0.5,0,0.5-0.1c0.6-1.8,1.6-1.2,2.7-0.5c2.8,1.9,5.7,3.9,8.5,5.8c0.4,0.3,1.1,0.2,1.5,0.1
		c1.4-0.4,2.8-0.8,4.1-1.3c1.8-0.8,3.4-1.7,5.1-2.7c-4.6-0.9-6.9-2.9-6.8-5.8c0.2-3.7,1.8-5.8,4.9-6.2c-0.2-1.9-0.4-4.3,1.8-5
		c1.1-0.4,2.6,0.9,4,1.4c-0.6,1.2-1.1,2-1.6,2.8c-0.4,0.6-0.8,1.1-1.3,1.5c-0.6,0.5-1.9,0.5-1.2,1.8c0.6,1.1,1.5,1.7,2.7,1.5
		c0.7-0.1,1.5-0.4,2.2-0.8c1.1-0.6,2.2-1.4,3.2-2.1c1.5-1.1,3.6-0.4,4.3,1.8c0.8,2.3,2.3,3.1,4.5,3.4c2.2,0.3,3.3,2.7,2.3,4.7
		c-0.5,1.1-1,2.2-1.3,3.4c-0.1,0.6,0.1,1.5,0.5,1.8c0.4,0.4,1.3,0.4,1.9,0.3c0.9-0.2,1.8-0.6,2.6-1c1.3-0.7,2.1-0.3,2.9,0.8
		c1.2,1.7,1.2,1.6,3,0.5c1.1-0.7,2.5-1.4,3.6-1.3c2.4,0.3,3.6,2.9,2.6,5.2c-0.6,1.4-1.5,2.5-2.3,3.8c-0.7,1.1-1.4,2.2-1.9,3.4
		c-0.2,0.6,0.1,1.6,0.5,2c0.6,0.5,1.5,0.6,2.3,0.6c0.5,0,1-0.6,1.4-0.6c0.9,0,2.2,0,2.5,0.5c1.4,1.9,2.9,3.8,2.2,6.6
		c-0.4,1.6,0.1,3.4,0.2,5.1c-0.7,0.5-1.5,1.2-2.3,1.8c-0.7,0.5-1.6,0.8-2.4,1.1c-0.4,0.1-0.8,0-1.2,0c-2.2,0.2-2.5,0.8-1.5,2.7
		c0.7,1.4,0.8,3.1-1.2,4c-2.7,1.2-4.6,0.8-6.6-2c1.9-1.2,3.1-3.5,5.6-4.1c1.1-0.2,1.7-1.6,1.5-2.7c-0.5-2.3,0-4.3,1.5-6.1
		c0.6-0.7,1.5-1.5,1.4-2.2c-0.2-1.1-1.5-0.9-2.4-1.2c-1.9-0.7-3.4,0.5-5.1,0.5c-1.5,0-3.2,0.4-4.5-0.2c-2-1-4.1-1.5-6.3-2.1
		c-2.2-0.6-2.3-1-1.9-3.3c0.1-0.8,0.2-2.2-0.2-2.5c-0.7-0.4-1.9-0.4-2.8-0.2c-1.5,0.2-2.8,0.8-4.3-0.2c-2.1-1.5-2.1-4.5,0-5.9
		c1.7-1.1,3.2-2.5,3.7-4.6c0.1-0.5,0.2-1.6,0-1.7c-0.8-0.4-1.9-0.8-2.5-0.5c-1.5,0.8-2.6,0.6-4-0.2c-0.8-0.4-1.8-0.5-2.9-0.8
		c0.1,1,0.2,1.7,0.2,2.4c0,1.8-0.9,2.6-2.7,2.8c-0.7,0.1-1.3,0.5-1.9,0.7c-2.3,1-3.7,2.7-4.4,5.1c-0.1,0.4-0.6,0.7-1,1.1
		c-0.7,0.6-0.9,1.2-0.7,2.2c0.2,0.7-0.2,1.8-0.7,2.2c-2.9,2.7-6,4.9-10.2,4.9c-0.8,0-1.7,0.4-2.5,0.6C0.3,393.9,0.3,386.2,0.3,378.5
		z"/>
	<path d="M45.8,0.3c-0.5,1.3-0.9,2.5-1.5,3.7c-0.8,1.7-0.1,3.4,0.4,5c1.3,4.2-0.2,7.5-3.2,10.3c-0.3,0.2-0.5,0.4-0.8,0.7
		c0,0.2,0,0.3,0,0.5c1.1,0.3,2.3,0.6,3.4,0.8c6.6,0.8,11,4.6,12.2,11c0.5,2.3,0.6,5-0.9,7.3c-0.8,1.3-1,3.2-2.1,4
		c-1.9,1.4-4.2,2.5-6.6,3.2c-4.9,1.3-9.1-0.2-12.5-3.8c-4.3-4.5-4.5-11-1-16c1.6-2.3,3.9-3.9,6.1-5.6c0.2-0.1,0.4-0.3,0.6-0.4
		c0.1-0.1,0.1-0.3,0.1-0.4c-1.7-0.5-3.4-0.8-4.9-1.6c-3-1.5-4.8-3.7-4.6-7.3c0.1-1.1,0.1-2.2,0-3.2c0-0.5-0.3-1.2-0.6-1.3
		c-0.3-0.1-1,0.2-1.3,0.5c-1.2,1.1-2.3,2.2-3.3,3.3c-1.7,1.8-3.8,2.5-6.1,2.5c-2,0.1-4-0.2-5.9-0.5c-3.7-0.7-6.1-3.4-7.9-6.4
		c-1.2-2-2.4-3.7-4.9-4c0-0.7,0-1.4,0-2.1C15.5,0.3,30.6,0.3,45.8,0.3z"/>
	<path d="M0.3,60.8c0.8-0.8,1.5-1.6,2.3-2.4c1.7-1.9,3.8-3,6.4-3.2c3.1-0.2,6,0.5,8.1,2.9c2.9,3.2,3.6,7,2,11
		c-1.3,3.2-3.9,5.2-7.5,5.7c-3.4,0.5-6.2-0.4-8.6-2.6c-0.7-0.7-1.2-1.6-1.8-2.4c-0.2-0.3-0.5-0.5-0.8-0.7
		C0.3,66.3,0.3,63.6,0.3,60.8z"/>
	<path d="M80.3,0.3c0.1,0.6,0.3,1.1,0.4,1.7c1.1,4.2-0.5,7.7-2.9,11c-1.1,1.5-3,1.6-4.5,2.1c-4.4,1.4-8.2-0.2-11.5-3.1
		c-1.9-1.6-2.7-3.8-2.7-6.2c0-1.8,0.5-3.7,0.8-5.6C66.7,0.3,73.5,0.3,80.3,0.3z"/>
	<path d="M0.3,14.8c1.5,0,3.1-0.1,4.6,0c4.5,0.5,8.2,4.6,8.1,9.1c0,1.8,0,3.6-0.5,5.4C11.8,32.1,9.3,33,7,34
		c-2.2,0.9-4.4,0.8-6.7,0.3C0.3,27.8,0.3,21.3,0.3,14.8z"/>
	<path d="M151.5,0.3c-0.2,1.5,0.1,3.1-1.4,4.3c-1.7,1.3-3.4,2.3-5.7,2.2c-0.5,0-0.9,0.1-1.4,0.1c0.3,1.7,0.7,3.2,0.7,4.7
		c0.1,2.8-2.2,5-4.9,5c-1,0-2.1,0.1-3.1-0.1c-1.9-0.5-3.2-2.4-3.3-4.6c-0.2-3.9,2.1-6.2,6-6.2c2.1,0,2.2-0.3,1.7-2.2
		c-0.3-1-0.4-2.1-0.6-3.1C143.6,0.3,147.5,0.3,151.5,0.3z"/>
	<path d="M0.3,99.8c1,1,2.3,1.8,2.8,3c0.9,2.1,1.8,4.4,1.8,6.6c0,3.1-1,6.1-3.5,8.2c-0.3,0.2-0.7,0.4-1,0.5
		C0.3,112,0.3,105.9,0.3,99.8z"/>
	<path d="M124,0.3c-0.1,1.9-0.5,3.6-2.2,4.7c-1.6,1-3.2,0.8-4.7-0.1c-1.6-1-2.6-2.5-2.3-4.6C117.9,0.3,121,0.3,124,0.3z"/>
	<path d="M0.3,140.3c2.5,0.8,3.5,2.3,3.6,4.9c0.1,2.9-0.4,5.6-2.1,8c-0.3,0.4-1,0.7-1.4,1C0.3,149.5,0.3,144.9,0.3,140.3z"/>
	<path d="M111,0.3c0.7,1.6-0.1,2.9-1.2,4c-0.7,0.7-1.7,1.5-2.8,0.8c-1-0.6-1.8-2.7-1.3-3.7c0.1-0.3,0.2-0.7,0.3-1.1
		C107.7,0.3,109.4,0.3,111,0.3z"/>
	<path d="M0.3,402.8c1.3,0.2,0.5,1.4,1,2.1c0.4,0.5,0.2,1.4,0.5,2.1c0.5,1.3,0.1,2.3-0.4,3.5c-0.2,0.5-0.1,1.3-0.1,1.9
		c0.1,1,0.7,2.2-1,2.5C0.3,410.8,0.3,406.8,0.3,402.8z"/>
	<path d="M201.7,0.3c-0.3,1.4-1.7,1.3-2.5,1.4c-0.9,0-2.2,0-2.5-1.4C198.3,0.3,200,0.3,201.7,0.3z"/>
	<path d="M425.9,133.9c0.7,0.4,1.4,0.8,2.1,1.1c5,1.9,8.5,5.1,8,11.1c-0.2,2.3-1.5,4.3-3.3,5.7c-1.2,0.9-2.7,1.7-4.1,2.4
		c-1.7,0.9-3.5,0.2-4.8-0.8c-2.4-1.7-4.2-4.1-4.5-7.2c-0.2-2.5-0.1-5,0-7.5c0-1-0.3-1.6-1.3-1.9c-1.4-0.3-2.8-0.8-4.2-0.9
		c-1.7-0.1-2.3,0.8-2.6,2.8c-0.7,3.5,0.1,6.6,1.9,9.7c1.3,2.3,1.9,4.9,1.6,7.6c-0.5,6.4-4.6,9.2-11.1,8.3c-2.8-0.4-5.3-1.4-7.4-3.5
		c-1.9-1.8-2.4-4.2-2.8-6.5c-0.2-1.3,0.2-2.7,0.3-4c0.2-1.2-1.4-5.1-2.5-5.7c-1-0.6-1.6-0.1-2.2,0.7c-1.1,1.6-2.3,3.1-4.2,3.9
		c-2.2,1-4.6,1.1-6.6-0.1c-3-1.7-5.8-1.6-8.8-0.3c-1.5,0.7-3.2,1-4.8,1.5c-2.1,0.6-2.2,0.8-2.3,3.1c-0.1,2.1,0.1,4.3-0.6,6.2
		c-1,2.7-2.6,5.3-4.2,7.8c-1,1.7-1.2,2.7,0,4.2c1.1,1.4,1.5,2.9,1.6,4.6c0.1,1.7,0.3,3.5,1.5,4.9c1.4,1.6,1.9,3.5,1.7,5.6
		c-0.2,1.8,0.6,3,1.9,4.2c2.5,2.4,4.8,5,5.1,8.7c0.1,1.3-0.4,2.7-0.9,3.8c-1.7,3.5-4.5,5.7-8.4,6.3c-1.9,0.3-3.9-0.5-5.5-1.6
		c-2.7-1.9-4.2-4.7-4.5-8c-0.1-1.2,0.3-2.6,0.7-3.8c0.3-1,0.8-2.1,1.5-3c1.8-2.1,1.8-4.2,0.9-6.7c-0.4-1-0.4-2.1-0.4-3.1
		c0.1-1.7-0.6-3-1.5-4.3c-0.9-1.2-1.6-2.7-2-4.1c-0.5-2-1.4-3.2-3.5-3.4c-0.9-0.1-1.8-0.4-2.7-0.6c-1.5-0.3-2.6,0.2-3.7,1.4
		c-2,2.2-4.4,3.9-7.4,4.7c-2.3,0.6-4.5,0.2-6.6-0.8c-2.4-1.2-3.8-3.4-5.3-5.5c-0.7-0.9-1.8-1.1-2.7-0.4c-0.2,0.2-0.4,0.3-0.5,0.5
		c-2,2.3-4.4,4-7.3,5.1c-1.8,0.7-3.5,1.9-5.1,3c-3,2.1-5.9,2.1-8.5-0.2c-1-0.9-1.8-2.4-2.1-3.7c-0.6-3,0.4-5.5,3.1-7.4
		c1.6-1.1,3.2-2.4,3.7-4.5c0.3-1.1,0-1.8-1-2.2c-1.6-0.7-3.3-1.3-4.7-2.2c-1.8-1.1-3.5-2.4-5.1-3.8c-1.3-1.2-2.6-0.8-3.8-0.1
		c-4,2.3-8.4,0.4-9.2-4.1c-0.3-1.7-0.4-3.5-0.4-5.2c-0.1-2-0.3-2.1-2.2-2.3c-1.4-0.1-2.9-0.4-4.2-1c-2.1-0.9-2.3-2.9-2-4.8
		c0.2-1.7,1.5-2.9,3.1-3.3c1.4-0.4,3-0.5,4.5-0.4c2.5,0.2,4.2-1.1,4.1-4.1c-0.1-3.7,1.1-7,2.9-10.2c0.8-1.3,2.8-1.5,3.5-0.1
		c1.3,2.9,3.7,4.8,5.9,6.9c0.3,0.3,0.6,0.6,0.9,1c0.9,1.4,1.8,1.5,3,0.4c1.7-1.6,3.4-3.1,5-4.7c0.9-0.9,1.4-1.9,0.3-3.2
		c-1.7-2.1-3.3-4.5-2.5-7.3c0.7-2.3,2-4.4,3.1-6.6c1.1-2.1,3.2-3.1,5-4.3c3.8-2.5,4.3-3.6,2.4-7.6c-1.9-4-1.9-7.8-0.5-11.9
		c0.5-1.5,0.3-3.3-0.1-4.9c-0.8-3.7,0-8.7,3.5-10.8c2-1.2,6.3-0.8,7.7,0.8c1.6,1.8,3,3.6,3.6,6c0.7,2.5,2.6,4,4.7,5.5
		c0.9,0.6,1.9,1.1,2.5,2c0.7,1,1.4,2.2,1.6,3.5c0.5,3.3-0.9,6.5-1.6,9.7c-0.8,3.6-1.4,7.2-1.9,10.8c-0.4,2.8-0.5,5.7-0.7,8.6
		c-0.3,4.1-2.4,7.1-6.1,8.9c-1.1,0.6-2.2,1.2-3.3,1.8c-1,0.5-1.1,1.4-0.8,2.3c0.5,1.4,1.1,2.8,1.9,4.1c0.8,1.3,1.5,1.3,2.8,0.3
		c1.3-1,2.7-1.9,4.1-2.6c1.9-0.9,3.9-0.7,5.8,0.1c0.4,0.1,0.7,0.3,1.1,0.5c3.7,2,3.9,2,6.7-1c1.2-1.2,1.1-1.6,0-2.9
		c-1.1-1.3-2-2.7-3-4.1c-1.6-2.3-1.6-4.8-1-7.4c0.2-0.8,0.5-1.7,0.6-2.5c0.1-1-0.1-2-1.1-2.6c-0.8-0.5-1.4-1.3-2.1-1.9
		c-1.1-1-1-2.1-0.1-3c0.8-0.8,2.1-1.2,3.2-0.5c0.6,0.4,1.2,1,1.7,1.6c1.3,1.7,2.2,1.9,4.3,1.4c2.9-0.7,5.5-2.1,8.2-3.4
		c2.5-1.2,5.1-0.9,7.2,0.9c1.7,1.5,3.3,2.3,5.6,2c1.4-0.2,2.9-0.1,4.4,0c1.1,0,2.1-0.3,2.3-1.4c0.1-0.6-0.2-1.5-0.6-2
		c-1.7-1.8-3.7-3.4-5.4-5.2c-2.2-2.3-2.6-5.4-1-8.1c1-1.6,2-3.3,3.3-4.6c2.3-2.2,3.3-5.1,4.7-7.9c2.4-4.6,6.6-6.3,11.3-5.5
		c1.5,0.3,2.8,1.8,4,2.9c1.3,1.2,1.6,3.3,3.7,3.7c0.7,0.1,1.4,0,2-0.1c0.2,0,0.5-0.3,0.7-0.5c1.8-1.6,2.4-1.7,3.7,0.4
		c0.9,1.5,1.8,1,2.7,0.3c2.3-1.6,4.7-3.2,7.4-4.3c2.4-1,4.6-0.8,6.8-0.1c2.3,0.7,4.5,1.8,6.6,2.9c1.8,0.9,3.4,1.1,5.1,0
		c1.5-0.9,3-1.8,4.4-2.8c0.9-0.6,0.5-2-0.5-3.4c-1.3-1.8-2.7-3.6-3.5-5.6c-0.5-1.3-0.1-3,0-4.5c0.1-1.7,0.5-3.4,0.6-5.2
		c0.1-1.1,0.1-2.5,1.2-2.7c0.9-0.2,2.3,0.2,2.8,0.9c1.9,2.4,4.8,3.2,7.3,4.5c2.4,1.2,4.2,3,5.4,5.4c1.4,2.7,0.5,4.6-1.9,6.4
		c-1.1,0.9-2.3,1.5-3.5,2.3c-1.3,0.9-1.7,2.1-0.6,3.1c2.5,2.4,4,5.4,5.7,8.4c0.9,1.5,2.2,2.3,3.7,2.9c1.8,0.7,3.7,1.4,5.6,2
		c1.5,0.5,2.3-0.3,3-1.5c2.3-3.9,3.5-8.2,4.6-12.5c0.8-3.1,2.9-5.1,5.9-6.1c3.1-1,6.1-0.6,8.8,1.4c1.8,1.4,3,3.3,3.3,5.5
		c0.3,2.2,0.4,4.4,0.4,6.5c0.1,2.3,1.1,3.4,3.2,4.3c1.9,0.8,3.9,1.6,5.5,2.8c2.3,1.8,2,4.4,0.1,6.6c-1.8,2.1-4.2,2.6-6.6,2.8
		c-2.4,0.3-4.4,1.4-6.4,2.6c-2.1,1.3-4.5,2.2-6.9,2.3c-1.6,0.1-3.3-0.6-4.9-0.9c-1-0.1-2-0.2-2.9-0.1c-0.4,0.1-0.9,0.5-1.2,1
		c-0.6,1.1-1.1,2.2-1.7,3.3c-0.8,1.4-1.6,2.9-2.5,4.3c-1.5,2.3-2.1,4.6-1.6,7.4c0.8,3.9,0.7,7.8-1.6,11.4c-2.3,3.6-5.5,5.9-9.9,6.2
		c-2.8,0.2-5.6,0.1-8.2-0.9c-1.1-0.4-2.1-0.9-3.2-1.3C427.9,131.9,426.8,132.2,425.9,133.9z M407.9,115.9c2.4-0.3,3.8-1.2,5-2.8
		c1.8-2.4,3.6-5.1,6.8-5.9c1.3-0.3,2.6-0.4,3.9-0.6c1.2-0.1,1.9-0.7,1.8-1.8c-0.4-3.1-0.9-6.1-1.3-9.2c-0.1-0.9-0.7-1.1-1.4-0.7
		c-0.7,0.4-1.4,0.9-1.9,1.5c-2.2,2.6-5.1,3.6-8.4,3.5c-1,0-1.9-0.1-2.9-0.4c-2.2-0.6-4.3-1.2-6.4-2.1c-2.3-1-3.2-3.5-4.9-5.3
		c-0.7-0.7-1.6-1.6-2.5-1.7c-2.6-0.3-5.2-0.5-7.5-1.9c-1.3-0.7-2.3,0-2.6,1.4c-0.4,1.4-0.7,3-1.3,4.2c-0.9,1.7-2.2,3.2-3.2,4.8
		c-0.3,0.4-0.4,1.3-0.2,1.5c1.5,1.8,3.4,3.2,5.8,3.2c1.1,0,2.4-0.7,3.4-1.4c3.2-2.2,6.7-2.5,10.4-1.7c2.6,0.6,4.3,2.4,5.8,4.5
		c1.1,1.6,1.9,3.2,1.8,5.2C407.7,112.2,407.8,114,407.9,115.9z M371.1,121.5c0.4,0.7,0.5,1.1,0.8,1.3c2.5,2.4,4.6,5,5.3,8.5
		c0.3,1.6,1.3,2.9,3.3,2.7c3-0.3,5.5,1,7.6,3c1.1,1,1.6,0.9,2.5-0.3c1.7-2.3,3.4-4.6,5.3-6.8c1.2-1.4,1.2-1.9-0.6-2.6
		c-2.5-0.9-4.3-2.6-5.8-4.6c-1.7-2.4-2.5-2.6-5.2-1.6c-1.7,0.6-3.6,0.8-5.4,0.8C376.5,122,374.1,121.7,371.1,121.5z M327.1,142.9
		c-1-0.8-1.9-1.6-2.8-2.4c-1.9-1.7-3-1.6-4.1,0.6c-1.6,2.9-3.8,5.2-6.8,6.7c-0.9,0.4-1.9,1.1-2.4,2c-1.1,2.1-2,4.3-2.8,6.5
		c-0.5,1.2,0.4,2.6,1.7,2.9c0.9,0.2,1.9,0.3,2.9,0.3c2.1,0,4.1,0.5,5.9,1.7c1.8,1.3,2.2,1.2,3.7-0.5c2.7-2.9,2.6-4.4,0.8-7.3
		c-1.6-2.6-1.3-6.3,1.1-8.2C325,144.6,325.9,143.9,327.1,142.9z M329.4,143.3c1.2,2,2.7,2.2,4.2,0.9c1-0.9,2.1-1.6,3.3-2.3
		c1.3-0.8,2.7-1.4,4.1-2.1c-0.9-3.1-2.4-3.5-4.5-1.3c-1.3,1.4-2.3,3.1-4.4,3.7C331.3,142.4,330.4,142.9,329.4,143.3z"/>
	<path d="M567.1,224.2c-1.1-1-2.2-2-3.3-3c-0.9-0.9-1.9-0.8-2.7,0.1c-1.3,1.5-2.4,3.2-3.9,4.6c-0.7,0.7-1.6,1.9-3,1
		c-1.4-0.9-2.2-2.9-1.9-4.3c0.5-1.8,0.7-3.6,1.3-5.3c0.4-1.5,0.9-3,2.6-3.7c0.6-0.2,1.1-0.6,1.7-0.9c1.2-0.6,1.5-2.8,0.4-3.6
		c-0.3-0.2-1.1-0.3-1.3-0.1c-1.3,1.2-2.8,2.2-3.5,3.7c-2.2,4.3-7.3,5.3-11,3.5c-0.7-0.4-1.3-1.1-1.8-1.8c-1.2-1.8-1.3-2-2.8-0.8
		c-2,1.6-4.3,1.9-6.7,1.7c-0.2,1.4,0.9,3.2,1.9,3.9c2.2,1.5,4.4,3,6.5,4.5c0.6,0.4,1.4,0.7,2,1.1c1,0.6,1.6,1.3,1.3,2.5
		c-0.3,1.1-1.3,1.2-2.1,1c-2-0.5-3.6,0.3-5.3,1.1c-1.2,0.6-2.7,0.8-4,1c-1.2,0.2-1.7,0.5-1.3,1.9c0.6,1.8-0.2,3.6-0.8,5.4
		c-0.4,1.2-0.2,2.6-0.3,3.9c0,1,0.2,2.1,0,3.1c-0.3,1.6-1.8,2.2-3.5,1.5c-0.6-0.3-1.2-0.6-1.8-0.9c-1.3-0.5-2-0.1-2,1.3
		c0,1.1,0,2.3,0.4,3.3c1,2.6-0.4,4.4-1.8,6.1c-1.2,1.5-3.1,2.1-5,2.5c-1,0.2-2.1,0.6-2.8,1.3c-3.3,2.8-5.9,2.4-7.9-1.3
		c-1-1.7-1.8-3.5-3.3-5c-0.5-0.5-0.6-1.7-0.5-2.6c0.1-0.5,0.8-1.1,1.4-1.3c0.4-0.1,1.1,0.3,1.5,0.6c0.5,0.4,0.8,1,1.2,1.5
		c0.5,0.6,1.2,1.5,2,1c0.8-0.5,1.7-1.4,2-2.3c0.7-2.3,0.9-4.7,1.5-7c0.2-0.9,0.8-1.8,1.3-2.5c1.3-1.8,0.9-3.9,1.4-5.9
		c0.5-2.1,1.5-3.8,3.6-4.7c2.2-0.9,2.3-1.9,0.6-3.6c-0.7-0.7-1.5-1.4-2.1-2.3c-2-2.8-1.5-4.7,1.3-6.7c2-1.4,3.9-3.1,5.9-4.5
		c1.1-0.8,2.4-1.2,3.5-2c0.7-0.5,1.4-1.2,1.7-2c0.6-1.6,0.9-3.3,1.5-4.9c0.7-1.9,0.3-3.5-0.9-5c-0.5-0.7-0.9-1.5-1.3-2.2
		c-0.5-1.3-0.5-2.6,0.5-3.7c1.1-1.2,2.4-0.8,3.7-0.6c0.7,0.1,1.4,0.4,2,0.8c2.1,1.3,4.3,1,6.6,1c3.2,0,4-1.9,4.9-4.2
		c1.1-2.7,2.1-5.5,3.4-8.1c1.6-3.1,0.8-5.8-0.7-8.5c-0.7-1.2-1.4-2.5-3-2.4c-1.1,0-2.3,0.2-3.2,0.7c-1.8,0.9-3.4,2.1-5.2,3.1
		c-0.8,0.4-1,1.7-0.5,2.5c0.8,1.1,1.7,2.2,2.3,3.4c0.5,0.9,0.8,2.1,0.7,3c-0.3,1.4-0.8,2.8-2.8,3c-2,0.2-4,0.7-5.8-0.3
		c-1.6-0.9-2.9,0.1-4.1,0.7c-1.7,0.7-2.8,4.1-2.2,5.9c0.2,0.7,0.3,1.5,0.2,2.2c-0.2,1.2-1.8,1.6-2.9,0.8c-0.8-0.6-1.1-0.9-1.7,0.4
		c-0.5,1.1-1.7,1.9-2.8,2.6c-0.9,0.6-1.9,0-2.1-1c-0.5-2.6,1.7-5.1,4.3-4.3c0.3,0.1,0.8-0.1,0.9-0.3c0.5-0.8-0.4-5.7-1.2-6.2
		c-2.6-1.4-3.8-3.7-4.9-6.2c-0.2-0.4-0.6-0.7-0.8-1c-0.5-0.7-0.7-1.5,0-2.3c1.8-2.2,3.7-4.4,5.5-6.6c0.1-0.1,0.2-0.2,0.4-0.2
		c3,0.3,6.2-0.1,8.6,2.3c0.8,0.8,1.8,1.5,2.6,2.3c1.1,0.9,1.5,0.9,2.3-0.3c0.3-0.5,0.7-0.9,1.2-1.2c1.4-0.8,1.9-1.8,1.5-3.4
		c-0.1-0.4-0.1-0.8-0.2-1.1c-0.5-1.3,0-2.5,1.1-3c2.4-1.1,3.1-3.7,5-5.2c1.2-1,2.3-2,3.6-2.7c1.3-0.7,2.5,0.2,3.6,0.9
		c1.6,1,2.3,1.1,3.4-0.3c2.1-2.7,5-3.9,8.1-4.7c0.9-0.2,2.1-0.4,1.9-1.6c-0.3-1.2-1.4-1.4-2.6-0.9c-1.3,0.5-2.7-0.1-3.5-1.3
		c-0.6-0.8-1.2-1.5-1.9-2.2c-2.9-2.8-3.1-3.8-0.8-7.1c0.6-0.8,0.6-1.3,0.1-2.2c-0.5-0.9-0.6-2-0.9-3c-0.3-1.1-0.4-2.3-0.8-3.3
		c-3.2-7.9,0.3-13.9,8.3-16.2c1.1-0.3,2.5,0.2,3.6,0.7c1.6,0.7,3.1,1.8,4.6,2.7c0.2,0.1,0.4,0.5,0.5,0.7c0.1,0.3,0,0.7,0,1
		c0,33.5,0,66.9,0,100.4c0,0.6,0,1.1,0,1.7C567.4,224.1,567.2,224.1,567.1,224.2z M562.9,188.6c0.7,0.7,1.2,1.7,2.3,1
		c0.3-0.2,0.2-1.3-0.1-1.7C564.1,186.9,563.5,187.8,562.9,188.6z"/>
	<path d="M521.1,134.9c-1.4-2.8-3-5.3-4-8c-1.5-4.2-0.5-8.1,2.2-11.6c1.1-1.4,2.4-2.7,3.6-4c0.9-1,1.3-2.2,0.6-3.5
		c-0.9-1.9-1.8-3.8-2.8-5.7c-1-1.8-1.9-2.1-3.7-1.3c-0.9,0.4-1.7,0.9-2.5,1.5c-2.2,1.5-4.6,2.8-6.5,4.6c-1.2,1.1-2.6,2.4-2.6,4.4
		c0,0.3-0.2,0.6-0.4,0.9c-0.5,0.8-1.1,1.6-1.7,2.2c-0.4,0.5-1.1,0.7-1.6,1.1c-2.1,1.5-4.2,3.1-6.4,4.5c-1.9,1.2-3.9,2.1-5.9,3.2
		c-1.7,0.9-2.7,2.3-3.2,4.1c-0.6,2.7-1,5.5-2.7,7.9c-2.2,3-5.1,5.2-8.6,6.5c-2.6,1-5.3,1.5-8.1,1.5c-5.6-0.1-9.8-5.8-8.3-11.2
		c0.9-3.5,1.5-7.1,2.3-10.6c0.8-3.5,2.7-6.4,7.1-6.3c2.7,0.1,5.3,0.3,8,0.7c2.7,0.4,4.5-0.6,6.1-2.9c1.6-2.4,4-4.2,5.4-6.7
		c0.8-1.4,2.2-1.1,3-2.2c0.4-0.5,1.7-0.6,2.1,0.8c0.1,0.4,0.8,0.7,1.2,1.1c0.3-0.5,0.8-1,0.8-1.5c0-1.3-0.1-2.5-0.4-3.7
		c-0.1-0.5-0.9-0.7-1.3-1.2c-0.3-0.3-0.8-1-0.7-1.2c0.9-1.3,0.5-2.5-0.1-3.7c-2.3-4.7,0.1-8.5,2.4-12.3c1.9-3.1,5.1-4.8,8-6.5
		c1-0.6,2.7-0.2,4,0c2.8,0.4,5.5,1.1,7.9,2.7c3.5,2.3,5.4,5.8,6.7,9.7c0.9,2.7,1.9,3.1,4.5,1.8c1.4-0.7,2.9-1.4,4.3-2.1
		c2-0.9,4-0.5,6-0.1c2.9,0.7,5.9,1.5,8.7,2.5c2.3,0.8,3.9,2.5,4.3,4.9c0.2,1-0.3,2.3-0.9,3.3c-2.3,3.8-4.8,7.6-8.1,10.8
		c-2.4,2.3-2.8,2.5-0.9,5.7c2.1,3.6,2.9,7.6,1.7,11.7c-1.3,4.6-4.6,7.5-8.9,9.1c-2.5,1-2.9,1.7-1.4,3.9c1.3,2.1,2.8,4.1,3.2,6.6
		c0.6,3.7-0.1,6.9-2.6,9.8c-0.8,0.9-1.5,2-2.2,3c-0.5,0.8-1.1,1.4-2.2,1.3c-0.5-0.1-1.2,0.4-1.7,0.7c-1,0.6-2,0.7-3.2,0.2
		c-1.5-0.6-3.1-1-4.7-1.5c-0.3-0.1-0.6-0.2-0.8-0.3c-2.3-1.7-4.4-3.8-6.2-6.1c-1.4-1.8-2.5-1.8-4.3-0.2c-1,0.9-2.1,1.7-3.3,2.4
		c-2,1.3-4.2,1-6.3,0.2c-2.1-0.8-4.2-1.8-6.2-2.9c-2.9-1.6-3.2-3.7-0.8-5.9c1.9-1.8,3.9-3.5,5.9-5.2c2.5-2.1,7-1.6,9.6,1
		c0.6,0.6,1.1,1.2,1.8,1.7c1.4,1,2.2,0.8,3.3-0.6c1.1-1.4,2.1-2.9,3.5-3.9c1.9-1.5,4.1-2.6,6.1-3.9
		C520.2,135.7,520.7,135.2,521.1,134.9z"/>
	<path d="M455.5,381.5c1.9-0.3,3.2,0.6,4,2.5c0.1,0.4,0.4,0.7,0.6,1c0.2,0.3,0.6,0.6,0.8,0.6c0.3,0,0.7-0.4,0.8-0.7
		c0.2-0.5,0.3-1,0.4-1.5c0.4-1.6,1-2.9,2.7-3.8c1.4-0.7,2.5-2.2,3.3-3.6c1.6-2.7,6.3-3.6,8.5-3.2c4,0.8,5.9,3.6,7.1,7.1
		c0.8,2.4,1.1,2.7,3.6,2.7c0.7,0,1.4-0.1,2,0.2c2.8,0.9,3.5,4,1.3,6.3c-1.3,1.3-2.6,2.7-3.7,4.1c-1.2,1.5-1,2.6,0.3,4.1
		c1.6,1.9,3.2,3.8,4.4,5.9c2.4,3.9,0.9,9.3-3.6,11.1c-0.7,0.3-1.5,0.3-2.3,0.3c-2.6,0.2-5.2,0.4-7.6,1.8c-0.4,0.3-0.9,0.6-1.1,1.1
		c-0.6,1.4-1.7,2.5-3,2.4c-1.6-0.1-3-1-3.8-2.6c-0.4-0.9-0.6-2.1-1.2-2.9c-1.2-1.5-2.8-2.8-4.1-4.3c-1.3-1.4-2.4-2.9-3.7-4.3
		c-0.2-0.2-0.4-0.6-0.6-0.6c-4.3-0.8-3.9-4.8-5.2-7.6c-0.3-0.6-0.3-1.3-0.5-1.9c-0.4-1.2-1.3-1.7-2.5-1.6c-2.3,0.3-3.2-0.3-3.4-2.7
		c-0.1-1.8-0.2-3.6,0-5.3C449.4,384,451.8,381.1,455.5,381.5z"/>
	<path d="M376.8,213.1c-0.4-0.7-0.8-1.3-1-2c-0.7-2.1-1-4.3-1.9-6.3c-1.5-3.5-1.5-6.8,0.1-10.2c1.2-2.5,0.8-4.7-1-6.8
		c-3.3-4,0.3-9.3,4.3-10.1c1-0.2,2.3,0.5,3.3,1.1c1.7,1.1,2.5,2.9,3,4.9c0.3,1.4,1.1,2.2,2.4,2.6c2.1,0.5,4.1,1.2,6.2,1.6
		c1.7,0.3,3.3,0,4.6-1.4c1.4-1.5,3.5-2.5,4-4.7c0.2-1,0.3-2.1,0.2-3.2c-0.3-3.3,1.4-5.5,4.2-6.6c3.3-1.3,6.8-2.3,10.3-3.3
		c3-0.8,6.1,0.8,7.3,3.5c1.6,3.5,0.2,6.8-2.5,8.9c-2.1,1.7-4.4,3.2-6.7,4.7c-2,1.4-1.9,3.5-1.5,5.3c0.9,4.2-2.2,9.4-6.3,10.6
		c-1.5,0.4-3.1,0.8-4.6,1.1c-1.5,0.4-2.7,1.2-3.4,2.7c-0.9,2.2-1.9,4.4-2.8,6.7c-0.8,1.9-4.5,3.3-6.6,2.4c-1.8-0.8-3.7-1.6-5.6-1.9
		c-1.8-0.3-3.8-0.1-5.6-0.1C377,212.8,376.9,212.9,376.8,213.1z"/>
	<path d="M202.5,425.8c-0.7-3-1.4-6-1.9-9c-0.5-2.6,1.8-3.3,3.6-2.7c2.7,1,5.3,2.4,7.8,3.7c1,0.5,1.8,1.2,3,2.1
		c0.4-1.1,0.7-2.1,1.2-2.9c1-1.8,0.5-3.2-0.6-4.8c-0.6-0.9-1.1-2-1.2-3.1c-0.2-2.2,1.4-4.1,3.3-4.3c2.6-0.2,5,1.5,5.2,3.8
		c0.1,0.6,0.2,1.2,0,1.8c-0.7,1.8,0.2,3,1.4,4.1c0.8,0.9,1.7,1.8,2.4,2.8c0.7,1.2,1.5,1,2.5,0.6c1.1-0.5,2.1-1.1,3.3-1.4
		c0.7-0.2,1.6-0.2,2.4,0.1c1.7,0.6,3,0.5,4.5-0.9c2.5-2.2,5.5-3.5,8.8-2.2c1.6,0.6,2.9,1.9,4.3,3c1.1,0.9,2.2,1.1,3.5,0.3
		c1.5-0.9,3.2-1.6,4.8-2.5c1.6-0.9,3.1-0.7,4.6,0.4c1,0.8,2.3,0.7,3.3,0c1.3-1,3.3-1.7,2.9-4c0-0.2,0-0.4-0.1-0.6
		c-0.9-2.9,0.2-5.2,3-6.5c2-0.9,4.2-0.4,5.5,1.3c1.6,2.1,1.8,4.2,0.4,6c-0.4,0.5-0.6,1-1.1,1.4c-1.6,1.3-1.6,2.9-1,4.6
		c0.3,0.7,0.5,1.5,0.8,2.2c0.4,0.8,0.8,1.3,1.9,0.8c1.2-0.5,2.5-0.6,3.8-0.8c2.1-0.3,4.2-0.4,6.2-0.7c1.7-0.3,2.9,0.6,4,1.6
		c1.2,1.1,1.9,1.1,3.1,0c0.8-0.8,1.4-1.8,2.3-2.4c2.6-1.8,6.2-0.9,8,1.7c1.2,1.7,1.2,3.5,1.1,5.3c-0.1,1-0.7,1.2-1.6,1.2
		c-8.9,0-17.8,0-26.7,0c-12.4,0-24.9,0-37.3,0c-3.7,0-7.5-0.1-11.2,0c-1.7,0.1-3.2-0.4-4.6-1.1c-1.5-0.8-3.1-1.3-4.8-1
		c-2.5,0.4-4.6-0.6-6.5-1.9c-1.2-0.8-1.7-0.6-2.2,0.8c-0.4,0.9-0.8,1.8-1.4,2.7c-0.2,0.3-0.7,0.5-1,0.5
		C209,425.8,206,425.8,202.5,425.8z"/>
	<path d="M218.4,386.4c1.1-1.3,1.9-2.6,3-3.6c3.3-3,7.9-3,9.8,1.3c1.1,2.4,0.7,4.6-1.3,6.5c-1.7,1.6-3.8,2.2-6.2,0.8
		c-1.4-0.8-2.6-1.8-3.8-2.9c-0.9-0.8-1.4-0.8-1.9,0.2c-1.1,2.4-2.3,4.9-3.2,7.4c-1,2.7-3.1,3.4-4.8,1.2c-1.9-2.6-4.5-4.3-6.7-6.6
		c-1.6-1.7-3-3.6-4.4-5.4c-1-1.3-1.7-1.2-2.8,0.1c-0.7,0.8-1.6,1.7-2.6,2.1c-3,1.2-6-0.9-6-4.1c0-2-0.1-2.1-1.9-1.3
		c-3.9,1.7-8-1-8.4-5.2c-0.2-2.4,2.3-5.3,4.8-5.3c1.5,0,3.1,0.4,4.6,0.5c0.6,0.1,1.2-0.1,1.7-0.2c-0.2-0.5-0.2-1.1-0.5-1.6
		c-0.7-1-1.7-1.9-2.4-2.9c-0.8-1.1-1.4-2.4-1.9-3.7c-0.6-1.4-1.4-1.9-2.9-1.8c-0.6,0-1.4-0.4-1.7-0.9c-0.2-0.4,0-1.5,0.3-1.7
		c0.6-0.3,1.4-0.2,2.1,0c0.5,0.1,0.9,0.6,1.6,1.1c0.7-0.8,1.4-1.5,2.1-2.3c1.7-1.8,3.8-3.1,6.3-3.2c2.4,0,4.9,0.2,7.3,0.3
		c1.1,0,2.3,0,3.4,0c3.8,0.1,6.8,3.7,5,7.8c-0.7,1.5-0.7,2.9-0.2,4.5c0.4,1.7,0.2,3.5,0,5.3c-0.1,1.1,0.1,1.6,1.1,2.1
		c3.8,1.7,6.4,4.5,8.3,8.1C216.5,384.2,217.5,385.2,218.4,386.4z"/>
	<path d="M390,313.7c-0.2-3-2.2-5.2-4.9-5.7c-1.9-0.4-4.2-0.4-5.3-2.2c-1.1-1.7-2-3.7-2.6-5.7c-1.3-4.2,1.1-7.6,2.8-11.1
		c2-4,8-4.1,10.7,0.2c0.7,1.2,1.3,2.5,2.1,3.7c1.1,1.7,2.3,1.6,3.3-0.2c0.4-0.7,0.9-1.4,1.2-2.1c0.9-2.2,4.1-2.5,6-0.5
		c1.8,2,3.3,4.3,3.1,7.3c0,0.5-0.2,0.9-0.3,1.4c-1,3.2-0.2,6,1.8,8.5c0.4,0.6,1.3,0.9,2,1.1c1.1,0.3,2.1,0.7,2.1,1.9
		c0,0.8-0.4,2-1,2.3c-0.7,0.4-1.9,0-2.8-0.1c-0.9-0.1-2-0.5-2.7-0.1c-3.4,2-7,2.3-10.7,2.1c-1.2-0.1-2.3-0.3-3.8-0.4
		c0.9,1.8,1.6,3.4,2.4,4.9c1.6,2.9,0.8,8.5-1.6,10.7c-1.8,1.7-4.9,2-7.2,1.1c-2.2-0.8-3.7-2.3-5.1-4.2c-1.4-1.9-3.5-2.7-5.7-3.2
		c-2.4-0.5-4.1-2-4.6-4.4c-0.5-2.6,0.4-4.9,2.7-6.6c2.7-1.9,5.3-1.5,7.9-0.1C383,313.9,386.4,313.7,390,313.7z"/>
	<path d="M178.2,323.5c1,0.2,2.4,0.1,3.1,0.7c1.1,1,1.8,2.4,2.6,3.7c0.8,1.5,1.4,3.1,2.3,4.5c0.9,1.4,2.3,1.8,3.9,1.5
		c0.6-0.1,1.2-0.2,1.9-0.3c1.4-0.2,2.1,0.5,2.6,1.8c0.5,1.3,0.3,2.4-0.6,3.2c-1.1,0.8-2.4,1.5-3.7,1.8c-1.7,0.3-2.5,1-2.8,2.7
		c-0.7,4.3-2.8,7.4-7,9.1c-1.1,0.5-2.2,1.1-3.2,1.8c-1.3,0.9-1.8,2.2-1.7,3.8c0.1,2.1-1.7,3.9-3.6,4c-1.6,0-3.3-1.9-3.5-3.7
		c-0.2-3.9-0.5-4.4-4.4-5.6c-2.4-0.7-3.8-2.4-4.7-4.5c-0.8-1.7-2-2.6-3.7-2.9c-2.1-0.5-3.9-1.4-4.9-3.3c-1.6-3-0.3-5.9,3.3-7.2
		c2.2-0.7,3.9-2,4.9-3.9c1.4-2.7,3.6-4,6.4-4.8c3.2-0.9,6.4-1.6,9.8-1.8C176.2,323.9,177.1,323.7,178.2,323.5z"/>
	<path d="M132.3,396.8c-2.1,0-3.8-1.1-5-2.8c-0.2-0.3-0.5-0.6-0.7-0.9c-0.8-1.2-1.6-1-2.7-0.3c-0.7,0.5-1.5,1.1-2.3,1.4
		c-2.2,0.8-4.1-0.4-4.3-2.7c-0.1-1-0.1-2,0.2-2.9c0.6-1.9,3.4-3.3,5.9-0.9c0.4,0.4,0.7,0.9,1.1,1.1c0.5,0.2,1.5,0.4,1.8,0.1
		c2-2,4.1-3.7,3.2-7.2c-0.4-1.9,0.4-4.1,0.7-6.1c0-0.4,0.3-0.8,0.2-1.1c-0.1-1.4,0.2-2.4,1.6-3.3c0.7-0.5,1.2-1.8,1.2-2.7
		c-0.2-3.1-0.6-6.2-0.9-9.2c-0.1-1-0.3-2.2,0.8-2.8c0.9-0.4,2.1-0.7,2.9-0.3c2,0.8,4,1,6.1,0.9c1.4,0,2.2-0.6,2.7-1.8
		c0.5-1.2,0-2.1-0.8-2.9c-0.6-0.6-1.2-1.2-1.8-1.8c-1.5-1.6-1-3.5,1.1-3.9c2.6-0.5,5.2-0.7,7.4,1.3c1.2,1.1,1.5,2.6,0.9,3.9
		c-1,2.3,0.1,3.8,1.2,5.3c1,1.3,2.4,2.4,3.2,3.8c0.7,1.1,0.9,2.6,1.3,3.9c0.1,0.4,0.5,0.7,0.6,1.1c0.2,0.4,0.4,0.8,0.3,1.1
		c-0.3,1.4-0.9,2.9-0.8,4.3c0.1,1.8,0.6,3.6,1.1,5.3c0.9,3.2-0.6,6-3.4,7.1c-3.8,1.6-6.5-0.1-7.1-4.2c-0.1-1.1-0.4-2.2-0.8-3.2
		c-0.4-1-1.2-1.4-2.2-0.7c-0.7,0.5-1.4,1.1-1.9,1.8c-1.7,2.8-3.9,4.9-7.2,5.7c-2,0.5-2.1,1.2-0.6,2.7c1.5,1.4,2.5,3,2.4,5.2
		C137.8,394.3,135.4,396.8,132.3,396.8z"/>
	<path d="M444.1,354.3c1.4,2.3,2.7,4.2,3.7,6.2c0.6,1.2,1,2.9,0.6,4.1c-0.5,1.7-1.8,3.2-2.9,4.7c-0.2,0.3-0.8,0.4-1.2,0.4
		c-1.3-0.1-2.2,0.5-2.7,2.1c-0.4-0.7-0.6-1.1-0.8-1.4c-1.3,0.1-2.6,0.1-3.5,0.2c-1.1-1.3-2-2.4-3-3.6c-1.3,1.1-1.8,0.5-2.2-0.7
		c-0.1-0.3-0.7-0.7-0.8-0.6c-1.5,0.7-2.7-0.2-3.7-0.8c-2.2-1.5-4.5-2.3-7.1-2.7c-2.5-0.4-4.8-1.7-7.2-2.4c-2.9-0.8-5.2-2.5-7-4.9
		c-1.1-1.5-0.7-2.9-0.3-4.3c0.8-3.1,2.9-5.5,4.9-7.9c1.2-1.4,3.6-1.6,4.9,0c3.1,3.8,6.4,7.5,9.5,11.3c0.8,1,1.2,2.2,1.9,3.2
		c1.5,2.1,2.8,2.5,5.1,1.5c2.8-1.2,5.5-2.7,8.2-4.1c0.9-0.5,0.9-1.1,0.2-1.8c-1-1-2-2-3.1-2.8c-4.5-3.5-2.1-8.6,2-10.3
		c2.1-0.9,4.6-1.5,6.9-1.4c3,0.2,6.1-0.1,9,1.3c2.3,1.1,3.4,3,3.6,5.3c0.2,2.6-0.8,4.8-3.2,5.9c-2.2,1-4.6,1.4-6.9,2
		c-1.2,0.3-2.5,0.4-3.7,0.7C444.7,353.7,444.3,354.2,444.1,354.3z"/>
	<path d="M344,82.7c-3.7-0.2-6.6-1.3-8.1-4.9c-1.1-2.8-3.6-4.6-5.5-6.8c-2.3-2.5-2.9-5.4-2.1-8.6c0.5-2.1,1.4-4,3.3-5.2
		c2.1-1.4,4.4-1.6,6.8-1.2c1.4,0.2,2.7,0.6,4.1,0.9c2.2,0.4,4-0.7,5.7-1.8c2-1.2,4.1-2.2,6.4-2c2.6,0.1,4.9,1,7,2.5
		c1.5,1.1,3,2.4,4.5,3.4c0.4,0.3,1.4,0.2,1.9,0c0.8-0.4,1.5-0.7,2.1-0.1c0.4,0.4,0.7,1.3,0.4,1.6c-0.4,0.5-1.2,1-1.8,1.1
		c-1,0.1-1.6,0.2-2.2,1.3c-0.8,1.6-2.1,3-3.3,4.4c-2,2.3-3,5-3.6,7.8c-0.7,3.5-3.1,4.9-6.2,5.6c-2.3,0.5-4.6,1-6.9,1.5
		C345.7,82.5,344.8,82.6,344,82.7z"/>
	<path d="M547.4,260.9c2.1,2.8,3.9,5.3,6,8.1c-1.7,0.7-3.2,1.7-4.7,1.7c-2.8-0.1-5.5,0.7-8.1,1.3c-2.4,0.6-4.3-0.3-6.2-1.2
		c-1.9-0.9-3.8-2-5.8-2.7c-2.2-0.8-4.3-3.6-4.3-5.4c0-2.5,2.2-4.8,4.8-4.9c1.3,0,2.5,0.2,3.8,0.3c2.1,0.2,4-0.3,5.6-1.6
		c1.2-0.9,1-2.2,0.6-3.3c-0.2-0.6-1.2-1.2-1.9-1.5c-1.1-0.5-2.3-0.7-2.6-2c-0.3-1.3,0.9-2.8,2.4-3c0.4-0.1,0.8-0.3,1.3-0.5
		c-0.3-0.5-0.5-1.1-0.9-1.4c-0.9-0.8-2.1-1.4-3-2.3c-2.2-2.2-2.2-5.3-0.4-7.5c2.1-2.6,7.1-2.3,9.3,0.9c0.8,1.2,1.4,2.6,1.4,4
		c0.1,2,0.8,2.5,3.1,2.9c2.2,0.3,4.5,0.5,6.8,0.8c0.9,0.1,2,1.6,1.6,2.4c-0.8,1.8-0.2,3.4,0.4,5c0.4,1,1,1.2,1.9,0.9
		c2-0.6,3-0.2,4,1.2c1.3,1.8,0.5,3.7-0.5,4.9c-0.5,0.6-1.2,1.1-2.2,0.5c-0.9-0.6-2-1-2.9-1.6c-0.8-0.5-1.4-0.6-2.2-0.1
		c-1.9,1.1-3.9,2.1-5.9,3.1C548.4,260.2,547.9,260.6,547.4,260.9z"/>
	<path d="M278.2,215.1c0.3,3.5-1.4,6.5-3.1,9.4c-1.1,1.9-1.1,2.1,0.6,3.4c1.1,0.8,2,1.8,1.6,3.4c-0.3,1.2-1.1,1.9-2.1,1.8
		c-0.9-0.1-2.3-0.7-2.5-1.3c-0.9-3.2-3-3.4-5.8-3.3c-3.1,0.1-6.3-0.2-9.4-0.7c-1.9-0.3-3.2-1.7-3.9-3.5c-0.8-2-1.6-4-2.1-6
		c-0.9-4.2-0.1-8,2.5-11.6c1.9-2.5,4.3-4,7.3-4.9c5.3-1.6,11.9,1,14.7,5.6C277.5,209.8,278.4,212.3,278.2,215.1z"/>
	<path d="M454.1,191.9c0.5,5.1-4.9,11-10.1,11.7c-3.9,0.5-7.1-0.7-10.3-2.5c-2.3-1.3-4.4-2.9-6.7-4.1c-1-0.5-2.3-0.6-3.5-0.6
		c-1.7,0-3.4-0.2-4.7-1.2c-2.1-1.6-2.4-4.1-0.9-6c1.6-2,4.3-1.9,6.3-0.3c0.6,0.5,1.2,1.1,1.8,1.7c1,0.9,1.9,1,2.7-0.2
		c1.1-1.5,1.9-3.3,2.8-4.9c1.5-2.7,3.4-5,6.7-5.8c3.8-0.9,7.4-0.5,10.6,1.6C452.4,183.6,454.2,187.1,454.1,191.9z"/>
	<path d="M76.8,29.6c3.2,0,5.8,1.3,8,3.5c1,1,2.1,1.9,3.2,2.8c2.1,2,2.2,3.1,0.8,5.6c-0.6,1.2-1,2.5-1.6,3.7
		c-0.4,0.9-0.9,1.8-1.3,2.7c-0.4,1-0.8,2.1-1.1,3.1c-0.4,1.3-1.4,2-2.5,1.7c-1.5-0.6-2.5,0-3.7,0.8c-2.9,1.9-4.8,1.4-6.7-1.4
		c-0.2-0.2-0.3-0.5-0.5-0.7c-1-1.3-1.6-1.4-2.8-0.3c-1,0.9-1.8,2.2-3.5,2.1c-1.3-0.1-2.3-0.4-2.8-1.7c-0.5-1.3-0.5-2.5,0.5-3.6
		c0.3-0.4,0.7-0.7,1-1c0.7-0.7,0.8-1.3,0.3-2.2c-1.7-2.7-1.3-4.9,0.9-7.2c1-1,1.7-2.2,2.4-3.4c1.4-2.3,3.1-4,6.1-4
		C74.6,30.1,75.7,29.8,76.8,29.6z"/>
	<path d="M237.6,97.8c3.5-0.2,7.7,2.7,8.7,7.2c0.1,0.6,0.3,1.1,0.4,1.7c0.5,3-1.1,4.9-3.3,6.6c-2.4,1.9-5.2,2.3-8.1,2.3
		c-1.8,0-2,0.4-1.6,2.1c0.4,1.6,0.8,3.2,0.9,4.8c0.4,4.6-3.6,8.5-8.2,8.6c-4,0.1-7.6-2.8-8.9-7.2c-1.4-4.8,3.2-9,6.6-9.7
		c1.4-0.3,2.8-0.3,4.2-0.4c1.7-0.1,2-0.4,1.6-2c-0.2-0.9-0.8-1.8-0.9-2.7c-0.2-1.7-0.7-3.5-0.3-5c0.5-1.6,1.8-3.1,3.1-4.3
		C233.5,98.4,235.5,97.5,237.6,97.8z"/>
	<path d="M450,394.4c0.7,2.3,1.4,4.3,1.9,6.3c0.6,2.4-1.3,4.2-3.9,4.1c-1.3-0.1-2.6-0.1-3.9,0c-0.4,0-0.9,0.3-1.2,0.6
		c-0.9,0.9-1.7,2-2.6,3c0.8,0.4,1.7,0.8,2.5,1.3c1.1,0.7,1.3,1.7,1.1,3c-0.2,1.5-1.3,2-2.4,2.4c-1.1,0.4-2.2-0.7-2.3-2.2
		c0-1.3,0-2.6,0-4.3c-1.2,0.5-2.4,0.9-3.5,1.5c-0.2,0.1-0.3,0.8-0.2,1.1c0.4,1.7,0.2,3.1-1.3,4.2c-0.7,0.5-1.3,1.2-1.9,1.9
		c-1.7,1.7-1.7,1.8-0.6,3.8c0.2,0.4,0.2,1,0,1.4c-0.2,0.3-0.9,0.6-1.2,0.4c-0.4-0.2-0.8-0.7-0.9-1.1c-0.1-0.5,0.1-1.1,0.1-1.7
		c-2.2-1.4-3.3-1.4-4.8-0.1c-0.7,0.6-0.7,1.1-0.4,1.9c0.5,1.2,0.9,2.5,1.4,3.9c-4.9,0-9.3,0.1-13.8-0.1c-0.7,0-1.7-1.5-1.8-2.4
		c-0.1-0.6,0.9-1.7,1.6-2.1c0.8-0.4,1.9-0.4,2.8-0.4c1.2,0,1.7-0.6,1.4-1.8c-0.2-0.8-0.1-1.7-0.1-2.5c0-1.2,0.5-2.1,1.6-2.5
		c1.3-0.4,2.2,0.4,2.7,1.5c0.4,0.8,0.4,1.7,0.7,2.5c0.2,0.4,0.6,0.7,0.9,1c0.3-0.3,0.8-0.5,0.8-0.9c0.2-1.2,0.4-2.5,0.3-3.8
		c-0.2-2.4,1-4.2,2.4-5.9c0.7-0.9,1.7-1.5,2.5-2.3c0.8-0.6,1.1-1.4,0.7-2.3c-0.2-0.4-0.4-0.8-0.5-1.2c-0.2-1.2-0.2-2.2,1.1-3.3
		c2.1-1.6,4-2.2,6.6-1.7c2,0.3,4.2,0.1,6.3-0.3c1.7-0.4,3.2-1.6,4.8-2.2C448,394.7,449.1,394.6,450,394.4z"/>
	<path d="M350,343.5c-0.4,0-0.9,0-1.3,0c-2.1,0-2.4,0.5-1.5,2.5c1.6,3.4,1.5,6.8-0.9,9.7c-2.1,2.6-6.6,3.8-9.8,1.9
		c-3-1.7-4.4-4.3-4.7-7.6c-0.3-3.2,3.3-7,6.6-7.5c1.3-0.2,2.6-0.3,3.9-0.4c1.7-0.1,1.9-0.2,1.5-1.9c-0.3-1.1-0.6-2.2-1-3.3
		c-1.5-3.7,1.3-8.2,4.1-9.6c1.2-0.6,2.5-0.8,3.9-1.1c1.4-0.3,2.8-0.5,4.2-0.8c3.7-0.9,6.3,1.3,5.9,5c-0.2,2.1-0.2,4.2-0.7,6.2
		c-0.4,1.4-1.4,2.8-2.4,3.9c-1.1,1.1-2.6,2-4.1,2.6c-1.1,0.5-2.4,0.4-3.5,0.6C350,343.6,350,343.6,350,343.5z"/>
	<path d="M160.9,156.2c0.4,5.7-5.4,12.8-12.1,12.2c-6.7-0.6-12.1-5.3-12.3-11.9c-0.1-6.6,5.4-12.7,13.1-12.3
		C155.2,144.4,161.5,149.6,160.9,156.2z"/>
	<path d="M538.8,54.6c0.6,0.7,1,1.3,1.5,1.9c-0.4,0.1-0.7,0.2-1,0.4c0,0.1-0.1,0.2-0.1,0.3c1,2.2-0.3,4.1-0.8,6.1
		c-0.6,2.3-1.7,4.4-2.4,6.6c-0.8,2.6-2.8,3.5-5.3,3.9c-1.4,0.2-2.8,0.5-4.3,0.6c-0.8,0-1.7-0.2-2.3-0.6c-2.7-1.4-5.3-3-6.6-5.9
		c-0.6-1.2-0.8-2.6-1-3.9c-0.4-2-0.4-4-1.3-5.9c-0.5-1-0.2-2.4,0.9-3.2c0.9-0.6,1.7-1.2,3.2-0.9c1.2,0.3,2.7-0.2,3.9-0.7
		c2.5-1,5-1.3,7.7-1.4c0.6,0,1.2-0.4,1.8-0.6c0.9-0.3,2.2-0.9,2.8-0.6c0.8,0.5,2.2,0.9,1.8,2.7C536.9,54.5,538.1,54.6,538.8,54.6z"
		/>
	<path d="M273.8,60.2c3-0.1,5.2,1.4,7.2,3.3c1.7,1.6,2.2,1.6,3.8,0c1.5-1.6,3.1-2.7,5.4-2.6c2.2,0.1,5.2,2.8,5.1,5.1
		c0,1.7-0.1,3.2-1,4.8c-1.1,1.9-0.1,3.8,0.4,5.6c0.6,2.3-0.8,4.7-3.2,5.4c-2.2,0.7-4.6-0.6-5.1-2.9c-0.3-1.6,0-3.2-0.1-4.9
		c-0.1-0.8-0.4-1.8-1-2.4c-1.2-1.4-2.1-1.3-3.1,0.2c-1.5,2.3-3.1,4.4-5.9,5.2c-3.4,1-7.4-0.4-9.3-3c-1.3-1.7-2.2-3.7-2.2-5.9
		c0-1.1,0.3-2.3,1-3.2C267.5,62.5,270.2,60,273.8,60.2z"/>
	<path d="M57.8,101.4c0.1,6.6-5.3,11.6-11.5,11.6c-6.4,0-12-5.3-11.8-11.5c0.1-6.6,4.8-11.6,11.9-11.8C52,89.7,57.9,94.1,57.8,101.4
		z"/>
	<path d="M533.7,425.8c-1.4,0-2.8,0-4.1,0c-2.1,0-3.1-0.9-3.1-3.1c0-1.6-0.1-3.3,0-4.9c0.1-2-0.7-3.5-2.1-4.9
		c-3.2-3.2-4.1-7.1-2.7-11.2c1.4-4,4.8-5.1,9.1-3.5c2.4,0.9,4.4,2.4,5.9,4.6c1.2,1.8,1.2,3.6,0.9,5.6c-0.1,0.9-0.4,1.7-0.5,2.6
		c-0.1,2.3,1.4,4,3.7,4.5c1.2,0.3,2.4,0.6,3.6,1.1c1.4,0.7,1.7,1.9,0.7,3.1c-1.6,2-3.2,3.9-4.9,5.8c-0.2,0.2-0.7,0.3-1,0.3
		C537.3,425.8,535.5,425.8,533.7,425.8z"/>
	<path d="M272.2,97.6c0-3.5,3.5-6,6.7-5c0.1,0,0.3,0.1,0.4,0.2c4.1,1.5,3.3,0.6,5.5-1.9c3.9-4.5,9.9-6.1,14.7-2.9
		c4.9,3.3,5.8,7.2,2.2,12.7c-1.7,2.6-4.5,3.4-7.3,3.8c-2,0.3-4,0.7-6,0.7c-2.2,0-4.3-0.8-6.3-1.9c-0.8-0.4-1.7-0.6-2.6-0.6
		c-1.8-0.2-3.6-0.2-5.2-1.3C272.8,100.4,272,99.2,272.2,97.6z"/>
	<path d="M531.8,342.3c-0.6,1.3-1,2.8-1.8,3.9c-0.9,1.4-0.9,2.5,0,3.9c0.8,1.2,1.3,2.6,0.7,4.2c-0.6,1.4-2.1,2.7-3.7,2.7
		c-1.9,0-3.1-1.3-3.7-2.6c-0.7-1.5,0-2.9,0.4-4.3c0.4-1.7-1.6-4.4-3.3-4.3c-0.5,0-1,0.6-1.3,1c-1.4,1.9-2.5,4.1-4.9,5
		c-4.1,1.6-8.4,0.5-10.4-2.9c-0.9-1.5-1.6-3.2-2.1-4.9c-0.2-0.7,0-1.8,0.4-2.5c1.5-2.3,3.2-4.5,6.1-5.2c2.9-0.6,5.6-0.4,7.9,1.7
		c0.7,0.6,1.4,1.2,2.1,1.8c0.7,0.5,1.4,0.8,2.3-0.1c1.2-1.2,2.6-2.6,4.1-3.2c4.2-1.5,5.8,0.2,6.7,4.5c0.1,0.4,0,0.8,0,1.2
		C531.5,342.2,531.7,342.3,531.8,342.3z"/>
	<path d="M308.6,193.4c-0.1-3.1,2-5.4,5.3-5.7c4-0.3,7-2.3,10.3-4c1.9-1,3.9-1.1,5.8-0.2c1.3,0.6,2.6,1.2,3.9,1.8
		c0.5,0.2,1.1,0,1.7,0.1c1.4,0.2,3.1,0.1,4.3,0.8c2.1,1.1,1.9,3.7-0.1,5c-0.9,0.6-2,0.9-2.7,1.6c-1.3,1.2-2.5,2.6-3.7,4
		c-2.7,3.1-5.8,3.8-9.8,2.9c-2.1-0.5-4.4-0.5-6.4-0.2c-3.5,0.6-6.5-0.6-8-3.8C308.7,194.9,308.7,194.1,308.6,193.4z"/>
	<path d="M440.6,270.2c-1.5,2-2.7,3.8-4,5.5c-3.9,5.1-12.1,3.3-13.8-2.5c-2.3-1.8-0.9-3.6,0-5.5c0.6-1.2,1.1-2.3,2.4-3
		c0.2-0.1,0.5-0.3,0.5-0.5c0.5-2,1.8-1.5,3.2-1.3c1.2,0.2,2.6,0,3.8,0.2c2.1,0.4,3.6,1.8,4.9,3.4c0.7,0.9,1.4,1.3,2.4,0.5
		c0.7-0.6,1.6-1,2.2-1.6c1.7-1.6,3.8-2.2,5.6-1.5c3.2,1.4,4.7,3.3,4.5,6c-0.1,0.9-0.6,1.9-1.2,2.6c-1.2,1.4-2.2,2.8-1.4,4.8
		c0.3,0.9,0.2,2.2-0.2,3.1c-0.6,1.8-2.3,2.4-4.1,1.7c-1.4-0.5-2.3-2.5-1.9-4.1c0-0.1,0.1-0.2,0.1-0.3c1.2-2.3,1-4.2-1.5-5.6
		C441.5,271.8,441.1,270.9,440.6,270.2z"/>
	<path d="M170.3,394.6c-1.9,1.1-3.5,2.2-5.2,3c-0.8,0.4-1.9,0.5-2.8,0.5c-1.6,0.1-1.9,0.6-1.5,2.2c1,3.8,0.2,6.7-3.1,8.7
		c-3.4,2.1-6.5,1-8.8-1.8c-1.2-1.5-1.9-3.2-1.9-5.2c0-0.3,0-0.7,0.2-1c1.6-2.1,3.1-4.3,6-4.7c0.8-0.1,1.6-0.2,2.4-0.3
		c1-0.1,1-0.8,0.8-1.5c-0.3-1.2-0.6-2.3-0.9-3.5c-0.6-2.7,3-6,5.3-6.7c4.4-1.3,8,1.9,8.9,5.3c0.1,0.3,0.2,0.5,0.3,0.8
		c0.6,2,0.7,2,2.6,1.5c1.4-0.4,2.7-0.1,3.4,1.2c0.3,0.7,0.3,1.7,0,2.4c-0.4,1.2-1.5,1.9-2.8,1.6c-0.8-0.2-1.5-0.8-2.2-1.3
		C170.8,395.5,170.6,395,170.3,394.6z"/>
	<path d="M195.7,159.6c-0.3-4.1,2-6.7,5-8.9c1.9-1.4,3.6-3,5.3-4.6c1.2-1.1,2.5-1.7,4.1-1.9c3.4-0.4,5.1,3.3,4.6,5.7
		c-0.7,2.9-0.9,5.7-1,8.6c-0.1,3.6-1.4,6.7-4.7,8.7c-5.7,3.3-11.6,0.6-13.3-5.1C195.5,161.3,195.7,160.4,195.7,159.6z"/>
	<path d="M367.6,296.6c-2,1.1-4.6,1.5-4.9,4.6c0.3,0.1,0.6,0.1,0.9,0.2c1,0.1,1.1,0.7,0.9,1.5c-0.2,0.8-0.5,1.8-0.3,2.5
		c1,3.8-2.5,7.5-6,7.7c-1.7,0.1-3.1-0.6-4-2c-0.9-1.3-1.8-2.7-2.3-4.1c-0.3-0.9-0.2-2.3,0.4-3c0.9-1.3,2.2-2.5,3.6-3.2
		c2.6-1.4,3.1-2.3,2-5.1c-0.6-1.5-1.1-3.1-1.5-4.6c-0.6-2.4,1.6-6.9,3.9-7.9c1.1-0.5,2.2-1.1,3.3-1.3c3.2-0.5,6.1,2.9,6.2,5.7
		c0,2.3,0.9,4.7-0.2,7c-0.1,0.2,0.2,0.8,0.4,1c0.3,0.2,0.8,0,1.2,0.1c0.4,0,0.9-0.1,1.3,0.1c0.3,0.2,0.5,0.8,0.4,1.1
		c-0.2,0.5-0.6,1-0.9,1.4c0,0.1-0.4,0-0.4,0c-0.3-1.4-1.3-0.7-2.1-0.8C368.7,297.3,368.2,296.9,367.6,296.6z"/>
	<path d="M424.2,330.9c0.6-3.3-0.8-5.8-2.5-8.4c-2.1-3.1-2-6.2,1.3-8.7c3.1-2.3,7.1-0.2,8.4,3.6c0.6,1.8,1.3,3.6,2.1,5.4
		c0.3,0.7,0.9,1.2,1.5,1.8c1.9,2,2.8,4.2,1.8,6.9c-0.8,2.1-1.5,4.3-2.6,6.3c-1.1,1.9-3,2.9-5.2,2.5c-2.5-0.4-3.9-2.3-4.3-4.7
		C424.4,334,424.3,332.4,424.2,330.9z"/>
	<path d="M140.6,34.9c0.8-0.3,1.5-0.8,2.3-0.9c1.2-0.1,1.4-0.7,1.1-1.7c-0.3-1.1-0.1-1.3,1-1c1.9,0.6,6.4-0.9,7.1-3.5
		c0.1-0.5,0.7-1.1,1.2-1.2c2.3-0.7,4.7-0.4,7,0.3c0.3,0.1,0.7,0.2,0.7,0.4c0.7,1.6,1.4,3.1,1.9,4.7c0.4,1.3-0.3,2.4-1.4,3.1
		c-0.6,0.4-1.1,0.8-1.7,1.1c-1.5,0.7-1.9,1.8-1.9,3.3c0,0.8,0.6,2.1-0.7,2.4c-0.8,0.2-2,0.2-2.6-0.3c-0.9-0.7-2.2-1.5-1.4-3.1
		c0.1-0.2-0.2-1-0.5-1.1c-0.4-0.2-1.1-0.1-1.4,0.2c-0.9,1-1.6,2.2-2.4,3.3c-0.6,0.8-1,1.7-0.1,2.7c0.1,0.1,0.1,0.4,0.1,0.6
		c-0.2,1.7,0.2,2.9,2.1,3.2c0.2,0,0.5,0.7,0.5,1c-0.4,2-2.4,2.9-4.2,1.9c-1.7-0.9-3.3-1.8-5.1-2.5c-2.5-1.1-3.1-2.2-2.4-4.9
		c0.1-0.3,0.2-0.7,0.2-1c0.1-2.3,1.4-3.1,3.7-2.5c0.2,0.1,0.7-0.1,0.7-0.2c0.1-0.3,0.1-0.7,0-1c-0.7-1.8-2.3-2.5-4-3
		C140.7,35.1,140.6,35,140.6,34.9z"/>
	<path d="M425.9,308.3c-3.8,0-7.5-4.4-5.9-8.2c0.4-0.9,0.9-1.9,1-2.8c0.1-0.7-0.3-1.7-0.8-2.3c-1.2-1.3-2.8-2.2-3.8-3.5
		c-1.4-1.6-1.2-4.6,0-6.1c1.8-2.2,4.1-3.1,6.4-2.1c2.6,1.1,4.1,3.8,3.5,6.7c-0.2,1.1-0.5,2.3-0.5,3.4c-0.1,1.2,0.8,1.7,2,1.5
		c1.9-0.3,3.6-1.1,5.6-0.7c2.2,0.5,3.8,3.5,2.7,5.7c-0.9,1.7-1.9,3.2-3.6,4.3c-1.5,1-2.7,2.3-4.2,3.3
		C427.6,307.9,426.7,308,425.9,308.3z"/>
	<path d="M402.4,368.4c1.4-0.1,2.9-0.4,4.3-0.4c5,0,8.7,2.4,11.5,6.3c1,1.3,1.1,3.1,0.6,4.6c-0.6,1.7-2.4,2.1-4,2.6
		c-1.1,0.4-2.3,0.4-3.4,0.8c-1.1,0.3-1.6,1.2-1.7,2.4c-0.1,1.3-0.5,2.5-1,3.7c-1.2,2.9-4.5,2.8-6.6,1.6c-1-0.6-0.7-1.6-0.4-2.4
		c0.5-1.4,1-2.8,1.6-4.2c0.6-1.3,0-2.5-0.5-3.6c-1.3-3-2.7-6.1-4.1-9.1c-0.5-1.1,0.3-2.2,1.6-2.3
		C401.1,368.2,401.7,368.3,402.4,368.4C402.4,368.3,402.4,368.4,402.4,368.4z"/>
	<path d="M374,156.6c2.7-0.1,4.9,0.9,6.6,2.7c1.5,1.6,3.2,3.2,4.3,5.1c2.5,4.2,0.7,6.1-2.1,8.1c-1.4,1-3.4,1.7-5.1,1.7
		c-1.7,0-3.5-0.9-5.2-1.5c-2.2-0.8-4-2.3-5.6-4.1c-1.4-1.6-1.4-3.6-1-5.5c0.6-3.2,2.7-5.2,5.6-6.3
		C372.3,156.5,373.2,156.7,374,156.6z"/>
	<path d="M177.1,303.1c0.4,2.2-1,3.4-2.6,4.4c-3.7,2.2-7.8,3.3-12,4.1c-3,0.6-5.6-1.5-6.4-4.5c-1.8-6.3,4.7-12.5,10.3-12.1
		c0.5,0,1.1,0.1,1.6,0.3c2.7,1.2,5.6,2.3,7.8,4.4C176.8,300.7,177.4,301.7,177.1,303.1z"/>
	<path d="M460.2,158.8c6.5-0.1,8.9,4.5,9,8.9c0.1,4.7-3.8,9-9.2,8.9c-4.9-0.1-8.7-3.8-8.8-9.1C451.1,163.2,455.4,158.1,460.2,158.8z
		"/>
	<path d="M211.7,355.7c-0.1-3.8,3.1-7.6,7.6-6.9c2.3,0.4,4.9,2.2,5.4,4.8c0.4,2.1,1.2,3.9,2.7,5.5c1,1.1,1.1,2.5,0.9,3.9
		c-0.2,1.4-0.4,2.8-0.7,4.1c-0.6,2.2-3.3,3.4-5.6,3.1c-3-0.4-4.7-2.2-5.9-4.8c-1-2.1-2.1-4.1-3.1-6.2
		C212.4,358.1,212.1,356.9,211.7,355.7z"/>
	<path d="M346.2,396.8c0.6,0.5,1.3,0.9,2,1.5c0.3,0.3,0.6,0.8,0.6,1.2c-0.1,1.6-2.6,3.5-4.2,3.3c-1.3-0.2-2.3-1.9-1.8-3
		c1.6-3.4,1.6-3.4-1.7-5.5c-0.5-0.3-1.1-0.6-1.8-1c-0.9,1.2-1.9,2.4-2.7,3.7c-1.4,2.1-3.3,3-5.8,3c-1.1,0-2.3,0.1-3.4-0.1
		c-2-0.4-3.6-1.6-4.7-3.4c-0.8-1.3-1.8-2.4-2.6-3.7c-0.7-1.3-0.2-2.4,1.1-2.2c3.2,0.4,5.5-1.7,8.3-2.3c2.7-0.7,5.3-0.5,7.6,1.3
		c1.9,1.5,1.9,1.5,3.8,0.2c1.6-1.1,3.3-1.5,4.9-0.6c1.6,0.9,2.3,2.6,2,4.4C347.5,394.5,346.8,395.5,346.2,396.8z"/>
	<path d="M311.9,406c1.5-0.2,2.9,0.4,4.2,1.5c0.4,0.3,0.9,0.5,1.4,0.8c0.7,0.4,1.1,0.1,1.5-0.6c0.8-1.4,1.8-2.7,3.6-3.2
		c1.7-0.4,3.7,0.3,4.5,1.9c1.1,2.3,2.6,4,5.3,4.6c1.7,0.4,3.2,1.5,3.6,3.6c0.5,2.3-0.8,4.6-3.1,4.8c-2.9,0.3-5.9-0.5-7.1-4.1
		c-0.4-1-1.6-1.9-2.6-2.6c-1.1-0.8-2.4-1.4-3.7-2c-0.8-0.4-1.3-0.1-1.7,0.7c-0.8,1.6-1.6,3.3-3.5,4.1c-2.3,1-5.2,0.7-7-1.1
		c-0.5-0.5-1.1-1-1.6-1.6c-1.6-1.7-1.6-3.4,0.2-4.8C307.7,406.9,309.5,405.8,311.9,406z"/>
	<path d="M55.2,78.2c-0.2-2.6,1.5-4.3,2.7-6.3c0.6-1.1,1.4-2.1,2.3-3c1.4-1.4,3.1-1.4,4.6-0.2c1,0.9,2.1,1.6,3.3,2.4
		c2.4,1.5,3.8,3.8,4.5,6.4c0.4,1.6-0.2,3.3-1.2,4.7c-1.3,1.6-2.7,3.2-4.2,4.5c-1.4,1.2-3.2,1-4.8,0.4c-2.2-0.9-4.5-1.8-5.6-4.1
		c-0.7-1.5-1.2-3.1-1.8-4.6C55,78.3,55.1,78.3,55.2,78.2z"/>
	<path d="M366,230.8c-5.9,0.1-9.5-5.2-8.1-9c1.3-3.7,4.4-5.4,7.4-5.1c1.7,0.1,3.3,0.8,4.9,1.1c1.4,0.3,2.8,0.5,4.1,0.6
		c2.1,0.1,5,2.4,5.3,4.4c0.3,2.1-0.8,3.6-2.5,4.5c-1.7,0.9-3.5,1.4-5.3,2C369.6,229.9,367.4,230.4,366,230.8z"/>
	<path d="M397.7,324.4c0-4.1,3.3-7.6,7.3-8.5c3.4-0.8,5.3,0.8,7.1,3.3c1.3,1.8,2,3.8,2.1,5.9c0.2,2.9-0.8,5.5-3.4,7.1
		c-2.9,1.8-5.9,1.6-8.7-0.2C399.3,330,397.5,327.9,397.7,324.4z"/>
	<path d="M434.8,389.1c-2.2-0.1-3.1-1.7-4.1-3c-0.8-1-1.6-2-2.4-2.9c-1-1.2-2.3-1.1-3.6-1c-0.7,0.1-1.3,0.4-2,0.3
		c-0.5,0-1.3-0.1-1.5-0.5c-0.4-0.7-0.7-1.6,0.3-2.1c0.7-0.4,1.4-0.8,2.2-0.9c2-0.2,2.6-0.6,3.1-2.4c0.8-2.9,2.1-4,5-4.3
		c0.1,0,0.3,0,0.4,0c2.6,0.8,5.3,1.5,7.8,2.5c0.9,0.4,1.6,1.6,1.9,2.6c0.8,2.1,1.3,4.3,1.8,6.5c0.1,0.4-0.4,1.2-0.9,1.5
		c-1.3,0.9-2.7,1.7-4.2,2.4C437.4,388.3,436.1,388.7,434.8,389.1z"/>
	<path d="M186.2,395.6c2.4,0,4,1.4,5,3.1c1.3,2.2,2,4.7,3.1,7c0.7,1.5,0.5,2.9,0.2,4.4c-0.4,2-0.9,3.9-1.5,5.9
		c-0.6,1.9-2.1,2.7-3.9,3c-1.4,0.2-2.7-0.3-3.4-1.5c-0.6-1.1-0.8-2.3-1.2-3.5c-1-3.4-1.8-7-3-10.3c-1.3-3.6,0.4-6.5,3.1-7.7
		C185.2,395.8,185.7,395.7,186.2,395.6z"/>
	<path d="M531.1,378.3c-4.7,0.1-8.2-3.7-8.1-8.1c0.1-4.9,3.2-8.4,8.3-8.5c4-0.1,8.4,3.5,8.3,8.6
		C539.5,374.1,535.8,378.9,531.1,378.3z"/>
	<path d="M482.7,306.9c-0.2,1.6-0.2,3.2-0.8,4.7c-0.9,2.5-5.7,3.4-7.9,1.4c-2-1.8-3.7-3.8-4-6.7c-0.2-1.7-1-3.4-1.4-5.1
		c-0.9-3.7,1.7-6.5,5.2-6.5c3.5-0.1,6.3,1.3,7.7,4.5c0.7,1.4,0.8,3.2,1,4.8c0.1,1,0,2,0,2.9C482.5,306.9,482.6,306.9,482.7,306.9z"
		/>
	<path d="M263,155c0.1,2.4-0.7,4.4-2.2,6.2c-1.1,1.3-2.7,1.4-4,1.3c-2.2-0.1-4.4-0.6-6.2-1.9c-2.7-2-4-4.7-3.5-8
		c0.4-3,2.8-5.3,5.8-6.3C258.2,144.8,263.5,149.5,263,155z"/>
	<path d="M14.1,123.2c2.3-0.2,3.2,1.7,4.5,3c0.8,0.7,1.3,1.7,1.9,2.6c1,1.4,1.2,3,0.6,4.6c-1,2.7-2,5.4-3.3,8
		c-1.4,2.7-4.9,3.5-7.7,2.3c-4.7-2-3.5-5.6-1.6-8.7c0.6-0.9,1.3-1.8,1.9-2.7c0.9-1.3,0.8-2.7,0.4-4.1c-0.5-2,0.1-3.8,1.5-4.6
		C12.8,123.4,13.4,123.4,14.1,123.2z"/>
	<path d="M23.9,412c1.2-1.4,2-2.8,1.9-4.6c-0.1-1.9,0.6-3.2,2.2-4.1c0.7-0.4,1.8-0.7,2.5-0.4c1.5,0.5,2.6-0.1,3.6-0.8
		c1.6-1.1,2.1-1,3.1,0.6c0.5,0.8,1.2,1.4,1.8,2.1c1.9,2,1.5,3.9-1,4.8c-0.3,0.1-0.6,0.5-0.8,0.7c-0.8,0.9-1.4,1.9-2.3,2.7
		c-1.1,0.9-1.1,1.7-0.3,2.7c0.6,0.8,0.8,1.7-0.2,2.4c-1,0.7-2,0.5-2.6-0.5c-0.8-1.3-1.4-2.7-2.4-3.8c-1.4-1.6-1.8-1.5-3.7-0.5
		c-1.7,0.8-3.4,1.7-5.2,2.1c-0.9,0.2-2.1-0.2-3.1-0.5c-0.9-0.2-1.7-0.6-2.6-0.8c-1.3-0.3-1.3-1.5-1.4-2.3c-0.1-0.7,0.5-1.5,1-2.2
		c0.5-0.7,1-0.8,2.1-0.7C19.3,409.3,21.9,409.7,23.9,412z"/>
	<path d="M413,229.9c0.2,3-1.5,5.1-3.9,6.5c-2.3,1.4-4.8,2.5-7.2,3.6c-1.5,0.7-3.1,0.9-4.7,0c-1.4-0.7-2.1-2.3-1.7-3.9
		c1.5-5.6,5.5-9.3,10-12.5c0.7-0.5,1.9-0.6,2.6-0.4C410.5,224.4,413.4,226.4,413,229.9z"/>
	<path d="M364.6,337.2c1.4-0.1,2.4,0.5,3.2,1.7c1.1,1.9,2.5,3.7,4.9,3.8c1.7,0,3.4-0.4,5.1-0.8c3.7-0.9,6-0.4,8.1,2.5
		c1.5,2,1.1,4.8-0.7,6.9c-1.9,2.2-4.4,2.8-7.1,1.6c-0.9-0.4-1.7-1-2.6-1.5c-1.3-0.7-2.6-1.4-3.9-2.2c-1.2-0.8-2.4-1.8-3.5-2.8
		c-1.6-1.3-3.1-2.7-4.6-4.2c-0.7-0.7-1.3-1.5-1.5-2.3C361.5,338.1,362.5,337.2,364.6,337.2z"/>
	<path d="M443.5,295.6c-0.2-4.8,3.4-7.6,8-7.7c3.8-0.1,7.4,3.8,7.2,8c-0.2,4.2-3.8,8-7.9,8C446.9,303.8,443.5,299.9,443.5,295.6z"/>
	<path d="M360.1,380.5c0.1-4,2.7-8,6.7-7.9c4.1,0.1,8.5,3.5,8.5,8.2c0,4-4.2,7.8-8.4,7.7C364.3,388.5,359.7,384.8,360.1,380.5z"/>
	<path d="M7.4,89.8c-0.4-4.4,3.3-8.2,7.4-8.1c4.4,0.1,7.6,3.6,7.4,7.5c-0.3,5-2.8,7.2-8,7.4C10.6,96.9,6.9,94.4,7.4,89.8z"/>
	<path d="M19.4,44.3c-3.9,0.3-7.3-2.8-7.4-6.8c-0.1-5.5,2.2-7.7,7.9-7.8c3.7-0.1,7,3.5,7,7.1C26.9,40.5,23.5,44.9,19.4,44.3z"/>
	<path d="M209.4,87.7c0.5,3.6-2.9,7-6.4,7.4c-3.5,0.5-6.6-1.9-7.6-4.8c-1.3-3.6-0.1-6.4,2.9-8.7c0.7-0.6,1.7-0.8,2.6-1.3
		c1.8-1,3.5-0.5,4.9,0.6C207.9,82.6,209.8,84.6,209.4,87.7z"/>
	<path d="M512.3,391.4c0.3,3.4-1,6.1-4.1,7.8c-3.5,1.9-7.9-0.3-8.7-3.9c-1-4.2,0.8-8.2,4.3-10.5c1.9-1.2,3.9-1.3,6-0.3
		c2,0.9,2.2,2.9,2.5,4.8C512.3,389.9,512.3,390.6,512.3,391.4z"/>
	<path d="M197.2,99.5c4.4-0.2,6.8,3.5,6.8,7c0,3.7-2.3,6.8-7,6.9c-4.1,0.1-7-3.6-7-7C189.9,103.2,193.2,99.1,197.2,99.5z"/>
	<path d="M47.8,149.9c0.6,3.7-3.5,7.1-7.3,6.9c-3-0.2-6.8-3.4-6.6-6.9c0.3-4.4,3-6.7,7.1-6.9C45,142.7,48.2,146.5,47.8,149.9z"/>
	<path d="M323.9,317c0,4.3-2.7,7-7,7c-3.6,0-6.9-3.1-6.8-6.7c0.2-3.9,3.6-7.5,7.5-7.5C320.8,309.8,323.9,313.4,323.9,317z"/>
	<path d="M465.3,266.8c3,0.7,6.4,1.2,8.8,3.7c0.7,0.8,1,2,1.3,3.1c0.3,1.2,0.3,2.5,0.3,3.8c0.1,2.6-2.1,3.8-4.3,2.8
		c-3.2-1.5-6.2-3.2-9.2-4.9c-2-1.1-2.4-3.1-2.1-5.2c0.2-1.7,1.4-2.5,2.9-3C463.6,266.9,464.3,266.9,465.3,266.8z"/>
	<path d="M268,361.1c0.2,2.3-1.9,4.1-5.4,2.7c-0.6-0.2-1.1-0.9-1.7-1.2c-0.6-0.4-1.3-1-2-0.9c-3.9,0.4-7.1-3.4-7-7.2
		c0.1-2,1.6-2.7,2.9-3.5c3.3-2.1,7.5-1.2,8.2,3.1c0.2,1.2,1.2,1.8,2.3,2.3C267.2,357.2,268,358.8,268,361.1z"/>
	<path d="M270.9,336.6c-1.3,0.9-2.4,2-3.7,2.5c-1.1,0.4-2.6,0.4-3.8,0.2c-1.6-0.3-1.9-1.9-2.1-3.2c-0.4-2.5,0.2-4.9,1.2-7.2
		c0.2-0.5,0.7-0.9,1.2-1.4c0.3,0.5,0.7,0.9,0.7,1.3c-0.1,1.6,0.9,2.3,2.1,2.8c1.9,0.8,3.7,2,6,0.9c1-0.5,2.3-0.2,3.5-0.1
		c1.2,0.1,1.7,2.1,0.9,3.3c-0.8,1-1,1.8,0.5,2.5c1.4,0.7,2.8,1.5,4.1,2.4c2.5,1.7,2.7,3,0.6,5.2c-0.8,0.8-1.6,0.8-2.4,0
		c-1.3-1.4-2.6-2.7-4.6-3.2c-1.5-0.4-0.9-1.9-0.6-2.8c0.4-1.4,0.1-1.8-1.3-2.1C272.3,337.3,271.5,336.9,270.9,336.6z"/>
	<path d="M552.1,353.8c-3.2-0.2-6.7-2.2-6.6-6.5c0-1.2-0.6-2.5-1-3.7c-0.4-1.4-0.8-2.8,0.2-4c1.3-1.6,3.1-1.3,5.2,0.3
		c0.7,0.5,1.5,1,2.3,1.5c1.3,0.7,2.6,1.4,3.8,2.2c0.6,0.4,1.2,0.8,1.8,1.2c1.3,0.7,1.5,1.2,0.7,2.5c-0.6,1-1.2,2-1.5,3
		C556.2,352.5,554.6,353.7,552.1,353.8z"/>
	<path d="M198.8,69.7c0-4.1,2.8-6.7,7.1-6.7c3.4,0,6.5,3.1,6.4,6.6c-0.2,4.1-3.2,7-7.3,7.2C201.7,77,198.8,73.5,198.8,69.7z"/>
	<path d="M567.5,290.3c0,1,0,2,0,2.9c0,2.4-1,3.4-3.4,3.8c-3.7,0.6-6.2-1-8.3-3.8c-2.3-3.1-1.5-4,0.7-6.6c1.3-1.5,2.7-2.8,4.9-3.3
		c2.4-0.5,4.1,0.6,5.9,1.7c0.2,0.1,0.2,0.7,0.2,1.1C567.5,287.5,567.5,288.9,567.5,290.3z"/>
	<path d="M463.7,359.2c2.3-0.1,5,1.7,5.6,3.5c0.8,2.5,0.5,4.7-1.3,6.9c-2.1,2.3-5.5,3.1-7.6,1.5c-1.4-1.1-2.4-2.8-3.5-4.2
		c-0.3-0.4-0.6-0.9-0.8-1.4c-1.5-2.7-0.8-4.3,2.2-5.1C460,359.9,461.9,359.6,463.7,359.2z"/>
	<path d="M318.6,335.1c0.1,4-2.9,6.7-6.7,6.7c-3.1,0-6.5-2.8-6.4-6.4c0.1-3.5,3.1-6.7,6.8-6.8C315.5,328.5,319.1,331.9,318.6,335.1z
		"/>
	<path d="M550.1,374.9c-0.3-3.4,3.1-6.3,6.5-6.2c4.1,0.2,6.6,2.9,6.5,6.6c-0.1,4.1-2.9,6.4-6.4,6.5
		C552.9,381.9,550,378.2,550.1,374.9z"/>
	<path d="M184.9,425.7c-5.8,0-11.5,0-17.2,0c-0.4-3.4,1.1-5.9,3.7-7.7c3.3-2.2,6.8-1.9,10.2,0C184.6,419.7,185.4,422.3,184.9,425.7z
		"/>
	<path d="M326.5,299.7c0.3,4-3.9,7-6.8,7c-3.5-0.1-5.7-3.5-6-6.6c-0.3-3.4,3.2-6.6,6.9-6.6C324,293.5,326.5,296.1,326.5,299.7z"/>
	<path d="M250.9,397.8c-4.7-0.1-8.6-4.5-7.7-9.1c0.3-1.9,1.8-3.3,3.6-3.9c1.9-0.6,3.7-0.1,5.2,1.2c2.7,2.4,3.8,5.6,4.4,9
		c0.3,1.5-0.7,2-1.8,2.3C253.3,397.7,252.1,397.7,250.9,397.8z"/>
	<path d="M275.4,119.9c0.3,3.6-3.6,5.9-6.8,5.8c-3.7,0-6.3-2.5-6.3-6.3c0-3.6,2.8-6.3,6.4-6.3C271.7,113.1,275.8,116.3,275.4,119.9z
		"/>
	<path d="M296.8,415.2c-0.2,0-0.4,0-0.6,0c-3,0.5-4.9-0.8-6.3-3.3c-0.9-1.7-2.2-3.3-3-5.1c-0.8-1.9,0.4-4.5,2.2-5.4
		c1.3-0.6,3.3-0.1,4.2,1.2c0.2,0.4,0.5,0.7,0.7,1.1c1.5,2.8,3.7,4.8,6.4,6.4c1.4,0.8,1.4,2.2,1.1,3.5c-0.2,1-0.8,1.9-2.1,1.8
		C298.6,415.1,297.7,415.2,296.8,415.2z"/>
	<path d="M519.5,268.5c0.5,2.9-0.7,4.9-3.3,6.2c-0.4,0.2-0.7,0.8-0.6,1.3c0,0.3,0.6,0.6,1,0.8c0.4,0.3,0.7,0.5,1.1,0.8
		c-0.3,0.4-0.5,0.7-0.8,1.1c-0.3,0.3-0.8,0.6-0.9,0.9c-0.4,1.8-1.4,2.8-3.1,3.3c-0.6,0.2-1.1,0.8-1.6,1.2c-0.4,0.2-0.9,0.5-1.3,0.4
		c-0.4-0.1-0.8-0.7-0.8-1.1c-0.2-1.6-0.3-3.3-0.4-4.9c-0.1-1.6,1.4-1.9,2.3-2.6c1.8-1.4,1.9-1.3,1.1-3.5c-0.9-2.3-0.9-4.2,1.3-5.9
		c0.8-0.6,1.2-1.6,2-2.3c0.6-0.5,1.4-1.2,2.1-1.1c0.6,0.1,1.4,0.9,1.6,1.6C519.4,266,519.3,267.3,519.5,268.5z"/>
	<path d="M263.4,93.9c-3.6,0-6.5-2.8-6.4-6.3c0.1-4,3-6.3,6.5-6.3c3.6,0.1,6,2.2,6.1,6.3C269.6,91.1,267.4,93.7,263.4,93.9z"/>
	<path d="M456.7,325.5c2.9-0.2,5.8-0.6,8.8-0.7c3.4-0.1,5.1,2.1,4.1,5.5c-0.2,0.8-0.5,1.6-0.8,2.5c-0.5,1.3-1,1.5-2.3,0.9
		c-1.1-0.5-2.2-1.2-3.3-1.4c-1.6-0.2-3.2,0-4.8,0c-1.3,0-2.6,0.1-3.9-0.1c-2-0.3-2.9-3-2.6-4.5c0.2-1.3,2.3-2.6,4-2.6
		c0.2,0,0.5,0,0.7,0C456.7,325.2,456.7,325.3,456.7,325.5z"/>
	<path d="M299.6,281.5c-0.2,1.2-0.3,2.4-0.5,3.6c-0.5,2.3-2.4,3.2-4.4,3.8c-1.5,0.4-2.9-0.4-3.9-1.4c-2.6-2.4-3.3-7.6-0.7-10.3
		c1.6-1.6,3.7-2.4,6-1.5c2.3,0.9,3.4,2.6,3.4,5c0,0.2,0,0.5,0,0.7C299.5,281.5,299.6,281.5,299.6,281.5z"/>
	<path d="M225.2,96.8c-3.3,0-5.8-2.6-5.8-6.1c0-3.7,2.3-6,6.1-6c3.6,0,5.9,2.4,6,6.2C231.6,93.6,228.5,97.3,225.2,96.8z"/>
	<path d="M506.2,362.7c0,3.8-2.3,6-6.1,6.1c-3,0.1-6.1-3.2-6-6.2c0.1-3,2.8-6,6.2-6C503.5,356.6,506.7,359.5,506.2,362.7z"/>
	<path d="M424.9,219.4c-3.2,0-6.4-2.7-6.8-5.9c-0.3-2.4,1.8-4.7,4.7-5c1.1-0.1,2.3-0.1,3.4,0c3.2,0.3,5.4,2.8,5.2,5.9
		c-0.2,2.8-2.7,5.1-5.7,5.1C425.4,219.4,425.2,219.4,424.9,219.4z"/>
	<path d="M118,372.4c0.2,3-2.1,6.8-4.6,7.8c-3.7,1.4-7.5-1.9-7.6-5.1c-0.1-4.8,4.5-7,8.3-6.4c0.5,0.1,0.9,0.2,1.4,0.3
		C117.5,369.6,118,370.4,118,372.4z"/>
	<path d="M371.8,271.9c0.3,3.8-1.9,4.9-5,5.6c-2.8,0.6-5-1.3-6.2-4c-0.6-1.4-0.9-2.8-1.2-4.3c-0.1-0.5,0.2-1.3,0.6-1.5
		c1.8-0.7,3.7-1.5,5.6-1.8C368.8,265.3,372.4,268.5,371.8,271.9z"/>
	<path d="M27.5,129.7c-3.1,0-3.9-1.2-3.5-3.9c0.4-2.4,1.1-4.6,3-6.3c1.3-1.2,2.8-1.9,4.5-1.7c2.6,0.3,4.2,2,4.6,4.6
		c0.4,2.2-2.2,5.7-4.8,6.5C29.9,129.4,28.5,129.5,27.5,129.7z"/>
	<path d="M344.9,319.9c0.4,3.5-2.4,5.9-5.5,5.8c-3.7,0-5.7-2.6-5.8-5.9c0-3.2,2.6-6.2,6.2-6.2C342.6,313.7,344.9,316.4,344.9,319.9z
		"/>
	<path d="M456.3,425.7c-5.6,0-10.9,0-16.4,0c0.1-0.3,0.2-0.6,0.3-0.7c1.8-0.9,2.5-2.5,2.9-4.3c0.5-2.4,2.6-2.7,4.4-3.4
		c1.2-0.4,2.4-0.8,3.6-1.1c0.4-0.1,1.1-0.2,1.3,0c1.2,1.9,2.4,3.8,3.4,5.9C456.2,423.1,456.1,424.4,456.3,425.7z"/>
	<path d="M303,392.6c-0.1,3.3-1.9,5-5.2,5.5c-1.7,0.3-3.1-0.1-4.6-0.7c-0.3-0.1-0.6-0.3-0.8-0.6c-1.3-1.8-1.2-4.6,0.2-6.3
		c1.1-1.2,2.2-2.4,3.4-3.4c1.5-1.3,3.7-1,4.9,0.6C302.3,389.3,303,391.2,303,392.6z"/>
	<path d="M347.9,419.8c-3.3,0-5.5-2.2-5.5-5.5c0-3.5,2.3-5.8,5.5-6c3-0.1,6,2.7,5.9,5.7C353.7,417.4,351.3,419.8,347.9,419.8z"/>
	<path d="M348.7,216.8c0.3,5.1-4.6,7.2-8,5.2c-2.1-1.2-3.5-4.4-2-7.6c0.8-1.8,1.9-3.5,4.2-3.6c1,0,2.2,0.1,2.9,0.6
		C347.7,212.8,349.1,214.5,348.7,216.8z"/>
	<path d="M65.2,58.9c-0.1,2-1.9,3.2-3.8,3c-0.1,0-0.2-0.1-0.3-0.1c-1.9-0.9-3.5-0.9-5.3,0.6c-1.4,1.2-3.1,1-4.6,0
		c-1.4-1-2.4-2.3-2.2-4.1c0.2-2.2,1.3-3.6,3.6-4.1c1.9-0.4,3.3,0.4,4.4,1.5c1.3,1.4,2.5,1,3.9,0.5C62.8,55.4,65.2,57.1,65.2,58.9z"
		/>
	<path d="M269.4,165.9c1.5,0,2.7,0.8,2.8,2.2c0.2,2.2,1,4.3,1.7,6.4c0.7,2.2-0.9,5-3.2,5.2c-1.9,0.2-3.5-0.8-4.4-2.3
		c-0.8-1.2-1-2.8-1.5-4.3c-0.1-0.3,0-0.6-0.1-0.9C263.8,168.9,266,165.9,269.4,165.9z"/>
	<path d="M285.5,392.7c-0.4,0.9-0.6,1.9-1.1,2.7c-1.1,2.2-3.2,3.1-5.4,3.5c-2.6,0.5-5-2.8-3.8-5.5c0.8-2,1.9-3.9,3.1-5.6
		c1.1-1.5,4.2-1,5.2,0.8c0.7,1.2,1.3,2.4,2,3.8c0.5-0.5,0.9-1,1.4-1.2c0.6-0.2,1.4-0.3,2-0.2c0.3,0.1,0.8,1.1,0.7,1.2
		c-0.5,0.4-1.1,0.9-1.8,1C287.1,393.2,286.3,392.9,285.5,392.7z"/>
	<path d="M309.7,239.3c-0.8,1.1-1.4,2.2-2.2,3.2c-1,1.2-3,1.5-4.4,0.9c-1.7-0.7-2.9-2.8-2.8-4.7c0.1-1.4,1.4-2.8,2.9-3.3
		c1.8-0.7,3.4-0.1,4.7,1.1c1.6,1.5,1.4,1.9,3.3-0.1c1.4-1.4,3.3-1.1,4,0.4c0.4,0.8,0.5,2.2,0,3c-0.7,1.2-0.9,2.2-0.3,3.4
		c0.3,0.5,0.2,1.4,0,1.9c-0.3,0.6-0.9,1.3-1.9,0.8c-1.1-0.5-1.6-1.1-1.3-2.3C312.1,240.9,312.1,241,309.7,239.3z"/>
	<path d="M168.7,46.6c0.2,0.1,0.6,0.3,1.1,0.5c1.9,0.4,3.2,1.9,3.2,3.9c0,0.3,0,0.6,0,0.9c0,2.7-0.3,2.9-2.8,1.9
		c-2.2-0.8-3.1-2.6-3.2-4.7c-0.1-1.2,0-2.4-1.2-3.3c-0.4-0.3-0.6-1.2-0.6-1.9c-0.1-1.3,0.2-2.8-0.9-3.9c-0.1-0.1-0.1-0.2-0.1-0.3
		c0.3-2.2,0.6-4.5,1-6.7c0.2-0.9,0.9-0.9,1.4-0.4c1.2,1.2,2.7,2.3,3.4,3.8c0.6,1.2,0.3,2.9,0.1,4.3
		C169.8,42.6,169.2,44.4,168.7,46.6z"/>
	<path d="M137,203.8c-3.6,0.5-5.5-2.8-5.5-5.7c0-2.8,2.2-4.9,5.1-5c3.2-0.1,6,2.5,5.9,5.5C142.4,201.5,140.1,204.2,137,203.8z"/>
	<path d="M87.1,402.1c0.1-2.2,1.4-3,3.6-2.7c0.6,0.1,1.3,0.2,1.8,0.5c1,0.5,1.7,0.1,2.4-0.5c2.5-2,4.3-1.9,6.5,0.4
		c0.7,0.7,1.4,1.6,2,2.4c0.9,1.3,0.3,2.6-0.5,3.6c-0.8,1-2.2,1-3.3,0.6c-1.4-0.5-2.8-1-4-1.9c-1.4-1-2.5-1.2-4-0.4
		c-1.9,0.9-3.5,0.3-4.3-1.4C87.2,402.5,87.1,402.2,87.1,402.1z"/>
	<path d="M433.4,159.3c0.9,0.2,1.9,0.2,2.8,0.6c2.5,1.2,3.1,3.2,1.7,5.7c-1.6,2.8-3.7,4.3-6.6,3.8c-1.6-0.3-3.5-1.8-3.8-3.4
		C426.6,161.8,429.5,159,433.4,159.3z"/>
	<path d="M126.1,353.4c0,2.6-1.7,4.3-4.3,4.3c-3,0-6.3-2.9-6.3-5.4c0-2.6,2.4-4.8,5-4.9C123.2,347.3,126.4,349.9,126.1,353.4z"/>
	<path d="M482.9,276.9c2.8,0,4.4,1.2,5.3,3.6c0.7,2-0.2,3.6-1.3,4.9c-1.2,1.4-2.9,1.6-4.7,1.2c-3.1-0.6-4.6-4.3-4.3-6.8
		c0.2-1.4,2.2-2.9,4.1-3C482.2,276.9,482.6,276.9,482.9,276.9z"/>
	<path d="M115,40.1c-0.9-1.1-1.8-2-2.3-3.1c-0.6-1.2,0.2-2.9,1.4-3.4c1.5-0.5,3.2,0.1,3.5,1.5c0.3,1.3,0.1,2.6,0.1,3.9
		c-0.1,0-0.3,0-0.4,0c0.7,0.7,1.5,1.4,2.2,2.2c0.9,0.9,1.1,2.1,0.3,3c-1.6,1.8-3.7,3.2-6.2,3.5c-1.5,0.2-2.5-0.6-2.9-1.9
		c-0.4-1.3-0.2-2.7,1-3.6c0.7-0.5,1.4-0.8,2.1-1.3C114.2,40.7,114.7,40.3,115,40.1z"/>
	<path d="M495.9,271.2c0,2.5-2.3,4.6-5.2,4.6c-2.9,0-5.2-2.3-5.1-5c0.1-2.8,2.5-5,5.4-5C493.8,265.8,495.9,268.3,495.9,271.2z"/>
	<path d="M118,57c0-2.6,0.3-3,2.8-3.6c0.5-0.1,1-0.5,1.5-0.6c0.3-0.1,0.7-0.2,0.9,0c0.2,0.2,0.3,0.6,0.3,0.9
		c-0.5,2.6-0.4,2.8,2.2,3.7c3.5,1.1,4.2,5.2,1.7,7.3c-1.2,1-3.3,1.2-4.3,0c-0.7-0.9-1.3-1.9-1.8-2.9c-0.5-0.9-0.7-1.7-2.1-1.9
		C117.6,59.6,118,58.1,118,57z"/>
	<path d="M106.1,43c0.5,0.6,0.9,0.8,1.1,1.2c0.2,0.6,0.5,1.6,0.3,1.9c-0.5,0.4-1.5,0.6-2,0.4c-0.4-0.1-0.5-1.3-0.4-1.9
		c0.1-0.6,1.1-1.2-0.1-1.8c-1-0.5-1.8-0.9-2.8,0.2c-1.3,1.6-3.7,2.5-5.4,1.4c-1.3-0.8-1.8-1.8-2-3.2c-0.2-1.4,0.7-2.3,1.7-3
		c1.4-1,3.2-0.9,4.7,0.1c0.9,0.6,1.6,0.8,2.6,0c1.2-1,2.9-0.7,3.9,0.5c0.9,1.1,0.7,2.3-0.6,3.6C106.7,42.6,106.4,42.7,106.1,43z"/>
	<path d="M498.3,303c0.2-0.9,0.2-1.8,0.6-2.7c0.9-2.2,2.8-2.8,4.9-1.7c1.3,0.6,2.6,1.2,3.9,1.8c1.3,0.6,1.9,1.6,1.1,2.8
		c-1.1,1.6-2.6,3-4,4.5c-1.2,1.2-2.4,0.5-3.5-0.2c-0.5-0.3-1-0.8-1.5-1.1C498.5,305.6,498.1,304.5,498.3,303z"/>
	<path d="M404.8,410c-1.2,2.1-0.7,4.3-0.8,6.5c-0.1,2.3-3.6,3.3-5.6,1.7c-0.6-0.5-1.2-1.2-2-1.5c-1-0.4-1.1-1.3-0.8-1.9
		c0.7-1.7,1.2-3.5,3-4.5c1.1-0.6,2-1.6,3.1-2.3c0.5-0.3,1.3-0.7,1.8-0.5c0.8,0.3,1.4,1,1.2,2.1C404.8,409.7,404.8,409.9,404.8,410z"
		/>
	<path d="M499.4,425.8c-0.5,0-0.8,0-1.1,0c-4.5,0-9,0-13.6,0c0-3.3,3.4-5.7,7-6.1C496.7,419.2,499.1,422.6,499.4,425.8z"/>
	<path d="M281.9,357.2c-0.7-0.2-1.3-0.3-1.8-0.6c-1.8-1.1-3.4-2.3-5.2-3.3c-2-1.2-1.3-2-0.1-2.9c1-0.7,2.1-1.1,3.2-1.6
		c0.4-0.2,0.7-0.2,1.1-0.4c2.2-1.2,4.1-0.7,5.3,1.5c1,1.7,0.1,5.5-1.1,6.5C282.9,356.7,282.4,356.9,281.9,357.2z"/>
	<path d="M546.5,408.8c-2.8,0-4.9-1.9-4.9-4.4c0-2.6,2.5-4.9,5.2-4.9c2.3,0,4.5,2.1,4.5,4.5C551.3,406.4,548.9,408.8,546.5,408.8z"
		/>
	<path d="M296.7,309.8c0,2.7-1.1,3.9-3.6,4c-2.8,0.1-5.8-2-5.7-4.6c0.1-1.6,2.1-4.8,4.1-4.7C294,304.7,296.9,306.1,296.7,309.8z"/>
	<path d="M185.1,182.5c-2.5,0-4.6-2.1-4.6-4.4c0-2.7,2.2-4.7,4.8-4.8c2.6-0.1,4.5,2.1,4.6,4.6C190.1,180.7,188,182.5,185.1,182.5z"
		/>
	<path d="M20.2,425.7c-0.4,0-0.7,0.1-0.9,0.1c-4.3,0-8.5,0-13.3,0c0.4-0.9,0.6-1.6,1-2.2c0.5-0.8,1.3-1.5,1.7-2.3
		c0.6-1.3,1.7-2.2,2.9-2.6c0.7-0.3,1.7-0.2,2.3,0.2C16.5,420.5,18.6,422.8,20.2,425.7z"/>
	<path d="M183.8,32.2c-2.6,0.2-4.7-2.5-4.8-4.5c-0.2-2.5,2.1-4.6,4.7-4.6c2.8,0,4.9,1.9,4.9,4.6C188.6,29.9,186.1,32.2,183.8,32.2z"
		/>
	<path d="M86.1,370.7c0,2.3-3.5,3.8-4.9,3.3c-1.3-0.5-2.4-1.3-2.9-2.8c-0.7-2-1.6-4-2.5-5.9c-0.6-1.2-0.5-2.4,0.5-2.8
		c0.8-0.3,2.1,0,3,0.5c0.7,0.4,1.3,1.4,1.5,2.2c0.6,1.6,1.5,2.7,3.1,3.4C84.9,368.9,86.2,369.2,86.1,370.7z"/>
	<path d="M32.5,75.7c0-3.1,1.4-4.5,4.4-4.5c2.8,0,4.5,1.7,4.5,4.6c0,2.7-1.8,4.6-4.4,4.6C34.6,80.2,32.1,78.6,32.5,75.7z"/>
	<path d="M109.9,57.9c-2.8-0.1-4.5-1.1-5.8-2.6c-0.8-1-1-2,0-3.1c1.9-2,4.6-3.6,7.9-1.8c2.2,1.2,2.8,4.3,0.9,5.9
		C111.8,57.1,110.5,57.6,109.9,57.9z"/>
	<path d="M449.6,142.1c2.4-0.5,4.7,2.5,4.5,4.3c-0.2,2.3-1.4,4.6-4.8,4.6c-2.5,0-4.4-1.9-4.4-4.4
		C444.8,143.9,446.8,142.1,449.6,142.1z"/>
	<path d="M312.3,386.7c0.8,0.2,1.6,0.3,2.3,0.7c1.8,0.9,2.1,2.7,0.7,3.8c-1.8,1.4-3.9,2.6-5.8,3.8c-0.2,0.1-0.7,0.1-1,0
		c-0.8-0.5-1.5-1-2.2-1.6c-1.8-1.6-1.2-3.6,0.7-4.8c1.6-1,3.5-1.4,5.2-2.1C312.3,386.6,312.3,386.7,312.3,386.7z"/>
	<path d="M551.3,240.7c-1.1,0.2-1.8-0.5-2.2-1.4c-1.3-3.2-0.6-8.5,3.3-10c0.6-0.2,1.7-0.3,2.1,0c0.6,0.5,1.3,1.6,1.2,2.3
		c-0.2,2.2-0.7,4.5-1.3,6.6C553.9,240.1,553.1,240.7,551.3,240.7z"/>
	<path d="M507.7,425.8c-0.4-1.9,0.2-3.5,1.1-4.8c0.7-1,1.7-1.8,3.1-1.6c1.6,0.2,3.3,0.2,4.9,0.4c2.1,0.3,2.6,2.4,1.7,4.3
		c-0.8,1.5-1.8,1.8-3.3,1.8C512.7,425.7,510.3,425.8,507.7,425.8z"/>
	<path d="M545.3,302.7c1.8-1,3.5-2.4,6-1.5c1.1,0.4,2.6,0,3.7,0.6c0.9,0.4,1.9,1.6,2,2.5c0.2,1.2-0.4,2.5-1.9,3.1
		c-2.2,0.9-4.3,1-6.5,0.1c-0.7-0.3-1.3-1-1.7-1.6C546.3,304.9,545.8,303.8,545.3,302.7z"/>
	<path d="M235,33.8c0-2.4,2.2-4.8,4.5-4.8c2.1,0,4.4,2.2,4.3,4.3c-0.1,3-1.7,4.4-4.6,4.6C237.1,38,235,35.9,235,33.8z"/>
	<path d="M86,60.2c0.7-0.3,1.4-0.5,2-0.7c0.9-0.2,1.7,0.2,2,1.1c0.2,0.9,0.2,2-0.8,2.4c-0.9,0.3-1.8,0.2-2.4-0.8
		c-0.6-1.1-1.2-1.7-2.5-0.4c-1.2,1.1-2.9,1.2-4.5,0.7c-1.5-0.5-2-1.8-2.1-3.2c-0.2-1.8,0.6-3.3,2.2-4.1c1.5-0.7,2.8-0.2,3.9,0.8
		c0.7,0.7,1.1,1.7,1.6,2.5C85.6,59,85.8,59.6,86,60.2z"/>
	<path d="M530.6,285.5c0.1,2-1,3.3-2.6,4.2c-1.3,0.7-2.8,0.4-3.9-0.7c-1.4-1.4-2.2-3-1.4-5c0.5-1.1,0.9-2.3,1.4-3.4
		c0.1-0.2,0.9-0.4,1.2-0.3c1,0.3,2,0.7,2.9,1.2C529.9,282.4,530.7,283.7,530.6,285.5z"/>
	<path d="M403.2,396.3c2.7,0,4.6,2,4.9,4.6c0.2,2.2-2.6,4.3-4.3,4.3c-2,0-4.3-2.5-4.3-4.9C399.5,398.2,400.9,396,403.2,396.3z"/>
	<path d="M320.7,375.8c0-2.6,2.2-4.9,4.7-4.9c2.2,0,3.7,1.8,3.8,4.1c0.1,2.7-2.7,4.6-4.9,4.7C322.5,379.9,320.7,377.8,320.7,375.8z"
		/>
	<path d="M311.5,253.4c0-2.4,1.7-4,3.9-4.2c3.1-0.2,4.5,2,4.6,4.1c0.1,2.3-2.2,4.6-4.3,4.4C313.9,257.6,311.4,255.9,311.5,253.4z"/>
	<path d="M531.8,302.5c-1.7,0.2-3.1-0.3-3.5-1.9c-0.3-1.2-0.4-2.9,0.1-4c0.8-1.6,2.5-1.9,4.3-1.3c2.1,0.6,4,1.4,4.6,3.9
		c0.4,1.7-0.4,2.9-2.1,2.9C534,302.1,532.9,302.3,531.8,302.5z"/>
	<path d="M509,408.1c3.2,0.3,4.2,2.6,4,5.3c-0.1,1.5-0.8,2.8-1.9,3.8c-0.3,0.3-0.8,0.4-1.1,0.5c-1.7,0.1-3.8-1.4-4.4-3.1
		c-0.7-1.9-0.6-3.8,1-5.2C507.2,408.7,508.2,408.5,509,408.1z"/>
	<path d="M508.7,373.1c0-2.6,1.9-4.8,4.1-4.8c2,0,3.9,2.1,3.9,4.1c0,2.6-2.2,5.2-4.3,5.2C510.5,377.6,508.7,375.4,508.7,373.1z"/>
	<path d="M161.8,42.6c0.6,1.3-0.6,1.4-1.1,1.8c0.4,1.5,1,2.8,1.2,4.2c0.2,1.5-1.9,4.1-3.3,4.4c-1,0.3-1.9,0.2-2.7-0.7
		c-2.2-2.4-2.5-5.3-0.2-7c1.1-0.8,2.7-1,4.3-1.5C160.3,43.5,160.3,42.2,161.8,42.6z"/>
	<path d="M298.1,325.9c0.1,1.5-0.4,2.7-1.6,3.5c-1.7,1.1-2.6,1-4-0.5c-0.9-1-1.7-2.2-2.2-3.4c-0.4-1-0.7-2.3,0.4-3.2
		c1.2-0.9,2.6-1.3,4.1-1C297.2,321.8,298.3,323.8,298.1,325.9z"/>
	<path d="M248.9,409.8c-2.2,0-4-1.8-4-4c0-2.1,2.1-4.2,4.2-4.3c2.2-0.1,4.3,1.9,4.3,4C253.4,408.2,251.6,409.8,248.9,409.8z"/>
	<path d="M511.5,226.7c0.2,1.9-1.4,3.6-3.9,3.4c-1.2-0.1-2.5-0.4-3.6-0.9c-0.6-0.2-1.1-0.9-1.3-1.5c-1.1-3.1,1.1-5.5,4.3-4.9
		c0.6,0.1,1.2,0.2,1.8,0.3C510.3,223.5,511.5,225,511.5,226.7z"/>
	<path d="M513.3,216.2c-2-1.1-5.2-1-7-3.8c-0.2-0.3-0.8-0.4-1.2-0.4c-0.9-0.1-1.8,0-2.6-0.3c-1.1-0.5-1.3-2.2-0.7-3
		c0.6-0.8,2.2-1,3,0.1c1.1,1.4,2.1,1.7,3.8,1.2c0.8-0.2,1.9,0.4,2.8,0.7c0.9,0.4,1.9,0.8,2.7,1.4c0.7,0.5,1.3,1.2,1.6,2
		C516.2,215.3,515.4,216.2,513.3,216.2z"/>
	<path d="M353,269.2c-2.9-0.1-4.3-1.5-4.2-4.3c0-1.2,1.4-2.7,2.6-2.9c3.2-0.5,4.3,0.2,5.9,2.7c1.7,2.8,1.4,3.4-1.8,4
		C354.6,268.9,353.8,269,353,269.2z"/>
	<path d="M380.3,365.2c0-2.3,1.6-4.5,3.4-4.4c2.4,0.1,4.3,1.9,4.5,4.6c0.1,1.9-1.9,4.1-4,4C381.9,369.3,380.1,367.9,380.3,365.2z"/>
	<path d="M51.8,425.7c-5.4,0-10.9,0-16.4,0c1.2-2.7,3.6-3,5.9-3.5c0.7-0.1,1.5-0.4,2-0.8c1.3-0.9,2.9-1,4,0.2c1,1,2,1.8,3.4,2.2
		c0.6,0.2,1,1,1.5,1.6C52.1,425.5,52,425.6,51.8,425.7z"/>
	<path d="M65,373.5c0.9,0.5,2.2,1.1,3.4,1.8c0.7,0.4,1.3,0.9,1.8,1.4c0.8,0.9,0.6,1.6-0.6,1.9c-1.6,0.4-3.2,0.8-4.9,1
		c-0.6,0.1-1.5-0.3-1.9-0.7c-0.7-0.7-1.4-0.8-2.2-0.3c-1,0.6-1.8,0.8-2.3-0.6c-0.4-1.1,0-2.9,1-3.2C61,374.3,62.8,374,65,373.5z"/>
	<path d="M169.4,9.2c0,2.4-1.8,4.2-4.1,4.2c-2,0-4.1-2.1-4.1-4.2c-0.1-2.3,1.8-3.9,4.3-3.9C167.9,5.3,169.5,6.8,169.4,9.2z"/>
	<path d="M130.3,57.8c-2.4,0-3.8-1.4-3.9-3.7c0-2.1,2.4-4.7,4.4-4.8c1.2,0,3.5,3.1,3.5,4.9C134.3,56.6,133,57.8,130.3,57.8z"/>
	<path d="M332.3,279.7c1.2,0.5,2.4,0.9,3.5,1.5c1.1,0.6,1.3,2.3,0.4,3.7c-0.9,1.3-2,2.7-4,2.7c-1.7,0-2.8-1-3.8-2.3
		c-1.7-2.2,0.5-5.2,2.9-5.2c0.3,0,0.6,0,0.9,0C332.3,279.9,332.3,279.8,332.3,279.7z"/>
	<path d="M196.5,126.5c1.8-0.4,3.6,1.4,3.7,2.8c0.2,1.9-1.1,3.9-2.9,4.4c-1.8,0.5-3.4,0.2-5-0.9c-1-0.7-1.2-1.5-0.9-2.4
		C192,128.4,194.2,126.3,196.5,126.5z"/>
	<path d="M291.4,299.1c0.1,1.7-1.1,3.2-2.4,3.5c-1.2,0.3-3.3-0.5-3.7-1.7c-0.3-0.9-0.3-2-0.4-3c-0.1-1.5-0.2-3.1-0.2-4.6
		c0-0.5,0.3-1.4,0.6-1.4c0.6-0.1,1.5,0,1.8,0.5c1.2,1.5,2.2,3.2,3.2,4.8C290.7,297.8,291.1,298.7,291.4,299.1z"/>
	<path d="M52,341.2c2.4-0.7,4.6-0.6,6.9,0.1c2.7,0.8,3.1,1.2,3.1,3.9c0,1.8-1.3,3.1-3,2.6c-2.8-0.9-5.3-2.4-6.7-5.1
		c-0.1-0.2-0.2-0.5-0.2-0.7C52,341.7,52,341.5,52,341.2z"/>
	<path d="M214.1,53c-0.3-1.9,1.9-3.9,3.9-4.1c2-0.2,3.9,1.9,3.9,4c0,2.2-1.7,4-3.9,4.1C215.8,57,214.1,55.3,214.1,53z"/>
	<path d="M424,401.2c0.1,1.2-0.1,2.6-1.3,3.7c-1.2,1.1-2.5,1.4-3.9,0.7c-2-0.9-2.5-1.9-2.3-4.1c0.1-1.2,1.3-2.4,2.7-2.7
		c0.7-0.2,1.4-0.3,2.1-0.5c2-0.6,2.7-0.1,2.7,2C424,400.6,424,400.8,424,401.2z"/>
	<path d="M261.2,407.4c0-2,1.2-3.3,3-3.3c2.2,0,5,2.2,5.1,3.8c0,1.4-2.9,3.6-4.8,3.6C262.7,411.6,261.2,409.7,261.2,407.4z"/>
	<path d="M118.3,365.9c0.7-1.3,1.3-2.7,2.1-4c0.7-1.2,2-1.4,3.2-0.9c1.4,0.5,2.1,1.7,2.1,3.1c0.1,3-2.6,5.2-5.4,5
		c-1.1-0.1-1.7-1.2-1.7-3C118.6,366,118.4,366,118.3,365.9z"/>
	<path d="M567.4,226.6c0,5.2,0,10.3,0,15.5c-2.6-0.4-5.2-3.2-3.9-6.5c1-2.5,1.8-5.1,2.7-7.6c0.2-0.5,0.6-1,0.9-1.5
		C567.2,226.5,567.3,226.5,567.4,226.6z"/>
	<path d="M567.5,94.6c-2-0.2-4.2-2.3-4.2-4.1c0-2.3,0.3-4.6,0.7-6.9c0.1-0.7,1.2-1.6,1.8-1.6c0.9,0,1.7,0.7,1.7,2.1
		C567.4,87.5,567.5,91,567.5,94.6z"/>
	<path d="M69.4,425.7c-4.8,0-9.1,0-13.4,0c0-0.1-0.1-0.2-0.1-0.3c2.3-1,4.5-2,6.4-2.7c0.6-1.4,1.1-2.3,1.4-3.4c0.3-0.9,1-1,1.6-0.8
		c0.5,0.2,1.3,0.8,1.2,1.2C66.2,422.1,67.7,423.8,69.4,425.7z"/>
	<path d="M472.9,245.4c0,2.5-1.3,3.6-3.6,3.8c-1.8,0.2-3.9-1.9-3.9-3.7c0-1.9,2-4,4-3.8C471.5,241.9,472.9,243.2,472.9,245.4z"/>
	<path d="M26.4,98.1c2.2,0,4,1.6,4,3.5c0.1,1.9-1.9,3.5-4.1,3.7c-2.3,0.2-3.7-1.8-3.7-3.9C22.7,99.4,24.1,98.1,26.4,98.1z"/>
	<path d="M381.1,255.4c0,1.9-1.4,3.3-3.1,3.3c-2.2,0-4.4-2.1-4.4-4.2c0-1.8,1.5-3.3,3.4-3.3C379.3,251.3,381.1,253.1,381.1,255.4z"
		/>
	<path d="M364.4,418.1c0-2.3,1.4-3.7,3.5-3.7c1.9,0,3.6,1.8,3.5,4c0,2.3-1.3,3.5-3.5,3.5C365.6,421.9,364.4,420.6,364.4,418.1z"/>
	<path d="M79.7,66.5c0,1.9-1.9,3.8-3.7,3.7c-2.1-0.1-3.6-1.4-3.7-3.7c-0.1-1.9,1.9-3.8,4-3.8C78,62.6,79.7,64.6,79.7,66.5z"/>
	<path d="M463.3,257.9c0-2.3,1.3-3.7,3.5-3.7c1.7,0,3.5,1.8,3.5,3.6c0.1,1.7-1.9,3.8-3.6,3.8C464.8,261.6,463.3,260,463.3,257.9z"/>
	<path d="M392.4,264.6c0,2.3-2,4.6-4.2,4.4c-2-0.2-2.9-0.8-2.9-2.8c0-2.2,2.1-4.4,4.4-4.5C391.3,261.6,392.5,262.6,392.4,264.6z"/>
	<path d="M59.1,361c-0.2,1.7-0.3,3.5-0.8,5.2c-0.5,1.7-3.3,3-5,2.5c-1.8-0.5-2.3-3-1-4.4c0.5-0.5,1.1-1,1.7-1.3
		c1.5-0.8,3.1-1.5,4.7-2.3C58.9,360.8,59,360.9,59.1,361z"/>
	<path d="M483.5,338.7c0-2.3,1-3.3,3.2-3.3c2.3,0,3.5,1.3,3.5,3.5c0,2-1.3,3.6-3.1,3.6C485.6,342.5,483.1,341.2,483.5,338.7z"/>
	<path d="M253.1,63.5c0,2-1.5,3.5-3.4,3.5c-2,0-3.4-1.6-3.4-3.8c0-1.9,1.6-3.5,3.3-3.3C251.4,60.1,253.2,60.9,253.1,63.5z"/>
	<path d="M290.6,376.2c2.1,0,3.4,1.7,2.8,3.7c-0.6,2.1-2.5,3.2-4.3,3.3c-1.8,0.2-3.1-1.6-2.6-3.3
		C287.2,377.7,288.9,376.2,290.6,376.2z"/>
	<path d="M292,341.1c0,2-1.9,4.1-3.6,4.3c-1.1,0.1-3.5-2-3.4-3.3c0-1.8,2.3-3.8,4.2-3.9C290.9,338.1,292,339.3,292,341.1z"/>
	<path d="M316.9,277.6c1.7,0,3.4,1.8,3.4,3.4c0,1.9-1.7,3.7-3.6,3.7c-1.6,0-3.4-1.9-3.4-3.6C313.3,279.3,315.2,277.5,316.9,277.6z"
		/>
	<path d="M142.6,425.9c-0.6-0.1-1.5,0-1.9-0.4c-0.8-0.9-1.6-1.9-1.8-3c-0.3-1.6,1.8-3.4,3.6-3.4c1.8,0,3.5,2,3.5,4
		C146,424.6,144.6,425.8,142.6,425.9z"/>
	<path d="M516.4,310.8c-0.3,0.9-0.5,2-1,2.8c-0.6,1.1-2,1.7-3,1.1c-1-0.5-1.7-1.7-2.2-2.7c-0.5-0.8,0.3-3.7,1.1-4.2
		c1.2-0.8,2.5-0.5,3.7,0.1C516.1,308.6,516.2,309.6,516.4,310.8z"/>
	<path d="M142.1,76.6c0.2,2-1.2,3.4-3.2,3.5c-1.7,0-3.6-1.9-3.5-3.4c0.1-1.9,1.7-3.3,3.7-3.3C140.7,73.3,142.1,74.7,142.1,76.6z"/>
	<path d="M394.7,169.5c2,0,4,1.7,4.4,3.6c0.4,1.7-2.6,3.1-4,2.8c-1.9-0.4-3.2-1.9-3.5-3.7C391.5,170.7,392.9,169.4,394.7,169.5z"/>
	<path d="M259.2,369.7c-1.8,0-3.2-1.4-3.3-3c0-1.7,1.9-3.4,3.9-3.4c1.6,0,3.3,2,3.3,3.9C263,368.7,261.4,369.7,259.2,369.7z"/>
	<path d="M89.4,84.7c-1.8,0-3.3-1.6-3.3-3.4c0-1.7,1.8-3.4,3.5-3.4c1.8,0.1,3.2,1.5,3.3,3.4C92.8,83.2,91.3,84.7,89.4,84.7z"/>
	<path d="M458.2,28.8c0,1.9-1.4,3.7-2.9,3.7c-1.8,0-3.7-1.7-3.8-3.3c-0.1-1.4,2.1-3.6,3.7-3.6C456.8,25.5,458.2,27,458.2,28.8z"/>
	<path d="M100.7,368.7c0,1.4-1.5,3.1-2.8,3.2c-1.7,0.1-3.7-1.9-3.7-3.8c0-1.8,1.5-3.4,3.1-3.4C99,364.8,100.7,366.8,100.7,368.7z"/>
	<path d="M332.5,256.4c0,1.9-1.5,3.4-3.4,3.4c-1.4,0-3.1-2-3.1-3.7c0-1.6,1.7-3.1,3.4-3.1C331.5,253.1,332.5,254.1,332.5,256.4z"/>
	<path d="M482.6,263.1c-1.8,0-3.3-1.5-3.3-3.2c0-1.5,1.7-3.2,3.3-3.2c1.7,0,3.4,1.6,3.4,3.4C486.1,261.5,484.3,263.1,482.6,263.1z"
		/>
	<path d="M360.1,396.3c0-1.6,1.9-3.2,3.7-3.2c1.6,0,3.2,1.8,3.1,3.5c-0.1,1.5-1.6,3-3.1,2.9C361.9,399.4,359.9,398.1,360.1,396.3z"
		/>
	<path d="M311,360.9c-1.5,0-2.4-0.8-2.3-2.5c0-2.2,1.6-4,3.4-3.8c1.9,0.2,3,0.7,2.9,3C315.1,359.4,313.2,360.9,311,360.9z"/>
	<path d="M135.4,408.8c0,1.8-1.3,3.1-3.3,3.1c-1.8,0-3.1-1.4-3.1-3.2c0-1.8,1.5-3.2,3.3-3.2C134,405.6,135.4,407.1,135.4,408.8z"/>
	<path d="M304.8,266.2c0,1.9-1.2,3.2-3,3.2c-2,0-2.9-1.1-3-3.1c-0.1-2.3,1.2-3.1,3-3.2C303.2,263,305.1,264.2,304.8,266.2z"/>
	<path d="M27.6,166c0,1.7-1.4,3.2-3.1,3.1c-1.5,0-3-1.6-3-3.1c0-1.8,1.4-3.4,3-3.3C26.3,162.8,28,163.8,27.6,166z"/>
	<path d="M68.7,404.7c0-1.6,1.4-3.5,2.7-3.7c0.5-0.1,1,0.2,1.4,0.4c0.4,0.2,0.7,0.7,1.1,0.9c1.8,1.3,1.8,2.8-0.3,3.9
		c-1,0.5-2.1,0.7-3.1,1.2c-0.9,0.5-1.3-0.1-1.5-0.6C68.9,406.1,68.8,405.3,68.7,404.7z"/>
	<path d="M299,246.3c1.7,0,3.3,1.5,3.3,3.2c0,1.3-1.6,2.9-3,2.9c-1.9,0-3.4-1.5-3.4-3.2C295.9,247.5,297.2,246.3,299,246.3z"/>
	<path d="M234.5,397.7c1.6,0,3,1.7,3,3.7c0,1.4-1.4,3.2-2.6,3.1c-1.7-0.1-3.3-1.4-3.1-3.7C231.9,398.9,232.8,397.7,234.5,397.7z"/>
	<path d="M195.7,15.9c0,1.5-1.5,3.2-3,3.2c-1.5,0-3.1-1.6-3.1-3.3c0-1.7,1.2-2.9,3-2.9C194.4,13,195.7,14.2,195.7,15.9z"/>
	<path d="M558.1,273.4c-1.6,0-4.1-2.1-4.4-3.7c0-0.2,0.2-0.7,0.4-0.8c1.7-0.6,3.3-1.3,5.1-0.4c1.4,0.7,2.1,1.7,1.8,2.8
		C560.8,272.5,559.6,273.4,558.1,273.4z"/>
	<path d="M298.3,372.3c-1.3,0.2-1.9-0.6-2.3-1.5c-0.3-0.7,0.9-2.4,1.8-2.8c1.1-0.4,2.1-1,3.2-1.2c0.8-0.1,1.7,0,2.4,0.4
		c0.3,0.1,0.5,1.3,0.3,1.5c-1.4,1.3-3,2.5-4.5,3.7C299,372.4,298.6,372.3,298.3,372.3z"/>
	<path d="M359.7,358.1c0-1.7,1.1-2.9,2.8-2.9c1.8,0,3.3,1.4,3.3,3.1c0,1.2-1.6,2.9-2.8,2.9C361.2,361.2,359.6,359.7,359.7,358.1z"/>
	<path d="M158.9,76.5c-1.7,0-3-1.3-3-3c0-1.5,1.5-3,3-3c1.7,0,3.1,1.5,3.1,3.2C162,75.5,160.8,76.5,158.9,76.5z"/>
	<path d="M167.8,24.5c-2.1,0-3.1-0.7-3.1-2.2c0-1.9,1.4-3.6,3-3.6c1.8,0,3,1.2,3.1,3C170.9,23.2,169.5,24.5,167.8,24.5z"/>
	<path d="M77.2,384.9c0.5-1,1.1-2.4,2-3.7c0.2-0.4,1.4-0.6,1.7-0.4c0.8,0.7,1.7,1.5,2,2.5c0.2,0.7-0.4,1.7-0.9,2.4
		c-0.4,0.6-1.2,1-1.9,1.4C78.7,387.9,77.2,387,77.2,384.9z"/>
	<path d="M73.2,361.7c-2.1,0-3.5-1-3.5-2.6c0-1.4,1.7-3.2,2.9-3.1c1.4,0,2.8,1.8,2.8,3.5C75.5,361.5,75.4,361.7,73.2,361.7z"/>
	<path d="M124.7,43.5c1.6,0,2.9,1.4,2.9,3c0,1.3-1.5,2.8-2.9,2.8c-1.4,0-3.3-2.2-3.1-3.7C121.7,44.5,123.2,43.5,124.7,43.5z"/>
	<path d="M109.4,81.2c-1.6,0.3-3-1.6-3.1-2.8c0-1.2,1.6-2.9,2.8-2.9c1.6,0,3.1,1.7,3.2,3.5C112.4,80.1,110.9,81.2,109.4,81.2z"/>
	<path d="M251.6,108.4c2.3-0.1,3,1,3.1,2.8c0.1,1.5-1.2,2.5-2.9,2.6c-1.6,0.1-3-1.2-3.3-3.3C248.5,109.4,250.1,108.4,251.6,108.4z"
		/>
	<path d="M326.6,243.9c-1.6,0-3-1.4-2.9-2.9c0.1-1.3,1.5-2.7,2.9-2.7c1.5,0,3,1.3,3.1,2.7C329.7,242.6,328.3,243.9,326.6,243.9z"/>
	<path d="M95.4,62.3c1.8,0,3.1,1.1,3.1,2.7c0,1.5-1.3,2.6-2.9,2.6c-1.7,0-2.9-1.1-2.9-2.8C92.8,63.2,93.7,62.3,95.4,62.3z"/>
	<path d="M128.2,24.8c0.7,0.5,1.6,0.8,1.9,1.5c0.3,0.8,0.2,1.9,0,2.7c-0.2,0.7-0.8,1.2-1.2,1.8c-0.9,1.3-1.7,1.3-2.4,0
		c-0.5-0.8-0.9-1.7-1.2-2.6C124.8,27,126.6,25.1,128.2,24.8z"/>
	<path d="M186,133.1c-0.2,2.1-2.2,4.3-4.3,4.4c-1.1,0.1-2.1-0.4-2.2-1.5c-0.1-0.5,0.6-1.4,1.1-1.8c1.1-0.9,2.2-1.7,3.4-2.3
		C185,131.4,186,132.1,186,133.1z"/>
	<path d="M543.3,286.9c-0.3,0.9-0.4,1.8-0.9,2.5c-0.7,1.1-2.2,1.4-3.2,0.8c-1-0.6-1.5-2.6-1-3.7c0.7-1.4,2.1-2,3.5-2.1
		C543.1,284.4,543.2,285.7,543.3,286.9z"/>
	<path d="M122.6,337.3c-0.2-2,1.3-2.6,2.7-2.8c1.3-0.2,2.7,1.5,2.6,3c0,1.5-1.2,2.6-2.7,2.6C123.4,340,122.5,339.1,122.6,337.3z"/>
	<path d="M510.1,202.6c0-1.7,1.2-2.7,3.1-2.7c1.4,0,2.3,1,2.3,2.5c0,1.4-1.5,2.8-2.8,2.8C510.9,205.3,510.1,204.4,510.1,202.6z"/>
	<path d="M103.1,387.6c0.3,1.4-1,2.5-2.8,2.7c-1.1,0.1-2.6-1.3-2.6-2.3c0-1.4,1.6-3.2,2.8-3.3C102,384.6,103.1,385.9,103.1,387.6z"
		/>
	<path d="M142.8,60.1c0-1.7,1-2.7,2.5-2.7c1.5,0,2.9,1.2,2.9,2.7c0,1.5-1.3,2.7-2.8,2.7C143.7,62.7,142.8,61.8,142.8,60.1z"/>
	<path d="M287.8,355.4c0-1.5,1.1-2.7,2.6-2.7c1.5,0,2.7,1,2.7,2.2c0,1.4-1.6,3.1-2.9,3.1C288.9,358.1,287.8,356.9,287.8,355.4z"/>
	<path d="M118.9,18.8c-1.5,0-2.3-0.8-2.3-2.5c0-1.6,1.2-2.9,2.5-2.8c1.2,0.1,2.4,1.4,2.5,2.6C121.6,17.6,120.4,18.8,118.9,18.8z"/>
	<path d="M90.7,50.1c0-1.4,1.3-2.7,2.7-2.6c1.1,0.1,2.6,1.6,2.6,2.7c0,1.4-1.2,2.6-2.6,2.7C92.2,52.9,90.7,51.4,90.7,50.1z"/>
	<path d="M277.8,364.1c1.8,0,2.6,0.7,2.6,2.2c0,1.4-1.4,2.5-3.2,2.5c-1.8,0-1.8,0-1.8-2.2C275.4,364.2,276.1,363.9,277.8,364.1z"/>
	<path d="M410.5,265.6c0,1.7-0.9,2.5-2.5,2.5c-1.4,0-2.5-1-2.5-2.3c0-1.4,1.2-2.7,2.5-2.7C409.3,263.1,410.5,264.2,410.5,265.6z"/>
	<path d="M114,69.7c0.2-0.2,0.5-1.1,1-1.2c0.6-0.1,1.7,0.2,2,0.7c0.7,1.3,1.2,2.7,1.6,4.1c0.3,1.1-0.8,1.7-1.9,1.2
		C115.8,74,114,71.2,114,69.7z"/>
	<path d="M523.7,309.8c1.4,0,2.3,1,2.3,2.5c0,1.5-0.8,2.5-2.2,2.5c-1.4,0-2.5-1.2-2.5-2.6C521.4,310.7,522.3,309.8,523.7,309.8z"/>
	<path d="M541.3,320.7c0,1.6-0.8,2.3-2.3,2.3c-1.6,0-2.3-0.8-2.3-2.4c0-1.5,0.9-2.3,2.4-2.2C540.5,318.3,541.3,319.1,541.3,320.7z"
		/>
	<path d="M222.9,170.2c0,1.9-0.8,2.8-2.4,2.8c-1.3,0-1.9-0.7-1.9-2.1c0-1.6,1.3-3.2,2.8-3.2C222.5,167.6,222.9,168.3,222.9,170.2z"
		/>
	<path d="M531.7,327.6c0-1.7,0.8-2.5,2.5-2.5c1.2,0,2.4,1.2,2.4,2.4c0.1,0.8-1.7,2.5-2.6,2.6C533,330.1,531.7,328.7,531.7,327.6z"/>
	<path d="M241.4,172c0,1.3-1.1,2.5-2.3,2.5c-1.4,0-2.3-0.9-2.3-2.4c0-1.7,0.7-2.6,2.3-2.6C240.2,169.4,241.4,170.7,241.4,172z"/>
	<path d="M565.7,315.9c0,1.2-1.1,2.4-2.3,2.4c-1.2,0-2.4-1.2-2.4-2.4c0-1,1.4-2.4,2.3-2.5C564.4,313.3,565.8,314.7,565.7,315.9z"/>
	<path d="M135.3,35.7c-0.9,0-2-1.5-2-2.7c0-1.1,1.3-2.3,2.4-2.3c0.8,0,2.2,1.6,2.2,2.4C137.8,34.4,136.4,35.8,135.3,35.7z"/>
	<path d="M164.1,65.6c0-1.9,1.7-4,3.1-3.8c0.6,0.1,1.5,1.3,1.4,1.7c-0.4,1.2-1.2,2.3-2,3.2c-0.3,0.4-1.3,0.5-1.7,0.3
		C164.3,66.6,164.2,65.8,164.1,65.6z"/>
	<path d="M278.2,35.1c0,1.4-0.9,2.2-2.2,2.1c-1.4,0-2.4-1-2.3-2.4c0.1-1,1.4-2.3,2.4-2.3C277.4,32.6,278.2,33.6,278.2,35.1z"/>
	<path d="M172.1,406.6c1.5,0,2.3,0.8,2.3,2.2c0,1.3-0.9,2.2-2.2,2.2c-1.3,0-2.4-1.1-2.4-2.2C169.8,407.4,170.7,406.6,172.1,406.6z"
		/>
	<path d="M267,348.8c-1.5,0-2.2-0.6-2.2-2c0-1.7,0.7-2.6,2.3-2.6c1,0,2.2,1.1,2.3,2.1C269.4,347.7,268.3,348.8,267,348.8z"/>
	<path d="M107.8,360.5c-1.6,0-1.9-0.3-1.9-2.1c0-1.5,0.7-2.2,2.3-2.2c1.2,0,2.3,0.9,2.3,1.9C110.5,359.4,109.2,360.5,107.8,360.5z"
		/>
	<path d="M289.6,236.3c0.2-0.8,0.1-2,1.7-2c1.4,0,2.5,0.8,2.5,2.2c0.1,1-1.1,2.3-2.2,2.4C290.5,239,289.6,237.9,289.6,236.3z"/>
	<path d="M559.5,59.7c-1.1-0.3-2-0.4-2.8-0.7c-1-0.4-1.3-1.5-0.5-2.2c1.2-1.2,3.6-1,4.5,0.4c0.3,0.5,0.6,1.3,0.3,1.7
		C560.7,59.4,559.9,59.5,559.5,59.7z"/>
	<path d="M517.1,294.6c-1.8-0.3-3.5-0.4-5.1-0.8c-0.4-0.1-1.1-0.8-1.1-1.1c0.1-0.5,0.6-1.2,1.1-1.2c1.1-0.2,2.2-0.1,3.4,0
		c0.4,0.1,0.9,0.6,1.1,1C516.7,293.1,516.8,293.8,517.1,294.6z"/>
	<path d="M10.9,371.2c0,1.1-0.9,2.1-2,2.1c-0.8,0-2.2-1.8-2.3-2.8c0-0.9,1.2-1.8,2.3-1.8C10.2,368.8,10.9,369.7,10.9,371.2z"/>
	<path d="M326.1,271.5c0,1.3-0.9,2.2-2,2.2c-1.3,0-2.2-1-2.2-2.2c0-1.2,1-2.2,2.3-2.2C325.4,269.4,326.1,270.1,326.1,271.5z"/>
	<path d="M233.9,352.1c0,1.2-0.8,2.1-1.9,2.1c-1.1,0-2.3-0.9-2.3-1.9c0-1.1,1.3-2.4,2.4-2.3C233.2,349.9,233.9,350.8,233.9,352.1z"
		/>
	<path d="M71.9,414.1c0-0.8-0.1-1.9,1.4-1.9c1,0,2.8,1.6,2.5,2.5c-0.2,0.7-1.1,1.6-1.8,1.7C72.9,416.8,71.9,415.6,71.9,414.1z"/>
	<path d="M44.6,354.9c0,1.5-0.8,2.5-2,2.5c-1,0-1.9-1-1.9-2.2c0-1.3,1-2.4,2.3-2.2C44,353.1,44.8,353.7,44.6,354.9z"/>
	<path d="M550.2,314.5c-1.3,0-2.1-0.9-2.1-2.1c0-1.1,0.9-2.1,1.9-2.2c1.2,0,2,1,2,2.4C551.8,313.6,551.6,314.6,550.2,314.5z"/>
	<path d="M310.9,399.2c0,1-0.9,2.1-1.8,2.1c-1,0-1.7-1-1.7-2.3c0-1.2,0.8-2.4,1.6-2.3C310,396.8,310.9,397.9,310.9,399.2z"/>
	<path d="M249.6,131.9c-1.3,0-1.9-0.6-1.9-2c0-0.9,1-2,2-2c1,0,1.9,1.1,1.9,2.2C251.6,131.5,251.2,131.9,249.6,131.9z"/>
	<path d="M154.6,2.1c1,0,2.3,1,2,1.8c-0.3,0.9-0.7,1.8-2,1.7c-1-0.1-2.2-1.2-2.2-2.1C152.4,2.7,153.3,2.1,154.6,2.1z"/>
	<path d="M522.3,318.3c1.1-0.1,1.6,0.6,1.6,1.8c0,1.4-0.6,2.2-1.8,2.1c-1.2-0.1-1.8-0.8-1.8-2C520.3,318.9,520.9,318.3,522.3,318.3z
		"/>
	<path d="M521.8,299.5c0,1.3-0.8,2.2-1.9,2.3c-1.3,0.1-1.7-0.9-1.9-1.8c-0.2-0.8,1.4-2.3,2.2-2.2C521.1,297.9,522,298.3,521.8,299.5
		z"/>
	<path d="M454.7,407.1c0-1.3,1.3-2.7,2.5-2.5c0.4,0.1,0.9,0.9,1,1.5c0.2,1.1-1,2.7-1.8,2.6C455.5,408.6,454.6,408.3,454.7,407.1z"/>
	<path d="M133.6,46.2c0,0.9-1.3,2.6-2,2.2c-0.7-0.3-1.4-1.3-1.5-2c-0.2-1,0.6-1.8,1.7-2C132.6,44.2,133.6,45.2,133.6,46.2z"/>
	<path d="M303.6,274.3c1.5,0,2,0.7,2,1.9c0,1.5-1.1,1.6-2.1,1.6c-1.2,0.1-1.5-0.7-1.5-1.8C302,274.9,302.6,274.3,303.6,274.3z"/>
	<path d="M352.5,399.5c-0.7-0.1-1.8,0-2-1.4c-0.1-0.9,1.1-1.8,2.2-1.9c1.1,0,1.7,0.5,1.8,1.6C354.5,399,353.9,399.5,352.5,399.5z"/>
	<path d="M101.7,54.5c0.1,1.4-0.8,1.8-1.9,1.8c-1.1,0.1-1.7-0.6-1.7-1.7c0-1.2,0.6-1.9,1.9-1.8C100.9,52.9,101.8,53.2,101.7,54.5z"
		/>
	<path d="M147.8,67.7c0.7,0.1,1.1,0.8,1,1.8c-0.1,1.2-1,2.1-2,1.9c-1-0.2-1.5-0.9-1.5-1.9C145.3,68.5,146.4,67.5,147.8,67.7z"/>
	<path d="M141.9,54.3c-0.9-0.1-1.6-0.5-1.6-1.6c0-0.9,1.1-2.1,2-2c0.9,0.1,1.7,0.5,1.6,1.7C143.8,53.6,143.1,54.2,141.9,54.3z"/>
	<path d="M164.1,378.4c-0.1-1.2,0.8-1.6,1.7-1.9c0.7-0.2,1.9,1.1,1.8,1.9c-0.1,1.1-0.9,1.8-1.9,1.8
		C164.9,380.2,164.1,379.6,164.1,378.4z"/>
	<path d="M307.4,254.6c0.2,1.2-0.7,1.7-1.6,1.6c-0.6-0.1-1.4-1.1-1.6-1.8c-0.3-1,0.4-1.6,1.5-1.6
		C306.8,252.8,307.4,253.3,307.4,254.6z"/>
	<path d="M120.9,29.7c-1.2,0.3-1.7-0.6-1.8-1.5c0-1,0.9-1.6,1.9-1.6c0.8,0,2.1,0.3,1.9,1.5c-0.1,0.7-1.1,1.3-1.7,1.9
		C121.1,30,121,29.9,120.9,29.7z"/>
	<path d="M528.9,249.9c0,1.5-1,2.7-1.8,2.5c-0.7-0.2-1.4-0.8-1.6-1.5c-0.3-0.7,1.4-2.2,2.3-2C528.2,249.1,528.6,249.7,528.9,249.9z"
		/>
	<path d="M286.4,219.7c1,0,1.9,0.4,1.7,1.4c-0.2,0.7-1.1,1.6-1.8,1.7c-0.5,0.1-1.5-0.9-1.6-1.6C284.5,220.2,285.3,219.7,286.4,219.7
		z"/>
	<path d="M150.3,388.3c0.5-0.5,1-1.2,1.6-1.4c0.9-0.2,2.2,1.1,1.9,2.1c-0.2,0.6-0.9,1.2-1.5,1.4
		C151.3,390.5,150.6,389.6,150.3,388.3z"/>
	<path d="M151.6,16.8c0.3-1.3,0.4-2.4,1.9-2.3c1.1,0,1.9,0.7,1.6,1.3c-0.3,0.8-1.3,1.4-2.2,1.9C152.6,17.8,152,17.1,151.6,16.8z"/>
	<path d="M155.9,64.1c-0.6,1-1.3,1.8-2.6,1.3c-0.5-0.2-1.2-0.8-1.2-1.3c-0.1-0.4,0.5-1.3,0.9-1.4C154.3,62.3,155.3,62.9,155.9,64.1z
		"/>
	<path d="M149.1,17.7c0.3,0.4,1,0.9,1.1,1.4c0.1,0.9-1.4,2.1-2.2,1.7c-0.5-0.2-1.1-1-1.2-1.5C146.7,18,147.9,18,149.1,17.7z"/>
	<path d="M144.6,24.7c-0.1,1-2.3,2.2-3.1,1.7c-1-0.7-0.3-1.5,0.1-2c0.4-0.5,1-0.9,1.6-1c0.3-0.1,0.8,0.6,1.1,0.9
		C144.5,24.4,144.6,24.7,144.6,24.7z"/>
	<path d="M113.3,63.8c-1,0.8-1.6,1.4-2.3,2c-0.4-0.4-1.1-0.9-1.1-1.3c0.1-0.9,0.3-2.1,1.5-2.2C111.9,62.4,112.4,63.1,113.3,63.8z"/>
	<path d="M499.3,295.2c-0.4-0.5-1.1-1.1-1.1-1.6c0-0.7,0.3-1.8,1.5-1.5c0.6,0.2,1.5,0.8,1.5,1.3
		C501.2,294.2,500.8,295.1,499.3,295.2z"/>
	<path d="M301.3,356.3c0.9,0.6,1.7,1,2.4,1.7c0.2,0.1-0.1,1.2-0.5,1.3c-0.4,0.2-1.2,0.2-1.6,0C300.7,358.7,300.5,357.8,301.3,356.3z
		"/>
	<path d="M502.4,286.9c0.8,0.8,1.5,1.3,1.6,1.8c0.2,0.9-0.6,1.7-1.5,1.5c-0.7-0.2-1.2-1-1.6-1.7
		C500.8,288.3,501.6,287.7,502.4,286.9z"/>
	<path d="M97.9,72.4c0.4,0.5,1.2,1.1,1.1,1.4c-0.1,0.6-0.9,1.1-1.3,1.7c-0.5-0.5-1.1-1-1.3-1.6C96.1,73,96.7,72.6,97.9,72.4z"/>
	<path d="M285.2,288.9c-0.8,0.7-1.2,1.3-1.7,1.3c-1,0.1-1.8-0.6-1.7-1.5c0.1-0.5,1-1.1,1.6-1.1C283.9,287.6,284.4,288.3,285.2,288.9
		z"/>
	<path d="M245.7,349.5c2,0.1,3.5,0.6,4.6,2C249.3,352.8,247.4,351.9,245.7,349.5z"/>
	<path d="M200.8,406.5c0.7-0.3,1.4-0.7,2.2-0.9c0.2,0,0.7,0.8,0.7,1.3c0,0.5-0.5,1.4-0.7,1.4c-0.8-0.1-1.5-0.5-2.2-0.8
		C200.8,407.2,200.8,406.8,200.8,406.5z"/>
	<path d="M135.2,38c-0.1,0.9,0,1.5-0.2,2c-0.2,0.5-0.6,0.9-0.9,1.3c-0.4-0.4-1.2-0.9-1.1-1.3c0.1-0.8,0.6-1.6,1.1-2.3
		c0.1-0.1,0.6-0.1,0.9,0C135.1,37.7,135.3,38.1,135.2,38z"/>
	<path d="M420.4,384.1c0.1,1.3,0.3,2.5-1.2,2.9c-0.2,0.1-1.1-1-1.1-1.6C418.1,384.1,419,383.6,420.4,384.1z"/>
	<path d="M479,366.8c-0.7-0.9-1.1-1.3-1.5-1.8c0.5-0.4,1-1.1,1.5-1.1c0.5,0,1,0.7,1.5,1.2C480.2,365.5,479.8,366,479,366.8z"/>
	<path d="M19.9,390.5c0.7-0.9,0.9-2.4,2.3-1.8c0.5,0.2,0.9,1.8,0.6,2.2C22,391.9,21,391,19.9,390.5z"/>
	<path d="M545.5,279.8c0.7,0.9,1,1.4,1.4,1.9c-0.7,0.5-1.4,1.1-2.1,1.5c-0.1,0.1-1-0.9-1-1C544.2,281.4,544.8,280.8,545.5,279.8z"/>
	<path d="M493.4,225.6c-0.6-0.8-2.2-1.2-1-2.5c0.3-0.3,1.6-0.4,1.8-0.1C495,223.9,494.5,224.8,493.4,225.6z"/>
	<path d="M554.2,326c-0.9,0.7-1.4,1.5-2,1.5c-0.5,0-0.9-0.8-1.4-1.3c0.5-0.5,0.9-1.2,1.5-1.3C552.7,324.7,553.3,325.4,554.2,326z"/>
	<path d="M535.5,314.1c-0.6,0.3-1.3,0.9-1.9,1c-0.3,0-1-0.7-1.1-1.1c-0.1-0.4,0.5-1.2,0.8-1.2c0.7,0,1.4,0.3,2.2,0.5
		C535.4,313.5,535.4,313.8,535.5,314.1z"/>
	<path d="M272.3,380c0.9,0,1.3,0.3,1.4,1.3c0,0.9-0.6,1.3-1.2,1.2c-0.5-0.1-1.1-0.6-1.3-1.1C270.9,380.5,271.4,380,272.3,380z"/>
	<path d="M257.1,397.2c1.4-0.1,2.6-0.3,3,1.1c0.1,0.3-0.5,1.1-0.8,1.2C257.8,399.6,257.6,398.4,257.1,397.2z"/>
	<path d="M356.2,319.6c-0.6,0.5-1.3,1.3-1.4,1.2c-0.5-0.3-1.2-0.9-1.3-1.4c-0.1-0.4,0.7-0.9,1.1-1.4
		C355.1,318.5,355.6,319,356.2,319.6z"/>
	<path d="M524.4,207.6c-0.7-0.8-1.4-1.2-1.4-1.7c0-0.4,0.9-1.3,1.2-1.2c0.6,0.2,1.1,0.8,1.4,1.4C525.7,206.2,525,206.8,524.4,207.6z
		"/>
	<path d="M65.3,413.6c-0.8,0.7-1.2,1.3-1.8,1.5c-0.2,0.1-0.8-0.7-1.2-1c0.5-0.5,1-1,1.6-1.3C64.1,412.6,64.6,413.2,65.3,413.6z"/>
	<path d="M242.7,90.1c-0.5,0.3-0.9,0.8-1.4,0.9c-0.9,0.3-1.3-0.5-1.2-1.2c0.1-0.5,0.7-1.1,1.1-1.2c0.4-0.1,1,0.5,1.5,0.8
		C242.6,89.7,242.6,89.9,242.7,90.1z"/>
	<path d="M317.2,424.3c0,0.4,0,0.9,0,1.4c-1,0-2,0-3,0C314.6,424,315.3,423.7,317.2,424.3z"/>
	<path d="M500.3,215.9c-0.7,0.2-1.4,0.5-2.1,0.7c-0.1,0-0.6-0.6-0.5-0.8c0.2-0.5,0.6-1.3,1-1.3c0.5,0,1.1,0.5,1.6,0.8
		C500.3,215.5,500.3,215.7,500.3,215.9z"/>
	<path d="M157.6,358.6c-0.5-0.6-1-1-1-1.1c0.3-0.6,0.8-1,1.2-1.5c0.4,0.3,0.8,0.7,1.2,1C158.6,357.4,158.2,357.9,157.6,358.6z"/>
	<path d="M499.3,286.8c-0.4-0.7-0.9-1.2-0.8-1.6c0.1-0.5,0.7-0.8,1-1.2c0.3,0.3,0.9,0.7,0.9,1C500.3,285.5,499.8,286,499.3,286.8z"
		/>
	<path d="M407.1,216.2c1,0.7,1,1.5,0.4,2.4c-0.1,0.1-0.9-0.3-1.2-0.6C405.5,217,406.4,216.7,407.1,216.2z"/>
	<path d="M271.4,362.2c1-0.7,1.9-1.3,2.8-0.2C273.3,363.3,272.6,363.4,271.4,362.2z"/>
	<path d="M49.3,409.1c-1.2-0.9-1.3-1.7-0.4-2.5C50.2,407.7,50.3,408,49.3,409.1z"/>
	<path d="M260.7,383.2c-0.9,0-1.4,0-2.1,0c0.2-0.7,0.3-1.3,0.5-1.9c0.1-0.1,0.8-0.2,0.9-0.1C260.3,381.8,260.4,382.4,260.7,383.2z"
		/>
	<path d="M513.1,174.4c-0.8,0.4-1.3,0.7-1.7,0.7c-0.3,0-0.6-0.6-0.9-0.9c0.4-0.3,0.8-0.7,1.2-0.8C512,173.4,512.4,173.8,513.1,174.4
		z"/>
	<path d="M269.7,369.1c0.6,0.4,1.2,0.7,1.8,1.1c-0.3,0.2-0.5,0.6-0.8,0.6C269.9,371,269.2,370.7,269.7,369.1z"/>
	<path d="M46.7,350.7c-0.6,0.3-1,0.7-1.3,0.6c-0.4-0.1-0.7-0.6-0.8-1c-0.1-0.2,0.5-0.8,0.6-0.7C45.7,349.8,46.1,350.2,46.7,350.7z"
		/>
	<path d="M493.6,101.9c-0.7,0.4-1.1,0.8-1.5,0.8c-0.2,0-0.7-0.5-0.7-0.8c0-0.3,0.5-0.8,0.7-0.8C492.5,101,492.8,101.4,493.6,101.9z"
		/>
	<path d="M59.3,420.9c-0.3,0.4-0.7,1-0.9,1c-0.6-0.2-1-0.6-1.6-0.9c0.1-0.1,0.1-0.3,0.2-0.4c0.3,0,0.6-0.1,0.9-0.1c0.3,0,0.7,0,1,0
		C59.1,420.6,59.2,420.7,59.3,420.9z"/>
	<path d="M413.5,411.6c-0.4-0.6-0.9-0.9-0.9-1.3c0-0.3,0.5-0.6,0.7-0.8c0.3,0.3,0.8,0.6,0.9,1C414.3,410.7,413.9,411.1,413.5,411.6z
		"/>
	<path d="M375.2,298.1c-0.4-0.4-0.8-0.7-0.8-0.9c0-0.3,0.5-0.8,0.7-0.7c0.4,0.1,0.7,0.5,1.1,0.7
		C375.9,297.5,375.6,297.7,375.2,298.1z"/>
	<path class="st0" d="M65.2,243.2c0-1.7,0.9-2.5,2.6-2.5c1.2,0,2,0.8,2,2.3c-0.1,1.9-0.3,3.9-0.7,5.7c-0.2,0.7-1,1.6-1.7,1.8
		c-1.5,0.4-2.1-0.5-2.1-2.6"/>
	<path class="st0" d="M111.5,317.1c1.2,0.9,2.4,1.8,3.6,2.8c0.8,0.7,0.4,1.6-0.1,2.3c-0.5,0.8-1.3,1.1-2.2,0.5c-1.5-1-3-2-4.8-3.2
		c1.5-1.2,2.7-2.1,3.9-3.1C111.7,316.7,111.6,316.9,111.5,317.1z"/>
	<path class="st0" d="M234.3,315c-2.3-0.1-3.9-1.1-5.6-2.4"/>
	<path class="st0" d="M555.1,35.3c0-1.5,0.7-2.6,1.8-3.5c0.3-0.2,1-0.4,1.2-0.2c1.1,1,2.1,2.1,3.1,3.1c-0.4,0.4-0.8,1-1.2,1.1
		c-0.8,0.2-1.7,0.1-2.5,0C556.8,35.7,556,35.4,555.1,35.3z"/>
	<path class="st0" d="M509.8,26.7c-0.5,0.4-0.9,1-1.4,1.1c-0.5,0.1-1-0.5-1.5-0.8"/>
	<path class="st0" d="M341,139.7c-1.3,0.7-2.8,1.3-4.1,2.1c-1.2,0.7-2.3,1.5-3.3,2.3c-1.6,1.4-3.1,1.2-4.2-0.9
		c1-0.4,1.8-0.9,2.8-1.1"/>
	<path d="M222.3,269.8c-0.5,4.5-2.2,6.5-6.2,7c-1.6,0.2-2.9-1.1-3.8-2.3c-0.9-1.2-1.7-2.4-2.5-3.7c-1.1-1.7,0-3.2,2.4-3.6
		c1.4-0.2,2.8-0.7,4.2-0.9c0.8-0.1,1.6,0.1,2.3,0.4c1,0.5,1.9,1.1,2.8,1.8C221.9,268.9,222.2,269.6,222.3,269.8z"/>
	<path d="M229.4,281.2c0.6-0.1,1.4-0.6,1.9-0.4c0.4,0.2,0.7,1,0.8,1.6c0,0.2-0.9,0.8-1.1,0.7c-0.6-0.2-1.2-0.8-1.7-1.2
		C229.3,281.7,229.3,281.4,229.4,281.2z"/>
</g>
</svg>
