<?xml version="1.0" encoding="utf-8"?>
<!-- Generator: Adobe Illustrator 19.0.0, SVG Export Plug-In . SVG Version: 6.00 Build 0)  -->
<svg version="1.1" id="mask-bw-02_xA0_Изображение_1_"
   xmlns="http://www.w3.org/2000/svg" xmlns:xlink="http://www.w3.org/1999/xlink" x="0px" y="0px" width="1000" height="1000" viewBox="-159 -60 1600 1200"
   style="enable-background:new -159 -60 1600 1200;" xml:space="preserve">
<g>
  <path d="M584.9,669.3c-3.9-4.2-8.2-0.9-11.7,0.2c-3.6,1.1-6.3,4.2-8.8,7.8c-3.7,5.4-4.6,14.1-14,14.7c-3,0.2-4.3,6.3-1.9,9.9
    c7.1,10.6,5.4,19.9-3.2,28.8c-4,4.1-4.5,9.2-2.3,14.6c3.3,7.9,0.8,15.6-1.3,23.2c-1.5,5.4-6,6.9-10.8,7c-4.4,0.1-9-0.2-13.3-1.2
    c-13.8-3.3-22.7-20.3-13.2-33.6c2.7-3.9,3.1-7.8,2.3-12.6c-0.9-5.5,0.1-11.3,0.2-17c0-1.1,0.5-2.4,0.2-3.4
    c-1.6-4.8-3.2-9.5-5.1-14.2c-0.3-0.8-1.9-1.9-2.6-1.7c-2.8,0.7-5.5,2-8.3,2.9c-3.8,1.2-3.3,4.3-3.7,7.3c-0.3,2.5-1.8,4.8-2.5,7.3
    c-0.9,2.9-2,5.9-2.2,8.9c-0.3,5.1-2.5,8.6-7.2,10.1c-4.2,1.4-7.8,0.2-10.6-3.3c-3.1-3.8-2.9-7.6-0.9-11.9c1.2-2.6,1.4-5.6,2.4-8.3
    c1.2-3.3,2-7.1,4.1-9.8c3.8-5.1,3.9-7.2-1.4-11.3c-1.8,1-3.7,2-5.5,3.1c-3.2,2-6.2,0.8-7.9-1.6c-1.4-1.8-2.3-5.1-1.6-7.1
    s3.7-3.1,5.7-4.6c0.2-0.2,0.7,0,1,0c2.2-0.6,4.4-1.3,6.6-1.9c-1-2.8-1.4-6.1-3.1-8.4c-3.4-4.6-7.5-8.7-4.8-15
    c3-7.1,8.2-9.5,16.4-7.6c5,1.2,6.7,0.3,6.7-4.5c0.1-11.3,5.2-20.2,12.4-28.3c0.2-0.2,0.5-0.4,0.7-0.7c1.5-3.1,6.4-6.1,1.9-9.6
    c-3.8-2.9-4.7,2.6-7.2,4c-1,0.5-1.6,2-2.5,2.3c-7.8,2.7-11.2,8.4-13.6,16c-2.4,7.8-11,12.4-19.5,11.6c-9.3-0.9-18.6-2.1-27.8-4
    c-11-2.2-18-14.2-15.4-25c0.4-1.4,0.8-2.9,1-4.3c1.1-6.6-0.3-7.9-6.9-6.7c-11.1,1.9-17.9-6.9-16.2-15.4c1.6-8.3,0.2-9.6-8.2-11.8
    c-2.6-0.7-5.4-2.7-7.1-4.8c-2.1-2.7-3.7-3.1-6.5-1.3c-4.6,3.1-10.1,3.4-13.3,0.7c-4.1-3.4-4.7-7.9-3.6-12.8c1-4.3,2.1-8.6,3-12.9
    c1.2-6.3,6.6-11.9,13-13.4c5.7-1.3,12.8,1.8,16.7,6.5c2.2,2.6,1.9,7.8,7.4,7.3c6.4-0.5,11.7-3.1,15.9-7.8c1.3-1.5,2.4-3.1,3.3-4.9
    c1.5-2.9,1.1-5.5-1.9-7.3c-8.3-5-13.1-12.3-11.2-21.8c1.4-7.2,0.9-14.5,2.9-21.5c1.4-5,0.7-8-3.6-11.5c-5.1-4.2-8.6-10.2-8.4-17.2
    c0.1-5.8-0.9-10.5-5.5-14.7c-5-4.6-6.2-10.9-3-17.1c3-5.8,7.9-9.3,14.6-9.2c5.3,0.2,7.7-2.3,8.8-7.1c1.8-7.6,4.1-15.1,5.9-22.8
    c2.8-12,11.6-16.9,22.5-19.1c5.8-1.2,15.6,4.9,18.7,12.2c3,7.2,5.3,14.8,7.3,22.3c1,3.9,2.4,5.6,6.6,5.4c4.4-0.2,9.1,3.5,9.5,7
    c0.4,3.8-0.7,7-4.3,8.7s-7,1.2-10.1-1.5c-1.9-1.7-3.2-5.5-6.7-2.6c-3,2.5-1.8,5.4-0.4,8.5c1.4,2.9,2.4,6.1,3.2,9.3
    c1,3.9,3.1,6,7.4,5.6c4.1-0.4,7.7,0.7,10.1,4.5c0.3,0.5,1,1.3,1.4,1.3c4.8,0,9.6-0.2,14.4-0.3c0.1-0.6,0.3-1.2,0.4-1.9
    c-1.3-1-2.6-2.1-3.9-3c-4.8-3.3-5.2-7.3-2-12.2c1.6-2.5,2.4-5.6,2.8-8.5c0.7-5,0.2-10.3,1.2-15.2c2-10.2,8.4-14.9,20.5-15.8
    c0.8-1.5,1.2-3.5,2.5-4.5c1.7-1.4,4-2,6-3c0.9,2.2,3.1,4.8,2.5,6.5c-1.6,4.8-1,7.3,4.1,9.5c4.8,2,7.3,6.3,7.1,11.9
    c-0.1,2.1-1.5,5.7,2.6,5.7c4.4,0,3.7-5.1,3.3-6.4c-2.5-8.6,0.9-15.4,5.5-22c0.9-1.3,3.1-1.8,4.8-2.6c5.1-2.6,10.1-5.6,15.4-7.6
    c7.4-2.8,13.9,0.3,19.5,4.8c3.2,2.6,6.2,2.9,9.3,0.6c10.3-7.6,18.2-5.4,27.1,0.9c8.9,6.2,11.7,6.2,19.8-0.8
    c2.2-1.9,4.8-5.5,6.7-5.2c3.8,0.5,7.3,3.1,10.7,5.2c0.9,0.5,1.7,3,1.3,3.5c-1,1.2-2.7,2.1-4.2,2.4c-1.3,0.3-2.9-0.8-4.3-0.7
    c-0.9,0.1-2.2,1-2.5,1.8c-0.3,0.9,0.2,2.5,1,3c3,2,6.2,3.9,9.5,5.2c1.4,0.6,3.7,0.1,5.1-0.7c7.9-4.3,10.4-3.3,13.6,5.6
    c5.2,1.3,8.9-0.4,11-5.5s6.1-8.1,11.5-9.1c4-0.8,6.4-2.8,7.7-7.1c2.3-7.5,9.3-11.6,16.8-10.9c6,0.6,11.9,7.2,13.6,14
    c1,3.9,2.9,8,5.6,11.1c3.9,4.5,5.3,9.6,4.9,15c-0.6,7.6-7.5,8.8-13.2,10.5c-2.8,0.8-6.4,0.1-7.1,3.9c-0.8,3.9,0.1,7.3,4.1,9.7
    c2.9,1.7,5.2,4.5,7.7,6.9c2.6,2.5,8.2,1.9,10.8-0.6c1.7-1.7,4.2-2.6,6.3-3.9c1.1,2.7,2.1,5.4,3.4,8c0.9,1.6,2.2,4,3.5,4.2
    c4.6,0.5,9.2,0.2,15,0.2c-1.3-2.4-2-4.2-3-5.7c-2.2-3.1-4.8-5.9-6.7-9.2c-1.8-3.2-3.6-4-6.7-1.8c-2.9,2.1-6,2.7-8-0.9
    c-1-1.8-2-4.8-1.2-6.4c1.2-2.5,3.4-4.8,7.2-3.7c6.2,1.9,8.3,0.9,9.6-5.3c1-4.8,3.6-5.8,8-6.2c4.5-0.4,9.1-1.6,13.2-3.4
    c7.7-3.4,14.1-0.8,19.6,3.9c2.2,1.9,2.4,6.2,3,9.5c1.2,6.3,1.8,6.8,8.1,5.3c6-1.4,11.6,0.2,17.1,2.5c1.7,0.7,3.6,1.1,5.9,1.7
    c0.1-1.7,0.5-2.8,0.2-3.5c-3.6-7.4-1.7-13.9,2.8-20.3c1.8-2.6,2.5-6,3.6-9.1c4.1-11.8,14.7-15.8,25-8.9c4.1,2.7,7.1,2.9,11.1,0
    c8.8-6.3,16-1.7,18.8,3.6c3.5,6.6-0.3,15.4-7.6,17.5c-6.9,1.9-13.9,3.6-20.8,5.5c-5,1.3-7.4,5.8-6.6,12.6c4.8,0.9,8.9,0.7,11.3-5
    c1.2-2.8,3.9-5.7,8-4.6s7.7,3.7,7.5,7.9c-0.1,2.9-2.4,7.1-4.8,8.2c-7.7,3.6-9.5,10.9-13.2,17.3c-1.7,2.9-5.7,5-9,6.2
    c-4.5,1.6-6.1,3.7-4.5,8.4c1.5,4.5-0.8,7.7-4.6,9.8c-3.9,2.2-7.1,0.7-9.6-2.4c-2.7-3.3-2.9-7-0.2-10.5c1.1-1.4,3-2.1,4-3.6
    c0.7-1,1.3-3.3,0.8-3.9c-0.8-0.9-2.7-1-4.2-1.1c-0.5-0.1-1.3,0.4-1.7,0.9c-5,6.2-12.3,6.4-19.3,7.4c-1.5,0.2-3,0.9-4.5,1.4
    c0.7,1.6,1.2,3.3,2.2,4.7c3.4,5.3,7.4,10.6,6.5,17.1c-0.5,3.6-2.4,8.1-5.1,10.1c-4.4,3.2-4.1,6.7-3.2,10.9c1.4,6.4,2.6,12.8,4.7,19
    c1.1,3.2,3.3,6.6,5.9,8.7c3.4,2.6,9.2-1.5,9.1-6.2c-0.1-6.7-0.9-13.7,5.6-18c3.1-2.1,6.9-3.7,10.6-4.1c3.6-0.5,6.7-0.6,9-3.9
    c2-2.7,4.6-4.4,7.9-1.5c3.2,2.8,2.5,5.5,0.7,8.8c-1,1.9-0.9,4.4-1.4,6.6c2.3-0.1,4.9,0.4,7-0.4c7.3-2.9,10.2-7.6,8.1-16
    c-1-3.8,1.4-8.8,6.3-10.7c4.4-1.7,8.5-2.4,12.2,1.7c2.6,2.8,4.7,5.9,9.8,2.3c2.5-1.8,7.6-0.7,10,3.1c2.3,3.6,0.9,6.7-1,10.2
    c-1.8,3.2-2.5,6.9-3.9,10.2c-1.5,3.6-2.9,7.3-5.1,10.4c-3,4.2-3.1,7.2,1.5,9.8s7.6,6.1,9.2,11c2.6,7.9-2.6,19-10.4,22.3
    c-1.6,0.7-2.6,2.6-4.2,3.3c-3.6,1.7-7.2,3.4-11,4.2c-2.7,0.6-5.8,0.1-8.7-0.4c-1.7-0.3-3.9-1.2-4.8-2.5c-0.6-1,0.2-3.5,1.1-4.7
    c3.8-4.8,5.4-16.3,1.1-20.2c-3.5-3.2-8.9-4.6-13.7-5.7c-1.4-0.3-3.8,3.1-5.5,5c-2.9,3.1-6,6.1-8.2,9.7c-3.8,6.1-9.1,9.3-16.1,10.1
    c-2.2,0.2-4.3,1-6.6,1.6c2.3,7.8,4.5,14.8,6.4,21.9c2.8,10.6-2.9,23.6-12.5,28.7c-3.4,1.8-3.8,4.4-0.7,6.8c2.2,1.6,4.7,3.2,7.4,3.8
    c8.9,2.1,12.4,10.6,11.6,16.2c-0.8,5.5-4.7,12.5-14.4,13.2c-1.7,0.1-3.5,1.7-4.9,2.9c-7,6.4-9,6-17,0.9c-4.8-3.1-10.8-4.2-16.4-5.8
    c-1.2-0.3-2.8,1-4.2,1.5c0.6,1.3,0.9,2.7,1.7,3.9c1.6,2.6,3.9,5,5.1,7.8c1.9,4.4,4.8,4.3,8.5,3.1c0.2-0.1,0.3-0.2,0.4-0.2
    c11.2-4.7,12.3-4.4,19.4,6.4c0.8,1.2,2,2.3,3.2,3.1c4.4,2.9,4.9,6,1.9,10.1c-1.5,2-3.1,4.3-3.6,6.7c-1.1,4.8-4.1,7.6-8.5,7.4
    c-4.7-0.2-7.6-3.8-8.1-8.6c-0.4-3.3-0.9-6-5.8-4.8c0,3.3-0.2,6.6,0,9.9c0.4,6-2.7,9.8-7.7,12c-4.9,2.2-9.3,0.3-13.2-3.1
    c-2.6-2.3-5.2-4.6-8.2-6.3c-7.3-4.3-8-4.1-14,1.7c-4.8,4.7-10.4,7.4-17.3,7.4c-5.8,0-10.6-2-14.7-6c-5.6-5.6-10.4-6.5-17.2-2.7
    c-1.2,0.7-1.8,3.4-1.7,5.1c0.1,1.1,1.6,2.6,2.9,3.2c3.6,1.5,8,1.7,11,3.9c7.8,5.9,9.2,13.4,4.5,22.4c-2.7,5.1-3.7,9.6,0.3,14.6
    c2.6,3.2,5.3,4.8,10,3.7c-0.4-1.5-0.6-2.9-1.1-4.1c-1.8-3.8-1-7,1.9-9.9c2.6-2.6,5.5-2.8,8.6-1.3c3.5,1.7,5,4.9,3.8,8.3
    c-2.2,6.2,1.4,7.4,6,9.6c3.6,1.7,6.3,5.3,9.1,8.4c1.6,1.8,2.4,4.3,3.5,6.4c6.2-3.8,12.3-7.3,18-11.3c5-3.5,9.8-6.5,16.4-4.9
    c3.4,0.8,6.5-4,5.1-7.4c-0.4-0.9-1-1.7-1.6-2.5c-6.8-9.3-2.8-18.9,5-24.3c3.2-2.2,6-5,8.8-7.7c3.8-3.8,7.3-3.6,10.4,0.5
    c2.4,3.3,4.9,6.6,7.8,9.6c8.3,8.7,5,23.8-6.5,27.4c-6.3,2-11.6,4.7-15.3,10.2c-0.7,1-1.6,2.3-1.5,3.4c1.1,14.8,1.1,14.8-7.8,24.1
    c0.6,1.7,1.7,3.4,1.6,5c-0.1,1.5-1.6,2.9-2.5,4.4c-1.6-1.1-4.5-2.2-4.5-3.3c0.1-4.3-2.2-4.5-5.6-5.1c-5-0.8-9.7-2.7-14.6-3.7
    c-3.3-0.7-4.2,1.2-4.9,4.4c-1,4.5-3.1,8.9-5.6,12.8c-2.6,4.2-6.2,7.7-9.1,11.7c-4,5.6-9.3,8.2-14.7,6.5c-6.9-2.1-9.7-6.1-9.7-13.6
    c0-7.2-2.6-10.4-10.3-10.8c-9.8-0.5-16.5-5-20.6-13.6c-2.3-4.9-6.6-7.1-11.1-9.8c-7.8-4.8-12.3-4.8-18.5,3.1
    c-7.2,9.2-20.3,7.8-29-0.4c-3.4-3.2-7.4-5.9-11.5-8c-1.6-0.8-5-0.1-6.2,1.2c-1.2,1.2-0.9,4.1-0.7,6.2c0.1,2.3,1.2,4.5,1.2,6.8
    c0.2,7-6.3,11-12.2,7.4c-5.2-3.1-10.2-6.6-14.9-10.4c-4.6-3.7-5.6-11.1-2.5-16.8c2.5-4.5,3.2-8-1.4-12.1c-4.4-3.9-4.2-10-0.9-14.9
    c3.3-5,8.2-6.5,14.1-5.1c2.7,0.6,5.8,0.6,8.6-0.1c9-2.1,17.9-4.8,26.9-6.7c3.2-0.7,7.6,1.5,10,0.1c1.9-1.2,1.5-6,2.5-9.1
    c2.2-6.7,9.2-11,15.9-10s12.2,7.4,12.9,14.5c0.2,2.4,1.2,4.8,1.9,7.2c1.8-1.9,3.8-3.7,5.3-5.9c2.3-3.3,2.3-6-1.8-8.6
    c-3.6-2.2-3.7-7.7-0.9-11.6c3.2-4.6,2.9-7.4-1.5-12.6c-2.5-2.9-6.5-3.4-11.2-0.9c0.9,1.5,2,3,2.5,4.6c0.5,1.7,1.2,4.2,0.4,5.1
    c-1.1,1.2-3.8,2-5.4,1.5c-2.9-0.7-5.1-0.9-7.8,0.6c-3.7,2.2-10.8,0-14.3-3.8s-4.5-10.8-2.1-14.8c5-8.4,3.8-11.8-5.2-15.2
    c-1.8-0.7-3.6-1.5-5.2-2.6c-3.4-2.4-5.7-1.3-6.8,2.2c-1,3.1-1.9,6.4-2,9.6c-0.3,7.8-3.7,13.5-10.9,15.7c-4.7,1.4-5.5,4-4.6,8.2
    c2.8,12.9-6,24.2-19.1,23.9c-7.2-0.2-11.4,3-14.1,9.2c-2,4.6-4.3,8.9-10.1,10c-7.4,1.4-12.6-3.2-14.1-8.3c-0.4-1.2-0.8-3.1-1.5-3.3
    c-5.3-1.6-4.7-3.2-0.4-5.6c0.9-0.5,1.5-2.6,1.3-3.9c-0.6-4.7-1.4-9.4-2.5-14c-0.5-1.8-1.7-3.8-3.2-5c-2.9-2.3-4.9-4.9-3-8.4
    s5.1-3.6,8.7-2.1c1.2,0.5,3.8,0.1,4.4-0.8C580,677.7,582.3,673.5,584.9,669.3z M790.1,457.1c3.6,2.2,6.4,2.3,9-0.4
    c2.1-2.1,4.1-4.4,6.6-6c8.9-5.6,9-5.5,2.5-13.4c-0.3-0.4-0.6-1-1-1.1c-1.8-0.6-3.8-1.6-5.6-1.4c-5.3,0.7-10.6,1.7-15.8,2.9
    c-1.1,0.3-3,2.2-2.8,2.6c1.7,3.7,1.2,9.2,7.5,9.6c1.1,0.1,2.2,1.7,3.5,2.8C792.7,454.2,791.6,455.4,790.1,457.1z M536.1,653
    c0.1,0,0.2,0,0.4,0c0-3.2,0.4-6.4-0.1-9.4c-0.3-2-1.9-3.8-3-5.7c-1.9,1.2-4.4,2-5.5,3.7c-2.8,4.4-5,9.2-7.5,13.8
    c-2.2,4-1.3,7.5,1.2,10.9c0.9,1.2,1.5,2.6,2.6,3.5c1.6,1.3,4.4,3.6,5,3.2c3-2.2,6.8-4.7,7.8-7.9C538,661.5,536.4,657.1,536.1,653z
     M690.5,619.4c0.2-3.8-1.3-5-5.1-3.9c-2.4,0.7-6.1,1.8-7.5,0.6c-5-4.1-7.4-1.2-10.3,2.4c-1.3,1.6-3.5,2.5-4.9,4
    c-3.9,4.2-7.9,8.4-11.4,12.9c-0.7,0.9,0.5,3.2,0.9,4.8c1.3-0.5,3-0.7,3.8-1.7c1.2-1.4,2.1-3.3,2.7-5.2c1.6-5.3,4.6-8.5,10.2-10.2
    c5.2-1.5,9.3,0.6,13.9,1.8C687.5,626.5,690.6,624.3,690.5,619.4z M584.5,410.2c0-5-5.3-10.4-8.4-9.2c-2.9,1.1-5.7,2.6-8.3,4.2
    c-3.2,2-3,5.2,0.4,6.9c3.5,1.8,7.1,3.4,10.8,4.8c1,0.4,3-0.2,3.5-1C583.5,413.9,584,411.6,584.5,410.2z M502.4,558.8
    c1.2,3.4-2.5,8,3.4,8.7c2.8,0.3,6.1-0.4,5.6-4.3C510.8,558.1,506.8,558.6,502.4,558.8z M523.4,433.4c4.3-0.1,5.8-2.5,5.8-5.2
    c0-1.5-2-3.1-3.1-4.6c-2.2,2.1-4.4,4.1-6.6,6.2C520.8,431,522.1,432.2,523.4,433.4z"/>
  <path d="M874.1,677.7c1.1-0.1,2.3-0.3,4.2-0.5c-3.8-6.4-0.4-11,3.7-15.1c4.2-4.2,9.4-6,15.7-3.9c0-1.5,0.1-2.6,0-3.7
    c-0.2-3.1-0.3-6.3-0.8-9.4c-0.3-1.7-0.9-4.3-2.1-4.8c-2.2-1-4.9-0.7-5.8,2.6c-0.2,0.6-0.6,1.2-0.9,1.8c-3.7,7.9-4.9,8-12.4,6.1
    c-5.9-1.5-9.5-6.9-8.7-12c0.9-5.7,6.2-10.4,12.3-10c5.7,0.4,7.9-1.5,8.7-7.3c0.5-3.8,3.6-7.2,5.2-10.9c0.6-1.3,0.7-3.7-0.1-4.5
    c-2.8-2.9-5.7-5.7-10.8-3.7c-3.3,1.3-7,0-8.8-3.7c-1.7-3.5-1.4-6.8,1.4-9.6c2.9-2.9,6.2-2.9,10-1.3c2.6,1.1,5.8,2,8.4,1.3
    c4.4-1.2,7.1,0.7,9.6,3.5c2.5,2.9,2.1,6,0.4,9.2c-1,1.8-1.3,4-2,6c2.3,0.5,5.4,2.2,6.8,1.3c2.1-1.4,3.7-4.4,4.4-7
    c0.6-2-0.7-4.5-0.8-6.8c-0.4-7.7,4.3-13.8,11.1-14.7c6.4-0.9,13.1,3.8,14.6,10.7c0.5,2.4-0.5,5.2-0.9,7.8c-0.3,1.9-0.8,3.9-0.8,5.8
    c0.1,5.3,4.2,7.4,9.2,5.8c8.1-2.6,9.6-10.3,13.6-16.1c0.8-1.1-0.9-3.6-0.5-5.2c0.6-2.2,2.2-4.2,3.3-6.3c1.8,1,4.7,1.7,5.1,3.1
    c1.2,4,3.7,5.8,7.2,7.7c8.9,4.8,9.8,16,2.1,22.9c-3.1,2.8-4.8,5.7-5.4,10c-1,6.8-5,11.6-11.8,13.9c-6.9,2.3-12.7,0.1-17-4.9
    c-3.9-4.5-7.3-6.5-13-3.5c-4.6,2.4-9.3,1-13.6-1.6c-2.5-1.5-4.8-2.2-6.5,1.3c-1.6,3.4-0.4,5.1,2.6,6.8c7.6,4.2,8.9,10.4,4,17.9
    c-2.1,3.2-4.1,6-2.9,10.4c1,3.8,2.8,4.7,6.3,5.7c2.6,0.7,6,3.1,6.7,5.4c0.7,2.3-1,6.1-2.9,8c-2.5,2.6-6.1,1.8-9.1-0.4
    c-0.8-0.6-1.6-1.4-2.5-1.6c-1.7-0.3-4-1.1-5.1-0.3c-8.9,5.9-19.1,4.3-25.3-4.2c-1.1-1.5-3.7-2.1-5.5-3.1
    C874.4,677.1,874.2,677.4,874.1,677.7z"/>
  <path d="M663,893.8c-12.5,1.7-26.8-13.8-21.2-28.7c1.7-4.5,2-9.6,2.5-14.4c0.5-5.5,6.6-9.5,12.5-7.5c4.4,1.5,7.6,1.6,10.3-3.1
    c3.5-6,9.3-9.2,16.2-8.3c8.2,1,14.1,6,15.8,14.2c1.6,7.4-1.6,13.9-7.7,18.2c-4.2,2.9-6.1,6.5-7,11.3
    C682.6,886.5,673.2,894.7,663,893.8z"/>
  <path d="M695.5,324.4c-0.9,5.4-0.9,10.4-2.7,14.7c-3.5,8.3-12.5,10.3-20.8,5.4c-6.8-4.1-8.8-13.2-4.3-20c1.2-1.8,2.5-3.5,4-5
    c3.2-3,2.4-4.6-1.4-6.4c-10.7-5.1-13.5-12.2-8.7-20.8c3.2-5.8,10.5-8.2,16.5-5.5c1.6,0.7,3.2,1.7,4.9,2.4c3.2,1.2,5.8,1.1,7.8-2.6
    c4.4-8.1,10.6-11.1,18.9-9.8c6.3,1,12.4,7.3,14.3,14.7c1.4,5.6-2.9,14.1-9.4,17.6c-3.7,2-6.3,3.6-6.8,8.5c-0.4,4-3.8,6.8-8.5,6.9
    C697.9,324.4,696.4,324.4,695.5,324.4z M692.4,320.5c0.9-4.7,2.1-8.1,1.9-11.4c-0.1-1.8-2.1-4.1-3.8-5c-0.9-0.5-3.5,1.1-4.8,2.2
    c-1.9,1.7-3.7,3.8-5,6c-0.6,1-0.2,3.8,0.5,4.2C684.5,318,688.1,319,692.4,320.5z"/>
  <path d="M581.8,796.6c-0.7,8.2-1.1,16-2.3,23.7c-1.1,7-5.3,11.9-12.1,14.4c-8.1,3-15.4-0.1-20-5.8c-3.9-4.8-5.2-11.8-7-18
    c-4.1-14.1,5.2-25.7,17.9-27.7c2.6-0.4,5.6,0,8,0.9c4,1.5,8,3.3,11.4,5.8C579.7,791.1,580.4,794.1,581.8,796.6z"/>
  <path d="M685.3,818.7c-10.5,0-17.9-7.2-17.9-17.6c0-10.8,7.6-18.4,18.1-18.7c8.1-0.2,18.7,7.9,18.2,18.9
    C703.4,809.1,695.5,820,685.3,818.7z"/>
  <path d="M562.8,343c-0.4,3.2-1.1,5.7-4.8,5.4c-5.3-0.3-9.4-4.5-8.8-8.6c0.1-0.8,0.3-1.7,0.7-2.4c2.1-3.9,0.3-5.6-3.3-7
    c-7.5-2.9-11.6-11.5-8.9-18.3c2-5.1,9.3-10.8,13.9-10.3c6.7,0.8,11.6,4.4,14,10.8c2.3,6.1-0.2,11.2-4.4,15.1
    c-3.5,3.2-3.8,5.5-0.7,9C561.8,338.4,562.1,340.9,562.8,343z"/>
  <path d="M773.1,344.8c-1.5,2.1-3,5.7-5.8,7.6c-4.2,2.9-3.3,4.6-0.5,7.6c6.5,7.1,1.7,23.4-7.2,25.4c-4.9,1.1-8.3-1.2-11-4.6
    c-3.1-3.8-2.6-8.1,0.3-11.8c2.6-3.4,5.5-6.6,8.6-9.6c3-2.9,2.6-4.8-0.6-7.1c-7.7-5.5-6.7-14,1.3-18.6
    C764.6,330.2,772.6,337.4,773.1,344.8z"/>
  <path d="M582.7,334c-1.9,0.6-3.1,1.3-4.3,1.3c-1-0.1-2-0.9-2.7-1.7c-0.2-0.3,0.3-1.7,0.8-2c0.7-0.4,2.2-0.8,2.5-0.4
    c3.7,3.7,5,0.1,6.6-2.2c4.5-6.5,12.1-8.6,19.4-5.2c6,2.7,10.4,10.6,9,16c-2.3,8.9-8.8,14.2-16.8,13.6c-7.1-0.5-13.9-7.4-14.5-14.6
    C582.6,337.5,582.7,336.2,582.7,334z"/>
  <path d="M835.3,329c0,8.2-7.2,15.4-15.3,15.4c-8.6,0-15.3-6.6-15.3-15.3c0-7.7,7.5-15.5,15-15.4C827.8,313.8,835.3,321.1,835.3,329
    z"/>
  <path d="M894.5,322.8c8,0,14.7,6.6,14.8,14.6c0.1,8.5-6.6,15.1-15.4,15.1c-7.5,0-15-7.5-15-14.9C879,330,886.6,322.8,894.5,322.8z"
    />
  <path d="M944.6,561.9c-0.9-8.2,7.1-15,14.6-14.2c7,0.7,13.6,7.6,13.1,14.8c-0.5,6.4-6.5,13.5-14.2,13.2
    C952.3,575.4,944.2,570.5,944.6,561.9z"/>
  <path d="M947.4,423.6c0.2,7.2-5.6,13.3-13.5,13.8c-6.9,0.4-14.7-7.3-14-14c1-8.6,6.6-13.8,14.1-13.7
    C941.9,409.8,947.5,415.6,947.4,423.6z"/>
  <path d="M909.1,468.7c-4.1,0.3-6.2-2.3-6.4-5.6c-0.3-6.2,1.6-12,6.3-16.4c3.8-3.5,7.9-3.9,12.6-1.3c4.4,2.5,6.9,6.3,6.4,10.7
    c-0.5,4.6-2.7,9.3-8.4,10.4C916.1,467.3,912.6,468,909.1,468.7z"/>
  <path d="M803.5,368.4c-1.8,3.9-3,8.2-5.6,11.5c-2.8,3.6-8,3.4-11.6,0.5c-1.5-1.2-3.3-2.2-4.7-3.5c-0.8-0.7-1.7-1.9-1.6-2.7
    c0.5-3.4,1.2-6.7,2-10c1.4-5.3,6.5-9.8,10.5-9.4C798.5,355.3,802.3,360.5,803.5,368.4z"/>
  <path d="M811.6,812.9c0,6.6-4.4,10.8-11.3,10.8c-6.4,0-12.3-5.3-11.7-11.2c0.7-6.2,4-10.9,11.6-11
    C807.1,801.5,811.6,806,811.6,812.9z"/>
  <path d="M370.4,455.4c-5.5-0.1-11.3-5.9-11.4-11.6c-0.1-5.7,6.1-12,11.8-11.8c5.4,0.2,11.5,6,11.6,11
    C382.4,448.9,376,455.5,370.4,455.4z"/>
  <path d="M986.4,502c0,5.4-5.6,10.7-11.1,10.6c-5.8-0.1-10.7-5.2-10.7-10.9c0-5.3,5.5-10.9,10.8-11
    C980.4,490.6,986.4,496.8,986.4,502z"/>
  <path d="M587.7,762c-6.3-0.4-9.4-3-10.1-7.2c-0.6-3.1-2.3-3.9-4.6-5c-1.5-0.7-3.1-2.4-3.5-3.9c-0.3-1.1,1-3.6,2-3.9
    c1.6-0.4,4.1,0,5.3,1c2.4,2.1,4.4,2.2,7.5,1.9c2.8-0.2,6.6,1.4,8.5,3.5c1.5,1.7,1.8,5.8,0.8,8C592.3,759,589.2,760.7,587.7,762z"/>
  <path d="M948.1,481.6c-5.6,0.1-10.5-4.7-10.5-10.2c-0.1-5.3,5-10.6,10.2-10.6c5.3-0.1,10.5,5,10.5,10.3
    C958.5,476.6,953.7,481.5,948.1,481.6z"/>
  <path d="M920.6,712.7c-5.1,0-10.2-4.8-10.1-9.6c0-5.2,5-10.4,10-10.5c4.6,0,10,5.2,10.1,9.8C930.7,707.8,925.9,712.7,920.6,712.7z"
    />
  <path d="M865.3,349.5c0,5.4-4.5,9.8-10.1,9.9c-5.3,0.1-10.5-5-10.5-10.3s5.3-10.5,10.5-10.4C860.5,338.9,865.3,344,865.3,349.5z"/>
  <path d="M886.5,468.3c0,5.3-4.7,10.2-10,10.1c-4.4,0-9.7-5.5-9.8-10.2c-0.1-4.6,5.4-10.3,10.1-10.5
    C881.2,457.6,886.4,463.3,886.5,468.3z"/>
  <path d="M939.6,522.6c-5.6,0-10.1-4.5-10-10c0.1-4.3,5.4-9.6,9.7-9.8c4.6-0.2,10,5.4,10,10.4C949.4,518.7,945.4,522.6,939.6,522.6z
    "/>
  <path d="M516.6,807.8c-4.8-0.1-7.8-2.9-7.9-7.5c-0.1-4.6,3.4-7.8,8.3-7.8c4.9,0,7.8,3.1,7.7,8.2
    C524.6,805.1,521.4,807.9,516.6,807.8z"/>
  <path d="M612.8,822.4c-0.2,4-3.5,7.3-7.2,7.3c-3.9,0-7.4-3.9-7.2-8c0.2-4.2,3.8-7.5,7.9-7.2C609.9,814.7,612.9,818.5,612.8,822.4z"
    />
  <path d="M446.6,666.8c0.1,4.5-2.5,7.2-6.8,7.2c-4.3,0.1-7.3-2.7-7.4-6.8c0-4.1,3.5-7.7,7.4-7.7
    C443.1,659.6,446.5,663.3,446.6,666.8z"/>
  <path d="M731.7,338.3c0-4,3.4-7.6,7.4-7.6c3.9,0,8.1,4,8.2,7.7c0.1,3.4-4.8,8-8.3,7.9C735.1,346.2,731.7,342.5,731.7,338.3z"/>
  <path d="M727.4,343.4c-3.2,2.9-5,5.6-7.4,6.3c-1.6,0.5-4.3-1.5-6.1-2.9c-2-1.5-3.6-3.5-5.1-5.6c-0.7-1-1.2-2.7-0.9-3.9
    c0.2-0.8,2.1-1.5,3.2-1.5c2.8,0.1,5.8,0.1,8.2,1.2C722,338.2,724,340.6,727.4,343.4z"/>
  <path d="M867.8,554.8c0-3.4,3.4-6.9,6.6-6.8c3,0.1,6.9,3.8,7,6.7c0.1,3.5-3.5,7-7,7C870.9,561.5,867.9,558.4,867.8,554.8z"/>
  <path d="M875.2,702.5c4-0.2,6.1,2.2,6.3,5.6c0.2,3.4-2.4,6.1-5.6,5.4c-2.3-0.5-5.4-3.1-5.9-5.3
    C869.4,705.5,871.1,702.3,875.2,702.5z"/>
  <path d="M383.3,577.9c-1.9,1.3-3.7,3.2-5.8,3.6c-3,0.6-5.4-1.8-4.8-4.7c0.5-2,3-4.6,4.9-4.9c1.7-0.2,3.8,2.4,5.7,3.7
    C383.3,576.5,383.3,577.2,383.3,577.9z"/>
  <path d="M564.4,772.6c-2.6,2.3-4.2,3.7-5.7,5c-1.5-1.7-3.5-3.2-4.1-5.2c-0.3-0.9,2.4-3.7,3.8-3.7
    C560,768.8,561.7,770.8,564.4,772.6z"/>
  <path d="M738.8,799.7c2,2.8,4.3,4.6,4,5.9c-0.4,1.7-2.7,3.9-4.3,4c-1.3,0.1-3.9-2.5-4-4C734.5,804,736.8,802.4,738.8,799.7z"/>
  <path d="M880.4,607.9c1.9,2.5,3.9,3.9,3.8,5.3c-0.1,1.3-2.3,2.4-3.6,3.6c-1.1-1.3-2.9-2.4-3.2-3.9
    C877.2,611.7,878.9,610.3,880.4,607.9z"/>
  <path d="M959.7,435.8c-2.1-2.9-4.1-4.6-3.9-5.9c0.3-1.6,2.4-2.8,3.8-4.2c1.3,1.3,3.5,2.5,3.6,3.8
    C963.3,431,961.5,432.7,959.7,435.8z"/>
  <path d="M825.5,820.8c-2-2.6-4.1-4.2-3.9-5.3c0.3-1.5,2.4-2.6,3.7-3.9c1.1,1.4,2.8,2.6,3.2,4.2
    C828.8,816.7,827.1,818.2,825.5,820.8z"/>
  <path d="M897.1,432.8c-2.3,1.4-3.7,2.8-4.9,2.7c-1.3-0.1-3.7-2.1-3.5-2.5c0.7-1.8,2.1-3.4,3.3-5
    C893.4,429.3,894.7,430.6,897.1,432.8z"/>
  <path d="M970.2,521.3c-2.6,1.7-4.1,3.4-5.4,3.2c-1.2-0.1-2.2-2.2-3.3-3.5c1.3-1.1,2.4-2.9,3.9-3.2
    C966.4,517.7,967.8,519.5,970.2,521.3z"/>
  <path d="M898.4,702.2c-1-1.6-2.4-3-2.8-4.7c-0.2-0.7,1.7-2.5,2.8-2.7c1-0.2,3.2,1.3,3.2,2c0,1.7-1,3.5-1.6,5.2
    C899.5,702.1,898.9,702.1,898.4,702.2z"/>
  <path d="M917,742.6c-1.9-2.3-3.7-3.6-3.5-4.3c0.4-1.4,2-2.5,3.1-3.8c1,1,2.8,1.9,2.9,3C919.7,738.7,918.3,740.1,917,742.6z"/>
  <path d="M792.1,714.3c1.4,1.9,3,3,2.9,3.9c-0.1,1.1-1.7,2-2.6,3c-0.9-0.9-2.5-1.7-2.6-2.7C789.6,717.6,790.9,716.4,792.1,714.3z"/>
  <path d="M455.7,736c1.9,2.1,3.8,3.4,3.8,4.5c-0.1,1.1-2.2,2.2-3.4,3.3c-0.9-1-2.5-2-2.6-3.2C453.3,739.5,454.5,738.2,455.7,736z"/>
  <path d="M674.7,364.5c1-1.4,2.1-2.8,3.1-4.2c1.2,0.9,2.4,1.8,3.6,2.7c-1.6,1.2-3.1,2.3-4.7,3.5
    C676.1,365.9,675.4,365.2,674.7,364.5z"/>
  <path d="M868.1,830.1c1.5,1.4,2.5,2.3,3.6,3.1c-1.1,1.2-2.2,2.4-3.3,3.6c-0.9-1-2.4-1.9-2.5-3C865.8,832.8,867.1,831.7,868.1,830.1
    z"/>
  <path d="M789.5,781.8c1.7-0.2,3.3-0.5,5-0.7c0,1.2,0.2,3.3-0.1,3.4c-1.5,0.3-3.2,0.2-4.8,0.2C789.5,783.7,789.5,782.7,789.5,781.8z
    "/>
  <path d="M870.7,577.9c-1.1-1.7-2.3-2.8-2.1-3.5c0.4-1.1,1.7-1.9,2.6-2.8c0.8,1,2,2,2.3,3.1C873.6,575.4,872.1,576.4,870.7,577.9z"
    />
</g>
</svg>
