<?xml version="1.0" encoding="utf-8"?>
<!-- Generator: Adobe Illustrator 19.0.0, SVG Export Plug-In . SVG Version: 6.00 Build 0)  -->
<svg version="1.1" id="mask-bw-02_xA0_Изображение_1_"
	 xmlns="http://www.w3.org/2000/svg" xmlns:xlink="http://www.w3.org/1999/xlink" x="0px" y="0px" viewBox="-159 -60 1600 1200"
	 style="enable-background:new -159 -60 1600 1200;" xml:space="preserve">
<g>
	<path d="M461.4,703.3c-7.6-8.2-15.9-1.7-22.7,0.4c-7,2.1-12.2,8.2-17.1,15.1c-7.2,10.5-8.9,27.4-27.2,28.5
		c-5.8,0.4-8.3,12.2-3.7,19.2c13.8,20.6,10.5,38.6-6.2,55.9c-7.8,8-8.7,17.9-4.5,28.3c6.4,15.3,1.6,30.3-2.5,45
		c-2.9,10.5-11.7,13.4-21,13.6c-8.5,0.2-17.5-0.4-25.8-2.3c-26.8-6.4-44.1-39.4-25.6-65.2c5.2-7.6,6-15.1,4.5-24.5
		c-1.7-10.7,0.2-21.9,0.4-33c0-2.1,1-4.7,0.4-6.6c-3.1-9.3-6.2-18.4-9.9-27.6c-0.6-1.6-3.7-3.7-5-3.3c-5.4,1.4-10.7,3.9-16.1,5.6
		c-7.4,2.3-6.4,8.3-7.2,14.2c-0.6,4.9-3.5,9.3-4.9,14.2c-1.7,5.6-3.9,11.5-4.3,17.3c-0.6,9.9-4.9,16.7-14,19.6
		c-8.2,2.7-15.1,0.4-20.6-6.4c-6-7.4-5.6-14.8-1.7-23.1c2.3-5,2.7-10.9,4.7-16.1c2.3-6.4,3.9-13.8,8-19c7.4-9.9,7.6-14-2.7-21.9
		c-3.5,1.9-7.2,3.9-10.7,6c-6.2,3.9-12,1.6-15.3-3.1c-2.7-3.5-4.5-9.9-3.1-13.8c1.4-3.9,7.2-6,11.1-8.9c0.4-0.4,1.4,0,1.9,0
		c4.3-1.2,8.5-2.5,12.8-3.7c-1.9-5.4-2.7-11.8-6-16.3c-6.6-8.9-14.6-16.9-9.3-29.1c5.8-13.8,15.9-18.4,31.8-14.8
		c9.7,2.3,13,0.6,13-8.7c0.2-21.9,10.1-39.2,24.1-55c0.4-0.4,1-0.8,1.4-1.4c2.9-6,12.4-11.8,3.7-18.6c-7.4-5.6-9.1,5-14,7.8
		c-1.9,1-3.1,3.9-4.9,4.5c-15.1,5.2-21.7,16.3-26.4,31.1c-4.7,15.1-21.4,24.1-37.9,22.5c-18.1-1.7-36.1-4.1-54-7.8
		c-21.4-4.3-35-27.6-29.9-48.5c0.8-2.7,1.6-5.6,1.9-8.3c2.1-12.8-0.6-15.3-13.4-13c-21.6,3.7-34.8-13.4-31.5-29.9
		c3.1-16.1,0.4-18.6-15.9-22.9c-5-1.4-10.5-5.2-13.8-9.3c-4.1-5.2-7.2-6-12.6-2.5c-8.9,6-19.6,6.6-25.8,1.4c-8-6.6-9.1-15.3-7-24.9
		c1.9-8.3,4.1-16.7,5.8-25c2.3-12.2,12.8-23.1,25.2-26c11.1-2.5,24.9,3.5,32.4,12.6c4.3,5,3.7,15.1,14.4,14.2
		c12.4-1,22.7-6,30.9-15.1c2.5-2.9,4.7-6,6.4-9.5c2.9-5.6,2.1-10.7-3.7-14.2c-16.1-9.7-25.4-23.9-21.7-42.3
		c2.7-14,1.7-28.2,5.6-41.7c2.7-9.7,1.4-15.5-7-22.3c-9.9-8.2-16.7-19.8-16.3-33.4c0.2-11.3-1.7-20.4-10.7-28.5
		c-9.7-8.9-12-21.2-5.8-33.2c5.8-11.3,15.3-18.1,28.3-17.9c10.3,0.4,15-4.5,17.1-13.8c3.5-14.8,8-29.3,11.5-44.3
		c5.4-23.3,22.5-32.8,43.7-37.1c11.3-2.3,30.3,9.5,36.3,23.7c5.8,14,10.3,28.7,14.2,43.3c1.9,7.6,4.7,10.9,12.8,10.5
		c8.5-0.4,17.7,6.8,18.4,13.6c0.8,7.4-1.4,13.6-8.3,16.9s-13.6,2.3-19.6-2.9c-3.7-3.3-6.2-10.7-13-5c-5.8,4.9-3.5,10.5-0.8,16.5
		c2.7,5.6,4.7,11.8,6.2,18.1c1.9,7.6,6,11.7,14.4,10.9c8-0.8,15,1.4,19.6,8.7c0.6,1,1.9,2.5,2.7,2.5c9.3,0,18.6-0.4,28-0.6
		c0.2-1.2,0.6-2.3,0.8-3.7c-2.5-1.9-5-4.1-7.6-5.8c-9.3-6.4-10.1-14.2-3.9-23.7c3.1-4.9,4.7-10.9,5.4-16.5c1.4-9.7,0.4-20,2.3-29.5
		c3.9-19.8,16.3-28.9,39.8-30.7c1.6-2.9,2.3-6.8,4.9-8.7c3.3-2.7,7.8-3.9,11.7-5.8c1.7,4.3,6,9.3,4.9,12.6c-3.1,9.3-1.9,14.2,8,18.4
		c9.3,3.9,14.2,12.2,13.8,23.1c-0.2,4.1-2.9,11.1,5,11.1c8.5,0,7.2-9.9,6.4-12.4c-4.9-16.7,1.7-29.9,10.7-42.7c1.7-2.5,6-3.5,9.3-5
		c9.9-5,19.6-10.9,29.9-14.8c14.4-5.4,27,0.6,37.9,9.3c6.2,5,12,5.6,18.1,1.2c20-14.8,35.3-10.5,52.6,1.7c17.3,12,22.7,12,38.4-1.6
		c4.3-3.7,9.3-10.7,13-10.1c7.4,1,14.2,6,20.8,10.1c1.7,1,3.3,5.8,2.5,6.8c-1.9,2.3-5.2,4.1-8.2,4.7c-2.5,0.6-5.6-1.6-8.3-1.4
		c-1.7,0.2-4.3,1.9-4.9,3.5c-0.6,1.7,0.4,4.9,1.9,5.8c5.8,3.9,12,7.6,18.4,10.1c2.7,1.2,7.2,0.2,9.9-1.4
		c15.3-8.3,20.2-6.4,26.4,10.9c10.1,2.5,17.3-0.8,21.4-10.7c4.1-9.9,11.8-15.7,22.3-17.7c7.8-1.6,12.4-5.4,15-13.8
		c4.5-14.6,18.1-22.5,32.6-21.2c11.7,1.2,23.1,14,26.4,27.2c1.9,7.6,5.6,15.5,10.9,21.6c7.6,8.7,10.3,18.6,9.5,29.1
		c-1.2,14.8-14.6,17.1-25.6,20.4c-5.4,1.6-12.4,0.2-13.8,7.6c-1.6,7.6,0.2,14.2,8,18.8c5.6,3.3,10.1,8.7,15,13.4
		c5,4.9,15.9,3.7,21-1.2c3.3-3.3,8.2-5,12.2-7.6c2.1,5.2,4.1,10.5,6.6,15.5c1.7,3.1,4.3,7.8,6.8,8.2c8.9,1,17.9,0.4,29.1,0.4
		c-2.5-4.7-3.9-8.2-5.8-11.1c-4.3-6-9.3-11.5-13-17.9c-3.5-6.2-7-7.8-13-3.5c-5.6,4.1-11.7,5.2-15.5-1.7c-1.9-3.5-3.9-9.3-2.3-12.4
		c2.3-4.9,6.6-9.3,14-7.2c12,3.7,16.1,1.7,18.6-10.3c1.9-9.3,7-11.3,15.5-12c8.7-0.8,17.7-3.1,25.6-6.6c15-6.6,27.4-1.6,38.1,7.6
		c4.3,3.7,4.7,12,5.8,18.4c2.3,12.2,3.5,13.2,15.7,10.3c11.7-2.7,22.5,0.4,33.2,4.9c3.3,1.4,7,2.1,11.5,3.3c0.2-3.3,1-5.4,0.4-6.8
		c-7-14.4-3.3-27,5.4-39.4c3.5-5,4.9-11.7,7-17.7c8-22.9,28.5-30.7,48.5-17.3c8,5.2,13.8,5.6,21.6,0c17.1-12.2,31.1-3.3,36.5,7
		c6.8,12.8-0.6,29.9-14.8,34c-13.4,3.7-27,7-40.4,10.7c-9.7,2.5-14.4,11.3-12.8,24.5c9.3,1.7,17.3,1.4,21.9-9.7
		c2.3-5.4,7.6-11.1,15.5-8.9c8,2.1,15,7.2,14.6,15.3c-0.2,5.6-4.7,13.8-9.3,15.9c-15,7-18.4,21.2-25.6,33.6
		c-3.3,5.6-11.1,9.7-17.5,12c-8.7,3.1-11.8,7.2-8.7,16.3c2.9,8.7-1.6,15-8.9,19c-7.6,4.3-13.8,1.4-18.6-4.7
		c-5.2-6.4-5.6-13.6-0.4-20.4c2.1-2.7,5.8-4.1,7.8-7c1.4-1.9,2.5-6.4,1.6-7.6c-1.6-1.7-5.2-1.9-8.2-2.1c-1-0.2-2.5,0.8-3.3,1.7
		c-9.7,12-23.9,12.4-37.5,14.4c-2.9,0.4-5.8,1.7-8.7,2.7c1.4,3.1,2.3,6.4,4.3,9.1c6.6,10.3,14.4,20.6,12.6,33.2
		c-1,7-4.7,15.7-9.9,19.6c-8.5,6.2-8,13-6.2,21.2c2.7,12.4,5,24.9,9.1,36.9c2.1,6.2,6.4,12.8,11.5,16.9c6.6,5,17.9-2.9,17.7-12
		c-0.2-13-1.7-26.6,10.9-35c6-4.1,13.4-7.2,20.6-8c7-1,13-1.2,17.5-7.6c3.9-5.2,8.9-8.5,15.3-2.9c6.2,5.4,4.9,10.7,1.4,17.1
		c-1.9,3.7-1.7,8.5-2.7,12.8c4.5-0.2,9.5,0.8,13.6-0.8c14.2-5.6,19.8-14.8,15.7-31.1c-1.9-7.4,2.7-17.1,12.2-20.8
		c8.5-3.3,16.5-4.7,23.7,3.3c5,5.4,9.1,11.5,19,4.5c4.9-3.5,14.8-1.4,19.4,6c4.5,7,1.7,13-1.9,19.8c-3.5,6.2-4.9,13.4-7.6,19.8
		c-2.9,7-5.6,14.2-9.9,20.2c-5.8,8.2-6,14,2.9,19c8.9,5,14.8,11.8,17.9,21.4c5,15.3-5,36.9-20.2,43.3c-3.1,1.4-5,5-8.2,6.4
		c-7,3.3-14,6.6-21.4,8.2c-5.2,1.2-11.3,0.2-16.9-0.8c-3.3-0.6-7.6-2.3-9.3-4.9c-1.2-1.9,0.4-6.8,2.1-9.1
		c7.4-9.3,10.5-31.7,2.1-39.2c-6.8-6.2-17.3-8.9-26.6-11.1c-2.7-0.6-7.4,6-10.7,9.7c-5.6,6-11.7,11.8-15.9,18.8
		c-7.4,11.8-17.7,18.1-31.3,19.6c-4.3,0.4-8.3,1.9-12.8,3.1c4.5,15.1,8.7,28.7,12.4,42.5c5.4,20.6-5.6,45.8-24.3,55.7
		c-6.6,3.5-7.4,8.5-1.4,13.2c4.3,3.1,9.1,6.2,14.4,7.4c17.3,4.1,24.1,20.6,22.5,31.5c-1.6,10.7-9.1,24.3-28,25.6
		c-3.3,0.2-6.8,3.3-9.5,5.6c-13.6,12.4-17.5,11.7-33,1.7c-9.3-6-21-8.2-31.8-11.3c-2.3-0.6-5.4,1.9-8.2,2.9c1.2,2.5,1.7,5.2,3.3,7.6
		c3.1,5,7.6,9.7,9.9,15.1c3.7,8.5,9.3,8.3,16.5,6c0.4-0.2,0.6-0.4,0.8-0.4c21.7-9.1,23.9-8.5,37.7,12.4c1.6,2.3,3.9,4.5,6.2,6
		c8.5,5.6,9.5,11.7,3.7,19.6c-2.9,3.9-6,8.3-7,13c-2.1,9.3-8,14.8-16.5,14.4c-9.1-0.4-14.8-7.4-15.7-16.7
		c-0.8-6.4-1.7-11.7-11.3-9.3c0,6.4-0.4,12.8,0,19.2c0.8,11.7-5.2,19-15,23.3c-9.5,4.3-18.1,0.6-25.6-6c-5-4.5-10.1-8.9-15.9-12.2
		c-14.2-8.3-15.5-8-27.2,3.3c-9.3,9.1-20.2,14.4-33.6,14.4c-11.3,0-20.6-3.9-28.5-11.7c-10.9-10.9-20.2-12.6-33.4-5.2
		c-2.3,1.4-3.5,6.6-3.3,9.9c0.2,2.1,3.1,5,5.6,6.2c7,2.9,15.5,3.3,21.4,7.6c15.1,11.5,17.9,26,8.7,43.5c-5.2,9.9-7.2,18.6,0.6,28.3
		c5,6.2,10.3,9.3,19.4,7.2c-0.8-2.9-1.2-5.6-2.1-8c-3.5-7.4-1.9-13.6,3.7-19.2c5-5,10.7-5.4,16.7-2.5c6.8,3.3,9.7,9.5,7.4,16.1
		c-4.3,12,2.7,14.4,11.7,18.6c7,3.3,12.2,10.3,17.7,16.3c3.1,3.5,4.7,8.3,6.8,12.4c12-7.4,23.9-14.2,35-21.9
		c9.7-6.8,19-12.6,31.8-9.5c6.6,1.6,12.6-7.8,9.9-14.4c-0.8-1.7-1.9-3.3-3.1-4.9c-13.2-18.1-5.4-36.7,9.7-47.2
		c6.2-4.3,11.7-9.7,17.1-15c7.4-7.4,14.2-7,20.2,1c4.7,6.4,9.5,12.8,15.1,18.6c16.1,16.9,9.7,46.2-12.6,53.2
		c-12.2,3.9-22.5,9.1-29.7,19.8c-1.4,1.9-3.1,4.5-2.9,6.6c2.1,28.7,2.1,28.7-15.1,46.8c1.2,3.3,3.3,6.6,3.1,9.7
		c-0.2,2.9-3.1,5.6-4.9,8.5c-3.1-2.1-8.7-4.3-8.7-6.4c0.2-8.3-4.3-8.7-10.9-9.9c-9.7-1.6-18.8-5.2-28.3-7.2
		c-6.4-1.4-8.2,2.3-9.5,8.5c-1.9,8.7-6,17.3-10.9,24.9c-5,8.2-12,15-17.7,22.7c-7.8,10.9-18.1,15.9-28.5,12.6
		c-13.4-4.1-18.8-11.8-18.8-26.4c0-14-5-20.2-20-21c-19-1-32-9.7-40-26.4c-4.5-9.5-12.8-13.8-21.6-19c-15.1-9.3-23.9-9.3-35.9,6
		c-14,17.9-39.4,15.1-56.3-0.8c-6.6-6.2-14.4-11.5-22.3-15.5c-3.1-1.6-9.7-0.2-12,2.3c-2.3,2.3-1.7,8-1.4,12
		c0.2,4.5,2.3,8.7,2.3,13.2c0.4,13.6-12.2,21.4-23.7,14.4c-10.1-6-19.8-12.8-28.9-20.2c-8.9-7.2-10.9-21.6-4.9-32.6
		c4.9-8.7,6.2-15.5-2.7-23.5c-8.5-7.6-8.2-19.4-1.7-28.9c6.4-9.7,15.9-12.6,27.4-9.9c5.2,1.2,11.3,1.2,16.7-0.2
		c17.5-4.1,34.8-9.3,52.2-13c6.2-1.4,14.8,2.9,19.4,0.2c3.7-2.3,2.9-11.7,4.9-17.7c4.3-13,17.9-21.4,30.9-19.4
		c13,1.9,23.7,14.4,25,28.2c0.4,4.7,2.3,9.3,3.7,14c3.5-3.7,7.4-7.2,10.3-11.5c4.5-6.4,4.5-11.7-3.5-16.7c-7-4.3-7.2-15-1.7-22.5
		c6.2-8.9,5.6-14.4-2.9-24.5c-4.9-5.6-12.6-6.6-21.7-1.7c1.7,2.9,3.9,5.8,4.9,8.9c1,3.3,2.3,8.2,0.8,9.9c-2.1,2.3-7.4,3.9-10.5,2.9
		c-5.6-1.4-9.9-1.7-15.1,1.2c-7.2,4.3-21,0-27.8-7.4c-6.8-7.4-8.7-21-4.1-28.7c9.7-16.3,7.4-22.9-10.1-29.5c-3.5-1.4-7-2.9-10.1-5
		c-6.6-4.7-11.1-2.5-13.2,4.3c-1.9,6-3.7,12.4-3.9,18.6c-0.6,15.1-7.2,26.2-21.2,30.5c-9.1,2.7-10.7,7.8-8.9,15.9
		c5.4,25-11.7,47-37.1,46.4c-14-0.4-22.1,5.8-27.4,17.9c-3.9,8.9-8.3,17.3-19.6,19.4c-14.4,2.7-24.5-6.2-27.4-16.1
		c-0.8-2.3-1.6-6-2.9-6.4c-10.3-3.1-9.1-6.2-0.8-10.9c1.7-1,2.9-5,2.5-7.6c-1.2-9.1-2.7-18.3-4.9-27.2c-1-3.5-3.3-7.4-6.2-9.7
		c-5.6-4.5-9.5-9.5-5.8-16.3c3.7-6.8,9.9-7,16.9-4.1c2.3,1,7.4,0.2,8.5-1.6C451.9,719.6,456.4,711.4,461.4,703.3z M859.9,291.2
		c7,4.3,12.4,4.5,17.5-0.8c4.1-4.1,8-8.5,12.8-11.7c17.3-10.9,17.5-10.7,4.9-26c-0.6-0.8-1.2-1.9-1.9-2.1c-3.5-1.2-7.4-3.1-10.9-2.7
		c-10.3,1.4-20.6,3.3-30.7,5.6c-2.1,0.6-5.8,4.3-5.4,5c3.3,7.2,2.3,17.9,14.6,18.6c2.1,0.2,4.3,3.3,6.8,5.4
		C864.9,285.6,862.8,287.9,859.9,291.2z M366.7,671.6c0.2,0,0.4,0,0.8,0c0-6.2,0.8-12.4-0.2-18.3c-0.6-3.9-3.7-7.4-5.8-11.1
		c-3.7,2.3-8.5,3.9-10.7,7.2c-5.4,8.5-9.7,17.9-14.6,26.8c-4.3,7.8-2.5,14.6,2.3,21.2c1.7,2.3,2.9,5,5,6.8c3.1,2.5,8.5,7,9.7,6.2
		c5.8-4.3,13.2-9.1,15.1-15.3C370.4,688.1,367.3,679.6,366.7,671.6z M666.5,606.4c0.4-7.4-2.5-9.7-9.9-7.6
		c-4.7,1.4-11.8,3.5-14.6,1.2c-9.7-8-14.4-2.3-20,4.7c-2.5,3.1-6.8,4.9-9.5,7.8c-7.6,8.2-15.3,16.3-22.1,25c-1.4,1.7,1,6.2,1.7,9.3
		c2.5-1,5.8-1.4,7.4-3.3c2.3-2.7,4.1-6.4,5.2-10.1c3.1-10.3,8.9-16.5,19.8-19.8c10.1-2.9,18.1,1.2,27,3.5
		C660.7,620.2,666.7,615.9,666.5,606.4z M460.7,200.2c0-9.7-10.3-20.2-16.3-17.9c-5.6,2.1-11.1,5-16.1,8.2
		c-6.2,3.9-5.8,10.1,0.8,13.4c6.8,3.5,13.8,6.6,21,9.3c1.9,0.8,5.8-0.4,6.8-1.9C458.7,207.3,459.7,202.9,460.7,200.2z M301.2,488.7
		c2.3,6.6-4.9,15.5,6.6,16.9c5.4,0.6,11.8-0.8,10.9-8.3C317.5,487.3,309.8,488.3,301.2,488.7z M342,245.2
		c8.3-0.2,11.3-4.9,11.3-10.1c0-2.9-3.9-6-6-8.9c-4.3,4.1-8.5,8-12.8,12C337,240.6,339.5,242.9,342,245.2z"/>
	<path d="M1023,719.6c2.1-0.2,4.5-0.6,8.2-1c-7.4-12.4-0.8-21.4,7.2-29.3c8.2-8.2,18.3-11.7,30.5-7.6c0-2.9,0.2-5,0-7.2
		c-0.4-6-0.6-12.2-1.6-18.3c-0.6-3.3-1.7-8.3-4.1-9.3c-4.3-1.9-9.5-1.4-11.3,5c-0.4,1.2-1.2,2.3-1.7,3.5
		c-7.2,15.3-9.5,15.5-24.1,11.8c-11.5-2.9-18.4-13.4-16.9-23.3c1.7-11.1,12-20.2,23.9-19.4c11.1,0.8,15.3-2.9,16.9-14.2
		c1-7.4,7-14,10.1-21.2c1.2-2.5,1.4-7.2-0.2-8.7c-5.4-5.6-11.1-11.1-21-7.2c-6.4,2.5-13.6,0-17.1-7.2c-3.3-6.8-2.7-13.2,2.7-18.6
		c5.6-5.6,12-5.6,19.4-2.5c5,2.1,11.3,3.9,16.3,2.5c8.5-2.3,13.8,1.4,18.6,6.8c4.9,5.6,4.1,11.7,0.8,17.9c-1.9,3.5-2.5,7.8-3.9,11.7
		c4.5,1,10.5,4.3,13.2,2.5c4.1-2.7,7.2-8.5,8.5-13.6c1.2-3.9-1.4-8.7-1.6-13.2c-0.8-15,8.3-26.8,21.6-28.5
		c12.4-1.7,25.4,7.4,28.3,20.8c1,4.7-1,10.1-1.7,15.1c-0.6,3.7-1.6,7.6-1.6,11.3c0.2,10.3,8.2,14.4,17.9,11.3
		c15.7-5,18.6-20,26.4-31.3c1.6-2.1-1.7-7-1-10.1c1.2-4.3,4.3-8.2,6.4-12.2c3.5,1.9,9.1,3.3,9.9,6c2.3,7.8,7.2,11.3,14,15
		c17.3,9.3,19,31.1,4.1,44.5c-6,5.4-9.3,11.1-10.5,19.4c-1.9,13.2-9.7,22.5-22.9,27c-13.4,4.5-24.7,0.2-33-9.5
		c-7.6-8.7-14.2-12.6-25.2-6.8c-8.9,4.7-18.1,1.9-26.4-3.1c-4.9-2.9-9.3-4.3-12.6,2.5c-3.1,6.6-0.8,9.9,5,13.2
		c14.8,8.2,17.3,20.2,7.8,34.8c-4.1,6.2-8,11.7-5.6,20.2c1.9,7.4,5.4,9.1,12.2,11.1c5,1.4,11.7,6,13,10.5c1.4,4.5-1.9,11.8-5.6,15.5
		c-4.9,5-11.8,3.5-17.7-0.8c-1.6-1.2-3.1-2.7-4.9-3.1c-3.3-0.6-7.8-2.1-9.9-0.6c-17.3,11.5-37.1,8.3-49.1-8.2
		c-2.1-2.9-7.2-4.1-10.7-6C1023.6,718.4,1023.2,719,1023,719.6z"/>
	<path d="M613.1,1139.2c-24.3,3.3-52-26.8-41.2-55.7c3.3-8.7,3.9-18.6,4.9-28c1-10.7,12.8-18.4,24.3-14.6c8.5,2.9,14.8,3.1,20-6
		c6.8-11.7,18.1-17.9,31.5-16.1c15.9,1.9,27.4,11.7,30.7,27.6c3.1,14.4-3.1,27-15,35.3c-8.2,5.6-11.8,12.6-13.6,21.9
		C651.1,1125,632.9,1140.9,613.1,1139.2z"/>
	<path d="M676.2,33.6c-1.7,10.5-1.7,20.2-5.2,28.5c-6.8,16.1-24.3,20-40.4,10.5c-13.2-8-17.1-25.6-8.3-38.8c2.3-3.5,4.9-6.8,7.8-9.7
		c6.2-5.8,4.7-8.9-2.7-12.4c-20.8-9.9-26.2-23.7-16.9-40.4c6.2-11.3,20.4-15.9,32-10.7c3.1,1.4,6.2,3.3,9.5,4.7
		c6.2,2.3,11.3,2.1,15.1-5c8.5-15.7,20.6-21.6,36.7-19c12.2,1.9,24.1,14.2,27.8,28.5c2.7,10.9-5.6,27.4-18.3,34.2
		c-7.2,3.9-12.2,7-13.2,16.5c-0.8,7.8-7.4,13.2-16.5,13.4C680.8,33.6,677.9,33.6,676.2,33.6z M670.2,26c1.7-9.1,4.1-15.7,3.7-22.1
		c-0.2-3.5-4.1-8-7.4-9.7c-1.7-1-6.8,2.1-9.3,4.3c-3.7,3.3-7.2,7.4-9.7,11.7c-1.2,1.9-0.4,7.4,1,8.2C654.8,21.1,661.8,23.1,670.2,26
		z"/>
	<path d="M455.4,950.4c-1.4,15.9-2.1,31.1-4.5,46c-2.1,13.6-10.3,23.1-23.5,28c-15.7,5.8-29.9-0.2-38.8-11.3
		c-7.6-9.3-10.1-22.9-13.6-35c-8-27.4,10.1-49.9,34.8-53.8c5-0.8,10.9,0,15.5,1.7c7.8,2.9,15.5,6.4,22.1,11.3
		C451.3,939.8,452.7,945.6,455.4,950.4z"/>
	<path d="M656.4,993.4c-20.4,0-34.8-14-34.8-34.2c0-21,14.8-35.7,35.1-36.3c15.7-0.4,36.3,15.3,35.3,36.7
		C691.5,974.7,676.2,995.9,656.4,993.4z"/>
	<path d="M418.5,69.7c-0.8,6.2-2.1,11.1-9.3,10.5c-10.3-0.6-18.3-8.7-17.1-16.7c0.2-1.6,0.6-3.3,1.4-4.7c4.1-7.6,0.6-10.9-6.4-13.6
		c-14.6-5.6-22.5-22.3-17.3-35.5c3.9-9.9,18.1-21,27-20c13,1.6,22.5,8.5,27.2,21c4.5,11.8-0.4,21.7-8.5,29.3
		c-6.8,6.2-7.4,10.7-1.4,17.5C416.6,60.7,417.2,65.6,418.5,69.7z"/>
	<path d="M826.9,73.2c-2.9,4.1-5.8,11.1-11.3,14.8c-8.2,5.6-6.4,8.9-1,14.8c12.6,13.8,3.3,45.4-14,49.3c-9.5,2.1-16.1-2.3-21.4-8.9
		c-6-7.4-5-15.7,0.6-22.9c5-6.6,10.7-12.8,16.7-18.6c5.8-5.6,5-9.3-1.2-13.8c-15-10.7-13-27.2,2.5-36.1
		C810.4,44.8,825.9,58.8,826.9,73.2z"/>
	<path d="M457.2,52.2c-3.7,1.2-6,2.5-8.3,2.5c-1.9-0.2-3.9-1.7-5.2-3.3c-0.4-0.6,0.6-3.3,1.6-3.9c1.4-0.8,4.3-1.6,4.9-0.8
		c7.2,7.2,9.7,0.2,12.8-4.3c8.7-12.6,23.5-16.7,37.7-10.1c11.7,5.2,20.2,20.6,17.5,31.1c-4.5,17.3-17.1,27.6-32.6,26.4
		c-13.8-1-27-14.4-28.2-28.3C457,59,457.2,56.5,457.2,52.2z"/>
	<path d="M947.6,42.5c0,15.9-14,29.9-29.7,29.9c-16.7,0-29.7-12.8-29.7-29.7c0-15,14.6-30.1,29.1-29.9
		C933.1,13,947.6,27.2,947.6,42.5z"/>
	<path d="M1062.6,30.5c15.5,0,28.5,12.8,28.7,28.3c0.2,16.5-12.8,29.3-29.9,29.3c-14.6,0-29.1-14.6-29.1-28.9
		C1032.5,44.4,1047.2,30.5,1062.6,30.5z"/>
	<path d="M1159.9,494.7c-1.7-15.9,13.8-29.1,28.3-27.6c13.6,1.4,26.4,14.8,25.4,28.7c-1,12.4-12.6,26.2-27.6,25.6
		C1174.8,520.9,1159.1,511.4,1159.9,494.7z"/>
	<path d="M1165.3,226.2c0.4,14-10.9,25.8-26.2,26.8c-13.4,0.8-28.5-14.2-27.2-27.2c1.9-16.7,12.8-26.8,27.4-26.6
		C1154.6,199.4,1165.5,210.6,1165.3,226.2z"/>
	<path d="M1090.9,313.8c-8,0.6-12-4.5-12.4-10.9c-0.6-12,3.1-23.3,12.2-31.8c7.4-6.8,15.3-7.6,24.5-2.5c8.5,4.9,13.4,12.2,12.4,20.8
		c-1,8.9-5.2,18.1-16.3,20.2C1104.5,311,1097.7,312.4,1090.9,313.8z"/>
	<path d="M885.9,119c-3.5,7.6-5.8,15.9-10.9,22.3c-5.4,7-15.5,6.6-22.5,1c-2.9-2.3-6.4-4.3-9.1-6.8c-1.6-1.4-3.3-3.7-3.1-5.2
		c1-6.6,2.3-13,3.9-19.4c2.7-10.3,12.6-19,20.4-18.3C876.2,93.6,883.6,103.7,885.9,119z"/>
	<path d="M901.6,982.1c0,12.8-8.5,21-21.9,21c-12.4,0-23.9-10.3-22.7-21.7c1.4-12,7.8-21.2,22.5-21.4
		C892.9,960,901.6,968.7,901.6,982.1z"/>
	<path d="M44.9,287.9c-10.7-0.2-21.9-11.5-22.1-22.5c-0.2-11.1,11.8-23.3,22.9-22.9c10.5,0.4,22.3,11.7,22.5,21.4
		C68.2,275.3,55.8,288.1,44.9,287.9z"/>
	<path d="M1241,378.4c0,10.5-10.9,20.8-21.6,20.6c-11.3-0.2-20.8-10.1-20.8-21.2c0-10.3,10.7-21.2,21-21.4
		C1229.4,356.3,1241,368.3,1241,378.4z"/>
	<path d="M466.9,883.3c-12.2-0.8-18.3-5.8-19.6-14c-1.2-6-4.5-7.6-8.9-9.7c-2.9-1.4-6-4.7-6.8-7.6c-0.6-2.1,1.9-7,3.9-7.6
		c3.1-0.8,8,0,10.3,1.9c4.7,4.1,8.5,4.3,14.6,3.7c5.4-0.4,12.8,2.7,16.5,6.8c2.9,3.3,3.5,11.3,1.6,15.5
		C475.8,877.4,469.8,880.7,466.9,883.3z"/>
	<path d="M1166.7,338.8c-10.9,0.2-20.4-9.1-20.4-19.8c-0.2-10.3,9.7-20.6,19.8-20.6c10.3-0.2,20.4,9.7,20.4,20
		C1186.9,329.1,1177.5,338.6,1166.7,338.8z"/>
	<path d="M1113.3,787.5c-9.9,0-19.8-9.3-19.6-18.6c0-10.1,9.7-20.2,19.4-20.4c8.9,0,19.4,10.1,19.6,19
		C1132.9,778,1123.6,787.5,1113.3,787.5z"/>
	<path d="M1005.9,82.3c0,10.5-8.7,19-19.6,19.2c-10.3,0.2-20.4-9.7-20.4-20s10.3-20.4,20.4-20.2C996.6,61.7,1005.9,71.6,1005.9,82.3
		z"/>
	<path d="M1047.1,313c0,10.3-9.1,19.8-19.4,19.6c-8.5,0-18.8-10.7-19-19.8c-0.2-8.9,10.5-20,19.6-20.4
		C1036.8,292.2,1046.9,303.3,1047.1,313z"/>
	<path d="M1150.2,418.4c-10.9,0-19.6-8.7-19.4-19.4c0.2-8.3,10.5-18.6,18.8-19c8.9-0.4,19.4,10.5,19.4,20.2
		C1169.2,410.8,1161.4,418.4,1150.2,418.4z"/>
	<path d="M328.8,972.2c-9.3-0.2-15.1-5.6-15.3-14.6c-0.2-8.9,6.6-15.1,16.1-15.1c9.5,0,15.1,6,15,15.9
		C344.3,967,338.1,972.4,328.8,972.2z"/>
	<path d="M515.6,1000.5c-0.4,7.8-6.8,14.2-14,14.2c-7.6,0-14.4-7.6-14-15.5c0.4-8.2,7.4-14.6,15.3-14
		C510,985.6,515.8,993,515.6,1000.5z"/>
	<path d="M192.9,698.4c0.2,8.7-4.9,14-13.2,14c-8.3,0.2-14.2-5.2-14.4-13.2c0-8,6.8-15,14.4-15C186.1,684.4,192.7,691.6,192.9,698.4
		z"/>
	<path d="M746.5,60.6c0-7.8,6.6-14.8,14.4-14.8c7.6,0,15.7,7.8,15.9,15c0.2,6.6-9.3,15.5-16.1,15.3
		C753.1,75.9,746.5,68.7,746.5,60.6z"/>
	<path d="M738.1,70.5c-6.2,5.6-9.7,10.9-14.4,12.2c-3.1,1-8.3-2.9-11.8-5.6c-3.9-2.9-7-6.8-9.9-10.9c-1.4-1.9-2.3-5.2-1.7-7.6
		c0.4-1.6,4.1-2.9,6.2-2.9c5.4,0.2,11.3,0.2,15.9,2.3C727.6,60.4,731.5,65,738.1,70.5z"/>
	<path d="M1010.7,480.9c0-6.6,6.6-13.4,12.8-13.2c5.8,0.2,13.4,7.4,13.6,13c0.2,6.8-6.8,13.6-13.6,13.6
		C1016.8,493.9,1010.9,487.9,1010.7,480.9z"/>
	<path d="M1025.1,767.7c7.8-0.4,11.8,4.3,12.2,10.9c0.4,6.6-4.7,11.8-10.9,10.5c-4.5-1-10.5-6-11.5-10.3
		C1013.9,773.6,1017.2,767.3,1025.1,767.7z"/>
	<path d="M70,525.8c-3.7,2.5-7.2,6.2-11.3,7c-5.8,1.2-10.5-3.5-9.3-9.1c1-3.9,5.8-8.9,9.5-9.5c3.3-0.4,7.4,4.7,11.1,7.2
		C70,523.1,70,524.4,70,525.8z"/>
	<path d="M421.6,903.8c-5,4.5-8.2,7.2-11.1,9.7c-2.9-3.3-6.8-6.2-8-10.1c-0.6-1.7,4.7-7.2,7.4-7.2
		C413.1,896.5,416.4,900.3,421.6,903.8z"/>
	<path d="M760.3,956.5c3.9,5.4,8.3,8.9,7.8,11.5c-0.8,3.3-5.2,7.6-8.3,7.8c-2.5,0.2-7.6-4.9-7.8-7.8
		C751.9,964.8,756.4,961.7,760.3,956.5z"/>
	<path d="M1035.2,584c3.7,4.9,7.6,7.6,7.4,10.3c-0.2,2.5-4.5,4.7-7,7c-2.1-2.5-5.6-4.7-6.2-7.6C1029,591.4,1032.3,588.7,1035.2,584z
		"/>
	<path d="M1189.2,249.9c-4.1-5.6-8-8.9-7.6-11.5c0.6-3.1,4.7-5.4,7.4-8.2c2.5,2.5,6.8,4.9,7,7.4
		C1196.2,240.6,1192.7,243.9,1189.2,249.9z"/>
	<path d="M928.6,997.4c-3.9-5-8-8.2-7.6-10.3c0.6-2.9,4.7-5,7.2-7.6c2.1,2.7,5.4,5,6.2,8.2C935,989.5,931.7,992.4,928.6,997.4z"/>
	<path d="M1067.6,244c-4.5,2.7-7.2,5.4-9.5,5.2c-2.5-0.2-7.2-4.1-6.8-4.9c1.4-3.5,4.1-6.6,6.4-9.7
		C1060.5,237.2,1063,239.8,1067.6,244z"/>
	<path d="M1209.6,415.9c-5,3.3-8,6.6-10.5,6.2c-2.3-0.2-4.3-4.3-6.4-6.8c2.5-2.1,4.7-5.6,7.6-6.2
		C1202.2,408.9,1204.9,412.4,1209.6,415.9z"/>
	<path d="M1070.2,767.1c-1.9-3.1-4.7-5.8-5.4-9.1c-0.4-1.4,3.3-4.9,5.4-5.2c1.9-0.4,6.2,2.5,6.2,3.9c0,3.3-1.9,6.8-3.1,10.1
		C1072.3,767,1071.1,767,1070.2,767.1z"/>
	<path d="M1106.3,845.6c-3.7-4.5-7.2-7-6.8-8.3c0.8-2.7,3.9-4.9,6-7.4c1.9,1.9,5.4,3.7,5.6,5.8
		C1111.5,838,1108.8,840.7,1106.3,845.6z"/>
	<path d="M863.8,790.6c2.7,3.7,5.8,5.8,5.6,7.6c-0.2,2.1-3.3,3.9-5,5.8c-1.7-1.7-4.9-3.3-5-5.2C858.9,797,861.4,794.7,863.8,790.6z"
		/>
	<path d="M210.6,832.8c3.7,4.1,7.4,6.6,7.4,8.7c-0.2,2.1-4.3,4.3-6.6,6.4c-1.7-1.9-4.9-3.9-5-6.2C205.9,839.6,208.2,837,210.6,832.8
		z"/>
	<path d="M635.8,111.4c1.9-2.7,4.1-5.4,6-8.2c2.3,1.7,4.7,3.5,7,5.2c-3.1,2.3-6,4.5-9.1,6.8C638.5,114.1,637.2,112.8,635.8,111.4z"
		/>
	<path d="M1011.3,1015.5c2.9,2.7,4.9,4.5,7,6c-2.1,2.3-4.3,4.7-6.4,7c-1.7-1.9-4.7-3.7-4.9-5.8
		C1006.9,1020.7,1009.4,1018.6,1011.3,1015.5z"/>
	<path d="M858.7,921.7c3.3-0.4,6.4-1,9.7-1.4c0,2.3,0.4,6.4-0.2,6.6c-2.9,0.6-6.2,0.4-9.3,0.4C858.7,925.4,858.7,923.5,858.7,921.7z
		"/>
	<path d="M1016.4,525.8c-2.1-3.3-4.5-5.4-4.1-6.8c0.8-2.1,3.3-3.7,5-5.4c1.6,1.9,3.9,3.9,4.5,6
		C1022,520.9,1019.1,522.9,1016.4,525.8z"/>
</g>
</svg>
