<?xml version="1.0" encoding="UTF-8"?>
<svg width="120px" height="120px" viewBox="0 0 120 120" version="1.1" xmlns="http://www.w3.org/2000/svg" xmlns:xlink="http://www.w3.org/1999/xlink">
    <!-- Generator: Sketch 53.1 (72631) - https://sketchapp.com -->
    <title>sign-3</title>
    <desc>Created with Sketch.</desc>
    <g id="sign-3" stroke="none" stroke-width="1" fill="none" fill-rule="evenodd">
        <path d="M51.21875,80.8779297 L60.6669922,87.7773438 L58.6894531,89.2275391 L47,80.8779297 L56.6679688,73.9785156 L47,67.0351562 L56.6679688,60.1357422 L47,53.2363281 L56.6679688,46.3369141 L47,39.3935547 L58.6894531,31 L60.6669922,32.4501953 L51.21875,39.3935547 L60.6669922,46.2490234 L60.6230469,46.3369141 L60.6669922,46.3369141 L51.21875,53.2363281 L60.6669922,60.0917969 L60.6230469,60.1357422 L60.6669922,60.1357422 L51.21875,67.0351562 L60.6669922,73.890625 L60.6230469,73.9785156 L60.6669922,73.9785156 L51.21875,80.8779297 Z M64.4023438,80.8779297 L73.8505859,87.7773438 L71.8730469,89.2275391 L60.1835938,80.8779297 L69.8515625,73.9785156 L60.1835938,67.0351562 L69.8515625,60.1357422 L60.1835938,53.2363281 L69.8515625,46.3369141 L60.1835938,39.3935547 L71.8730469,31 L73.8505859,32.4501953 L64.4023438,39.3935547 L73.8505859,46.2490234 L73.8066406,46.3369141 L73.8505859,46.3369141 L64.4023438,53.2363281 L73.8505859,60.0917969 L73.8066406,60.1357422 L73.8505859,60.1357422 L64.4023438,67.0351562 L73.8505859,73.890625 L73.8066406,73.9785156 L73.8505859,73.9785156 L64.4023438,80.8779297 Z" id="⧛" fill="#000000" fill-rule="nonzero"></path>
    </g>
</svg>