<?xml version="1.0" encoding="UTF-8"?>
<svg width="120px" height="120px" viewBox="0 0 120 120" version="1.1" xmlns="http://www.w3.org/2000/svg" xmlns:xlink="http://www.w3.org/1999/xlink">
    <!-- Generator: Sketch 53.1 (72631) - https://sketchapp.com -->
    <title>sign-4</title>
    <desc>Created with Sketch.</desc>
    <g id="sign-4" stroke="none" stroke-width="1" fill="none" fill-rule="evenodd">
        <path d="M45.7890625,91.3691406 C49.3925961,87.5605278 51.9853437,84.1108553 53.5673828,81.0200195 C55.149422,77.9291838 56.3652301,74.5527527 57.2148438,70.890625 C57.3613289,70.2167935 57.4931635,69.5429721 57.6103516,68.8691406 L37,60.1679688 L57.7421875,51.7304688 C57.5957024,50.8222611 57.4199229,49.914067 57.2148438,49.0058594 C56.3652301,45.3144347 55.149422,41.9160312 53.5673828,38.8105469 C51.9853437,35.7050626 49.3925961,32.2480659 45.7890625,28.4394531 L50.6230469,28.4394531 C53.2890758,30.7832148 55.7866094,33.7641421 58.1157227,37.3823242 C60.4448359,41.0005064 62.1074169,44.7284964 63.1035156,48.5664062 L63.3232422,49.4453125 L69.3876953,46.984375 C68.5673787,43.9081877 67.4834052,41.0371227 66.1357422,38.3710938 C64.553703,35.2656095 61.9609555,31.8086128 58.3574219,28 L63.1914062,28 C65.8574352,30.3437617 68.3476447,33.3320131 70.6621094,36.9648438 C72.3320396,39.5136846 73.6650341,42.1357287 74.6611328,44.8310547 L83.7138672,41.1396484 L83.7138672,46.9404297 L76.1552734,50.0605469 C76.858402,53.2246252 77.2099609,56.3593595 77.2099609,59.4648438 C77.2099609,63.0683774 76.7412156,66.7158019 75.8037109,70.4072266 L83.7138672,73.703125 L83.7138672,79.8554688 L74.0019531,75.7685547 C73.0937455,77.9072373 71.9804753,79.9872946 70.6621094,82.0087891 C68.3476447,85.6416197 65.8574352,88.6152228 63.1914062,90.9296875 L58.3574219,90.9296875 C61.9609555,87.1210747 64.553703,83.664078 66.1357422,80.5585938 C67.249029,78.4199112 68.1718713,76.1201295 68.9042969,73.6591797 L63.1474609,71.1982422 C63.1474609,71.2275392 63.1328126,71.2568358 63.1035156,71.2861328 C62.1074169,75.1240426 60.4448359,78.8520327 58.1157227,82.4702148 C55.7866094,86.088397 53.2890758,89.0546759 50.6230469,91.3691406 L45.7890625,91.3691406 Z M71.0576172,59.4648438 C71.0576172,57.121082 70.8671894,54.7627072 70.4863281,52.3896484 L64.3339844,54.8945312 C64.5390635,56.5937585 64.6416016,58.2636637 64.6416016,59.9042969 C64.6416016,61.7793062 64.5097669,63.6689358 64.2460938,65.5732422 L70.2666016,68.078125 C70.7939479,65.2070169 71.0576172,62.3359519 71.0576172,59.4648438 Z M58.4892578,59.9042969 C58.4892578,59.0546833 58.4599612,58.2050824 58.4013672,57.3554688 L51.5019531,60.1679688 L58.3574219,63.0683594 C58.4453129,62.0136666 58.4892578,60.9589896 58.4892578,59.9042969 Z" id="⦖" fill="#000000" fill-rule="nonzero"></path>
    </g>
</svg>