<?xml version="1.0" encoding="UTF-8"?>
<svg width="120px" height="120px" viewBox="0 0 120 120" version="1.1" xmlns="http://www.w3.org/2000/svg" xmlns:xlink="http://www.w3.org/1999/xlink">
    <!-- Generator: Sketch 53.1 (72631) - https://sketchapp.com -->
    <title>sign-6</title>
    <desc>Created with Sketch.</desc>
    <g id="sign-6" stroke="none" stroke-width="1" fill="none" fill-rule="evenodd">
        <path d="M43.6769231,66.0153846 C43.6564102,66.8564145 43.6358975,68.0256335 43.6153846,69.5230769 C43.5948717,71.0205203 43.5743591,72.7230674 43.5538462,74.6307692 C43.5333332,76.5384711 43.5076925,78.5897326 43.4769231,80.7846154 C43.4461537,82.9794982 43.4102566,85.1897325 43.3692308,87.4153846 C43.3282049,89.6410368 43.2717952,91.815374 43.2,93.9384615 C43.1282048,96.0615491 43.0410262,98.0051194 42.9384615,99.7692308 C42.8358969,101.533342 42.7128212,103.056404 42.5692308,104.338462 C42.4256403,105.620519 42.2615394,106.538459 42.0769231,107.092308 C41.5230742,108.692316 40.8359015,110.015379 40.0153846,111.061538 C39.1948677,112.107698 38.2000058,112.928202 37.0307692,113.523077 C36.4974332,113.810258 35.9128237,114.035897 35.2769231,114.2 C34.6410225,114.364103 34.0359003,114.487179 33.4615385,114.569231 C32.8871766,114.651282 32.3794894,114.707692 31.9384615,114.738462 C31.4974337,114.769231 31.1846163,114.784615 31,114.784615 C31.0205129,114.784615 31.2461517,114.630771 31.6769231,114.323077 C32.1076945,114.015383 32.6051254,113.630772 33.1692308,113.169231 C33.7333362,112.70769 34.2871768,112.205131 34.8307692,111.661538 C35.3743617,111.117946 35.7897422,110.600002 36.0769231,110.107692 C36.2820523,109.73846 36.4666658,109.415386 36.6307692,109.138462 C36.7948726,108.861537 36.9487172,108.569232 37.0923077,108.261538 C37.2358982,107.953845 37.3846146,107.589746 37.5384615,107.169231 C37.6923085,106.748716 37.8717938,106.200003 38.0769231,105.523077 C38.2205135,105.05128 38.3487174,104.220519 38.4615385,103.030769 C38.5743595,101.84102 38.6717945,100.425649 38.7538462,98.7846154 C38.8358978,97.1435815 38.9025638,95.3333432 38.9538462,93.3538462 C39.0051285,91.3743491 39.0512818,89.3692409 39.0923077,87.3384615 C39.1333335,85.3076822 39.1692306,83.3077022 39.2,81.3384615 C39.2307694,79.3692209 39.251282,77.5692389 39.2615385,75.9384615 C39.2717949,74.3076842 39.2769231,72.9076982 39.2769231,71.7384615 L39.2769231,69.3384615 C39.2564102,64.5179246 39.6153809,60.430786 40.3538462,57.0769231 C41.0923114,53.7230602 42.1384548,51.1333425 43.4923077,49.3076923 C44.4564151,48.0153782 45.5692245,46.8871843 46.8307692,45.9230769 C48.092314,44.9589695 49.4820437,44.2717969 51,43.8615385 C51.533336,43.6974351 52.2102523,43.5897438 53.0307692,43.5384615 C53.8512862,43.4871792 54.6512782,43.4615385 55.4307692,43.4615385 C55.4512822,42.1487114 55.5897423,40.8718011 55.8461538,39.6307692 C56.1025654,38.3897374 56.4410235,37.2000057 56.8615385,36.0615385 C57.2820534,34.9230712 57.7640998,33.8461589 58.3076923,32.8307692 C58.8512848,31.8153795 59.4205098,30.8871837 60.0153846,30.0461538 C60.6307723,29.1640982 61.3794828,28.3333372 62.2615385,27.5538462 C63.1435942,26.7743551 64.0615337,26.071798 65.0153846,25.4461538 C65.9692355,24.8205097 66.917944,24.2871817 67.8615385,23.8461538 C68.8051329,23.405126 69.6461502,23.071796 70.3846154,22.8461538 C71.1230806,22.5999988 71.9179445,22.2871814 72.7692308,21.9076923 C73.6205171,21.5282032 74.4871751,21.0974383 75.3692308,20.6153846 C76.2512865,20.1333309 77.1384571,19.6102592 78.0307692,19.0461538 C78.9230814,18.4820485 79.7692268,17.9025671 80.5692308,17.3076923 C81.9025708,16.323072 83.1128151,15.1794937 84.2,13.8769231 C85.2871849,12.5743525 86.2615342,11.0820597 87.1230769,9.4 C87.4717966,8.68204769 87.8102548,7.94872169 88.1384615,7.2 C88.4666683,6.45127831 88.8051265,5.71795231 89.1538462,5 C89.0307686,5.88205569 88.9076929,6.75897 88.7846154,7.63076923 C88.6615378,8.50256846 88.5282058,9.36922646 88.3846154,10.2307692 C87.9743569,12.3436003 87.3794911,14.1846075 86.6,15.7538462 C85.8205089,17.3230848 84.8871849,18.7230708 83.8,19.9538462 C83.0820477,20.7538502 82.2974402,21.5128169 81.4461538,22.2307692 C80.5948675,22.9487215 79.7076969,23.6102534 78.7846154,24.2153846 C77.8615338,24.8205158 76.9282098,25.358972 75.9846154,25.8307692 C75.0410209,26.3025665 74.1179532,26.6923062 73.2153846,27 C72.4769194,27.2461551 71.6615429,27.5384598 70.7692308,27.8769231 C69.8769186,28.2153863 68.989748,28.6410231 68.1076923,29.1538462 C67.2256366,29.6666692 66.3897475,30.2666632 65.6,30.9538462 C64.8102525,31.6410291 64.1589769,32.4461492 63.6461538,33.3692308 C63.1743566,34.1897477 62.6974383,35.0923028 62.2153846,36.0769231 C61.7333309,37.0615434 61.2923097,38.148712 60.8923077,39.3384615 C60.4923057,40.5282111 60.169232,41.8307622 59.9230769,43.2461538 C59.6769218,44.6615455 59.5538462,46.210248 59.5538462,47.8923077 C59.4717945,47.8717948 59.3282062,47.8564103 59.1230769,47.8461538 C58.9179477,47.8358974 58.6871808,47.8256411 58.4307692,47.8153846 C58.1743577,47.8051282 57.9128218,47.7948718 57.6461538,47.7846154 C57.3794858,47.7743589 57.1538471,47.7692308 56.9692308,47.7692308 C53.7692148,47.7692308 51.1025748,48.5076849 48.9692308,49.9846154 C48.107688,50.5794902 47.3589775,51.4512763 46.7230769,52.6 C46.0871763,53.7487237 45.5538483,55.0564029 45.1230769,56.5230769 C44.6923055,57.9897509 44.3589755,59.5435815 44.1230769,61.1846154 C43.8871783,62.8256492 43.7384618,64.4358895 43.6769231,66.0153846 Z" id="༼" fill="#000000" fill-rule="nonzero"></path>
    </g>
</svg>