<?xml version="1.0" encoding="UTF-8"?>
<svg width="120px" height="120px" viewBox="0 0 120 120" version="1.1" xmlns="http://www.w3.org/2000/svg" xmlns:xlink="http://www.w3.org/1999/xlink">
    <!-- Generator: Sketch 53.1 (72631) - https://sketchapp.com -->
    <title>sign-5</title>
    <desc>Created with Sketch.</desc>
    <g id="sign-5" stroke="none" stroke-width="1" fill="none" fill-rule="evenodd">
        <path d="M58.9404297,71.5732422 C63.1592008,71.5732422 66.8652184,69.9326336 70.0585938,66.6513672 C73.2519691,63.3701008 74.8486328,59.5615451 74.8486328,55.2255859 C74.8486328,50.6552506 73.2373208,46.751481 70.0146484,43.5141602 C66.7919761,40.2768393 62.8955307,38.6582031 58.3251953,38.6582031 L40.0439453,38.6582031 L40,34.1757812 L59.0722656,34 C64.4922146,34 69.3115023,36.1240022 73.5302734,40.3720703 C77.4853713,44.3271682 79.4628906,49.2782906 79.4628906,55.2255859 C79.4628906,60.9970992 77.368185,65.9628698 73.1787109,70.1230469 C69.165019,74.1074418 64.6386971,76.0996094 59.5996094,76.0996094 L40.0878906,76.0996094 L40.0439453,71.5292969 L58.9404297,71.5732422 Z M79.4189453,80.7138672 L79.4628906,85.4599609 L40.1318359,85.4599609 L40.1318359,80.8457031 L79.4189453,80.7138672 Z" id="⊇" fill="#000000" fill-rule="nonzero"></path>
    </g>
</svg>