<?xml version="1.0" encoding="UTF-8"?>
<svg width="120px" height="120px" viewBox="0 0 120 120" version="1.1" xmlns="http://www.w3.org/2000/svg" xmlns:xlink="http://www.w3.org/1999/xlink">
    <!-- Generator: Sketch 53.1 (72631) - https://sketchapp.com -->
    <title>sign-1</title>
    <desc>Created with Sketch.</desc>
    <g id="sign-1" stroke="none" stroke-width="1" fill="none" fill-rule="evenodd">
        <path d="M32.4192308,59.6269231 C32.4653848,56.8115244 33.0423022,54.2038582 34.15,51.8038462 C35.2576978,49.4038342 36.7749904,47.332701 38.7019231,45.5903846 C40.6288558,43.8480682 42.8903716,42.4807742 45.4865385,41.4884615 C48.0827053,40.4961489 50.8807542,40 53.8807692,40 C56.4192435,40 58.7211435,40.3519196 60.7865385,41.0557692 C62.8519334,41.7596189 64.6115312,42.6826866 66.0653846,43.825 C67.519238,44.9673134 68.6384576,46.2596082 69.4230769,47.7019231 C70.2076962,49.144238 70.6,50.6038388 70.6,52.0807692 C70.6,53.5807767 70.2538496,54.9653783 69.5615385,56.2346154 C68.8692273,57.5038525 67.8192378,58.5999954 66.4115385,59.5230769 C65.0038391,60.4461585 63.2211646,61.1673051 61.0634615,61.6865385 C58.9057584,62.2057718 56.3615531,62.4653846 53.4307692,62.4653846 L49.6923077,57.1346154 L51.9076923,57.1346154 C54.9538614,57.1346154 57.2615306,56.6961582 58.8307692,55.8192308 C60.4000078,54.9423033 61.1846154,53.8230837 61.1846154,52.4615385 C61.1846154,51.7692273 61.0173094,51.0826957 60.6826923,50.4019231 C60.3480752,49.7211504 59.8807722,49.1096181 59.2807692,48.5673077 C58.6807662,48.0249973 57.9653888,47.5865401 57.1346154,47.2519231 C56.303842,46.917306 55.3923127,46.75 54.4,46.75 C52.8769155,46.75 51.3365462,47.0615353 49.7788462,47.6846154 C48.2211461,48.3076954 46.819237,49.1730714 45.5730769,50.2807692 C44.3269168,51.3884671 43.3115424,52.7096077 42.5269231,54.2442308 C41.7423038,55.7788538 41.35,57.4576832 41.35,59.2807692 C41.35,60.3884671 41.4653835,61.5249942 41.6961538,62.6903846 C41.9269242,63.8557751 42.2788438,64.9923022 42.7519231,66.1 C43.2250024,67.2076978 43.8192272,68.2576873 44.5346154,69.25 C45.2500036,70.2423127 46.0923028,71.1076886 47.0615385,71.8461538 C48.0307741,72.5846191 49.126917,73.1730747 50.35,73.6115385 C51.573083,74.0500022 52.9230695,74.2692308 54.4,74.2692308 C55.6461601,74.2692308 57.1288376,73.8942345 58.8480769,73.1442308 C60.5673163,72.394227 62.5057584,71.3326992 64.6634615,69.9596154 C66.8211646,68.5865316 69.1807564,66.9250097 71.7423077,64.975 C74.303859,63.0249903 77.0269087,60.850012 79.9115385,58.45 C82.4961668,56.3038354 85.0230646,54.255779 87.4923077,52.3057692 C89.9615508,50.3557595 92.4769103,48.6423151 95.0384615,47.1653846 C97.6000128,45.6884542 100.259602,44.517312 103.017308,43.6519231 C105.775014,42.7865341 108.746138,42.3538462 111.930769,42.3538462 L113.592308,42.3538462 L115.565385,43.6 C112.680755,43.7153852 110.073089,44.1942266 107.742308,45.0365385 C105.411527,45.8788504 103.219241,46.9980699 101.165385,48.3942308 C99.1115282,49.7903916 97.1153943,51.4115292 95.1769231,53.2576923 C93.2384518,55.1038554 91.2307796,57.0769126 89.1538462,59.1769231 L89.1538462,59.1423077 L85.5884615,62.7769231 C83.9961459,64.3230847 82.5307759,65.7884546 81.1923077,67.1730769 C79.1384513,69.2730874 77.2577008,71.1307612 75.55,72.7461538 C73.8422992,74.3615465 72.1230856,75.7230714 70.3923077,76.8307692 C68.6615298,77.9384671 66.8211636,78.7807663 64.8711538,79.3576923 C62.9211441,79.9346183 60.6538591,80.2346153 58.0692308,80.2576923 C53.7307475,80.2807693 49.9692467,79.7903896 46.7846154,78.7865385 C43.5999841,77.7826873 40.9519336,76.3750091 38.8403846,74.5634615 C36.7288356,72.751914 35.142313,70.5769358 34.0807692,68.0384615 C33.0192255,65.4999873 32.4653848,62.6961692 32.4192308,59.6269231 Z M23.9730769,66.0653846 C22.842302,66.0653846 21.8557734,65.8980786 21.0134615,65.5634615 C20.1711496,65.2288445 19.4673105,64.7730798 18.9019231,64.1961538 C18.3365356,63.6192279 17.9096168,62.9615422 17.6211538,62.2230769 C17.3326909,61.4846117 17.1884615,60.7346192 17.1884615,59.9730769 C17.1884615,59.2115347 17.3326909,58.455773 17.6211538,57.7057692 C17.9096168,56.9557655 18.3365356,56.2865414 18.9019231,55.6980769 C19.4673105,55.1096124 20.1769188,54.6365402 21.0307692,54.2788462 C21.8846197,53.9211521 22.8653791,53.7423077 23.9730769,53.7423077 C25.19616,53.7192307 26.2692262,53.8749983 27.1923077,54.2096154 C28.1153892,54.5442324 28.8826892,54.9999971 29.4942308,55.5769231 C30.1057723,56.153849 30.561537,56.8057656 30.8615385,57.5326923 C31.16154,58.259619 31.3115385,59.0153807 31.3115385,59.8 C31.3115385,60.5846193 31.1557708,61.3519193 30.8442308,62.1019231 C30.5326908,62.8519268 30.0711569,63.5211509 29.4596154,64.1096154 C28.8480739,64.6980799 28.0807738,65.1711521 27.1576923,65.5288462 C26.2346108,65.8865402 25.1730829,66.0653846 23.9730769,66.0653846 Z M24.0423077,56.3730769 C23.649998,56.3730769 23.3038477,56.4711529 23.0038462,56.6673077 C22.7038447,56.8634625 22.4557702,57.1288445 22.2596154,57.4634615 C22.0634606,57.7980786 21.9134621,58.1730748 21.8096154,58.5884615 C21.7057687,59.0038482 21.6538462,59.430767 21.6538462,59.8692308 C21.6538462,60.2615404 21.6999995,60.648075 21.7923077,61.0288462 C21.8846158,61.4096173 22.023076,61.7499985 22.2076923,62.05 C22.3923086,62.3500015 22.6173064,62.5923068 22.8826923,62.7769231 C23.1480782,62.9615394 23.4653828,63.0538462 23.8346154,63.0538462 C24.3192332,63.0538462 24.7346137,62.9557702 25.0807692,62.7596154 C25.4269248,62.5634606 25.7211526,62.3096169 25.9634615,61.9980769 C26.2057704,61.6865369 26.3846148,61.323079 26.5,60.9076923 C26.6153852,60.4923056 26.6730769,60.0769252 26.6730769,59.6615385 C26.6730769,59.2461518 26.6211544,58.8423097 26.5173077,58.45 C26.413461,58.0576903 26.2519242,57.7057708 26.0326923,57.3942308 C25.8134604,57.0826907 25.5365401,56.8346163 25.2019231,56.65 C24.867306,56.4653837 24.4807714,56.3730769 24.0423077,56.3730769 Z M10.9230769,56.5807692 C9.79230204,56.5807692 8.80000427,56.407694 7.94615385,56.0615385 C7.09230342,55.7153829 6.38269513,55.253849 5.81730769,54.6769231 C5.25192025,54.0999971 4.83077062,53.4423114 4.55384615,52.7038462 C4.27692169,51.9653809 4.13846154,51.2153884 4.13846154,50.4538462 C4.13846154,49.6923039 4.28269087,48.9365422 4.57115385,48.1865385 C4.85961683,47.4365347 5.28653563,46.7730798 5.85192308,46.1961538 C6.41731052,45.6192279 7.12114963,45.157694 7.96346154,44.8115385 C8.80577344,44.4653829 9.79230204,44.2923077 10.9230769,44.2923077 C12.14616,44.2692307 13.2192262,44.4249983 14.1423077,44.7596154 C15.0653892,45.0942324 15.8326892,45.5442279 16.4442308,46.1096154 C17.0557723,46.6750028 17.511537,47.3269194 17.8115385,48.0653846 C18.11154,48.8038498 18.2615385,49.5538423 18.2615385,50.3153846 C18.2615385,51.1000039 18.1057708,51.8673039 17.7942308,52.6173077 C17.4826908,53.3673114 17.0211569,54.0365355 16.4096154,54.625 C15.7980739,55.2134645 15.0307738,55.6865367 14.1076923,56.0442308 C13.1846108,56.4019249 12.1230829,56.5807692 10.9230769,56.5807692 Z M10.9923077,46.8538462 C10.599998,46.8538462 10.2596168,46.9576913 9.97115385,47.1653846 C9.68269087,47.373078 9.4403856,47.6384599 9.24423077,47.9615385 C9.04807594,48.284617 8.89807744,48.6538441 8.79423077,49.0692308 C8.6903841,49.4846175 8.63846154,49.9115363 8.63846154,50.35 C8.63846154,50.7653867 8.68461492,51.1634596 8.77692308,51.5442308 C8.86923123,51.9250019 9.00192221,52.2596139 9.175,52.5480769 C9.34807779,52.8365399 9.57307554,53.073076 9.85,53.2576923 C10.1269245,53.4423086 10.4384598,53.5346154 10.7846154,53.5346154 C11.2692332,53.5346154 11.6846137,53.4365394 12.0307692,53.2403846 C12.3769248,53.0442298 12.6653835,52.7903862 12.8961538,52.4788462 C13.1269242,52.1673061 13.2999994,51.8096174 13.4153846,51.4057692 C13.5307698,51.0019211 13.5884615,50.5807714 13.5884615,50.1423077 C13.5884615,49.726921 13.536539,49.3230789 13.4326923,48.9307692 C13.3288456,48.5384596 13.1673088,48.18654 12.9480769,47.875 C12.7288451,47.56346 12.4576939,47.3153855 12.1346154,47.1307692 C11.8115368,46.9461529 11.4307714,46.8538462 10.9923077,46.8538462 Z M10.7846154,73.5769231 C9.6538405,73.5769231 8.66154273,73.4096171 7.80769231,73.075 C6.95384188,72.7403829 6.2442336,72.2846183 5.67884615,71.7076923 C5.11345871,71.1307663 4.69230908,70.4730806 4.41538462,69.7346154 C4.13846015,68.9961502 4,68.2461577 4,67.4846154 C4,66.6999961 4.13846015,65.9384652 4.41538462,65.2 C4.69230908,64.4615348 5.11345871,63.803849 5.67884615,63.2269231 C6.2442336,62.6499971 6.94807271,62.1826941 7.79038462,61.825 C8.63269652,61.4673059 9.61922512,61.2884615 10.75,61.2884615 C11.9961601,61.2653845 13.0807646,61.415383 14.0038462,61.7384615 C14.9269277,62.0615401 15.6942277,62.5057664 16.3057692,63.0711538 C16.9173107,63.6365413 17.3730754,64.2884578 17.6730769,65.0269231 C17.9730784,65.7653883 18.1230769,66.5269192 18.1230769,67.3115385 C18.1230769,68.0961578 17.9673092,68.8634578 17.6557692,69.6134615 C17.3442292,70.3634653 16.8826954,71.0326894 16.2711538,71.6211538 C15.6596123,72.2096183 14.8923123,72.6826905 13.9692308,73.0403846 C13.0461492,73.3980787 11.9846214,73.5769231 10.7846154,73.5769231 Z M10.8538462,63.8846154 C10.4615365,63.8846154 10.1153861,63.9826913 9.81538462,64.1788462 C9.51538312,64.375001 9.26730867,64.6403829 9.07115385,64.975 C8.87499902,65.3096171 8.72500052,65.6846133 8.62115385,66.1 C8.51730717,66.5153867 8.46538462,66.9423055 8.46538462,67.3807692 C8.46538462,67.7730789 8.511538,68.1596135 8.60384615,68.5403846 C8.69615431,68.9211557 8.83461446,69.261537 9.01923077,69.5615385 C9.20384708,69.86154 9.42884483,70.1038452 9.69423077,70.2884615 C9.95961671,70.4730778 10.2769212,70.5653846 10.6461538,70.5653846 C11.1307717,70.5653846 11.5461521,70.4673087 11.8923077,70.2711538 C12.2384633,70.074999 12.5269219,69.8211554 12.7576923,69.5096154 C12.9884627,69.1980754 13.1615379,68.8346175 13.2769231,68.4192308 C13.3923083,68.0038441 13.45,67.5884636 13.45,67.1730769 C13.45,66.7576902 13.3980774,66.3538481 13.2942308,65.9615385 C13.1903841,65.5692288 13.0288473,65.2173092 12.8096154,64.9057692 C12.5903835,64.5942292 12.3192324,64.3461548 11.9961538,64.1615385 C11.6730753,63.9769222 11.2923099,63.8846154 10.8538462,63.8846154 Z" id="༻" fill="#000000" fill-rule="nonzero"></path>
    </g>
</svg>